<svg width="1100" height="1000" viewBox="0 0 1100 1000" fill="none" xmlns="http://www.w3.org/2000/svg">
<g opacity="0.7">
<path opacity="0.010101" d="M482.665 584.84C473.129 576.665 469.941 563.279 474.769 551.683L651.296 127.692C656.124 116.096 667.869 108.928 680.39 109.936L1138.18 146.803C1150.7 147.811 1161.15 156.767 1164.06 168.986L1270.46 615.761C1273.37 627.981 1268.08 640.684 1257.36 647.227L865.329 886.483C854.607 893.027 840.891 891.922 831.355 883.747L482.665 584.84Z" stroke="url(#paint0_linear_147_734)" stroke-opacity="0.5" stroke-width="4.70171"/>
<path opacity="0.020202" d="M476.994 579.694C467.602 571.354 464.648 557.914 469.677 546.404L653.208 126.403C658.238 114.893 670.107 107.931 682.608 109.158L1138.77 153.918C1151.27 155.145 1161.56 164.282 1164.25 176.55L1262.64 624.214C1265.34 636.482 1259.83 649.091 1249 655.447L853.646 887.358C842.812 893.713 829.117 892.37 819.725 884.029L476.994 579.694Z" stroke="url(#paint1_linear_147_734)" stroke-opacity="0.5" stroke-width="4.70171"/>
<path opacity="0.030303" d="M471.451 574.543C462.205 566.04 459.486 552.551 464.716 541.131L655.165 125.235C660.395 113.814 672.384 107.06 684.861 108.505L1139.25 161.113C1151.73 162.558 1161.86 171.873 1164.34 184.186L1254.72 632.597C1257.2 644.91 1251.48 657.421 1240.53 663.586L841.998 888.11C831.054 894.276 817.385 892.693 808.139 884.19L471.451 574.543Z" stroke="url(#paint2_linear_147_734)" stroke-opacity="0.5" stroke-width="4.70171"/>
<path opacity="0.040404" d="M466.035 569.391C456.939 560.728 454.456 547.193 459.884 535.866L657.165 124.187C662.593 112.86 674.698 106.316 687.148 107.978L1139.64 168.388C1152.09 170.05 1162.06 179.54 1164.32 191.895L1246.7 640.908C1248.96 653.263 1243.02 665.672 1231.97 671.645L830.386 888.742C819.336 894.715 805.697 892.894 796.601 884.231L466.035 569.391Z" stroke="url(#paint3_linear_147_734)" stroke-opacity="0.5" stroke-width="4.70171"/>
<path opacity="0.050505" d="M460.746 564.237C451.803 555.417 449.557 541.841 455.182 530.61L659.205 123.261C664.83 112.03 677.047 105.698 689.466 107.578L1139.92 175.737C1152.34 177.616 1162.14 187.279 1164.19 199.671L1238.57 649.145C1240.62 661.537 1234.46 673.841 1223.3 679.621L818.813 889.251C807.66 895.031 794.055 892.972 785.112 884.152L460.746 564.237Z" stroke="url(#paint4_linear_147_734)" stroke-opacity="0.5" stroke-width="4.70171"/>
<path opacity="0.0606061" d="M455.585 559.083C446.797 550.108 444.788 536.495 450.608 525.364L661.282 122.454C667.103 111.323 679.428 105.206 691.813 107.301L1140.11 183.158C1152.49 185.254 1162.12 195.086 1163.95 207.512L1230.34 657.304C1232.17 669.731 1225.79 681.925 1214.54 687.509L807.28 889.639C796.029 895.223 782.461 892.927 773.673 883.952L455.585 559.083Z" stroke="url(#paint5_linear_147_734)" stroke-opacity="0.5" stroke-width="4.70171"/>
<path opacity="0.0707071" d="M450.55 553.933C441.921 544.806 440.149 531.16 446.163 520.132L663.396 121.769C669.409 110.742 681.84 104.84 694.186 107.152L1140.18 190.651C1152.53 192.963 1161.98 202.961 1163.6 215.418L1222 665.386C1223.62 677.843 1217.03 689.924 1205.69 695.311L795.79 889.907C784.443 895.294 770.917 892.762 762.288 883.635L450.55 553.933Z" stroke="url(#paint6_linear_147_734)" stroke-opacity="0.5" stroke-width="4.70171"/>
<path opacity="0.0808081" d="M445.642 548.791C437.173 539.515 435.64 525.84 441.846 514.919L665.542 121.208C671.748 110.287 684.279 104.604 696.584 107.13L1140.15 198.216C1152.45 200.742 1161.73 210.904 1163.13 223.387L1213.57 673.391C1214.97 685.874 1208.18 697.838 1196.74 703.026L784.345 890.059C772.905 895.247 759.426 892.479 750.957 883.203L445.642 548.791Z" stroke="url(#paint7_linear_147_734)" stroke-opacity="0.5" stroke-width="4.70171"/>
<path opacity="0.0909091" d="M440.861 543.656C432.555 534.233 431.261 520.534 437.655 509.722L667.72 120.769C674.115 109.958 686.744 104.494 699.003 107.235L1140.01 205.846C1152.27 208.587 1161.37 218.91 1162.55 231.415L1205.05 681.314C1206.23 693.819 1199.22 705.663 1187.69 710.65L772.946 890.092C761.418 895.079 747.989 892.077 739.683 882.654L440.861 543.656Z" stroke="url(#paint8_linear_147_734)" stroke-opacity="0.5" stroke-width="4.70171"/>
<path opacity="0.10101" d="M436.204 538.53C428.064 528.964 427.009 515.244 433.592 504.546L669.927 120.452C676.51 109.754 689.232 104.511 701.441 107.465L1139.77 213.542C1151.98 216.497 1160.89 226.976 1161.86 239.5L1196.42 689.153C1197.39 701.677 1190.17 713.397 1178.56 718.183L761.596 890.007C749.983 894.793 736.608 891.556 728.468 881.99L436.204 538.53Z" stroke="url(#paint9_linear_147_734)" stroke-opacity="0.5" stroke-width="4.70171"/>
<path opacity="0.111111" d="M431.674 533.419C423.702 523.712 422.887 509.976 429.655 499.394L672.161 120.259C678.929 109.678 691.741 104.658 703.897 107.825L1139.41 221.303C1151.57 224.47 1160.3 235.104 1161.05 247.643L1187.7 696.911C1188.45 709.45 1181.03 721.042 1169.34 725.624L750.297 889.809C738.602 894.392 725.286 890.922 717.314 881.215L431.674 533.419Z" stroke="url(#paint10_linear_147_734)" stroke-opacity="0.5" stroke-width="4.70171"/>
<path opacity="0.121212" d="M427.268 528.32C419.466 518.476 418.891 504.727 425.843 494.266L674.42 120.188C681.371 109.726 694.269 104.93 706.367 108.309L1138.95 229.123C1151.05 232.502 1159.6 243.286 1160.12 255.836L1178.9 704.581C1179.42 717.131 1171.8 728.592 1160.03 732.969L739.051 889.495C727.277 893.873 714.024 890.171 706.223 880.327L427.268 528.32Z" stroke="url(#paint11_linear_147_734)" stroke-opacity="0.5" stroke-width="4.70171"/>
<path opacity="0.131313" d="M422.986 523.241C415.358 513.262 415.023 499.505 422.156 489.167L676.7 120.242C683.834 109.903 696.813 105.334 708.85 108.923L1138.38 237.005C1150.41 240.594 1158.77 251.526 1159.08 264.083L1169.99 712.167C1170.3 724.724 1162.49 736.05 1150.64 740.221L727.859 889.07C716.011 893.242 702.824 889.31 695.196 879.33L422.986 523.241Z" stroke="url(#paint12_linear_147_734)" stroke-opacity="0.5" stroke-width="4.70171"/>
<path opacity="0.141414" d="M418.829 518.18C411.375 508.069 411.28 494.309 418.593 484.096L679.001 120.419C686.313 110.207 699.371 105.864 711.343 109.663L1137.69 244.943C1149.66 248.742 1157.83 259.818 1157.92 272.379L1161 719.663C1161.09 732.224 1153.08 743.412 1141.16 747.376L716.724 888.533C704.805 892.497 691.689 888.335 684.235 878.224L418.829 518.18Z" stroke="url(#paint13_linear_147_734)" stroke-opacity="0.5" stroke-width="4.70171"/>
<path opacity="0.151515" d="M414.794 513.139C407.519 502.9 407.664 489.14 415.154 479.057L681.319 120.719C688.809 110.636 701.94 106.522 713.845 110.529L1136.89 252.935C1148.8 256.943 1156.77 268.16 1156.64 280.72L1151.93 727.069C1151.8 739.629 1143.59 750.676 1131.6 754.431L705.647 887.884C693.66 891.639 680.619 887.249 673.343 877.01L414.794 513.139Z" stroke="url(#paint14_linear_147_734)" stroke-opacity="0.5" stroke-width="4.70171"/>
<path opacity="0.161616" d="M410.882 508.123C403.786 497.758 404.172 484.003 411.836 474.052L683.653 121.144C691.318 111.193 704.519 107.309 716.351 111.523L1135.98 260.982C1147.82 265.196 1155.59 276.551 1155.24 289.107L1142.77 734.385C1142.41 746.941 1134.02 757.842 1121.97 761.388L694.63 887.126C682.58 890.672 669.617 886.055 662.521 875.69L410.882 508.123Z" stroke="url(#paint15_linear_147_734)" stroke-opacity="0.5" stroke-width="4.70171"/>
<path opacity="0.171717" d="M407.092 503.133C400.178 492.646 400.803 478.9 408.641 469.084L686 121.694C693.838 111.878 707.104 108.224 718.862 112.645L1134.96 269.08C1146.72 273.5 1154.29 284.989 1153.72 297.537L1133.52 741.609C1132.95 754.157 1124.36 764.91 1112.25 768.245L683.675 886.262C671.565 889.596 658.685 884.754 651.771 874.267L407.092 503.133Z" stroke="url(#paint16_linear_147_734)" stroke-opacity="0.5" stroke-width="4.70171"/>
<path opacity="0.181818" d="M403.423 498.169C396.694 487.563 397.559 473.83 405.566 464.152L688.359 122.366C696.366 112.688 709.695 109.267 721.373 113.892L1133.82 277.226C1145.5 281.851 1152.87 293.47 1152.08 306.006L1124.19 748.738C1123.4 761.275 1114.63 771.876 1102.47 774.999L672.784 885.289C660.617 888.412 647.824 883.345 641.094 872.739L403.423 498.169Z" stroke="url(#paint17_linear_147_734)" stroke-opacity="0.5" stroke-width="4.70171"/>
<path opacity="0.191919" d="M399.875 493.237C393.331 482.515 394.436 468.799 402.611 459.262L690.726 123.162C698.901 113.626 712.287 110.438 723.883 115.266L1132.57 285.419C1144.16 290.247 1151.33 301.993 1150.32 314.513L1114.79 755.774C1113.78 768.294 1104.82 778.741 1092.6 781.651L661.958 884.212C649.739 887.122 637.036 881.833 630.492 871.111L399.875 493.237Z" stroke="url(#paint18_linear_147_734)" stroke-opacity="0.5" stroke-width="4.70171"/>
<path opacity="0.20202" d="M396.446 488.333C390.091 477.499 391.434 463.804 399.774 454.412L693.1 124.08C701.44 114.688 714.88 111.734 726.39 116.763L1131.2 293.654C1142.71 298.684 1149.67 310.553 1148.44 323.054L1105.3 762.71C1104.07 775.211 1094.94 785.5 1082.67 788.197L651.2 883.028C638.932 885.725 626.323 880.215 619.967 869.38L396.446 488.333Z" stroke="url(#paint19_linear_147_734)" stroke-opacity="0.5" stroke-width="4.70171"/>
<path opacity="0.212121" d="M393.136 483.467C386.971 472.523 388.553 458.854 397.056 449.609L695.479 125.125C703.982 115.879 717.471 113.16 728.891 118.39L1129.71 301.936C1141.13 307.165 1147.89 319.154 1146.44 331.632L1095.74 769.553C1094.29 782.031 1084.98 792.159 1072.67 794.641L640.511 881.746C628.198 884.227 615.687 878.498 609.521 867.555L393.136 483.467Z" stroke="url(#paint20_linear_147_734)" stroke-opacity="0.5" stroke-width="4.70171"/>
<path opacity="0.222222" d="M389.944 478.634C383.971 467.584 385.792 453.945 394.455 444.849L697.859 126.29C706.522 117.194 720.057 114.711 731.384 120.14L1128.11 310.254C1139.44 315.683 1145.98 327.787 1144.32 340.238L1086.1 776.295C1084.44 788.745 1074.95 798.709 1062.6 800.976L629.892 880.359C617.538 882.626 605.129 876.679 599.155 865.629L389.944 478.634Z" stroke="url(#paint21_linear_147_734)" stroke-opacity="0.5" stroke-width="4.70171"/>
<path opacity="0.232323" d="M386.87 473.841C381.09 462.689 383.149 449.083 391.969 440.14L700.24 127.581C709.06 118.638 722.636 116.391 733.867 122.016L1126.39 318.613C1137.62 324.238 1143.95 336.455 1142.07 348.875L1076.4 782.938C1074.52 795.358 1064.85 805.155 1052.46 807.206L619.346 878.875C606.954 880.925 594.65 874.763 588.871 863.611L386.87 473.841Z" stroke="url(#paint22_linear_147_734)" stroke-opacity="0.5" stroke-width="4.70171"/>
<path opacity="0.242424" d="M383.911 469.088C378.327 457.837 380.623 444.269 389.598 435.482L702.619 128.994C711.594 120.206 725.207 118.197 736.338 124.017L1124.55 327.008C1135.68 332.828 1141.8 345.154 1139.71 357.539L1066.62 789.482C1064.52 801.867 1054.69 811.493 1042.26 813.327L608.874 877.292C596.448 879.126 584.254 872.75 578.67 861.499L383.911 469.088Z" stroke="url(#paint23_linear_147_734)" stroke-opacity="0.5" stroke-width="4.70171"/>
<path opacity="0.252525" d="M381.068 464.376C375.681 453.029 378.213 439.503 387.34 430.873L704.993 130.528C714.12 121.899 727.766 120.127 738.794 126.141L1122.6 335.435C1133.63 341.449 1139.53 353.879 1137.22 366.226L1056.77 795.922C1054.46 808.268 1044.46 817.722 1032 819.339L598.477 875.611C586.021 877.228 573.94 870.64 568.553 859.293L381.068 464.376Z" stroke="url(#paint24_linear_147_734)" stroke-opacity="0.5" stroke-width="4.70171"/>
<path opacity="0.262626" d="M378.339 459.707C373.151 448.268 375.919 434.789 385.195 426.319L707.361 132.185C716.637 123.716 730.312 122.183 741.233 128.388L1120.53 343.894C1131.45 350.099 1137.13 362.63 1134.6 374.935L1046.85 802.259C1044.33 814.563 1034.17 823.841 1021.68 825.24L588.158 873.836C575.675 875.235 563.711 868.437 558.523 856.998L378.339 459.707Z" stroke="url(#paint25_linear_147_734)" stroke-opacity="0.5" stroke-width="4.70171"/>
<path opacity="0.272727" d="M375.723 455.086C370.735 443.557 373.738 430.129 383.161 421.823L709.72 133.965C719.143 125.659 732.842 124.365 743.653 130.76L1118.33 352.383C1129.15 358.778 1134.61 371.407 1131.87 383.665L1036.88 808.494C1034.13 820.752 1023.81 829.851 1011.31 831.032L577.917 871.967C565.411 873.149 553.568 866.143 548.58 854.615L375.723 455.086Z" stroke="url(#paint26_linear_147_734)" stroke-opacity="0.5" stroke-width="4.70171"/>
<path opacity="0.282828" d="M373.22 450.512C368.434 438.898 371.671 425.524 381.237 417.384L712.069 135.866C721.635 127.725 735.355 126.671 746.053 133.253L1116.02 360.899C1126.72 367.482 1131.97 380.204 1129.01 392.413L1026.83 814.623C1023.88 826.832 1013.4 835.749 1000.88 836.712L567.756 870.007C555.232 870.97 543.512 863.759 538.727 852.145L373.22 450.512Z" stroke="url(#paint27_linear_147_734)" stroke-opacity="0.5" stroke-width="4.70171"/>
<path opacity="0.292929" d="M370.828 445.988C366.245 434.293 369.715 420.977 379.422 413.005L714.404 137.889C724.111 129.917 737.847 129.102 748.429 135.87L1113.6 369.441C1124.18 376.21 1129.2 389.022 1126.03 401.177L1016.73 820.649C1013.57 832.804 1002.93 841.537 990.393 842.281L557.677 867.957C545.138 868.701 533.546 861.287 528.964 849.591L370.828 445.988Z" stroke="url(#paint28_linear_147_734)" stroke-opacity="0.5" stroke-width="4.70171"/>
<path opacity="0.30303" d="M368.545 441.514C364.168 429.741 367.869 416.488 377.714 408.686L716.725 140.03C726.569 132.229 740.317 131.653 750.779 138.605L1111.05 378.005C1121.51 384.956 1126.3 397.854 1122.93 409.952L1006.57 826.565C1003.19 838.663 992.408 847.21 979.858 847.735L547.68 865.816C535.131 866.342 523.67 858.726 519.292 846.952L368.545 441.514Z" stroke="url(#paint29_linear_147_734)" stroke-opacity="0.5" stroke-width="4.70171"/>
<path opacity="0.313131" d="M366.372 437.096C362.201 425.248 366.133 412.061 376.112 404.433L719.028 142.294C729.007 134.665 742.764 134.33 753.102 141.463L1108.38 386.591C1118.72 393.724 1123.29 406.703 1119.7 418.741L996.354 832.377C992.765 844.414 981.833 852.771 969.276 853.077L537.769 863.591C525.212 863.897 513.886 856.082 509.714 844.234L366.372 437.096Z" stroke="url(#paint30_linear_147_734)" stroke-opacity="0.5" stroke-width="4.70171"/>
<path opacity="0.323232" d="M364.306 432.731C360.342 420.812 364.504 407.696 374.615 400.242L721.312 144.674C731.423 137.221 745.183 137.126 755.396 144.439L1105.59 395.193C1115.8 402.506 1120.15 415.563 1116.35 427.536L986.082 838.078C982.283 850.051 971.207 858.216 958.646 858.302L527.943 861.278C515.382 861.364 504.194 853.353 500.23 841.434L364.306 432.731Z" stroke="url(#paint31_linear_147_734)" stroke-opacity="0.5" stroke-width="4.70171"/>
<path opacity="0.333333" d="M362.347 428.424C358.592 416.438 362.982 403.396 373.221 396.121L723.575 147.176C733.814 139.9 747.574 140.045 757.657 147.535L1102.68 403.814C1112.77 411.304 1116.88 424.435 1112.87 436.339L975.757 843.673C971.75 855.577 960.533 863.547 947.973 863.415L518.204 858.883C505.644 858.75 494.598 850.545 490.842 838.559L362.347 428.424Z" stroke="url(#paint32_linear_147_734)" stroke-opacity="0.5" stroke-width="4.70171"/>
<path opacity="0.343434" d="M360.493 424.175C356.947 412.125 361.564 399.162 371.929 392.067L725.814 149.795C736.179 142.699 749.934 143.084 759.885 150.749L1099.66 412.447C1109.61 420.112 1113.49 433.313 1109.28 445.146L965.382 849.156C961.167 860.989 949.813 868.762 937.257 868.411L508.554 856.404C495.998 856.053 485.096 847.656 481.551 835.606L360.493 424.175Z" stroke="url(#paint33_linear_147_734)" stroke-opacity="0.5" stroke-width="4.70171"/>
<path opacity="0.353535" d="M358.743 419.988C355.408 407.878 360.251 394.998 370.737 388.084L728.028 152.532C738.515 145.619 752.261 146.244 762.077 154.081L1096.51 421.095C1106.32 428.932 1109.98 442.199 1105.56 453.956L954.958 854.532C950.537 866.289 939.049 873.863 926.501 873.292L498.993 853.848C486.445 853.277 475.692 844.691 472.357 832.581L358.743 419.988Z" stroke="url(#paint34_linear_147_734)" stroke-opacity="0.5" stroke-width="4.70171"/>
<path opacity="0.363636" d="M357.095 415.863C353.972 403.696 359.039 390.902 369.645 384.173L730.214 155.386C740.82 148.656 754.553 149.521 764.231 157.528L1093.24 429.751C1102.92 437.758 1106.34 451.087 1101.72 462.765L944.487 859.795C939.863 871.473 928.244 878.846 915.708 878.056L489.524 851.211C476.987 850.422 466.386 841.65 463.263 829.483L357.095 415.863Z" stroke="url(#paint35_linear_147_734)" stroke-opacity="0.5" stroke-width="4.70171"/>
<path opacity="0.373737" d="M355.55 411.802C352.64 399.583 357.929 386.879 368.65 380.336L732.371 158.356C743.093 151.813 756.809 152.917 766.346 161.092L1089.86 438.416C1099.39 446.591 1102.58 459.977 1097.75 471.573L933.973 864.948C929.145 876.544 917.399 883.712 904.879 882.704L480.146 848.499C467.626 847.491 457.179 838.535 454.269 826.316L355.55 411.802Z" stroke="url(#paint36_linear_147_734)" stroke-opacity="0.5" stroke-width="4.70171"/>
<path opacity="0.383838" d="M354.104 407.805C351.407 395.537 356.917 382.928 367.752 376.572L734.497 161.441C745.331 155.085 759.026 156.429 768.418 164.769L1086.35 447.085C1095.74 455.425 1098.7 468.865 1093.67 480.375L923.416 869.987C918.386 881.497 906.517 888.46 894.016 887.233L470.862 845.711C458.361 844.484 448.072 835.348 445.376 823.079L354.104 407.805Z" stroke="url(#paint37_linear_147_734)" stroke-opacity="0.5" stroke-width="4.70171"/>
<path opacity="0.393939" d="M352.756 403.877C350.274 391.564 356.003 379.053 366.947 372.887L736.588 164.641C747.532 158.476 761.201 160.058 770.446 168.561L1082.73 455.759C1091.97 464.262 1094.69 477.751 1089.46 489.172L912.818 874.916C907.589 886.336 895.6 893.09 883.122 891.646L461.672 842.851C449.195 841.406 439.067 832.091 436.585 819.778L352.756 403.877Z" stroke="url(#paint38_linear_147_734)" stroke-opacity="0.5" stroke-width="4.70171"/>
<path opacity="0.40404" d="M351.506 400.016C349.24 387.661 355.186 375.252 366.236 369.278L738.645 167.953C749.694 161.98 763.334 163.801 772.429 172.463L1078.98 464.432C1088.08 473.095 1090.56 486.63 1085.13 497.957L902.183 879.729C896.755 891.056 884.65 897.6 872.199 895.938L452.578 839.917C440.128 838.255 430.164 828.765 427.897 816.41L351.506 400.016Z" stroke="url(#paint39_linear_147_734)" stroke-opacity="0.5" stroke-width="4.70171"/>
<path opacity="0.414141" d="M350.352 396.227C348.301 383.835 354.463 371.531 365.616 365.752L740.663 171.381C751.815 165.601 765.421 167.66 774.364 176.48L1075.12 473.107C1084.06 481.928 1086.31 495.503 1080.68 506.735L891.511 884.432C885.886 895.663 873.669 901.994 861.249 900.115L443.581 836.917C431.161 835.038 421.364 825.375 419.314 812.983L350.352 396.227Z" stroke="url(#paint40_linear_147_734)" stroke-opacity="0.5" stroke-width="4.70171"/>
<path opacity="0.424242" d="M349.292 392.51C347.458 380.084 353.834 367.89 365.085 362.306L742.643 174.919C753.894 169.335 767.462 171.631 776.249 180.606L1071.14 481.779C1079.92 490.754 1081.93 504.367 1076.11 515.498L880.806 889.02C874.985 900.151 862.66 906.268 850.275 904.173L434.681 833.849C422.296 831.753 412.669 821.921 410.835 809.495L349.292 392.51Z" stroke="url(#paint41_linear_147_734)" stroke-opacity="0.5" stroke-width="4.70171"/>
<path opacity="0.434343" d="M348.325 388.866C346.708 376.41 353.296 364.329 364.643 358.942L744.581 178.568C755.928 173.181 769.454 175.714 778.083 184.841L1067.04 490.445C1075.67 499.572 1077.44 513.218 1071.42 524.246L870.068 893.493C864.055 904.521 851.624 910.422 839.278 908.111L425.88 830.714C413.534 828.403 404.08 818.404 402.463 805.948L348.325 388.866Z" stroke="url(#paint42_linear_147_734)" stroke-opacity="0.5" stroke-width="4.70171"/>
<path opacity="0.444444" d="M347.449 385.298C346.05 372.815 352.847 360.851 364.287 355.663L746.476 182.328C757.916 177.14 771.395 179.908 779.864 189.184L1062.82 499.105C1071.29 508.381 1072.82 522.056 1066.62 532.977L859.301 897.853C853.096 908.774 840.564 914.458 828.26 911.931L417.179 827.517C404.874 824.99 395.596 814.828 394.197 802.345L347.449 385.298Z" stroke="url(#paint43_linear_147_734)" stroke-opacity="0.5" stroke-width="4.70171"/>
<path opacity="0.454545" d="M346.663 381.807C345.482 369.302 352.487 357.458 364.016 352.47L748.326 186.198C759.855 181.21 773.283 184.213 781.589 193.635L1058.48 507.756C1066.79 517.178 1068.08 530.878 1061.69 541.689L848.506 902.099C842.111 912.91 829.482 918.374 817.224 915.633L408.578 824.258C396.319 821.517 387.22 811.195 386.039 798.689L346.663 381.807Z" stroke="url(#paint44_linear_147_734)" stroke-opacity="0.5" stroke-width="4.70171"/>
<path opacity="0.464646" d="M345.965 378.393C345.003 365.869 352.214 354.149 363.827 349.364L750.13 190.174C761.743 185.389 775.118 188.625 783.258 198.192L1054.03 516.395C1062.17 525.961 1063.22 539.681 1056.64 550.379L837.686 906.229C831.103 916.927 818.381 922.169 806.172 919.215L400.078 820.939C387.87 817.984 378.952 807.504 377.989 794.98L345.965 378.393Z" stroke="url(#paint45_linear_147_734)" stroke-opacity="0.5" stroke-width="4.70171"/>
<path opacity="0.474747" d="M345.354 375.057C344.61 362.518 352.025 350.926 363.72 346.344L751.884 194.257C763.58 189.675 776.895 193.144 784.867 202.851L1049.46 525.02C1057.43 534.727 1058.25 548.463 1051.48 559.044L826.842 910.243C820.074 920.824 807.262 925.844 795.107 922.677L391.681 817.561C379.526 814.393 370.792 803.76 370.048 791.221L345.354 375.057Z" stroke="url(#paint46_linear_147_734)" stroke-opacity="0.5" stroke-width="4.70171"/>
<path opacity="0.484848" d="M344.828 371.803C344.303 359.253 351.919 347.792 363.692 343.415L753.588 198.446C765.362 194.069 778.615 197.77 786.416 207.615L1044.77 533.63C1052.58 543.475 1053.15 557.223 1046.2 567.685L815.976 914.142C809.025 924.603 796.127 929.399 784.029 926.02L383.386 814.127C371.288 810.748 362.742 799.964 362.217 787.414L344.828 371.803Z" stroke="url(#paint47_linear_147_734)" stroke-opacity="0.5" stroke-width="4.70171"/>
<path opacity="0.494949" d="M344.386 368.63C344.08 356.073 351.894 344.747 363.742 340.575L755.24 202.74C767.088 198.568 780.275 202.5 787.903 212.48L1039.97 542.222C1047.6 552.202 1047.94 565.958 1040.8 576.297L805.092 917.925C797.958 928.263 784.979 932.833 772.942 929.244L375.196 810.639C363.159 807.049 354.802 796.117 354.496 783.56L344.386 368.63Z" stroke="url(#paint48_linear_147_734)" stroke-opacity="0.5" stroke-width="4.70171"/>
<path opacity="0.50505" d="M344.025 365.542C343.938 352.982 351.949 341.794 363.868 337.83L756.838 207.138C768.757 203.175 781.873 207.336 789.326 217.447L1035.06 550.797C1042.51 560.908 1042.6 574.668 1035.29 584.881L794.19 921.594C786.877 931.807 773.82 936.149 761.848 932.35L367.11 807.1C355.137 803.301 346.973 792.225 346.886 779.665L344.025 365.542Z" stroke="url(#paint49_linear_147_734)" stroke-opacity="0.5" stroke-width="4.70171"/>
<path opacity="0.515152" d="M343.744 362.539C343.877 349.979 352.082 338.932 364.068 335.177L758.38 211.639C770.366 207.884 783.407 212.274 790.683 222.513L1030.02 559.35C1037.3 569.589 1037.15 583.349 1029.66 593.433L783.273 925.147C775.783 935.231 762.652 939.345 750.748 935.337L359.129 803.511C347.225 799.504 339.254 788.287 339.387 775.727L343.744 362.539Z" stroke="url(#paint50_linear_147_734)" stroke-opacity="0.5" stroke-width="4.70171"/>
<path opacity="0.525253" d="M343.542 359.62C343.894 347.064 352.291 336.163 364.341 332.617L759.864 216.24C771.915 212.694 784.877 217.311 791.973 227.676L1024.88 567.879C1031.97 578.243 1031.59 591.998 1023.92 601.95L772.343 928.584C764.679 938.535 751.478 942.419 739.645 938.205L351.255 799.873C339.422 795.659 331.649 784.304 332 771.748L343.542 359.62Z" stroke="url(#paint51_linear_147_734)" stroke-opacity="0.5" stroke-width="4.70171"/>
<path opacity="0.535354" d="M343.417 356.79C343.988 344.242 352.574 333.488 364.684 330.154L761.29 220.942C773.4 217.607 786.28 222.449 793.194 232.936L1019.62 576.383C1026.53 586.87 1025.91 600.616 1018.07 610.432L761.403 931.906C753.565 941.722 740.299 945.375 728.541 940.955L343.487 796.19C331.729 791.77 324.155 780.281 324.726 767.733L343.417 356.79Z" stroke="url(#paint52_linear_147_734)" stroke-opacity="0.5" stroke-width="4.70171"/>
<path opacity="0.545455" d="M343.367 354.047C344.156 341.511 352.928 330.909 365.095 327.786L762.655 225.741C774.821 222.618 787.615 227.685 794.344 238.291L1014.25 584.859C1020.98 595.465 1020.11 609.198 1012.1 618.876L750.453 935.112C742.445 944.79 729.117 948.211 717.439 943.586L335.826 792.462C324.147 787.837 316.775 776.218 317.564 763.682L343.367 354.047Z" stroke="url(#paint53_linear_147_734)" stroke-opacity="0.5" stroke-width="4.70171"/>
<path opacity="0.555556" d="M343.39 351.393C344.398 338.873 353.354 328.426 365.573 325.516L763.957 230.638C776.176 227.728 788.879 233.017 795.423 243.739L1008.76 593.306C1015.31 604.028 1014.2 617.744 1006.03 627.28L739.496 938.202C731.321 947.738 717.935 950.926 706.339 946.098L328.272 788.692C316.676 783.864 309.508 772.118 310.516 759.598L343.39 351.393Z" stroke="url(#paint54_linear_147_734)" stroke-opacity="0.5" stroke-width="4.70171"/>
<path opacity="0.565657" d="M343.485 348.831C344.711 336.33 353.848 326.041 366.116 323.345L765.196 235.632C777.464 232.936 790.073 238.446 796.428 249.28L1003.17 601.722C1009.53 612.557 1008.18 626.252 999.841 635.644L728.536 941.178C720.195 950.57 706.756 953.524 695.246 948.495L320.828 784.882C309.318 779.853 302.355 767.984 303.582 755.483L343.485 348.831Z" stroke="url(#paint55_linear_147_734)" stroke-opacity="0.5" stroke-width="4.70171"/>
<path opacity="0.575758" d="M343.649 346.359C345.094 333.882 354.408 323.753 366.722 321.272L766.368 240.719C778.681 238.237 791.192 243.967 797.358 254.91L997.465 610.105C1003.63 621.048 1002.05 634.717 993.545 643.963L717.572 944.037C709.069 953.283 695.58 956.001 684.159 950.772L313.491 781.034C302.071 775.804 295.317 763.815 296.761 751.338L343.649 346.359Z" stroke="url(#paint56_linear_147_734)" stroke-opacity="0.5" stroke-width="4.70171"/>
<path opacity="0.585859" d="M343.882 343.982C345.544 331.531 355.034 321.567 367.389 319.3L767.474 245.902C779.829 243.635 792.238 249.582 798.211 260.631L991.651 618.453C997.624 629.503 995.803 643.142 987.141 652.238L706.608 946.783C697.945 955.879 684.41 958.362 673.083 952.933L306.264 777.15C294.937 771.722 288.393 759.617 290.055 747.167L343.882 343.982Z" stroke="url(#paint57_linear_147_734)" stroke-opacity="0.5" stroke-width="4.70171"/>
<path opacity="0.59596" d="M344.18 341.696C346.059 329.277 355.722 319.48 368.114 317.429L768.511 251.174C780.903 249.124 793.206 255.286 798.986 266.438L985.728 626.764C991.507 637.916 989.449 651.522 980.628 660.465L695.645 949.413C686.824 958.356 673.248 960.603 662.017 954.978L299.146 773.232C287.915 767.607 281.584 755.39 283.463 742.97L344.18 341.696Z" stroke="url(#paint58_linear_147_734)" stroke-opacity="0.5" stroke-width="4.70171"/>
<path opacity="0.606061" d="M344.543 339.506C346.639 327.122 356.471 317.495 368.897 315.661L769.478 256.538C781.904 254.704 794.098 261.08 799.682 272.332L979.697 635.036C985.281 646.288 982.986 659.855 974.011 668.643L684.685 951.929C675.71 960.717 662.097 962.726 650.966 956.906L292.139 769.282C281.008 763.462 274.89 751.136 276.986 738.751L344.543 339.506Z" stroke="url(#paint59_linear_147_734)" stroke-opacity="0.5" stroke-width="4.70171"/>
<path opacity="0.616162" d="M344.969 337.412C347.28 325.065 357.279 315.611 369.736 313.994L770.373 261.991C782.83 260.374 794.911 266.962 800.298 278.309L973.56 643.268C978.947 654.615 976.415 668.14 967.288 676.77L673.732 954.331C664.605 962.961 650.959 964.732 639.931 958.718L285.241 765.301C274.214 759.288 268.312 746.857 270.624 734.511L344.969 337.412Z" stroke="url(#paint60_linear_147_734)" stroke-opacity="0.5" stroke-width="4.70171"/>
<path opacity="0.626263" d="M345.455 335.414C347.982 323.11 358.144 313.832 370.627 312.433L771.196 267.532C783.678 266.133 795.643 272.93 800.831 284.37L967.317 651.458C972.505 662.897 969.737 676.377 960.461 684.846L662.786 956.62C653.51 965.089 639.835 966.622 628.914 960.417L278.455 761.294C267.533 755.089 261.85 742.557 264.376 730.253L345.455 335.414Z" stroke="url(#paint61_linear_147_734)" stroke-opacity="0.5" stroke-width="4.70171"/>
<path opacity="0.636364" d="M346.001 333.514C348.742 321.256 359.064 312.157 371.569 310.976L771.944 273.159C784.449 271.978 796.292 278.983 801.28 290.512L960.969 659.604C965.956 671.132 962.954 684.561 953.531 692.867L651.849 958.796C642.427 967.102 628.727 968.396 617.916 962.001L271.778 757.261C260.967 750.866 255.503 738.237 258.244 725.979L346.001 333.514Z" stroke="url(#paint62_linear_147_734)" stroke-opacity="0.5" stroke-width="4.70171"/>
<path opacity="0.646465" d="M346.603 331.711C349.557 319.503 360.037 310.585 372.561 309.623L772.616 278.87C785.14 277.907 796.859 285.118 801.645 296.732L954.517 667.703C959.302 679.317 956.066 692.691 946.499 700.831L640.924 960.857C631.358 968.998 617.638 970.052 606.94 963.47L265.213 753.203C254.515 746.62 249.272 733.898 252.227 721.689L346.603 331.711Z" stroke="url(#paint63_linear_147_734)" stroke-opacity="0.5" stroke-width="4.70171"/>
<path opacity="0.656566" d="M347.26 330.008C350.427 317.853 361.061 309.12 373.6 308.376L773.211 284.664C785.75 283.92 797.342 291.335 801.924 303.03L947.962 675.755C952.544 687.451 949.075 700.766 939.368 708.739L630.013 962.807C620.306 970.779 606.57 971.594 595.989 964.826L258.759 749.124C248.178 742.356 243.158 729.544 246.325 717.389L347.26 330.008Z" stroke="url(#paint64_linear_147_734)" stroke-opacity="0.5" stroke-width="4.70171"/>
<path opacity="0.666667" d="M347.971 328.403C351.35 316.305 362.134 307.759 374.684 307.234L773.728 290.538C786.278 290.013 797.738 297.629 802.116 309.403L941.306 683.756C945.683 695.53 941.982 708.783 932.137 716.585L619.117 964.643C609.273 972.445 595.525 973.02 585.063 966.068L252.416 745.023C241.955 738.071 237.159 725.174 240.538 713.076L347.971 328.403Z" stroke="url(#paint65_linear_147_734)" stroke-opacity="0.5" stroke-width="4.70171"/>
<path opacity="0.676768" d="M348.733 326.901C352.322 314.863 363.254 306.506 375.811 306.201L774.164 296.494C786.722 296.188 798.048 304.003 802.219 315.851L934.548 691.708C938.72 703.556 934.788 716.743 924.808 724.371L608.239 966.37C598.26 973.998 584.504 974.333 574.165 967.2L246.185 740.906C235.846 733.773 231.276 720.794 234.866 708.756L348.733 326.901Z" stroke="url(#paint66_linear_147_734)" stroke-opacity="0.5" stroke-width="4.70171"/>
<path opacity="0.686869" d="M349.544 325.498C353.343 313.525 364.419 305.361 376.98 305.274L774.521 302.528C787.081 302.441 798.269 310.452 802.233 322.371L927.692 699.606C931.656 711.525 927.494 724.641 917.384 732.094L597.38 967.985C587.27 975.438 573.51 975.533 563.297 968.22L240.065 736.773C229.853 729.46 225.51 716.403 229.309 704.431L349.544 325.498Z" stroke="url(#paint67_linear_147_734)" stroke-opacity="0.5" stroke-width="4.70171"/>
<path opacity="0.69697" d="M350.403 324.197C354.41 312.292 365.627 304.322 378.188 304.455L774.795 308.637C787.355 308.77 798.401 316.975 802.157 328.961L920.737 707.449C924.493 719.436 920.103 732.477 909.863 739.753L586.543 969.489C576.304 976.764 562.544 976.619 552.46 969.129L234.057 732.626C223.973 725.136 219.859 712.005 223.867 700.1L350.403 324.197Z" stroke="url(#paint68_linear_147_734)" stroke-opacity="0.5" stroke-width="4.70171"/>
<path opacity="0.707071" d="M351.308 323C355.522 311.167 366.876 303.394 379.432 303.746L774.985 314.824C787.541 315.175 798.443 323.572 801.988 335.622L913.685 715.238C917.231 727.289 912.614 740.251 902.249 747.347L575.729 970.885C565.364 977.981 551.609 977.595 541.658 969.931L228.16 728.468C218.209 720.804 214.325 707.603 218.539 695.77L351.308 323Z" stroke="url(#paint69_linear_147_734)" stroke-opacity="0.5" stroke-width="4.70171"/>
<path opacity="0.717172" d="M352.256 321.904C356.676 310.147 368.165 302.573 380.712 303.144L775.092 321.081C787.639 321.652 798.393 330.238 801.728 342.348L906.538 722.968C909.872 735.078 905.03 747.958 894.543 754.872L564.94 972.17C554.453 979.084 540.707 978.459 530.891 970.621L222.375 724.299C212.559 716.462 208.906 703.196 213.326 691.438L352.256 321.904Z" stroke="url(#paint70_linear_147_734)" stroke-opacity="0.5" stroke-width="4.70171"/>
<path opacity="0.727273" d="M353.246 320.914C357.87 309.235 369.489 301.863 382.025 302.652L775.112 327.412C787.648 328.202 798.25 336.974 801.373 349.141L899.295 730.639C902.418 742.806 897.351 755.599 886.745 762.329L554.178 973.348C543.572 980.078 529.839 979.213 520.161 971.206L216.701 720.124C207.023 712.117 203.602 698.788 208.227 687.11L353.246 320.914Z" stroke="url(#paint71_linear_147_734)" stroke-opacity="0.5" stroke-width="4.70171"/>
<path opacity="0.737374" d="M354.275 320.026C359.103 308.43 370.849 301.262 383.37 302.27L775.046 333.812C787.566 334.821 798.013 343.776 800.923 355.996L891.959 738.249C894.869 750.468 889.58 763.172 878.859 769.715L543.446 974.418C532.724 980.962 519.008 979.857 509.471 971.682L211.139 715.942C201.602 707.767 198.414 694.381 203.242 682.785L354.275 320.026Z" stroke="url(#paint72_linear_147_734)" stroke-opacity="0.5" stroke-width="4.70171"/>
<path opacity="0.747475" d="M355.343 319.244C360.373 307.734 372.242 300.772 384.742 301.999L774.892 340.282C787.393 341.509 797.682 350.646 800.378 362.914L884.531 745.798C887.228 758.066 881.718 770.675 870.884 777.031L532.744 975.383C521.909 981.738 508.215 980.394 498.822 972.054L205.687 711.758C196.295 703.418 193.341 689.978 198.37 678.468L355.343 319.244Z" stroke="url(#paint73_linear_147_734)" stroke-opacity="0.5" stroke-width="4.70171"/>
<path opacity="0.757576" d="M356.447 318.565C361.676 307.145 373.665 300.391 386.142 301.835L774.649 346.816C787.127 348.261 797.255 357.576 799.737 369.889L877.013 753.281C879.495 765.594 873.766 778.105 862.822 784.27L522.074 976.239C511.131 982.404 497.462 980.821 488.216 972.319L200.347 707.57C191.101 699.067 188.382 685.578 193.612 674.157L356.447 318.565Z" stroke="url(#paint74_linear_147_734)" stroke-opacity="0.5" stroke-width="4.70171"/>
<path opacity="0.767677" d="M357.584 317.993C363.012 306.666 375.117 300.122 387.567 301.784L774.317 353.416C786.767 355.079 796.731 364.569 798.998 376.923L869.405 760.699C871.671 773.054 865.725 785.463 854.675 791.437L511.44 976.991C500.39 982.964 486.751 981.143 477.655 972.48L195.117 703.383C186.021 694.72 183.538 681.186 188.966 669.858L357.584 317.993Z" stroke="url(#paint75_linear_147_734)" stroke-opacity="0.5" stroke-width="4.70171"/>
<path opacity="0.777778" d="M358.753 317.528C364.379 306.297 376.596 299.965 389.015 301.844L773.894 360.081C786.313 361.96 796.11 371.622 798.161 384.015L861.709 768.052C863.76 780.445 857.597 792.748 846.445 798.528L500.841 977.639C489.689 983.419 476.084 981.361 467.141 972.54L189.998 699.2C181.055 690.38 178.808 676.804 184.433 665.573L358.753 317.528Z" stroke="url(#paint76_linear_147_734)" stroke-opacity="0.5" stroke-width="4.70171"/>
<path opacity="0.787879" d="M359.953 317.168C365.773 306.037 378.099 299.92 390.484 302.015L773.379 366.806C785.764 368.902 795.391 378.734 797.225 391.16L853.926 775.337C855.76 787.763 849.384 799.957 838.133 805.541L490.281 978.185C479.03 983.769 465.462 981.473 456.674 972.498L184.989 695.021C176.201 686.046 174.192 672.433 180.012 661.302L359.953 317.168Z" stroke="url(#paint77_linear_147_734)" stroke-opacity="0.5" stroke-width="4.70171"/>
<path opacity="0.79798" d="M361.18 316.913C367.194 305.885 379.625 299.984 391.971 302.295L772.772 373.589C785.118 375.901 794.572 385.899 796.189 398.356L846.058 782.55C847.675 795.006 841.087 807.087 829.74 812.474L479.76 978.625C468.413 984.012 454.888 981.48 446.258 972.353L180.089 690.846C171.46 681.719 169.688 668.073 175.702 657.045L361.18 316.913Z" stroke="url(#paint78_linear_147_734)" stroke-opacity="0.5" stroke-width="4.70171"/>
<path opacity="0.808081" d="M362.434 316.766C368.639 305.845 381.171 300.162 393.475 302.688L772.071 380.432C784.375 382.959 793.653 393.121 795.053 405.603L838.107 789.694C839.506 802.177 832.708 814.141 821.269 819.329L469.281 978.966C457.842 984.154 444.363 981.386 435.894 972.11L175.3 686.681C166.83 677.405 165.298 663.73 171.503 652.809L362.434 316.766Z" stroke="url(#paint79_linear_147_734)" stroke-opacity="0.5" stroke-width="4.70171"/>
<path opacity="0.818182" d="M363.711 316.725C370.106 305.914 382.735 300.45 394.993 303.191L771.276 387.329C783.534 390.07 792.633 400.393 793.815 412.898L830.072 796.764C831.253 809.269 824.248 821.113 812.72 826.101L458.845 979.205C447.317 984.192 433.888 981.19 425.582 971.767L170.619 682.524C162.313 673.102 161.019 659.402 167.413 648.591L363.711 316.725Z" stroke="url(#paint80_linear_147_734)" stroke-opacity="0.5" stroke-width="4.70171"/>
<path opacity="0.828283" d="M365.011 316.792C371.594 306.094 384.316 300.851 396.525 303.806L770.386 394.281C782.595 397.236 791.512 407.716 792.475 420.24L821.957 803.762C822.92 816.285 815.709 828.005 804.095 832.791L448.455 979.345C436.841 984.13 423.467 980.894 415.327 971.328L166.047 678.381C157.906 668.815 156.852 655.095 163.434 644.397L365.011 316.792Z" stroke="url(#paint81_linear_147_734)" stroke-opacity="0.5" stroke-width="4.70171"/>
<path opacity="0.838384" d="M366.332 316.965C373.1 306.383 385.912 301.363 398.067 304.53L769.401 401.285C781.556 404.452 790.29 415.086 791.034 427.625L813.763 810.683C814.507 823.222 807.093 834.814 795.397 839.396L438.111 979.385C426.416 983.968 413.1 980.498 405.128 970.791L161.583 674.25C153.611 664.543 152.796 650.807 159.564 640.226L366.332 316.965Z" stroke="url(#paint82_linear_147_734)" stroke-opacity="0.5" stroke-width="4.70171"/>
<path opacity="0.848485" d="M367.67 317.247C374.622 306.785 387.52 301.989 399.617 305.368L768.319 408.341C780.417 411.719 788.964 422.504 789.489 435.054L805.491 817.53C806.016 830.08 798.4 841.541 786.627 845.919L427.815 979.33C416.042 983.707 402.789 980.006 394.987 970.161L157.227 670.137C149.425 660.293 148.85 646.544 155.802 636.082L367.67 317.247Z" stroke="url(#paint83_linear_147_734)" stroke-opacity="0.5" stroke-width="4.70171"/>
<path opacity="0.858586" d="M369.024 317.634C376.158 307.295 389.137 302.725 401.174 306.315L767.14 415.443C779.177 419.033 787.534 429.965 787.84 442.522L797.142 824.298C797.448 836.856 789.634 848.182 777.786 852.353L417.569 979.176C405.721 983.347 392.535 979.415 384.906 969.436L152.978 666.04C145.349 656.061 145.014 642.304 152.147 631.965L369.024 317.634Z" stroke="url(#paint84_linear_147_734)" stroke-opacity="0.5" stroke-width="4.70171"/>
<path opacity="0.868687" d="M370.393 318.13C377.706 307.917 390.763 303.575 402.736 307.373L765.863 422.594C777.836 426.393 786.001 437.469 786.088 450.029L788.719 830.989C788.806 843.55 780.795 854.738 768.876 858.702L407.375 978.927C395.456 982.891 382.34 978.73 374.887 968.619L148.835 661.963C141.382 651.852 141.287 638.092 148.6 627.879L370.393 318.13Z" stroke="url(#paint85_linear_147_734)" stroke-opacity="0.5" stroke-width="4.70171"/>
<path opacity="0.878788" d="M371.775 318.734C379.265 308.65 392.396 304.536 404.3 308.543L764.489 429.79C776.393 433.797 784.363 445.014 784.231 457.574L780.223 837.601C780.091 850.161 771.886 861.207 759.899 864.963L397.234 978.586C385.248 982.341 372.206 977.951 364.931 967.712L144.799 657.908C137.524 647.669 137.669 633.909 145.159 623.826L371.775 318.734Z" stroke="url(#paint86_linear_147_734)" stroke-opacity="0.5" stroke-width="4.70171"/>
<path opacity="0.888889" d="M373.166 319.444C380.831 309.493 394.032 305.609 405.865 309.823L763.014 437.028C774.847 441.242 782.62 452.597 782.269 465.153L771.655 844.13C771.303 856.686 762.907 867.588 750.857 871.134L387.148 978.15C375.097 981.696 362.135 977.079 355.039 966.714L140.868 653.876C133.772 643.511 134.158 629.756 141.822 619.805L373.166 319.444Z" stroke="url(#paint87_linear_147_734)" stroke-opacity="0.5" stroke-width="4.70171"/>
<path opacity="0.89899" d="M374.567 320.262C382.404 310.446 395.67 306.793 407.428 311.213L761.441 444.307C773.198 448.728 780.772 460.216 780.201 472.764L763.017 850.579C762.446 863.127 753.861 873.88 741.751 877.215L377.117 977.623C365.007 980.957 352.127 976.115 345.213 965.628L137.042 649.869C130.128 639.382 130.753 625.636 138.59 615.82L374.567 320.262Z" stroke="url(#paint88_linear_147_734)" stroke-opacity="0.5" stroke-width="4.70171"/>
<path opacity="0.909091" d="M375.974 321.189C383.981 311.511 397.309 308.09 408.988 312.715L759.768 451.628C771.446 456.253 778.818 467.872 778.029 480.408L754.311 856.946C753.521 869.482 744.75 880.084 732.583 883.207L367.145 977.006C354.979 980.129 342.185 975.063 335.455 964.457L133.32 645.89C126.59 635.284 127.455 621.551 135.463 611.873L375.974 321.189Z" stroke="url(#paint89_linear_147_734)" stroke-opacity="0.5" stroke-width="4.70171"/>
<path opacity="0.919192" d="M377.385 322.22C385.56 312.683 398.946 309.495 410.542 314.323L757.993 458.983C769.589 463.811 776.758 475.557 775.75 488.077L745.538 863.226C744.53 875.746 735.574 886.193 723.355 889.103L357.232 976.298C345.013 979.208 332.309 973.919 325.766 963.197L129.701 641.938C123.157 631.216 124.262 617.5 132.437 607.963L377.385 322.22Z" stroke="url(#paint90_linear_147_734)" stroke-opacity="0.5" stroke-width="4.70171"/>
<path opacity="0.929293" d="M378.799 323.359C387.139 313.967 400.579 311.013 412.089 316.043L756.118 466.376C767.628 471.405 774.591 483.274 773.364 495.775L736.7 869.422C735.473 881.923 726.337 892.212 714.068 894.909L347.379 975.502C335.111 978.199 322.502 972.689 316.147 961.854L126.184 638.017C119.829 627.183 121.173 613.488 129.513 604.096L378.799 323.359Z" stroke="url(#paint91_linear_147_734)" stroke-opacity="0.5" stroke-width="4.70171"/>
<path opacity="0.939394" d="M380.214 324.606C388.717 315.36 402.206 312.641 413.626 317.871L754.142 473.802C765.563 479.032 772.317 491.02 770.872 503.498L727.799 875.533C726.354 888.011 717.039 898.139 704.726 900.621L337.589 974.62C325.276 977.102 312.765 971.373 306.599 960.429L122.77 634.129C116.605 623.185 118.187 609.516 126.69 600.27L380.214 324.606Z" stroke="url(#paint92_linear_147_734)" stroke-opacity="0.5" stroke-width="4.70171"/>
<path opacity="0.949495" d="M381.628 325.96C390.291 316.865 403.825 314.382 415.153 319.81L752.065 481.261C763.392 486.69 769.936 498.794 768.274 511.245L718.836 881.559C717.174 894.009 707.683 903.973 695.329 906.24L327.862 973.655C315.508 975.921 303.098 969.974 297.125 958.925L119.456 630.276C113.483 619.226 115.304 605.587 123.967 596.491L381.628 325.96Z" stroke="url(#paint93_linear_147_734)" stroke-opacity="0.5" stroke-width="4.70171"/>
<path opacity="0.959596" d="M383.039 327.418C391.859 318.475 405.435 316.229 416.666 321.854L749.885 488.748C761.116 494.373 767.448 506.59 765.568 519.01L709.813 887.494C707.934 899.913 698.271 909.71 685.878 911.761L318.2 972.602C305.808 974.652 293.504 968.49 287.725 957.338L116.243 626.456C110.463 615.304 112.522 601.698 121.342 592.755L383.039 327.418Z" stroke="url(#paint94_linear_147_734)" stroke-opacity="0.5" stroke-width="4.70171"/>
<path opacity="0.969697" d="M384.444 328.984C393.419 320.196 407.032 318.187 418.163 324.007L747.603 496.265C758.734 502.085 764.851 514.411 762.756 526.796L700.731 893.342C698.636 905.727 688.804 915.353 676.377 917.188L308.605 971.468C296.178 973.302 283.984 966.926 278.4 955.674L113.128 622.675C107.544 611.424 109.84 597.856 118.815 589.069L384.444 328.984Z" stroke="url(#paint95_linear_147_734)" stroke-opacity="0.5" stroke-width="4.70171"/>
<path opacity="0.979798" d="M385.843 330.653C394.97 322.023 408.616 320.252 419.644 326.265L745.218 503.805C756.246 509.819 762.147 522.249 759.836 534.596L691.593 899.098C689.282 911.444 679.283 920.898 666.827 922.515L299.076 970.25C286.62 971.867 274.539 965.279 269.152 953.932L110.112 618.932C104.725 607.584 107.258 594.059 116.385 585.429L385.843 330.653Z" stroke="url(#paint96_linear_147_734)" stroke-opacity="0.5" stroke-width="4.70171"/>
<path opacity="0.989899" d="M387.234 332.429C396.51 323.96 410.185 322.427 421.106 328.632L742.731 511.372C753.652 517.577 759.336 530.109 756.809 542.413L682.401 904.767C679.874 917.071 669.712 926.349 657.229 927.748L289.617 968.955C277.135 970.354 265.17 963.556 259.982 952.117L107.194 615.231C102.006 603.791 104.774 590.312 114.05 581.843L387.234 332.429Z" stroke="url(#paint97_linear_147_734)" stroke-opacity="0.5" stroke-width="4.70171"/>
<path d="M388.613 334.31C398.036 326.004 411.735 324.71 422.547 331.104L740.141 518.961C750.952 525.355 756.416 537.984 753.675 550.243L673.155 910.343C670.414 922.602 660.092 931.701 647.586 932.882L280.228 967.58C267.723 968.761 255.879 961.756 250.892 950.228L104.372 611.572C99.3841 600.043 102.387 586.615 111.81 578.309L388.613 334.31Z" stroke="url(#paint98_linear_147_734)" stroke-opacity="0.5" stroke-width="4.70171"/>
</g>
<defs>
<linearGradient id="paint0_linear_147_734" x1="940.5" y1="715.857" x2="822.161" y2="218.958" gradientUnits="userSpaceOnUse">
<stop stop-color="#9172CF"/>
<stop offset="1" stop-color="#FE1BF6"/>
</linearGradient>
<linearGradient id="paint1_linear_147_734" x1="931.607" y1="718.403" x2="822.158" y2="220.425" gradientUnits="userSpaceOnUse">
<stop stop-color="#9172CF"/>
<stop offset="1" stop-color="#FE1BF6"/>
</linearGradient>
<linearGradient id="paint2_linear_147_734" x1="922.714" y1="720.873" x2="822.156" y2="221.974" gradientUnits="userSpaceOnUse">
<stop stop-color="#9172CF"/>
<stop offset="1" stop-color="#FE1BF6"/>
</linearGradient>
<linearGradient id="paint3_linear_147_734" x1="913.82" y1="723.265" x2="822.153" y2="223.604" gradientUnits="userSpaceOnUse">
<stop stop-color="#9172CF"/>
<stop offset="1" stop-color="#FE1BF6"/>
</linearGradient>
<linearGradient id="paint4_linear_147_734" x1="904.929" y1="725.58" x2="822.148" y2="225.315" gradientUnits="userSpaceOnUse">
<stop stop-color="#9172CF"/>
<stop offset="1" stop-color="#FE1BF6"/>
</linearGradient>
<linearGradient id="paint5_linear_147_734" x1="896.04" y1="727.816" x2="822.139" y2="227.105" gradientUnits="userSpaceOnUse">
<stop stop-color="#9172CF"/>
<stop offset="1" stop-color="#FE1BF6"/>
</linearGradient>
<linearGradient id="paint6_linear_147_734" x1="887.156" y1="729.975" x2="822.125" y2="228.975" gradientUnits="userSpaceOnUse">
<stop stop-color="#9172CF"/>
<stop offset="1" stop-color="#FE1BF6"/>
</linearGradient>
<linearGradient id="paint7_linear_147_734" x1="878.278" y1="732.059" x2="822.105" y2="230.926" gradientUnits="userSpaceOnUse">
<stop stop-color="#9172CF"/>
<stop offset="1" stop-color="#FE1BF6"/>
</linearGradient>
<linearGradient id="paint8_linear_147_734" x1="869.407" y1="734.065" x2="822.076" y2="232.956" gradientUnits="userSpaceOnUse">
<stop stop-color="#9172CF"/>
<stop offset="1" stop-color="#FE1BF6"/>
</linearGradient>
<linearGradient id="paint9_linear_147_734" x1="860.545" y1="735.994" x2="822.038" y2="235.065" gradientUnits="userSpaceOnUse">
<stop stop-color="#9172CF"/>
<stop offset="1" stop-color="#FE1BF6"/>
</linearGradient>
<linearGradient id="paint10_linear_147_734" x1="851.692" y1="737.848" x2="821.989" y2="237.254" gradientUnits="userSpaceOnUse">
<stop stop-color="#9172CF"/>
<stop offset="1" stop-color="#FE1BF6"/>
</linearGradient>
<linearGradient id="paint11_linear_147_734" x1="842.851" y1="739.625" x2="821.927" y2="239.519" gradientUnits="userSpaceOnUse">
<stop stop-color="#9172CF"/>
<stop offset="1" stop-color="#FE1BF6"/>
</linearGradient>
<linearGradient id="paint12_linear_147_734" x1="834.022" y1="741.328" x2="821.853" y2="241.866" gradientUnits="userSpaceOnUse">
<stop stop-color="#9172CF"/>
<stop offset="1" stop-color="#FE1BF6"/>
</linearGradient>
<linearGradient id="paint13_linear_147_734" x1="825.207" y1="742.956" x2="821.763" y2="244.289" gradientUnits="userSpaceOnUse">
<stop stop-color="#9172CF"/>
<stop offset="1" stop-color="#FE1BF6"/>
</linearGradient>
<linearGradient id="paint14_linear_147_734" x1="816.408" y1="744.508" x2="821.657" y2="246.789" gradientUnits="userSpaceOnUse">
<stop stop-color="#9172CF"/>
<stop offset="1" stop-color="#FE1BF6"/>
</linearGradient>
<linearGradient id="paint15_linear_147_734" x1="807.625" y1="745.986" x2="821.533" y2="249.366" gradientUnits="userSpaceOnUse">
<stop stop-color="#9172CF"/>
<stop offset="1" stop-color="#FE1BF6"/>
</linearGradient>
<linearGradient id="paint16_linear_147_734" x1="798.859" y1="747.392" x2="821.39" y2="252.021" gradientUnits="userSpaceOnUse">
<stop stop-color="#9172CF"/>
<stop offset="1" stop-color="#FE1BF6"/>
</linearGradient>
<linearGradient id="paint17_linear_147_734" x1="790.113" y1="748.723" x2="821.227" y2="254.751" gradientUnits="userSpaceOnUse">
<stop stop-color="#9172CF"/>
<stop offset="1" stop-color="#FE1BF6"/>
</linearGradient>
<linearGradient id="paint18_linear_147_734" x1="781.387" y1="749.981" x2="821.043" y2="257.558" gradientUnits="userSpaceOnUse">
<stop stop-color="#9172CF"/>
<stop offset="1" stop-color="#FE1BF6"/>
</linearGradient>
<linearGradient id="paint19_linear_147_734" x1="772.682" y1="751.165" x2="820.835" y2="260.436" gradientUnits="userSpaceOnUse">
<stop stop-color="#9172CF"/>
<stop offset="1" stop-color="#FE1BF6"/>
</linearGradient>
<linearGradient id="paint20_linear_147_734" x1="764.001" y1="752.281" x2="820.603" y2="263.393" gradientUnits="userSpaceOnUse">
<stop stop-color="#9172CF"/>
<stop offset="1" stop-color="#FE1BF6"/>
</linearGradient>
<linearGradient id="paint21_linear_147_734" x1="755.343" y1="753.323" x2="820.346" y2="266.421" gradientUnits="userSpaceOnUse">
<stop stop-color="#9172CF"/>
<stop offset="1" stop-color="#FE1BF6"/>
</linearGradient>
<linearGradient id="paint22_linear_147_734" x1="746.711" y1="754.295" x2="820.062" y2="269.524" gradientUnits="userSpaceOnUse">
<stop stop-color="#9172CF"/>
<stop offset="1" stop-color="#FE1BF6"/>
</linearGradient>
<linearGradient id="paint23_linear_147_734" x1="738.105" y1="755.198" x2="819.75" y2="272.699" gradientUnits="userSpaceOnUse">
<stop stop-color="#9172CF"/>
<stop offset="1" stop-color="#FE1BF6"/>
</linearGradient>
<linearGradient id="paint24_linear_147_734" x1="729.527" y1="756.03" x2="819.408" y2="275.945" gradientUnits="userSpaceOnUse">
<stop stop-color="#9172CF"/>
<stop offset="1" stop-color="#FE1BF6"/>
</linearGradient>
<linearGradient id="paint25_linear_147_734" x1="720.977" y1="756.792" x2="819.036" y2="279.263" gradientUnits="userSpaceOnUse">
<stop stop-color="#9172CF"/>
<stop offset="1" stop-color="#FE1BF6"/>
</linearGradient>
<linearGradient id="paint26_linear_147_734" x1="712.458" y1="757.488" x2="818.633" y2="282.652" gradientUnits="userSpaceOnUse">
<stop stop-color="#9172CF"/>
<stop offset="1" stop-color="#FE1BF6"/>
</linearGradient>
<linearGradient id="paint27_linear_147_734" x1="703.97" y1="758.115" x2="818.197" y2="286.111" gradientUnits="userSpaceOnUse">
<stop stop-color="#9172CF"/>
<stop offset="1" stop-color="#FE1BF6"/>
</linearGradient>
<linearGradient id="paint28_linear_147_734" x1="695.515" y1="758.677" x2="817.726" y2="289.64" gradientUnits="userSpaceOnUse">
<stop stop-color="#9172CF"/>
<stop offset="1" stop-color="#FE1BF6"/>
</linearGradient>
<linearGradient id="paint29_linear_147_734" x1="687.092" y1="759.171" x2="817.22" y2="293.236" gradientUnits="userSpaceOnUse">
<stop stop-color="#9172CF"/>
<stop offset="1" stop-color="#FE1BF6"/>
</linearGradient>
<linearGradient id="paint30_linear_147_734" x1="678.705" y1="759.601" x2="816.678" y2="296.901" gradientUnits="userSpaceOnUse">
<stop stop-color="#9172CF"/>
<stop offset="1" stop-color="#FE1BF6"/>
</linearGradient>
<linearGradient id="paint31_linear_147_734" x1="670.352" y1="759.964" x2="816.099" y2="300.631" gradientUnits="userSpaceOnUse">
<stop stop-color="#9172CF"/>
<stop offset="1" stop-color="#FE1BF6"/>
</linearGradient>
<linearGradient id="paint32_linear_147_734" x1="662.037" y1="760.265" x2="815.48" y2="304.429" gradientUnits="userSpaceOnUse">
<stop stop-color="#9172CF"/>
<stop offset="1" stop-color="#FE1BF6"/>
</linearGradient>
<linearGradient id="paint33_linear_147_734" x1="653.76" y1="760.501" x2="814.822" y2="308.291" gradientUnits="userSpaceOnUse">
<stop stop-color="#9172CF"/>
<stop offset="1" stop-color="#FE1BF6"/>
</linearGradient>
<linearGradient id="paint34_linear_147_734" x1="645.521" y1="760.677" x2="814.123" y2="312.219" gradientUnits="userSpaceOnUse">
<stop stop-color="#9172CF"/>
<stop offset="1" stop-color="#FE1BF6"/>
</linearGradient>
<linearGradient id="paint35_linear_147_734" x1="637.323" y1="760.79" x2="813.382" y2="316.21" gradientUnits="userSpaceOnUse">
<stop stop-color="#9172CF"/>
<stop offset="1" stop-color="#FE1BF6"/>
</linearGradient>
<linearGradient id="paint36_linear_147_734" x1="629.165" y1="760.844" x2="812.599" y2="320.264" gradientUnits="userSpaceOnUse">
<stop stop-color="#9172CF"/>
<stop offset="1" stop-color="#FE1BF6"/>
</linearGradient>
<linearGradient id="paint37_linear_147_734" x1="621.05" y1="760.836" x2="811.771" y2="324.379" gradientUnits="userSpaceOnUse">
<stop stop-color="#9172CF"/>
<stop offset="1" stop-color="#FE1BF6"/>
</linearGradient>
<linearGradient id="paint38_linear_147_734" x1="612.977" y1="760.77" x2="810.898" y2="328.556" gradientUnits="userSpaceOnUse">
<stop stop-color="#9172CF"/>
<stop offset="1" stop-color="#FE1BF6"/>
</linearGradient>
<linearGradient id="paint39_linear_147_734" x1="604.948" y1="760.644" x2="809.98" y2="332.79" gradientUnits="userSpaceOnUse">
<stop stop-color="#9172CF"/>
<stop offset="1" stop-color="#FE1BF6"/>
</linearGradient>
<linearGradient id="paint40_linear_147_734" x1="596.964" y1="760.464" x2="809.014" y2="337.087" gradientUnits="userSpaceOnUse">
<stop stop-color="#9172CF"/>
<stop offset="1" stop-color="#FE1BF6"/>
</linearGradient>
<linearGradient id="paint41_linear_147_734" x1="589.025" y1="760.226" x2="808" y2="341.44" gradientUnits="userSpaceOnUse">
<stop stop-color="#9172CF"/>
<stop offset="1" stop-color="#FE1BF6"/>
</linearGradient>
<linearGradient id="paint42_linear_147_734" x1="581.134" y1="759.933" x2="806.938" y2="345.851" gradientUnits="userSpaceOnUse">
<stop stop-color="#9172CF"/>
<stop offset="1" stop-color="#FE1BF6"/>
</linearGradient>
<linearGradient id="paint43_linear_147_734" x1="573.29" y1="759.585" x2="805.826" y2="350.318" gradientUnits="userSpaceOnUse">
<stop stop-color="#9172CF"/>
<stop offset="1" stop-color="#FE1BF6"/>
</linearGradient>
<linearGradient id="paint44_linear_147_734" x1="565.494" y1="759.185" x2="804.663" y2="354.841" gradientUnits="userSpaceOnUse">
<stop stop-color="#9172CF"/>
<stop offset="1" stop-color="#FE1BF6"/>
</linearGradient>
<linearGradient id="paint45_linear_147_734" x1="557.748" y1="758.732" x2="803.448" y2="359.417" gradientUnits="userSpaceOnUse">
<stop stop-color="#9172CF"/>
<stop offset="1" stop-color="#FE1BF6"/>
</linearGradient>
<linearGradient id="paint46_linear_147_734" x1="550.051" y1="758.226" x2="802.182" y2="364.045" gradientUnits="userSpaceOnUse">
<stop stop-color="#9172CF"/>
<stop offset="1" stop-color="#FE1BF6"/>
</linearGradient>
<linearGradient id="paint47_linear_147_734" x1="542.406" y1="757.671" x2="800.861" y2="368.727" gradientUnits="userSpaceOnUse">
<stop stop-color="#9172CF"/>
<stop offset="1" stop-color="#FE1BF6"/>
</linearGradient>
<linearGradient id="paint48_linear_147_734" x1="534.812" y1="757.065" x2="799.487" y2="373.458" gradientUnits="userSpaceOnUse">
<stop stop-color="#9172CF"/>
<stop offset="1" stop-color="#FE1BF6"/>
</linearGradient>
<linearGradient id="paint49_linear_147_734" x1="527.271" y1="756.413" x2="798.058" y2="378.241" gradientUnits="userSpaceOnUse">
<stop stop-color="#9172CF"/>
<stop offset="1" stop-color="#FE1BF6"/>
</linearGradient>
<linearGradient id="paint50_linear_147_734" x1="519.783" y1="755.712" x2="796.573" y2="383.072" gradientUnits="userSpaceOnUse">
<stop stop-color="#9172CF"/>
<stop offset="1" stop-color="#FE1BF6"/>
</linearGradient>
<linearGradient id="paint51_linear_147_734" x1="512.35" y1="754.965" x2="795.032" y2="387.951" gradientUnits="userSpaceOnUse">
<stop stop-color="#9172CF"/>
<stop offset="1" stop-color="#FE1BF6"/>
</linearGradient>
<linearGradient id="paint52_linear_147_734" x1="504.971" y1="754.173" x2="793.433" y2="392.877" gradientUnits="userSpaceOnUse">
<stop stop-color="#9172CF"/>
<stop offset="1" stop-color="#FE1BF6"/>
</linearGradient>
<linearGradient id="paint53_linear_147_734" x1="497.647" y1="753.336" x2="791.777" y2="397.847" gradientUnits="userSpaceOnUse">
<stop stop-color="#9172CF"/>
<stop offset="1" stop-color="#FE1BF6"/>
</linearGradient>
<linearGradient id="paint54_linear_147_734" x1="490.379" y1="752.456" x2="790.062" y2="402.862" gradientUnits="userSpaceOnUse">
<stop stop-color="#9172CF"/>
<stop offset="1" stop-color="#FE1BF6"/>
</linearGradient>
<linearGradient id="paint55_linear_147_734" x1="483.169" y1="751.535" x2="788.288" y2="407.922" gradientUnits="userSpaceOnUse">
<stop stop-color="#9172CF"/>
<stop offset="1" stop-color="#FE1BF6"/>
</linearGradient>
<linearGradient id="paint56_linear_147_734" x1="476.015" y1="750.572" x2="786.454" y2="413.022" gradientUnits="userSpaceOnUse">
<stop stop-color="#9172CF"/>
<stop offset="1" stop-color="#FE1BF6"/>
</linearGradient>
<linearGradient id="paint57_linear_147_734" x1="468.92" y1="749.57" x2="784.559" y2="418.164" gradientUnits="userSpaceOnUse">
<stop stop-color="#9172CF"/>
<stop offset="1" stop-color="#FE1BF6"/>
</linearGradient>
<linearGradient id="paint58_linear_147_734" x1="461.883" y1="748.528" x2="782.603" y2="423.345" gradientUnits="userSpaceOnUse">
<stop stop-color="#9172CF"/>
<stop offset="1" stop-color="#FE1BF6"/>
</linearGradient>
<linearGradient id="paint59_linear_147_734" x1="454.905" y1="747.449" x2="780.586" y2="428.566" gradientUnits="userSpaceOnUse">
<stop stop-color="#9172CF"/>
<stop offset="1" stop-color="#FE1BF6"/>
</linearGradient>
<linearGradient id="paint60_linear_147_734" x1="447.987" y1="746.334" x2="778.507" y2="433.823" gradientUnits="userSpaceOnUse">
<stop stop-color="#9172CF"/>
<stop offset="1" stop-color="#FE1BF6"/>
</linearGradient>
<linearGradient id="paint61_linear_147_734" x1="441.129" y1="745.184" x2="776.364" y2="439.117" gradientUnits="userSpaceOnUse">
<stop stop-color="#9172CF"/>
<stop offset="1" stop-color="#FE1BF6"/>
</linearGradient>
<linearGradient id="paint62_linear_147_734" x1="434.332" y1="744" x2="774.159" y2="444.447" gradientUnits="userSpaceOnUse">
<stop stop-color="#9172CF"/>
<stop offset="1" stop-color="#FE1BF6"/>
</linearGradient>
<linearGradient id="paint63_linear_147_734" x1="427.596" y1="742.782" x2="771.889" y2="449.809" gradientUnits="userSpaceOnUse">
<stop stop-color="#9172CF"/>
<stop offset="1" stop-color="#FE1BF6"/>
</linearGradient>
<linearGradient id="paint64_linear_147_734" x1="420.922" y1="741.533" x2="769.555" y2="455.205" gradientUnits="userSpaceOnUse">
<stop stop-color="#9172CF"/>
<stop offset="1" stop-color="#FE1BF6"/>
</linearGradient>
<linearGradient id="paint65_linear_147_734" x1="414.31" y1="740.251" x2="767.157" y2="460.631" gradientUnits="userSpaceOnUse">
<stop stop-color="#9172CF"/>
<stop offset="1" stop-color="#FE1BF6"/>
</linearGradient>
<linearGradient id="paint66_linear_147_734" x1="407.761" y1="738.942" x2="764.693" y2="466.088" gradientUnits="userSpaceOnUse">
<stop stop-color="#9172CF"/>
<stop offset="1" stop-color="#FE1BF6"/>
</linearGradient>
<linearGradient id="paint67_linear_147_734" x1="401.274" y1="737.603" x2="762.164" y2="471.574" gradientUnits="userSpaceOnUse">
<stop stop-color="#9172CF"/>
<stop offset="1" stop-color="#FE1BF6"/>
</linearGradient>
<linearGradient id="paint68_linear_147_734" x1="394.851" y1="736.237" x2="759.568" y2="477.086" gradientUnits="userSpaceOnUse">
<stop stop-color="#9172CF"/>
<stop offset="1" stop-color="#FE1BF6"/>
</linearGradient>
<linearGradient id="paint69_linear_147_734" x1="388.491" y1="734.847" x2="756.907" y2="482.628" gradientUnits="userSpaceOnUse">
<stop stop-color="#9172CF"/>
<stop offset="1" stop-color="#FE1BF6"/>
</linearGradient>
<linearGradient id="paint70_linear_147_734" x1="382.196" y1="733.43" x2="754.179" y2="488.192" gradientUnits="userSpaceOnUse">
<stop stop-color="#9172CF"/>
<stop offset="1" stop-color="#FE1BF6"/>
</linearGradient>
<linearGradient id="paint71_linear_147_734" x1="375.964" y1="731.991" x2="751.383" y2="493.782" gradientUnits="userSpaceOnUse">
<stop stop-color="#9172CF"/>
<stop offset="1" stop-color="#FE1BF6"/>
</linearGradient>
<linearGradient id="paint72_linear_147_734" x1="369.797" y1="730.529" x2="748.521" y2="499.393" gradientUnits="userSpaceOnUse">
<stop stop-color="#9172CF"/>
<stop offset="1" stop-color="#FE1BF6"/>
</linearGradient>
<linearGradient id="paint73_linear_147_734" x1="363.695" y1="729.047" x2="745.592" y2="505.028" gradientUnits="userSpaceOnUse">
<stop stop-color="#9172CF"/>
<stop offset="1" stop-color="#FE1BF6"/>
</linearGradient>
<linearGradient id="paint74_linear_147_734" x1="357.658" y1="727.543" x2="742.594" y2="510.68" gradientUnits="userSpaceOnUse">
<stop stop-color="#9172CF"/>
<stop offset="1" stop-color="#FE1BF6"/>
</linearGradient>
<linearGradient id="paint75_linear_147_734" x1="351.687" y1="726.022" x2="739.529" y2="516.353" gradientUnits="userSpaceOnUse">
<stop stop-color="#9172CF"/>
<stop offset="1" stop-color="#FE1BF6"/>
</linearGradient>
<linearGradient id="paint76_linear_147_734" x1="345.781" y1="724.483" x2="736.395" y2="522.045" gradientUnits="userSpaceOnUse">
<stop stop-color="#9172CF"/>
<stop offset="1" stop-color="#FE1BF6"/>
</linearGradient>
<linearGradient id="paint77_linear_147_734" x1="339.94" y1="722.929" x2="733.194" y2="527.752" gradientUnits="userSpaceOnUse">
<stop stop-color="#9172CF"/>
<stop offset="1" stop-color="#FE1BF6"/>
</linearGradient>
<linearGradient id="paint78_linear_147_734" x1="334.166" y1="721.357" x2="729.923" y2="533.473" gradientUnits="userSpaceOnUse">
<stop stop-color="#9172CF"/>
<stop offset="1" stop-color="#FE1BF6"/>
</linearGradient>
<linearGradient id="paint79_linear_147_734" x1="328.457" y1="719.774" x2="726.584" y2="539.21" gradientUnits="userSpaceOnUse">
<stop stop-color="#9172CF"/>
<stop offset="1" stop-color="#FE1BF6"/>
</linearGradient>
<linearGradient id="paint80_linear_147_734" x1="322.814" y1="718.176" x2="723.176" y2="544.958" gradientUnits="userSpaceOnUse">
<stop stop-color="#9172CF"/>
<stop offset="1" stop-color="#FE1BF6"/>
</linearGradient>
<linearGradient id="paint81_linear_147_734" x1="317.237" y1="716.567" x2="719.7" y2="550.719" gradientUnits="userSpaceOnUse">
<stop stop-color="#9172CF"/>
<stop offset="1" stop-color="#FE1BF6"/>
</linearGradient>
<linearGradient id="paint82_linear_147_734" x1="311.727" y1="714.948" x2="716.155" y2="556.488" gradientUnits="userSpaceOnUse">
<stop stop-color="#9172CF"/>
<stop offset="1" stop-color="#FE1BF6"/>
</linearGradient>
<linearGradient id="paint83_linear_147_734" x1="306.283" y1="713.32" x2="712.541" y2="562.268" gradientUnits="userSpaceOnUse">
<stop stop-color="#9172CF"/>
<stop offset="1" stop-color="#FE1BF6"/>
</linearGradient>
<linearGradient id="paint84_linear_147_734" x1="300.905" y1="711.684" x2="708.858" y2="568.054" gradientUnits="userSpaceOnUse">
<stop stop-color="#9172CF"/>
<stop offset="1" stop-color="#FE1BF6"/>
</linearGradient>
<linearGradient id="paint85_linear_147_734" x1="295.593" y1="710.041" x2="705.107" y2="573.848" gradientUnits="userSpaceOnUse">
<stop stop-color="#9172CF"/>
<stop offset="1" stop-color="#FE1BF6"/>
</linearGradient>
<linearGradient id="paint86_linear_147_734" x1="290.348" y1="708.394" x2="701.286" y2="579.647" gradientUnits="userSpaceOnUse">
<stop stop-color="#9172CF"/>
<stop offset="1" stop-color="#FE1BF6"/>
</linearGradient>
<linearGradient id="paint87_linear_147_734" x1="285.168" y1="706.742" x2="697.397" y2="585.449" gradientUnits="userSpaceOnUse">
<stop stop-color="#9172CF"/>
<stop offset="1" stop-color="#FE1BF6"/>
</linearGradient>
<linearGradient id="paint88_linear_147_734" x1="280.055" y1="705.086" x2="693.439" y2="591.254" gradientUnits="userSpaceOnUse">
<stop stop-color="#9172CF"/>
<stop offset="1" stop-color="#FE1BF6"/>
</linearGradient>
<linearGradient id="paint89_linear_147_734" x1="275.008" y1="703.431" x2="689.413" y2="597.062" gradientUnits="userSpaceOnUse">
<stop stop-color="#9172CF"/>
<stop offset="1" stop-color="#FE1BF6"/>
</linearGradient>
<linearGradient id="paint90_linear_147_734" x1="270.027" y1="701.772" x2="685.318" y2="602.868" gradientUnits="userSpaceOnUse">
<stop stop-color="#9172CF"/>
<stop offset="1" stop-color="#FE1BF6"/>
</linearGradient>
<linearGradient id="paint91_linear_147_734" x1="265.111" y1="700.115" x2="681.155" y2="608.674" gradientUnits="userSpaceOnUse">
<stop stop-color="#9172CF"/>
<stop offset="1" stop-color="#FE1BF6"/>
</linearGradient>
<linearGradient id="paint92_linear_147_734" x1="260.261" y1="698.459" x2="676.923" y2="614.477" gradientUnits="userSpaceOnUse">
<stop stop-color="#9172CF"/>
<stop offset="1" stop-color="#FE1BF6"/>
</linearGradient>
<linearGradient id="paint93_linear_147_734" x1="255.476" y1="696.809" x2="672.624" y2="620.279" gradientUnits="userSpaceOnUse">
<stop stop-color="#9172CF"/>
<stop offset="1" stop-color="#FE1BF6"/>
</linearGradient>
<linearGradient id="paint94_linear_147_734" x1="250.757" y1="695.159" x2="668.258" y2="626.074" gradientUnits="userSpaceOnUse">
<stop stop-color="#9172CF"/>
<stop offset="1" stop-color="#FE1BF6"/>
</linearGradient>
<linearGradient id="paint95_linear_147_734" x1="246.103" y1="693.516" x2="663.823" y2="631.864" gradientUnits="userSpaceOnUse">
<stop stop-color="#9172CF"/>
<stop offset="1" stop-color="#FE1BF6"/>
</linearGradient>
<linearGradient id="paint96_linear_147_734" x1="241.513" y1="691.878" x2="659.321" y2="637.645" gradientUnits="userSpaceOnUse">
<stop stop-color="#9172CF"/>
<stop offset="1" stop-color="#FE1BF6"/>
</linearGradient>
<linearGradient id="paint97_linear_147_734" x1="236.988" y1="690.249" x2="654.753" y2="643.42" gradientUnits="userSpaceOnUse">
<stop stop-color="#9172CF"/>
<stop offset="1" stop-color="#FE1BF6"/>
</linearGradient>
<linearGradient id="paint98_linear_147_734" x1="232.527" y1="688.628" x2="650.118" y2="649.185" gradientUnits="userSpaceOnUse">
<stop stop-color="#9172CF"/>
<stop offset="1" stop-color="#FE1BF6"/>
</linearGradient>
</defs>
</svg>
