<svg width="146" height="39" viewBox="0 0 146 39" fill="none" xmlns="http://www.w3.org/2000/svg">
<path d="M11.1567 4.51905V8.02481C10.6125 7.53609 10.0724 7.18095 9.53234 6.95288C8.99224 6.72481 8.41184 6.61078 7.79919 6.61078C6.65853 6.61078 5.73553 6.92682 5.03017 7.55564C4.32482 8.18772 3.97013 9.00551 3.97013 10.0188C3.97013 10.9637 4.32885 11.7456 5.05033 12.3679C5.76777 12.9902 6.68675 13.2997 7.79919 13.2997C8.41184 13.2997 8.99224 13.1857 9.53234 12.9576C10.0724 12.7296 10.6166 12.3712 11.1567 11.8759V15.3882C10.5239 15.6326 9.90316 15.8183 9.27842 15.9421C8.6577 16.0659 8.0249 16.1246 7.3921 16.1246C6.59404 16.1246 5.86048 16.0464 5.1914 15.8932C4.51829 15.7434 3.89758 15.5088 3.33733 15.1992C2.2531 14.6095 1.4228 13.8699 0.854483 12.9739C0.28617 12.0779 0 11.0712 0 9.95038C0 9.05113 0.181379 8.23333 0.544132 7.49699C0.902854 6.76065 1.45101 6.09273 2.18055 5.49323C2.86978 4.9198 3.64768 4.49298 4.51023 4.20627C5.37277 3.92281 6.33609 3.78271 7.39613 3.78271C8.02893 3.78271 8.66173 3.84135 9.28244 3.96516C9.90718 4.08897 10.5319 4.27469 11.1607 4.51905H11.1567ZM13.4944 15.8281V4.06291H17.5008V15.8248H13.4944V15.8281ZM20.7011 15.8281V4.06291H29.6168V6.6401H24.5664V8.6797H29.3266V11.2048H24.5664V13.189H29.6168V15.8248H20.7011V15.8281ZM22.0554 2.81178L23.8732 0H26.618L28.4277 2.81178H26.9082L25.2557 1.36516L23.587 2.81178H22.0554ZM32.2407 15.8281V4.06291H36.0697L41.5674 10.1133C41.6722 10.2371 41.8456 10.4847 42.0914 10.8561C42.3333 11.2276 42.5952 11.6707 42.8895 12.1855C42.8129 11.6967 42.7524 11.2634 42.7162 10.8822C42.6799 10.5043 42.6638 10.1654 42.6638 9.86892V4.06291H46.4727V15.8248H42.6638L37.1661 9.74837C37.0532 9.62456 36.8759 9.37694 36.634 9.00552C36.3922 8.63409 36.1302 8.19749 35.848 7.69248C35.9246 8.18772 35.9851 8.62105 36.0214 9.00226C36.0576 9.3802 36.0738 9.71905 36.0738 10.0155V15.8248H32.2447L32.2407 15.8281ZM60.1323 4.51905V8.02481C59.5882 7.53609 59.0481 7.18095 58.508 6.95288C57.9679 6.72481 57.3875 6.61078 56.7749 6.61078C55.6342 6.61078 54.7112 6.92682 54.0059 7.55564C53.3005 8.18772 52.9458 9.00551 52.9458 10.0188C52.9458 10.9637 53.3045 11.7456 54.026 12.3679C54.7434 12.9902 55.6624 13.2997 56.7749 13.2997C57.3875 13.2997 57.9679 13.1857 58.508 12.9576C59.0481 12.7296 59.5922 12.3712 60.1323 11.8759V15.3882C59.4995 15.6326 58.8788 15.8183 58.2541 15.9421C57.6334 16.0659 57.0006 16.1246 56.3678 16.1246C55.5697 16.1246 54.8361 16.0464 54.1671 15.8932C53.494 15.7434 52.8732 15.5088 52.313 15.1992C51.2288 14.6095 50.3985 13.8699 49.8302 12.9739C49.2618 12.0779 48.9757 11.0712 48.9757 9.95038C48.9757 9.05113 49.1571 8.23333 49.5198 7.49699C49.8785 6.76065 50.4267 6.09273 51.1562 5.49323C51.8455 4.9198 52.6234 4.49298 53.4859 4.20627C54.3484 3.92281 55.3118 3.78271 56.3718 3.78271C57.0046 3.78271 57.6374 3.84135 58.2581 3.96516C58.8829 4.08897 59.5076 4.27469 60.1364 4.51905H60.1323ZM62.4701 15.8281V4.06291H66.4765V15.8248H62.4701V15.8281ZM73.526 11.4328H77.4719L75.9887 7.55238C75.9443 7.43509 75.8798 7.24612 75.8033 6.98221C75.7227 6.72155 75.6219 6.38271 75.4929 5.96892C75.4083 6.2589 75.3236 6.53258 75.239 6.79649C75.1584 7.0604 75.0737 7.30802 74.9891 7.54912L73.526 11.4296V11.4328ZM67.9678 15.8281L72.9899 4.06291H77.9596L82.9898 15.8281H79.0439L78.3063 13.7233H72.6715L71.9137 15.8281H67.9678ZM90.7527 15.8281V4.06291H93.7837C96.0449 4.06291 97.645 4.14762 98.5801 4.3203C99.5152 4.48972 100.341 4.7797 101.051 5.17719C101.97 5.6985 102.671 6.36316 103.147 7.17444C103.626 7.98571 103.864 8.91429 103.864 9.95038C103.864 10.9865 103.626 11.9183 103.147 12.7296C102.667 13.5409 101.97 14.2055 101.051 14.7268C100.35 15.1211 99.5475 15.4045 98.6446 15.5739C97.7418 15.7401 96.3431 15.8248 94.4528 15.8248H90.7527V15.8281ZM94.6785 13.1922H95.3436C96.8994 13.1922 98.04 12.9348 98.7575 12.4168C99.4749 11.902 99.8296 11.081 99.8296 9.95364C99.8296 8.82632 99.4749 8.00201 98.7575 7.4807C98.04 6.95614 96.9034 6.69223 95.3436 6.69223H94.6785V13.1922ZM109.842 11.4328H113.788L112.304 7.55238C112.26 7.43509 112.195 7.24612 112.119 6.98221C112.038 6.72155 111.938 6.38271 111.809 5.96892C111.724 6.2589 111.639 6.53258 111.555 6.79649C111.474 7.0604 111.389 7.30802 111.305 7.54912L109.842 11.4296V11.4328ZM104.283 15.8281L109.306 4.06291H114.275L119.305 15.8281H115.359L114.622 13.7233H108.987L108.229 15.8281H104.283ZM11.1567 23.7975V27.3033C10.6125 26.8145 10.0724 26.4594 9.53234 26.2313C8.99224 26.0033 8.41184 25.8892 7.79919 25.8892C6.65853 25.8892 5.73553 26.2053 5.03017 26.8341C4.32482 27.4662 3.97013 28.284 3.97013 29.2972C3.97013 30.2421 4.32885 31.0241 5.05033 31.6464C5.76777 32.2687 6.68675 32.5782 7.79919 32.5782C8.41184 32.5782 8.99224 32.4642 9.53234 32.2361C10.0724 32.008 10.6166 31.6496 11.1567 31.1544V34.6667C10.5239 34.911 9.90316 35.0967 9.27842 35.2206C8.6577 35.3444 8.0249 35.403 7.3921 35.403C6.59404 35.403 5.86048 35.3248 5.1914 35.1717C4.51829 35.0218 3.89758 34.7872 3.33733 34.4777C2.2531 33.888 1.4228 33.1484 0.854483 32.2524C0.28617 31.3564 0 30.3496 0 29.2288C0 28.3296 0.181379 27.5118 0.544132 26.7754C0.902854 26.0391 1.45101 25.3712 2.18055 24.7717C2.86978 24.1982 3.64768 23.7714 4.51023 23.4847C5.37277 23.2013 6.33609 23.0612 7.39613 23.0612C8.02893 23.0612 8.66173 23.1198 9.28244 23.2436C9.90718 23.3674 10.5319 23.5531 11.1607 23.7975H11.1567ZM28.335 29.2484C28.335 30.0955 28.1416 30.8872 27.7587 31.6268C27.3758 32.3664 26.8155 33.0278 26.0779 33.611C25.3363 34.191 24.4858 34.6341 23.5346 34.9501C22.5794 35.2629 21.5919 35.4193 20.5641 35.4193C19.5363 35.4193 18.5286 35.2629 17.5774 34.9501C16.6221 34.6341 15.7878 34.191 15.0663 33.611C14.3167 33.0278 13.7483 32.3632 13.3614 31.617C12.9745 30.8742 12.781 30.0825 12.781 29.2484C12.781 28.4143 12.9745 27.616 13.3614 26.8732C13.7524 26.1336 14.3167 25.4689 15.0663 24.8857C15.7878 24.3058 16.6221 23.8627 17.5774 23.5466C18.5286 23.2338 19.5201 23.0774 20.5641 23.0774C21.608 23.0774 22.5914 23.2338 23.5507 23.5466C24.51 23.8627 25.3524 24.3058 26.0819 24.8857C26.8115 25.4657 27.3677 26.1238 27.7587 26.8699C28.1456 27.6128 28.3391 28.4045 28.3391 29.2484H28.335ZM20.56 32.7053C21.6604 32.7053 22.5673 32.3794 23.2887 31.7246C24.0062 31.0697 24.3689 30.2421 24.3689 29.2484C24.3689 28.2546 24.0062 27.4401 23.2766 26.7787C22.5471 26.1206 21.6402 25.7915 20.5641 25.7915C19.4879 25.7915 18.5568 26.1206 17.8354 26.7754C17.1179 27.4303 16.7552 28.2579 16.7552 29.2484C16.7552 30.2388 17.1098 31.0827 17.8192 31.7311C18.5286 32.3827 19.4436 32.7053 20.5641 32.7053H20.56ZM47.5126 35.1065H43.8044L42.95 30.0206C42.8935 29.6622 42.8371 29.2614 42.7887 28.8216C42.7363 28.3817 42.692 27.9028 42.6517 27.3847C42.559 27.8799 42.3776 28.5023 42.1035 29.2484C42.0471 29.4048 42.0028 29.5188 41.9745 29.5937L39.9955 35.1065H37.3515L35.3724 29.5937C35.3442 29.5188 35.3039 29.4048 35.2556 29.2484C34.9774 28.5055 34.7961 27.8865 34.7074 27.3945C34.6671 27.8376 34.6187 28.2774 34.5704 28.714C34.518 29.1539 34.4535 29.5872 34.3809 30.0238L33.5264 35.1098H29.8384L32.0835 23.3446H36.0093L38.2059 29.4113C38.218 29.4536 38.2462 29.5253 38.2825 29.6198C38.4881 30.1607 38.6171 30.6233 38.6735 31.011C38.6977 30.8025 38.7501 30.5679 38.8186 30.3138C38.8911 30.0629 38.9919 29.7534 39.1169 29.395L41.3377 23.3446H45.2756L47.5126 35.1098V35.1065ZM53.369 35.1065H49.6488V23.3414H53.7963C55.4165 23.3414 56.5572 23.4033 57.2182 23.5336C57.8712 23.6639 58.4274 23.8822 58.8869 24.195C59.423 24.5501 59.8341 24.9997 60.1162 25.5373C60.3984 26.0782 60.5354 26.6744 60.5354 27.3326C60.5354 28.0363 60.3984 28.6521 60.1162 29.1832C59.8381 29.7175 59.427 30.1541 58.8829 30.4962C58.4717 30.7536 57.9881 30.9393 57.4319 31.0501C56.8756 31.1609 55.9849 31.2195 54.7596 31.2195H53.369V35.1V35.1065ZM53.369 28.6391H54.1268C55.082 28.6391 55.7471 28.5316 56.1219 28.3198C56.4968 28.108 56.6902 27.7496 56.6902 27.2381C56.6902 26.7266 56.5048 26.3942 56.134 26.1857C55.7632 25.9772 55.1062 25.8729 54.1671 25.8729H53.373V28.6391H53.369ZM62.466 23.3414H66.4241V29.0627C66.4241 29.9033 66.4523 30.5093 66.5007 30.8742C66.5531 31.2391 66.6417 31.5454 66.7707 31.793C66.9198 32.0927 67.1899 32.3208 67.5647 32.4804C67.9396 32.6368 68.4031 32.715 68.9472 32.715C69.4914 32.715 69.9468 32.6368 70.3257 32.4804C70.7005 32.3208 70.9666 32.0895 71.1238 31.793C71.2527 31.5454 71.3414 31.2391 71.3938 30.8742C71.4462 30.506 71.4704 29.9033 71.4704 29.0627V23.3414H75.4163V29.5612C75.4163 30.8514 75.3196 31.8028 75.1261 32.4153C74.9327 33.0311 74.6102 33.5524 74.1507 33.9857C73.655 34.4614 72.9698 34.8198 72.1032 35.0576C71.2326 35.2955 70.1806 35.4128 68.9392 35.4128C67.6978 35.4128 66.6377 35.2955 65.7752 35.0576C64.9086 34.8198 64.2234 34.4581 63.7236 33.9857C63.2722 33.5491 62.9497 33.0278 62.7522 32.4153C62.5588 31.7995 62.462 30.8481 62.462 29.5612V23.3414H62.466ZM80.5271 35.1065V26.1238H77.2664V23.3414H87.754V26.1238H84.4932V35.1065H80.5271ZM92.7156 30.7113H96.6616L95.1783 26.8308C95.134 26.7135 95.0695 26.5246 94.9929 26.2607C94.9123 26 94.8115 25.6612 94.6825 25.2474C94.5979 25.5373 94.5133 25.811 94.4286 26.0749C94.348 26.3388 94.2634 26.5865 94.1787 26.8276L92.7156 30.708V30.7113ZM87.1574 35.1065L92.1795 23.3414H97.1493L102.179 35.1065H98.2335L97.4959 33.0018H91.8611L91.1034 35.1065H87.1574ZM114.114 23.7975V27.3033C113.57 26.8145 113.03 26.4594 112.49 26.2313C111.95 26.0033 111.369 25.8892 110.757 25.8892C109.616 25.8892 108.693 26.2053 107.988 26.8341C107.282 27.4662 106.927 28.284 106.927 29.2972C106.927 30.2421 107.286 31.0241 108.008 31.6464C108.725 32.2687 109.644 32.5782 110.757 32.5782C111.369 32.5782 111.95 32.4642 112.49 32.2361C113.03 32.008 113.574 31.6496 114.114 31.1544V34.6667C113.481 34.911 112.861 35.0967 112.236 35.2206C111.615 35.3444 110.982 35.403 110.349 35.403C109.551 35.403 108.818 35.3248 108.149 35.1717C107.476 35.0218 106.855 34.7872 106.295 34.4777C105.21 33.888 104.38 33.1484 103.812 32.2524C103.244 31.3564 102.957 30.3496 102.957 29.2288C102.957 28.3296 103.139 27.5118 103.501 26.7754C103.86 26.0391 104.408 25.3712 105.138 24.7717C105.827 24.1982 106.605 23.7714 107.468 23.4847C108.33 23.2013 109.293 23.0612 110.353 23.0612C110.986 23.0612 111.619 23.1198 112.24 23.2436C112.865 23.3674 113.489 23.5531 114.118 23.7975H114.114ZM107.516 38.6416V37.5241C108.044 37.6414 108.54 37.7326 109.003 37.7945C109.463 37.8564 109.866 37.889 110.212 37.889C110.499 37.889 110.712 37.8434 110.853 37.7489C110.994 37.6544 111.067 37.5078 111.067 37.309C111.067 37.1363 110.97 37.0093 110.781 36.9246C110.595 36.8431 110.293 36.8008 109.882 36.8008C109.741 36.8008 109.632 36.8008 109.551 36.8008C109.475 36.8008 109.402 36.8105 109.334 36.8138V35.1033H110.466V35.7777H110.656C111.393 35.7777 111.954 35.908 112.345 36.1752C112.736 36.4424 112.933 36.8236 112.933 37.3221C112.933 37.8564 112.715 38.2702 112.276 38.5602C111.837 38.8534 111.212 39 110.406 39C110.003 39 109.559 38.9707 109.072 38.912C108.588 38.8534 108.068 38.7622 107.512 38.6383L107.516 38.6416ZM120.204 30.708H124.15L122.667 26.8276C122.623 26.7103 122.558 26.5213 122.482 26.2574C122.401 25.9967 122.3 25.6579 122.171 25.2441C122.087 25.5341 122.002 25.8078 121.917 26.0717C121.837 26.3356 121.752 26.5832 121.667 26.8243L120.204 30.7048V30.708ZM114.646 35.1033L119.668 23.3381H124.638L129.668 35.1033H125.722L124.985 32.9985H119.35L118.592 35.1033H114.646ZM125.448 19.5065C125.246 20.1972 124.972 20.7055 124.622 21.0248C124.267 21.3441 123.82 21.507 123.272 21.507C123.118 21.507 122.981 21.5005 122.856 21.4875C122.735 21.4744 122.615 21.4516 122.502 21.4288L121.595 21.217L121.567 21.2073C121.22 21.1323 121.006 21.0932 120.918 21.0932C120.7 21.0932 120.523 21.1454 120.378 21.2496C120.236 21.3571 120.116 21.5233 120.023 21.7546H118.838C119.023 21.0704 119.289 20.5622 119.64 20.2363C119.987 19.9105 120.434 19.7444 120.978 19.7444C121.083 19.7444 121.208 19.7541 121.353 19.7769C121.498 19.7997 121.671 19.8323 121.869 19.8812L122.816 20.093C122.893 20.119 122.981 20.1353 123.074 20.1484C123.167 20.1581 123.267 20.1647 123.384 20.1647C123.594 20.1647 123.775 20.106 123.924 19.9952C124.074 19.8812 124.186 19.7183 124.259 19.5033H125.444L125.448 19.5065ZM145.996 29.2451C145.996 30.0922 145.803 30.884 145.42 31.6236C145.037 32.3632 144.476 33.0246 143.739 33.6078C142.997 34.1877 142.147 34.6308 141.196 34.9469C140.24 35.2596 139.253 35.416 138.225 35.416C137.197 35.416 136.19 35.2596 135.238 34.9469C134.283 34.6308 133.449 34.1877 132.727 33.6078C131.978 33.0246 131.409 32.3599 131.022 31.6138C130.635 30.8709 130.442 30.0792 130.442 29.2451C130.442 28.411 130.635 27.6128 131.022 26.8699C131.413 26.1303 131.978 25.4657 132.727 24.8825C133.449 24.3025 134.283 23.8594 135.238 23.5434C136.19 23.2306 137.181 23.0742 138.225 23.0742C139.269 23.0742 140.252 23.2306 141.212 23.5434C142.171 23.8594 143.013 24.3025 143.743 24.8825C144.472 25.4624 145.029 26.1206 145.42 26.8667C145.807 27.6095 146 28.4013 146 29.2451H145.996ZM138.221 32.702C139.321 32.702 140.228 32.3762 140.95 31.7213C141.667 31.0664 142.03 30.2388 142.03 29.2451C142.03 28.2514 141.667 27.4368 140.938 26.7754C140.208 26.1173 139.301 25.7882 138.225 25.7882C137.149 25.7882 136.218 26.1173 135.496 26.7722C134.779 27.4271 134.416 28.2546 134.416 29.2451C134.416 30.2356 134.771 31.0794 135.48 31.7278C136.19 32.3794 137.104 32.702 138.225 32.702H138.221Z" fill="white"/>
</svg>
