<svg width="1300" height="1473" viewBox="0 0 1300 1473" fill="none" xmlns="http://www.w3.org/2000/svg">
<g opacity="0.3">
<path d="M771.187 994.664C594.714 1005.29 432.971 985.96 314.13 946.131C254.709 926.216 206.03 901.181 171.598 872.216C137.168 843.253 117.005 810.38 114.556 774.779C112.107 739.179 127.598 704.159 157.776 671.305C187.954 638.45 232.801 607.784 289.003 580.907C401.405 527.153 559.165 488.586 735.638 477.96C912.111 467.334 1073.85 486.663 1192.69 526.493C1252.12 546.408 1300.8 571.443 1335.23 600.407C1369.66 629.371 1389.82 662.244 1392.27 697.844C1394.72 733.445 1379.23 768.464 1349.05 801.318C1318.87 834.173 1274.02 864.84 1217.82 891.717C1105.42 945.47 947.66 984.038 771.187 994.664Z" stroke="url(#paint0_linear_379_4980)" stroke-opacity="0.2" stroke-width="0.642162"/>
<path d="M766.552 994.903C589.899 1002.53 428.513 980.458 310.394 938.619C251.334 917.7 203.107 891.844 169.197 862.302C135.288 832.76 115.717 799.552 113.906 763.919C112.095 728.286 128.214 693.538 158.979 661.204C189.744 628.87 235.138 598.973 291.819 573.057C405.178 521.225 563.619 485.346 740.272 477.72C916.924 470.094 1078.31 492.166 1196.43 534.004C1255.49 554.924 1303.72 580.78 1337.63 610.322C1371.54 639.864 1391.11 673.071 1392.92 708.704C1394.73 744.337 1378.61 779.086 1347.85 811.419C1317.08 843.754 1271.69 873.651 1215 899.567C1101.65 951.398 943.204 987.277 766.552 994.903Z" stroke="url(#paint1_linear_379_4980)" stroke-opacity="0.2" stroke-width="0.642161"/>
<path d="M761.914 995.064C585.136 999.688 424.156 974.88 306.795 931.046C248.113 909.128 200.353 882.46 166.975 852.349C133.598 822.238 114.623 788.706 113.452 753.051C112.28 717.396 129.021 682.93 160.364 651.127C191.707 619.323 237.635 590.203 294.776 565.256C409.058 515.363 568.133 482.184 744.911 477.56C921.689 472.936 1082.67 497.743 1200.03 541.578C1258.71 563.495 1306.47 590.164 1339.85 620.275C1373.23 650.386 1392.2 683.917 1393.37 719.573C1394.54 755.228 1377.8 789.694 1346.46 821.497C1315.12 853.301 1269.19 882.42 1212.05 907.368C1097.77 957.261 938.692 990.44 761.914 995.064Z" stroke="url(#paint2_linear_379_4980)" stroke-opacity="0.2" stroke-width="0.642161"/>
<path d="M757.273 995.146C580.423 996.766 419.898 969.231 303.33 923.413C245.046 900.504 197.767 873.031 164.931 842.36C132.096 811.69 113.724 777.844 113.192 742.178C112.66 706.511 130.018 672.338 161.929 641.075C193.841 609.811 240.287 581.479 297.873 557.508C413.042 509.567 572.702 479.098 749.552 477.478C926.401 475.858 1086.93 503.393 1203.49 549.211C1261.78 572.12 1309.06 599.593 1341.89 630.264C1374.73 660.934 1393.1 694.78 1393.63 730.446C1394.16 766.113 1376.81 800.286 1344.9 831.549C1312.98 862.813 1266.54 891.145 1208.95 915.116C1093.78 963.056 934.123 993.526 757.273 995.146Z" stroke="url(#paint3_linear_379_4980)" stroke-opacity="0.2" stroke-width="0.642162"/>
<path d="M752.631 995.149C575.763 993.765 415.742 963.509 300.003 915.723C242.133 891.83 195.35 863.56 163.066 832.339C130.783 801.119 113.019 766.969 113.127 731.302C113.235 695.635 131.204 661.765 163.674 631.051C196.145 600.337 243.096 572.8 301.108 549.813C417.13 503.841 577.326 476.09 754.194 477.474C931.061 478.858 1091.08 509.114 1206.82 556.9C1264.69 580.793 1311.47 609.063 1343.76 640.284C1376.04 671.504 1393.8 705.654 1393.7 741.321C1393.59 776.988 1375.62 810.858 1343.15 841.572C1310.68 872.286 1263.73 899.823 1205.72 922.809C1089.69 968.782 929.498 996.532 752.631 995.149Z" stroke="url(#paint4_linear_379_4980)" stroke-opacity="0.2" stroke-width="0.642162"/>
<path d="M747.989 995.073C571.157 990.686 411.689 957.72 296.814 907.98C239.377 883.109 193.103 854.052 161.381 822.29C129.66 790.529 112.51 756.085 113.257 720.429C114.005 684.772 132.58 651.215 165.599 621.061C198.618 590.905 246.061 564.173 304.481 542.177C421.32 498.186 582.004 473.163 758.835 477.551C935.667 481.938 1095.14 514.904 1210.01 564.644C1267.45 589.515 1313.72 618.572 1345.44 650.334C1377.16 682.095 1394.31 716.539 1393.57 752.195C1392.82 787.852 1374.24 821.409 1341.23 851.563C1308.21 881.719 1260.76 908.451 1202.34 930.447C1085.5 974.438 924.82 999.461 747.989 995.073Z" stroke="url(#paint5_linear_379_4980)" stroke-opacity="0.2" stroke-width="0.642162"/>
<path d="M743.348 994.919C566.606 987.529 407.739 951.863 293.764 900.183C236.776 874.343 191.026 844.507 159.876 812.214C128.727 779.922 112.195 745.195 113.582 709.56C114.969 673.925 134.145 640.692 167.702 611.105C201.26 581.518 249.18 555.598 307.99 534.599C425.611 492.603 586.733 470.316 763.475 477.705C940.217 485.095 1099.08 520.762 1213.06 572.441C1270.05 598.281 1315.8 628.118 1346.95 660.411C1378.1 692.703 1394.63 727.429 1393.24 763.064C1391.85 798.699 1372.68 831.933 1339.12 861.519C1305.56 891.107 1257.64 917.027 1198.83 938.025C1081.21 980.021 920.09 1002.31 743.348 994.919Z" stroke="url(#paint6_linear_379_4980)" stroke-opacity="0.2" stroke-width="0.642162"/>
<path d="M738.711 994.686C562.113 984.296 403.896 945.94 290.855 892.337C234.334 865.535 189.122 834.929 158.553 802.115C127.985 769.301 112.077 734.303 114.103 698.7C116.129 663.097 135.9 630.197 169.985 601.187C204.072 572.177 252.453 547.077 311.637 527.083C430.003 487.095 591.515 467.549 768.113 477.939C944.711 488.329 1102.93 526.685 1215.97 580.288C1272.49 607.09 1317.7 637.696 1348.27 670.51C1378.84 703.323 1394.75 738.322 1392.72 773.925C1390.7 809.528 1370.92 842.428 1336.84 871.437C1302.75 900.448 1254.37 925.548 1195.19 945.542C1076.82 985.53 915.31 1005.08 738.711 994.686Z" stroke="url(#paint7_linear_379_4980)" stroke-opacity="0.2" stroke-width="0.642161"/>
<path d="M734.079 994.374C557.678 980.987 400.158 939.953 288.086 884.443C232.049 856.688 187.389 825.321 157.41 791.996C127.433 758.671 112.154 723.41 114.818 687.851C117.482 652.291 137.841 619.735 172.445 591.311C207.05 562.887 255.878 538.615 315.417 519.63C434.492 481.662 596.344 464.864 772.745 478.251C949.146 491.638 1106.67 532.672 1218.74 588.182C1274.77 615.937 1319.43 647.304 1349.41 680.629C1379.39 713.954 1394.67 749.215 1392.01 784.775C1389.34 820.334 1368.98 852.89 1334.38 881.314C1299.77 909.738 1250.95 934.011 1191.41 952.995C1072.33 990.963 910.479 1007.76 734.079 994.374Z" stroke="url(#paint8_linear_379_4980)" stroke-opacity="0.2" stroke-width="0.642161"/>
<path d="M729.452 993.983C553.302 977.603 396.529 933.903 285.459 876.504C229.923 847.803 185.829 815.686 156.45 781.859C127.071 748.033 112.426 712.522 115.727 677.016C119.029 641.509 139.971 609.307 175.082 581.478C210.195 553.648 259.455 530.211 319.33 512.243C439.079 476.306 601.222 462.262 777.372 478.641C953.521 495.021 1110.29 538.721 1221.36 596.12C1276.9 624.821 1320.99 656.938 1350.37 690.765C1379.75 724.591 1394.4 760.102 1391.1 795.609C1387.79 831.115 1366.85 863.317 1331.74 891.146C1296.63 918.976 1247.37 942.413 1187.49 960.381C1067.74 996.318 905.601 1010.36 729.452 993.983Z" stroke="url(#paint9_linear_379_4980)" stroke-opacity="0.2" stroke-width="0.642161"/>
<path d="M724.833 993.513C548.988 974.146 393.008 927.794 282.975 868.521C227.957 838.885 184.442 806.026 155.671 771.708C126.901 737.392 112.893 701.64 116.832 666.199C120.77 630.757 142.288 598.918 177.896 571.692C213.506 544.466 263.183 521.871 323.377 504.924C443.763 471.03 606.147 459.743 781.992 479.11C957.836 498.478 1113.82 544.829 1223.85 604.102C1278.87 633.738 1322.38 666.597 1351.15 700.915C1379.92 735.231 1393.93 770.983 1389.99 806.425C1386.05 841.866 1364.54 873.705 1328.93 900.931C1293.32 928.158 1243.64 950.752 1183.45 967.699C1063.06 1001.59 900.677 1012.88 724.833 993.513Z" stroke="url(#paint10_linear_379_4980)" stroke-opacity="0.2" stroke-width="0.642161"/>
<path d="M720.221 992.966C544.735 970.617 389.596 921.627 280.633 860.5C226.15 829.936 183.227 796.346 155.074 761.548C126.921 726.751 113.555 690.771 118.129 655.404C122.702 620.038 144.79 588.573 180.884 561.958C216.98 535.343 267.059 513.597 327.553 497.677C448.539 465.835 611.116 457.309 786.602 479.658C962.088 502.008 1117.23 550.998 1226.19 612.125C1280.67 642.689 1323.6 676.279 1351.75 711.076C1379.9 745.873 1393.27 781.854 1388.69 817.22C1384.12 852.586 1362.03 884.052 1325.94 910.667C1289.84 937.282 1239.76 959.027 1179.27 974.948C1058.28 1006.79 895.708 1015.32 720.221 992.966Z" stroke="url(#paint11_linear_379_4980)" stroke-opacity="0.2" stroke-width="0.642161"/>
<path d="M715.621 992.341C540.547 967.017 386.296 915.404 278.436 852.441C224.505 820.959 182.186 786.648 154.659 751.38C127.132 716.114 114.412 679.914 119.62 644.635C124.827 609.355 147.478 578.272 184.048 552.277C220.618 526.281 271.084 505.391 331.86 490.502C453.409 460.723 616.129 454.96 791.203 480.284C966.277 505.609 1120.53 557.222 1228.39 620.185C1282.32 651.667 1324.64 685.978 1352.16 721.245C1379.69 756.512 1392.41 792.711 1387.2 827.991C1382 863.271 1359.35 894.354 1322.78 920.349C1286.21 946.345 1235.74 967.235 1174.96 982.124C1053.41 1011.9 890.695 1017.67 715.621 992.341Z" stroke="url(#paint12_linear_379_4980)" stroke-opacity="0.2" stroke-width="0.642161"/>
<path d="M711.032 991.638C536.423 963.346 383.108 909.125 276.383 844.346C223.02 811.955 181.32 776.934 154.427 741.207C127.534 705.482 115.464 669.075 121.304 633.892C127.144 598.709 150.351 568.019 187.384 542.651C224.418 517.282 275.256 497.255 336.295 483.401C458.371 455.694 621.183 452.696 795.792 480.988C970.401 509.28 1123.72 563.501 1230.44 628.28C1283.8 660.671 1325.5 695.692 1352.4 731.419C1379.29 767.144 1391.36 803.551 1385.52 838.734C1379.68 873.917 1356.47 904.607 1319.44 929.975C1282.41 955.344 1231.57 975.371 1170.53 989.225C1048.45 1016.93 885.641 1019.93 711.032 991.638Z" stroke="url(#paint13_linear_379_4980)" stroke-opacity="0.2" stroke-width="0.642161"/>
<path d="M706.455 990.856C532.365 959.605 380.032 902.794 274.476 836.217C221.697 802.928 180.628 767.207 154.377 731.032C128.127 694.858 116.71 658.255 123.181 623.18C129.651 588.105 153.407 557.816 190.893 533.083C228.38 508.35 279.573 489.191 340.857 476.377C463.422 450.75 626.278 450.518 800.368 481.769C974.459 513.02 1126.79 569.831 1232.35 636.408C1285.13 669.697 1326.2 705.418 1352.45 741.593C1378.7 777.767 1390.11 814.369 1383.64 849.445C1377.17 884.52 1353.42 914.809 1315.93 939.542C1278.44 964.275 1227.25 983.434 1165.97 996.248C1043.4 1021.87 880.546 1022.11 706.455 990.856Z" stroke="url(#paint14_linear_379_4980)" stroke-opacity="0.2" stroke-width="0.642161"/>
<path d="M701.894 989.996C528.375 955.796 377.07 896.411 272.715 828.058C220.536 793.881 180.11 757.471 154.509 720.859C128.91 684.248 118.151 647.46 125.25 612.503C132.349 577.546 156.646 547.668 194.573 523.578C232.501 499.487 284.035 481.202 345.545 469.432C468.561 445.893 631.411 448.427 804.93 482.628C978.449 516.828 1129.75 576.213 1234.11 644.566C1286.29 678.743 1326.71 715.153 1352.31 751.765C1377.91 788.376 1388.67 825.164 1381.57 860.121C1374.47 895.078 1350.18 924.956 1312.25 949.046C1274.32 973.137 1222.79 991.422 1161.28 1003.19C1038.26 1026.73 875.412 1024.2 701.894 989.996Z" stroke="url(#paint15_linear_379_4980)" stroke-opacity="0.2" stroke-width="0.642161"/>
<path d="M697.347 989.061C524.452 951.922 374.222 889.981 271.1 819.872C219.537 784.817 179.767 747.729 154.824 710.691C129.883 673.654 119.784 636.692 127.51 601.864C135.235 567.036 160.067 537.578 198.424 514.138C236.781 490.697 288.64 473.292 350.356 462.57C473.787 441.126 636.581 446.425 809.476 483.564C982.371 520.703 1132.6 582.644 1235.72 652.753C1287.29 687.808 1327.06 724.896 1352 761.934C1376.94 798.971 1387.04 835.933 1379.31 870.761C1371.59 905.589 1346.76 935.047 1308.4 958.487C1270.04 981.928 1218.18 999.333 1156.47 1010.06C1033.04 1031.5 870.242 1026.2 697.347 989.061Z" stroke="url(#paint16_linear_379_4980)" stroke-opacity="0.2" stroke-width="0.642161"/>
<path d="M692.818 988.048C520.6 947.981 371.491 883.504 269.632 811.66C218.702 775.738 179.598 737.983 155.322 700.531C131.046 663.079 121.611 625.955 129.961 591.266C138.31 556.578 163.669 527.548 202.443 504.765C241.219 481.982 293.386 465.462 355.291 455.79C479.099 436.448 641.788 444.511 814.006 484.577C986.223 524.644 1135.33 589.121 1237.19 660.965C1288.12 696.887 1327.23 734.642 1351.5 772.094C1375.78 809.546 1385.21 846.67 1376.86 881.359C1368.51 916.047 1343.15 945.077 1304.38 967.86C1265.6 990.643 1213.44 1007.16 1151.53 1016.83C1027.72 1036.18 865.036 1028.11 692.818 988.048Z" stroke="url(#paint17_linear_379_4980)" stroke-opacity="0.2" stroke-width="0.642162"/>
<path d="M688.308 986.958C516.82 943.976 368.875 876.982 268.311 803.425C218.029 766.647 179.605 728.237 156.002 690.381C132.399 652.526 123.63 615.251 132.602 580.712C141.573 546.174 167.45 517.582 206.631 495.463C245.813 473.344 298.273 457.714 360.348 449.096C484.494 431.861 647.028 442.685 818.517 485.667C990.005 528.649 1137.95 595.643 1238.51 669.2C1288.8 705.979 1327.22 744.388 1350.82 782.244C1374.43 820.099 1383.19 857.375 1374.22 891.913C1365.25 926.451 1339.37 955.043 1300.19 977.162C1261.01 999.281 1208.55 1014.91 1146.48 1023.53C1022.33 1040.76 859.796 1029.94 688.308 986.958Z" stroke="url(#paint18_linear_379_4980)" stroke-opacity="0.2" stroke-width="0.642162"/>
<path d="M683.817 985.791C513.11 939.907 366.377 870.417 267.139 795.17C217.519 757.546 179.786 718.493 156.863 680.245C133.941 641.999 125.841 604.583 135.431 570.206C145.021 535.828 171.41 507.682 210.985 486.234C250.561 464.786 303.298 450.05 365.523 442.489C489.971 427.367 652.301 440.949 823.007 486.833C993.714 532.718 1140.45 602.208 1239.69 677.455C1289.31 715.079 1327.04 754.132 1349.96 792.379C1372.88 830.626 1380.98 868.042 1371.39 902.419C1361.8 936.797 1335.41 964.942 1295.84 986.39C1256.26 1007.84 1203.53 1022.57 1141.3 1030.14C1016.85 1045.26 854.523 1031.68 683.817 985.791Z" stroke="url(#paint19_linear_379_4980)" stroke-opacity="0.2" stroke-width="0.642161"/>
<path d="M679.348 984.549C509.475 935.776 363.997 863.81 266.114 786.896C217.172 748.439 180.143 708.754 157.907 670.127C135.672 631.5 128.244 593.956 138.45 559.749C148.656 525.543 175.548 497.852 215.505 477.081C255.463 456.31 308.461 442.474 370.818 435.972C495.529 422.967 657.605 439.303 827.478 488.075C997.35 536.848 1142.83 608.814 1240.71 685.728C1289.65 724.185 1326.68 763.87 1348.92 802.497C1371.15 841.124 1378.58 878.668 1368.38 912.875C1358.17 947.081 1331.28 974.772 1291.32 995.543C1251.36 1016.31 1198.36 1030.15 1136.01 1036.65C1011.3 1049.66 849.22 1033.32 679.348 984.549Z" stroke="url(#paint20_linear_379_4980)" stroke-opacity="0.2" stroke-width="0.642161"/>
<path d="M674.9 983.232C505.912 931.586 361.734 857.167 265.237 778.609C216.988 739.329 180.672 699.025 159.131 660.029C137.59 621.034 130.836 583.373 141.654 549.348C152.473 515.323 179.86 488.096 220.187 468.009C260.515 447.921 313.758 434.988 376.227 429.547C501.164 418.663 662.936 437.748 831.924 489.394C1000.91 541.04 1145.09 615.459 1241.59 694.017C1289.84 733.297 1326.15 773.601 1347.69 812.597C1369.23 851.592 1375.99 889.253 1365.17 923.278C1354.35 957.303 1326.96 984.53 1286.64 1004.62C1246.31 1024.7 1193.07 1037.64 1130.6 1043.08C1005.66 1053.96 843.887 1034.88 674.9 983.232Z" stroke="url(#paint21_linear_379_4980)" stroke-opacity="0.2" stroke-width="0.642161"/>
<path d="M670.476 981.839C502.426 927.335 359.592 850.485 264.51 770.307C216.968 730.217 181.377 689.306 160.537 649.954C139.697 610.602 133.618 572.835 145.046 539.002C156.475 505.169 184.348 478.414 225.033 459.017C265.718 439.619 319.19 427.594 381.753 423.214C506.877 414.455 668.297 436.283 836.347 490.787C1004.4 545.29 1147.23 622.14 1242.31 702.319C1289.86 742.408 1325.45 783.319 1346.29 822.671C1367.13 862.023 1373.21 899.79 1361.78 933.623C1350.35 967.456 1322.48 994.211 1281.79 1013.61C1241.11 1033.01 1187.63 1045.03 1125.07 1049.41C999.947 1058.17 838.527 1036.34 670.476 981.839Z" stroke="url(#paint22_linear_379_4980)" stroke-opacity="0.2" stroke-width="0.642162"/>
<path d="M666.078 980.371C499.016 923.026 357.569 843.768 263.931 761.995C217.111 721.107 182.256 679.602 162.123 639.905C141.99 600.209 136.589 562.348 148.623 528.717C160.658 495.086 189.009 468.811 230.039 450.109C271.07 431.407 324.754 420.293 387.391 416.977C512.664 410.345 673.683 434.91 840.745 492.254C1007.81 549.599 1149.25 628.857 1242.89 710.63C1289.71 751.518 1324.57 793.023 1344.7 832.72C1364.83 872.416 1370.23 910.277 1358.2 943.908C1346.17 977.539 1317.81 1003.81 1276.78 1022.52C1235.75 1041.22 1182.07 1052.33 1119.43 1055.65C994.159 1062.28 833.141 1037.72 666.078 980.371Z" stroke="url(#paint23_linear_379_4980)" stroke-opacity="0.2" stroke-width="0.642161"/>
<path d="M661.707 978.828C495.684 918.66 355.667 837.019 263.501 753.675C217.418 712.002 183.31 669.915 163.889 629.885C144.469 589.857 139.748 551.913 152.385 518.495C165.021 485.077 193.842 459.289 235.205 441.289C276.569 423.288 330.449 413.088 393.142 410.837C518.526 406.335 679.093 433.628 845.117 493.796C1011.14 553.964 1151.16 635.605 1243.32 718.95C1289.41 760.622 1323.51 802.71 1342.93 842.739C1362.35 882.767 1367.08 920.711 1354.44 954.13C1341.8 987.548 1312.98 1013.34 1271.62 1031.34C1230.25 1049.34 1176.38 1059.54 1113.68 1061.79C988.298 1066.29 827.731 1039 661.707 978.828Z" stroke="url(#paint24_linear_379_4980)" stroke-opacity="0.2" stroke-width="0.642162"/>
<path d="M657.364 977.213C492.43 914.239 353.886 830.24 263.221 745.35C217.888 702.905 184.537 660.248 165.835 619.899C147.135 579.55 143.094 541.535 156.329 508.34C169.564 475.144 198.846 449.852 240.529 432.559C282.213 415.265 336.272 405.983 399.001 404.797C524.458 402.425 684.526 432.439 849.46 495.412C1014.39 558.386 1152.94 642.385 1243.6 727.275C1288.94 769.72 1322.29 812.377 1340.99 852.726C1359.69 893.075 1363.73 931.089 1350.49 964.285C1337.26 997.481 1307.98 1022.77 1266.29 1040.07C1224.61 1057.36 1170.55 1066.64 1107.82 1067.83C982.365 1070.2 822.297 1040.19 657.364 977.213Z" stroke="url(#paint25_linear_379_4980)" stroke-opacity="0.2" stroke-width="0.642161"/>
<path d="M653.049 975.523C489.255 909.763 352.227 823.431 263.09 737.022C218.521 693.817 185.937 650.605 167.96 609.947C149.984 569.291 146.625 531.216 160.455 498.253C174.285 465.29 204.018 440.502 246.009 423.921C288 407.339 342.223 398.977 404.969 398.857C530.461 398.617 689.98 431.342 853.774 497.101C1017.57 562.861 1154.6 649.193 1243.73 735.602C1288.3 778.807 1320.89 822.02 1338.86 862.677C1356.84 903.333 1360.2 941.408 1346.37 974.371C1332.54 1007.33 1302.8 1032.12 1260.81 1048.7C1218.82 1065.29 1164.6 1073.65 1101.85 1073.77C976.363 1074.01 816.843 1041.28 653.049 975.523Z" stroke="url(#paint26_linear_379_4980)" stroke-opacity="0.2" stroke-width="0.642162"/>
<path d="M648.766 973.762C486.161 905.236 350.69 816.597 263.108 728.695C219.317 684.744 187.51 640.988 170.263 600.035C153.018 559.083 150.342 520.961 164.762 488.241C179.182 455.52 209.358 431.243 251.643 415.379C293.93 399.514 348.298 392.075 411.043 393.021C536.531 394.912 695.453 430.339 858.058 498.864C1020.66 567.39 1156.13 656.029 1243.72 743.931C1287.51 787.882 1319.31 831.638 1336.56 872.591C1353.81 913.543 1356.48 951.665 1342.06 984.385C1327.64 1017.11 1297.46 1041.38 1255.18 1057.25C1212.89 1073.11 1158.52 1080.55 1095.78 1079.6C970.292 1077.71 811.37 1042.29 648.766 973.762Z" stroke="url(#paint27_linear_379_4980)" stroke-opacity="0.2" stroke-width="0.642161"/>
<path d="M644.514 971.927C483.149 900.656 349.276 809.738 263.276 720.369C220.276 675.685 189.256 631.399 172.745 590.163C156.235 548.929 154.243 510.77 169.249 478.302C184.255 445.835 214.864 422.076 257.431 406.934C299.999 391.791 354.498 385.278 417.222 387.289C542.668 391.311 700.945 429.428 862.31 500.699C1023.67 571.97 1157.55 662.888 1243.55 752.256C1286.55 796.941 1317.57 841.226 1334.08 882.462C1350.59 923.697 1352.58 961.856 1337.58 994.323C1322.57 1026.79 1291.96 1050.55 1249.39 1065.69C1206.82 1080.83 1152.33 1087.35 1089.6 1085.34C964.156 1081.31 805.879 1043.2 644.514 971.927Z" stroke="url(#paint28_linear_379_4980)" stroke-opacity="0.2" stroke-width="0.642161"/>
<path d="M640.295 970.019C480.219 896.025 347.985 802.855 263.593 712.048C221.396 666.643 191.172 621.842 175.402 580.336C159.633 538.83 158.325 500.647 173.912 468.442C189.5 436.237 220.534 413.003 263.37 398.588C306.206 384.172 360.819 378.586 423.502 381.662C548.868 387.814 706.451 428.61 866.528 502.604C1026.6 576.599 1158.84 669.769 1243.23 760.576C1285.43 805.98 1315.65 850.782 1331.42 892.288C1347.19 933.793 1348.5 971.977 1332.91 1004.18C1317.32 1036.39 1286.29 1059.62 1243.45 1074.04C1200.62 1088.45 1146 1094.04 1083.32 1090.96C957.955 1084.81 800.372 1044.01 640.295 970.019Z" stroke="url(#paint29_linear_379_4980)" stroke-opacity="0.2" stroke-width="0.642161"/>
<path d="M636.112 968.042C477.372 891.347 346.817 795.954 264.06 703.735C222.68 657.625 193.261 612.321 178.237 570.557C163.212 528.794 162.589 490.597 178.753 458.665C194.918 426.732 226.366 404.031 269.458 390.347C312.55 376.662 367.259 372.005 429.884 376.145C555.131 384.424 711.973 427.887 870.713 504.582C1029.45 581.278 1160.01 676.671 1242.76 768.89C1284.14 815 1313.56 860.304 1328.59 902.068C1343.61 943.831 1344.23 982.027 1328.07 1013.96C1311.91 1045.89 1280.46 1068.59 1237.37 1082.28C1194.27 1095.96 1139.57 1100.62 1076.94 1096.48C951.693 1088.2 794.851 1044.74 636.112 968.042Z" stroke="url(#paint30_linear_379_4980)" stroke-opacity="0.2" stroke-width="0.642161"/>
<path d="M631.964 965.994C474.61 886.621 345.774 789.034 264.675 695.432C224.125 648.63 195.521 602.837 181.246 560.828C166.972 518.82 167.034 480.622 183.77 448.972C200.505 417.321 232.359 395.16 275.694 382.211C319.029 369.261 373.818 365.534 436.364 370.737C561.455 381.141 717.507 427.258 874.861 506.631C1032.22 586.003 1161.05 683.591 1242.15 777.193C1282.7 823.995 1311.3 869.787 1325.58 911.797C1339.85 953.805 1339.79 992.003 1323.06 1023.65C1306.32 1055.3 1274.47 1077.46 1231.13 1090.41C1187.8 1103.36 1133.01 1107.09 1070.46 1101.89C945.37 1091.48 789.318 1045.37 631.964 965.994Z" stroke="url(#paint31_linear_379_4980)" stroke-opacity="0.2" stroke-width="0.642161"/>
<path d="M627.852 963.876C471.932 881.85 344.854 782.098 265.439 687.141C225.731 639.662 197.95 593.394 184.429 551.153C170.909 508.912 171.656 470.725 188.959 439.366C206.261 408.007 238.51 386.392 282.074 374.182C325.639 361.972 380.491 359.176 442.94 365.44C567.837 377.967 723.052 426.722 878.973 508.749C1034.89 590.775 1161.97 690.527 1241.39 785.484C1281.09 832.963 1308.87 879.231 1322.4 921.472C1335.92 963.713 1335.17 1001.9 1317.87 1033.26C1300.56 1064.62 1268.31 1086.23 1224.75 1098.44C1181.19 1110.65 1126.33 1113.45 1063.88 1107.18C938.988 1094.66 783.773 1045.9 627.852 963.876Z" stroke="url(#paint32_linear_379_4980)" stroke-opacity="0.2" stroke-width="0.642161"/>
<path d="M623.779 961.689C469.339 877.034 344.059 775.148 266.352 678.865C227.498 630.723 200.548 583.995 187.786 541.534C175.024 499.074 176.456 460.908 194.32 429.851C212.183 398.794 244.819 377.732 288.598 366.265C332.379 354.797 387.278 352.934 449.611 360.256C574.275 374.902 728.606 426.282 883.046 510.936C1037.49 595.591 1162.77 697.478 1240.47 793.76C1279.33 841.902 1306.28 888.63 1319.04 931.091C1331.8 973.551 1330.37 1011.72 1312.5 1042.77C1294.64 1073.83 1262.01 1094.89 1218.23 1106.36C1174.45 1117.83 1119.55 1119.69 1057.21 1112.37C932.55 1097.72 778.219 1046.34 623.779 961.689Z" stroke="url(#paint33_linear_379_4980)" stroke-opacity="0.2" stroke-width="0.642161"/>
<path d="M619.745 959.433C466.833 872.176 343.388 768.186 267.413 670.607C229.424 621.817 203.314 574.642 191.314 531.975C179.315 489.308 181.431 451.176 199.851 420.429C218.27 389.683 251.281 369.18 295.264 358.459C339.248 347.738 394.177 346.808 456.374 355.187C580.767 371.946 734.167 425.935 887.079 513.193C1039.99 600.45 1163.44 704.44 1239.41 802.019C1277.4 850.809 1303.51 897.984 1315.51 940.651C1327.51 983.318 1325.39 1021.45 1306.97 1052.2C1288.55 1082.94 1255.54 1103.45 1211.56 1114.17C1167.58 1124.89 1112.65 1125.82 1050.45 1117.44C926.056 1100.68 772.657 1046.69 619.745 959.433Z" stroke="url(#paint34_linear_379_4980)" stroke-opacity="0.2" stroke-width="0.642162"/>
<path d="M615.752 957.109C464.415 867.275 342.842 761.214 268.621 662.368C231.511 612.944 206.248 565.338 195.014 522.476C183.781 479.617 186.581 441.529 205.551 411.103C224.521 380.677 257.897 360.74 302.069 350.768C346.243 340.797 401.185 340.8 463.228 350.234C587.313 369.101 739.735 425.683 891.072 515.516C1042.41 605.349 1163.98 711.411 1238.2 810.257C1275.31 859.681 1300.58 907.287 1311.81 950.148C1323.04 993.008 1320.24 1031.1 1301.27 1061.52C1282.3 1091.95 1248.93 1111.89 1204.75 1121.86C1160.58 1131.83 1105.64 1131.83 1043.6 1122.39C919.511 1103.52 767.089 1046.94 615.752 957.109Z" stroke="url(#paint35_linear_379_4980)" stroke-opacity="0.2" stroke-width="0.642161"/>
<path d="M611.801 954.717C462.085 862.335 342.422 754.234 269.979 654.152C233.757 604.11 209.349 556.085 198.885 513.044C188.421 470.004 191.904 431.973 211.418 401.876C230.933 371.779 264.665 352.414 309.013 343.195C353.362 333.977 408.301 334.912 470.171 345.398C593.909 366.368 745.307 425.525 895.023 517.907C1044.74 610.289 1164.4 718.39 1236.85 818.472C1273.07 868.514 1297.47 916.539 1307.94 959.58C1318.4 1002.62 1314.92 1040.65 1295.41 1070.75C1275.89 1100.84 1242.16 1120.21 1197.81 1129.43C1153.46 1138.65 1098.52 1137.71 1036.65 1127.23C912.915 1106.26 761.517 1047.1 611.801 954.717Z" stroke="url(#paint36_linear_379_4980)" stroke-opacity="0.2" stroke-width="0.642161"/>
<path d="M607.893 952.26C459.843 857.357 342.126 747.25 271.483 645.961C236.16 595.316 212.616 546.889 202.924 503.68C193.233 460.473 197.397 422.51 217.45 392.752C237.503 362.994 271.581 344.206 316.091 335.743C360.603 327.28 415.521 329.148 477.199 340.682C600.554 363.749 750.881 425.463 898.931 520.365C1046.98 615.268 1164.7 725.375 1235.34 826.664C1270.66 877.309 1294.21 925.736 1303.9 968.945C1313.59 1012.15 1309.43 1050.11 1289.37 1079.87C1269.32 1109.63 1235.24 1128.42 1190.73 1136.88C1146.22 1145.35 1091.3 1143.48 1029.62 1131.94C906.27 1108.88 755.943 1047.16 607.893 952.26Z" stroke="url(#paint37_linear_379_4980)" stroke-opacity="0.2" stroke-width="0.642161"/>
<path d="M604.03 949.736C457.691 852.342 341.956 740.263 273.134 637.798C238.722 586.565 216.047 537.75 207.131 494.387C198.215 451.025 203.06 413.143 223.645 383.732C244.231 354.321 278.643 336.117 323.303 328.412C367.964 320.707 422.845 323.508 484.312 336.086C607.245 361.243 756.456 425.495 902.795 522.889C1049.13 620.283 1164.87 732.363 1233.69 834.827C1268.1 886.06 1290.78 934.875 1299.69 978.238C1308.61 1021.6 1303.76 1059.48 1283.18 1088.89C1262.59 1118.3 1228.18 1136.51 1183.52 1144.21C1138.86 1151.92 1083.98 1149.12 1022.51 1136.54C899.579 1111.38 750.369 1047.13 604.03 949.736Z" stroke="url(#paint38_linear_379_4980)" stroke-opacity="0.2" stroke-width="0.642162"/>
<path d="M600.211 947.147C455.628 847.291 341.911 733.273 274.93 629.664C241.44 577.859 219.642 528.671 211.504 485.167C203.366 441.664 208.89 403.873 230.002 374.819C251.114 345.765 285.85 328.149 330.645 321.205C375.441 314.26 430.269 317.992 491.507 331.612C613.981 358.85 762.03 425.621 906.613 525.477C1051.2 625.333 1164.91 739.352 1231.89 842.96C1265.38 894.765 1287.18 943.954 1295.32 987.458C1303.46 1030.96 1297.93 1068.75 1276.82 1097.81C1255.71 1126.86 1220.97 1144.48 1176.18 1151.42C1131.38 1158.36 1076.55 1154.63 1015.32 1141.01C892.843 1113.77 744.794 1047 600.211 947.147Z" stroke="url(#paint39_linear_379_4980)" stroke-opacity="0.2" stroke-width="0.642162"/>
<path d="M596.44 944.494C453.657 842.207 341.992 726.284 276.873 621.563C244.314 569.202 223.4 519.655 216.042 476.024C208.685 432.393 214.887 394.705 236.518 366.016C258.15 337.328 293.2 320.306 338.117 314.124C383.035 307.942 437.792 312.605 498.781 327.261C620.759 356.573 767.601 425.842 910.384 528.13C1053.17 630.418 1164.83 746.34 1229.95 851.061C1262.51 903.422 1283.42 952.969 1290.78 996.601C1298.14 1040.23 1291.94 1077.92 1270.31 1106.61C1248.67 1135.3 1213.62 1152.32 1168.71 1158.5C1123.79 1164.68 1069.03 1160.02 1008.04 1145.36C886.065 1116.05 739.223 1046.78 596.44 944.494Z" stroke="url(#paint40_linear_379_4980)" stroke-opacity="0.2" stroke-width="0.642162"/>
<path d="M592.716 941.779C451.777 837.091 342.198 719.3 278.962 613.499C247.343 560.597 227.319 510.707 220.745 466.961C214.17 423.216 221.047 385.642 243.192 357.328C265.337 329.013 300.69 312.591 345.715 307.173C390.741 301.756 445.411 307.347 506.134 323.036C627.578 354.413 773.169 426.159 914.108 530.847C1055.05 635.535 1164.63 753.326 1227.86 859.128C1259.48 912.029 1279.51 961.919 1286.08 1005.67C1292.65 1049.41 1285.78 1086.98 1263.63 1115.3C1241.49 1143.61 1206.13 1160.04 1161.11 1165.45C1116.08 1170.87 1061.41 1165.28 1000.69 1149.59C879.246 1118.21 733.656 1046.47 592.716 941.779Z" stroke="url(#paint41_linear_379_4980)" stroke-opacity="0.2" stroke-width="0.642161"/>
<path d="M589.042 939C449.989 831.943 342.529 712.32 281.194 605.47C250.527 552.044 231.399 501.826 225.609 457.979C219.82 414.133 227.37 376.685 250.021 348.753C272.673 320.821 308.318 305.004 353.437 300.352C398.558 295.7 453.124 302.219 513.561 318.935C634.435 352.367 778.73 426.569 917.783 533.625C1056.84 640.682 1164.3 760.305 1225.63 867.156C1256.3 920.581 1275.43 970.799 1281.22 1014.65C1287.01 1058.49 1279.45 1095.94 1256.8 1123.87C1234.15 1151.8 1198.51 1167.62 1153.39 1172.27C1108.27 1176.93 1053.7 1170.41 993.263 1153.69C872.389 1120.26 728.095 1046.06 589.042 939Z" stroke="url(#paint42_linear_379_4980)" stroke-opacity="0.2" stroke-width="0.642161"/>
<path d="M585.417 936.16C448.293 826.767 342.986 705.348 283.571 597.481C253.863 543.548 235.637 493.017 230.634 449.082C225.631 405.148 233.853 367.837 257.004 340.297C280.155 312.757 316.082 297.548 361.281 293.664C406.482 289.78 460.928 297.224 521.062 314.962C641.329 350.439 784.283 427.074 921.408 536.466C1058.53 645.859 1163.84 767.278 1223.25 875.144C1252.96 929.078 1271.19 979.609 1276.19 1023.54C1281.19 1067.48 1272.97 1104.79 1249.82 1132.33C1226.67 1159.87 1190.74 1175.08 1145.54 1178.96C1100.34 1182.85 1045.9 1175.4 985.763 1157.66C865.496 1122.19 722.542 1045.55 585.417 936.16Z" stroke="url(#paint43_linear_379_4980)" stroke-opacity="0.2" stroke-width="0.642162"/>
<path d="M581.843 933.258C446.69 821.563 343.566 698.384 286.09 589.535C257.351 535.11 240.032 484.282 235.818 440.272C231.603 396.264 240.493 359.102 264.137 331.961C287.78 304.821 323.978 290.227 369.244 287.111C414.512 283.995 468.821 292.362 528.633 311.118C648.256 348.629 789.827 427.673 924.981 539.368C1060.13 651.063 1163.26 774.242 1220.73 883.091C1249.47 937.516 1266.79 988.344 1271.01 1032.35C1275.22 1076.36 1266.33 1113.52 1242.69 1140.66C1219.04 1167.8 1182.85 1182.4 1137.58 1185.52C1092.31 1188.63 1038 1180.26 978.191 1161.51C858.568 1124 716.997 1044.95 581.843 933.258Z" stroke="url(#paint44_linear_379_4980)" stroke-opacity="0.2" stroke-width="0.642161"/>
<path d="M578.322 930.296C445.18 816.333 344.273 691.432 288.752 581.633C260.991 526.733 244.585 475.623 241.16 431.552C237.735 387.484 247.291 350.481 271.419 323.748C295.548 297.016 332.005 283.04 377.325 280.694C422.645 278.348 476.801 287.635 536.273 307.402C655.215 346.936 795.36 428.365 928.502 542.328C1061.64 656.292 1162.55 781.193 1218.07 890.992C1245.83 945.892 1262.24 997.002 1265.66 1041.07C1269.09 1085.14 1259.53 1122.14 1235.4 1148.88C1211.28 1175.61 1174.82 1189.58 1129.5 1191.93C1084.18 1194.28 1030.02 1184.99 970.551 1165.22C851.609 1125.69 711.464 1044.26 578.322 930.296Z" stroke="url(#paint45_linear_379_4980)" stroke-opacity="0.2" stroke-width="0.642161"/>
<path d="M574.854 927.276C443.764 811.078 345.103 684.494 291.555 573.778C264.78 518.42 249.292 467.044 246.657 422.926C244.023 378.809 254.242 341.978 278.848 315.661C303.455 289.345 340.161 275.992 385.519 274.416C430.879 272.84 484.865 283.045 543.978 303.817C662.204 345.361 800.88 429.151 931.969 545.349C1063.06 661.546 1161.72 788.131 1215.27 898.846C1242.04 954.205 1257.53 1005.58 1260.17 1049.7C1262.8 1093.82 1252.58 1130.65 1227.98 1156.96C1203.37 1183.28 1166.66 1196.63 1121.3 1198.21C1075.94 1199.78 1021.96 1189.58 962.845 1168.81C844.619 1127.26 705.944 1043.47 574.854 927.276Z" stroke="url(#paint46_linear_379_4980)" stroke-opacity="0.2" stroke-width="0.642161"/>
<path d="M571.442 924.197C442.444 805.801 346.059 677.572 294.5 565.974C268.72 510.174 254.154 458.547 252.311 414.395C250.467 370.244 261.346 333.595 286.423 307.703C311.501 281.811 348.444 269.084 393.828 268.279C439.213 267.474 493.012 278.593 551.749 300.365C669.222 343.907 806.386 430.032 935.384 548.428C1064.38 666.824 1160.77 795.053 1212.33 906.651C1238.11 962.451 1252.67 1014.08 1254.52 1058.23C1256.36 1102.38 1245.48 1139.03 1220.4 1164.92C1195.32 1190.81 1158.38 1203.54 1113 1204.35C1067.61 1205.15 1013.81 1194.03 955.077 1172.26C837.603 1128.72 700.439 1042.59 571.442 924.197Z" stroke="url(#paint47_linear_379_4980)" stroke-opacity="0.2" stroke-width="0.642161"/>
<path d="M568.082 921.062C441.216 800.503 347.137 670.668 297.583 558.221C272.805 501.997 259.165 450.135 258.114 405.962C257.063 361.791 268.598 325.336 294.138 299.875C319.678 274.415 356.848 262.319 402.243 262.285C447.64 262.251 501.236 274.281 559.579 297.045C676.264 342.572 811.875 431.006 938.741 551.564C1065.61 672.122 1159.69 801.958 1209.24 914.404C1234.02 970.629 1247.66 1022.49 1248.71 1066.66C1249.76 1110.83 1238.22 1147.29 1212.68 1172.75C1187.14 1198.21 1149.98 1210.31 1104.58 1210.34C1059.18 1210.37 1005.59 1198.34 947.244 1175.58C830.559 1130.05 694.949 1041.62 568.082 921.062Z" stroke="url(#paint48_linear_379_4980)" stroke-opacity="0.2" stroke-width="0.642161"/>
<path d="M564.781 917.868C440.085 795.184 348.341 663.782 300.806 550.521C277.038 493.89 264.33 441.809 264.071 397.629C263.812 353.451 276 317.2 301.995 292.179C327.99 267.159 365.374 255.697 410.767 256.434C456.162 257.171 509.539 270.109 567.47 293.858C683.331 341.356 817.347 432.071 942.043 554.755C1066.74 677.439 1158.48 808.841 1206.02 922.102C1229.79 978.734 1242.49 1030.81 1242.75 1074.99C1243.01 1119.17 1230.82 1155.42 1204.83 1180.44C1178.83 1205.46 1141.45 1216.93 1096.06 1216.19C1050.66 1215.45 997.286 1202.51 939.355 1178.77C823.494 1131.27 689.478 1040.55 564.781 917.868Z" stroke="url(#paint49_linear_379_4980)" stroke-opacity="0.2" stroke-width="0.642161"/>
<path d="M561.537 914.621C439.049 789.849 349.667 656.921 304.166 542.879C281.416 485.858 269.642 433.573 270.175 389.4C270.708 345.228 283.546 309.193 309.989 284.62C336.431 260.047 374.018 249.222 419.395 250.73C464.773 252.238 517.915 266.08 575.416 290.807C690.418 340.261 822.799 433.231 945.287 558.003C1067.78 682.775 1157.16 815.703 1202.66 929.745C1225.41 986.766 1237.18 1039.05 1236.65 1083.22C1236.12 1127.4 1223.28 1163.43 1196.84 1188C1170.39 1212.58 1132.81 1223.4 1087.43 1221.89C1042.05 1220.39 988.909 1206.54 931.408 1181.82C816.406 1132.36 684.025 1039.39 561.537 914.621Z" stroke="url(#paint50_linear_379_4980)" stroke-opacity="0.2" stroke-width="0.642161"/>
<path d="M558.352 911.32C438.109 784.497 351.116 650.083 307.664 535.296C285.937 477.902 275.102 425.431 276.427 381.277C277.753 337.125 291.236 301.316 318.118 277.198C344.999 253.08 382.778 242.897 428.125 245.175C473.473 247.453 526.363 262.194 583.418 287.892C697.525 339.287 828.23 434.483 948.473 561.305C1068.72 688.127 1155.71 822.542 1199.16 937.328C1220.89 994.722 1231.72 1047.19 1230.4 1091.35C1229.07 1135.5 1215.59 1171.31 1188.71 1195.43C1161.83 1219.54 1124.05 1229.73 1078.7 1227.45C1033.35 1225.17 980.461 1210.43 923.407 1184.73C809.299 1133.34 678.594 1038.14 558.352 911.32Z" stroke="url(#paint51_linear_379_4980)" stroke-opacity="0.2" stroke-width="0.642161"/>
<path d="M555.225 907.964C437.264 779.13 352.688 643.27 311.296 527.774C290.601 470.024 280.707 417.381 282.824 373.261C284.941 329.142 299.066 293.571 326.378 269.915C353.691 246.259 391.65 236.72 436.953 239.768C482.258 242.816 534.88 258.451 591.47 285.112C704.649 338.433 833.638 435.826 951.599 564.66C1069.56 693.494 1154.14 829.353 1195.53 944.85C1216.22 1002.6 1226.12 1055.24 1224 1099.36C1221.88 1143.48 1207.76 1179.05 1180.45 1202.71C1153.13 1226.36 1115.17 1235.9 1069.87 1232.86C1024.57 1229.81 971.944 1214.17 915.354 1187.51C802.175 1134.19 673.185 1036.8 555.225 907.964Z" stroke="url(#paint52_linear_379_4980)" stroke-opacity="0.2" stroke-width="0.642161"/>
<path d="M552.159 904.557C436.516 773.751 354.382 636.488 315.064 520.316C295.406 462.229 286.457 409.431 289.365 365.357C292.273 321.284 307.035 285.962 334.77 262.775C362.505 239.589 400.633 230.697 445.879 234.514C491.126 238.33 543.464 254.856 599.572 282.471C711.788 337.701 839.022 437.261 954.665 568.068C1070.31 698.874 1152.44 836.137 1191.76 952.309C1211.42 1010.4 1220.37 1063.19 1217.46 1107.27C1214.55 1151.34 1199.79 1186.66 1172.05 1209.85C1144.32 1233.04 1106.19 1241.93 1060.95 1238.11C1015.7 1234.29 963.36 1217.77 907.251 1190.15C795.036 1134.92 667.802 1035.36 552.159 904.557Z" stroke="url(#paint53_linear_379_4980)" stroke-opacity="0.2" stroke-width="0.642161"/>
<path d="M549.155 901.098C435.865 768.36 356.197 629.735 318.966 512.923C300.35 454.516 292.349 401.579 296.047 357.565C299.746 313.553 315.14 278.489 343.289 255.779C371.438 233.07 409.724 224.827 454.898 229.411C500.074 233.996 552.112 251.406 607.722 279.968C718.939 337.09 844.381 438.788 957.67 571.526C1070.96 704.265 1150.63 842.89 1187.86 959.702C1206.47 1018.11 1214.48 1071.05 1210.78 1115.06C1207.08 1159.07 1191.69 1194.14 1163.54 1216.85C1135.39 1239.56 1097.1 1247.8 1051.93 1243.21C1006.75 1238.63 954.712 1221.22 899.103 1192.66C787.885 1135.53 662.444 1033.84 549.155 901.098Z" stroke="url(#paint54_linear_379_4980)" stroke-opacity="0.2" stroke-width="0.642161"/>
<path d="M546.212 897.589C435.31 762.958 358.133 623.014 322.999 505.598C305.432 446.889 298.38 393.829 302.868 349.888C307.355 305.949 323.377 271.155 351.932 248.929C380.487 226.703 418.918 219.113 464.007 224.463C509.098 229.814 560.821 248.103 615.915 277.603C726.101 336.601 849.71 440.404 960.612 575.035C1071.51 709.666 1148.69 849.61 1183.82 967.026C1201.39 1025.73 1208.44 1078.8 1203.96 1122.74C1199.47 1166.67 1183.45 1201.47 1154.89 1223.69C1126.34 1245.92 1087.91 1253.51 1042.82 1248.16C997.726 1242.81 946.002 1224.52 890.909 1195.02C780.723 1136.02 657.113 1032.22 546.212 897.589Z" stroke="url(#paint55_linear_379_4980)" stroke-opacity="0.2" stroke-width="0.642161"/>
<path d="M543.332 894.031C434.852 757.549 360.19 616.328 327.164 498.344C310.65 439.351 304.551 386.183 309.826 342.33C315.101 298.478 331.746 263.964 360.698 242.228C389.65 220.492 428.214 213.557 473.205 219.672C518.197 225.786 569.589 244.95 624.15 275.378C733.271 336.234 855.011 442.111 963.491 578.593C1071.97 715.075 1146.63 856.296 1179.66 974.28C1196.17 1033.27 1202.27 1086.44 1197 1130.29C1191.72 1174.15 1175.08 1208.66 1146.13 1230.4C1117.17 1252.13 1078.61 1259.07 1033.62 1252.95C988.626 1246.84 937.235 1227.67 882.673 1197.25C773.552 1136.39 651.813 1030.51 543.332 894.031Z" stroke="url(#paint56_linear_379_4980)" stroke-opacity="0.2" stroke-width="0.642161"/>
<path d="M540.517 890.425C434.491 752.134 362.366 609.679 331.458 491.162C316.004 431.903 310.858 378.645 316.92 334.891C322.981 291.139 340.244 256.917 369.584 235.678C398.924 214.439 437.61 208.16 482.488 215.037C527.368 221.915 578.413 241.947 632.425 273.295C740.447 335.988 860.281 443.908 966.306 582.199C1072.33 720.491 1144.46 862.946 1175.36 981.463C1190.82 1040.72 1195.96 1093.98 1189.9 1137.73C1183.84 1181.49 1166.58 1215.71 1137.24 1236.95C1107.9 1258.19 1069.21 1264.46 1024.34 1257.59C979.456 1250.71 928.411 1230.68 874.399 1199.33C766.376 1136.64 646.543 1028.72 540.517 890.425Z" stroke="url(#paint57_linear_379_4980)" stroke-opacity="0.2" stroke-width="0.642162"/>
<path d="M537.767 886.772C434.228 746.713 364.663 603.067 335.882 484.054C321.492 424.547 317.301 371.214 324.147 327.575C330.993 283.936 348.868 250.015 378.587 229.279C408.306 208.544 447.103 202.923 491.855 210.561C536.608 218.2 587.29 239.094 640.737 271.351C747.628 335.864 865.519 445.793 969.058 585.852C1072.6 725.911 1142.16 869.557 1170.94 988.57C1185.33 1048.08 1189.52 1101.41 1182.68 1145.05C1175.83 1188.69 1157.96 1222.61 1128.24 1243.34C1098.52 1264.08 1059.72 1269.7 1014.97 1262.06C970.217 1254.42 919.534 1233.53 866.088 1201.27C759.197 1136.76 641.306 1026.83 537.767 886.772Z" stroke="url(#paint58_linear_379_4980)" stroke-opacity="0.2" stroke-width="0.642161"/>
<path d="M535.082 883.073C434.062 741.29 367.077 596.497 340.432 477.024C327.11 417.287 323.876 363.896 331.504 320.383C339.132 276.871 357.614 243.262 387.704 223.036C417.793 202.81 456.688 197.85 501.3 206.246C545.913 214.643 596.218 236.393 649.082 269.55C754.81 335.863 870.721 447.767 971.742 589.551C1072.76 731.335 1139.75 876.127 1166.39 995.6C1179.71 1055.34 1182.95 1108.73 1175.32 1152.24C1167.69 1195.75 1149.21 1229.36 1119.12 1249.59C1089.03 1269.81 1050.14 1274.77 1005.52 1266.38C960.911 1257.98 910.606 1236.23 857.742 1203.07C752.014 1136.76 636.103 1024.86 535.082 883.073Z" stroke="url(#paint59_linear_379_4980)" stroke-opacity="0.2" stroke-width="0.642162"/>
<path d="M532.464 879.33C433.992 735.864 369.608 589.969 345.108 470.072C332.858 410.123 330.582 356.69 338.99 313.317C347.397 269.946 366.481 236.658 396.932 216.948C427.382 197.238 466.364 192.94 510.822 202.092C555.282 211.244 605.193 233.843 657.46 267.89C761.992 335.983 875.889 449.829 974.36 593.294C1072.83 736.76 1137.22 882.655 1161.72 1002.55C1173.97 1062.5 1176.24 1115.93 1167.83 1159.31C1159.43 1202.68 1140.34 1235.97 1109.89 1255.68C1079.44 1275.39 1040.46 1279.68 996.002 1270.53C951.542 1261.38 901.631 1238.78 849.364 1204.73C744.833 1136.64 630.935 1022.79 532.464 879.33Z" stroke="url(#paint60_linear_379_4980)" stroke-opacity="0.2" stroke-width="0.642161"/>
<path d="M529.913 875.542C434.02 730.44 372.257 583.486 349.908 463.202C338.734 403.06 337.416 349.601 346.602 306.381C355.786 263.163 375.466 230.207 406.268 211.019C437.07 191.831 476.127 188.196 520.418 198.101C564.711 208.006 614.214 231.447 665.866 266.374C769.17 336.225 881.019 451.979 976.911 597.081C1072.8 742.184 1134.57 889.138 1156.92 1009.42C1168.09 1069.56 1169.41 1123.02 1160.22 1166.24C1151.04 1209.46 1131.36 1242.42 1100.56 1261.6C1069.75 1280.79 1030.7 1284.43 986.405 1274.52C942.112 1264.62 892.609 1241.18 840.957 1206.25C737.653 1136.4 625.805 1020.65 529.913 875.542Z" stroke="url(#paint61_linear_379_4980)" stroke-opacity="0.2" stroke-width="0.642161"/>
<path d="M527.43 871.713C434.146 725.017 375.022 577.049 354.832 456.415C344.737 396.097 344.379 342.629 354.338 299.576C364.298 256.524 384.567 223.911 415.711 205.25C446.856 186.59 485.975 183.619 530.086 194.274C574.199 204.929 623.278 229.205 674.301 265C776.345 336.59 886.111 454.215 979.395 600.911C1072.68 747.608 1131.8 895.575 1151.99 1016.21C1162.09 1076.53 1162.45 1130 1152.49 1173.05C1142.53 1216.1 1122.26 1248.71 1091.11 1267.37C1059.97 1286.03 1020.85 1289.01 976.739 1278.35C932.626 1267.7 883.547 1243.42 832.524 1207.62C730.48 1136.03 620.714 1018.41 527.43 871.713Z" stroke="url(#paint62_linear_379_4980)" stroke-opacity="0.2" stroke-width="0.642162"/>
<path d="M525.016 867.842C434.368 719.597 377.902 570.661 359.876 449.713C350.864 389.238 351.464 335.777 362.195 292.903C372.926 250.031 393.779 217.77 425.256 199.642C456.733 181.515 495.903 179.21 539.821 190.611C583.739 202.013 632.38 227.117 682.758 263.77C783.512 337.076 891.161 456.536 981.808 604.782C1072.46 753.027 1128.92 901.963 1146.95 1022.91C1155.96 1083.39 1155.36 1136.85 1144.63 1179.72C1133.9 1222.59 1113.04 1254.85 1081.57 1272.98C1050.09 1291.11 1010.92 1293.41 967.003 1282.01C923.084 1270.61 874.444 1245.51 824.066 1208.85C723.312 1135.55 615.663 1016.09 525.016 867.842Z" stroke="url(#paint63_linear_379_4980)" stroke-opacity="0.2" stroke-width="0.642161"/>
<path d="M522.671 863.931C434.688 714.182 380.896 564.323 365.041 443.099C357.113 382.485 358.672 329.047 370.172 286.366C381.671 243.686 403.101 211.787 434.901 194.199C466.702 176.61 505.911 174.971 549.621 187.115C593.332 199.26 641.52 225.185 691.237 262.684C790.67 337.683 896.17 458.944 984.152 608.693C1072.14 758.442 1125.93 908.301 1141.78 1029.53C1149.71 1090.14 1148.15 1143.58 1136.65 1186.26C1125.15 1228.94 1103.72 1260.84 1071.92 1278.43C1040.12 1296.01 1000.91 1297.65 957.203 1285.51C913.491 1273.36 865.304 1247.44 815.587 1209.94C716.154 1134.94 610.654 1013.68 522.671 863.931Z" stroke="url(#paint64_linear_379_4980)" stroke-opacity="0.2" stroke-width="0.642161"/>
<path d="M520.397 859.982C435.106 708.774 384.004 558.038 370.324 436.573C363.484 375.84 366.001 322.441 378.266 279.966C390.529 237.492 412.53 205.964 444.644 188.92C476.758 171.876 515.994 170.903 559.484 183.787C602.974 196.671 650.694 223.408 699.735 261.743C797.817 338.412 901.135 461.435 986.427 612.643C1071.72 763.85 1122.82 914.586 1136.5 1036.05C1143.34 1096.78 1140.82 1150.18 1128.56 1192.66C1116.3 1235.13 1094.29 1266.66 1062.18 1283.7C1030.07 1300.75 990.83 1301.72 947.341 1288.84C903.85 1275.95 856.131 1249.22 807.089 1210.88C709.008 1134.21 605.689 1011.19 520.397 859.982Z" stroke="url(#paint65_linear_379_4980)" stroke-opacity="0.2" stroke-width="0.642162"/>
<path d="M518.194 855.995C435.62 703.375 387.225 551.807 375.724 430.14C369.973 369.305 373.448 315.962 386.473 273.705C399.498 231.449 422.063 200.303 454.481 183.808C486.898 167.314 526.15 167.007 569.405 180.627C612.662 194.247 659.899 221.787 708.25 260.946C804.95 339.263 906.056 464.011 988.63 616.63C1071.2 769.25 1119.6 920.818 1131.1 1042.49C1136.85 1103.32 1133.38 1156.66 1120.35 1198.92C1107.33 1241.18 1084.76 1272.32 1052.34 1288.82C1019.93 1305.31 980.675 1305.62 937.42 1292C894.162 1278.38 846.926 1250.84 798.575 1211.68C701.874 1133.36 600.769 1008.61 518.194 855.995Z" stroke="url(#paint66_linear_379_4980)" stroke-opacity="0.2" stroke-width="0.642161"/>
<path d="M516.063 851.97C436.23 697.985 390.557 545.632 381.239 423.799C376.579 362.881 381.011 309.61 394.792 267.584C408.574 225.56 431.696 194.804 464.408 178.864C497.119 162.924 536.374 163.285 579.382 177.635C622.392 191.987 669.132 220.323 716.778 260.294C812.068 340.234 910.93 466.669 990.762 620.654C1070.59 774.639 1116.27 926.992 1125.59 1048.83C1130.25 1109.74 1125.81 1163.01 1112.03 1205.04C1098.25 1247.06 1075.13 1277.82 1042.42 1293.76C1009.71 1309.7 970.451 1309.34 927.442 1294.99C884.432 1280.64 837.692 1252.3 790.047 1212.33C694.757 1132.39 595.895 1005.96 516.063 851.97Z" stroke="url(#paint67_linear_379_4980)" stroke-opacity="0.2" stroke-width="0.642161"/>
<path d="M514.003 847.912C436.938 692.608 393.999 539.516 386.867 417.553C383.3 356.571 388.686 303.388 403.221 261.607C417.755 219.827 441.428 189.471 474.424 174.091C507.419 158.71 546.665 159.737 589.413 174.815C632.163 189.893 678.392 219.016 725.317 259.786C819.168 341.326 915.756 469.409 992.821 624.713C1069.89 780.017 1112.83 933.109 1119.96 1055.07C1123.52 1116.05 1118.14 1169.24 1103.6 1211.02C1089.07 1252.8 1065.4 1283.15 1032.4 1298.53C999.406 1313.91 960.16 1312.89 917.412 1297.81C874.662 1282.73 828.433 1253.61 781.507 1212.84C687.657 1131.3 591.069 1003.22 514.003 847.912Z" stroke="url(#paint68_linear_379_4980)" stroke-opacity="0.2" stroke-width="0.642161"/>
<path d="M512.017 843.817C437.741 687.242 397.551 533.458 392.606 411.404C390.134 350.376 396.473 297.297 411.756 255.773C427.039 214.25 451.255 184.303 484.524 169.487C517.793 154.67 557.018 156.363 599.493 172.164C641.97 187.964 687.673 217.866 733.865 259.423C826.247 342.537 920.532 472.23 994.808 628.805C1069.08 785.381 1109.27 939.165 1114.22 1061.22C1116.69 1122.25 1110.35 1175.33 1095.07 1216.85C1079.79 1258.37 1055.57 1288.32 1022.3 1303.14C989.031 1317.95 949.807 1316.26 907.331 1300.46C864.855 1284.66 819.151 1254.76 772.96 1213.2C680.578 1130.09 586.293 1000.39 512.017 843.817Z" stroke="url(#paint69_linear_379_4980)" stroke-opacity="0.2" stroke-width="0.642161"/>
<path d="M510.104 839.693C438.641 681.894 401.212 527.464 398.456 405.356C397.078 344.301 404.369 291.343 420.396 250.088C436.422 208.835 461.173 179.306 494.706 165.058C528.239 150.81 567.431 153.17 609.621 169.687C651.811 186.206 696.976 216.876 742.419 259.208C833.304 343.871 925.258 475.134 996.72 632.933C1068.18 790.732 1105.61 945.161 1108.37 1067.27C1109.75 1128.32 1102.46 1181.28 1086.43 1222.54C1070.4 1263.79 1045.65 1293.32 1012.12 1307.57C978.585 1321.82 939.393 1319.46 897.204 1302.94C855.013 1286.42 809.849 1255.75 764.406 1213.42C673.52 1128.75 581.567 997.492 510.104 839.693Z" stroke="url(#paint70_linear_379_4980)" stroke-opacity="0.2" stroke-width="0.642161"/>
<path d="M508.265 835.535C439.637 676.561 404.979 521.533 404.413 399.407C404.13 338.343 412.371 285.521 429.136 244.549C445.901 203.578 471.181 174.477 504.967 160.802C538.754 147.127 577.901 150.151 619.791 167.381C661.683 184.612 706.295 216.042 750.976 259.136C840.337 345.322 929.93 478.115 998.559 637.09C1067.19 796.064 1101.85 951.092 1102.41 1073.22C1102.69 1134.28 1094.45 1187.1 1077.69 1228.08C1060.92 1269.05 1035.64 1298.15 1001.86 1311.82C968.071 1325.5 928.923 1322.47 887.033 1305.24C845.141 1288.01 800.53 1256.58 755.849 1213.49C666.487 1127.3 576.894 994.51 508.265 835.535Z" stroke="url(#paint71_linear_379_4980)" stroke-opacity="0.2" stroke-width="0.642161"/>
<path d="M506.501 831.347C440.728 671.246 408.852 515.666 410.477 393.56C411.289 332.507 420.476 279.838 437.976 239.16C455.474 198.483 481.274 169.819 515.304 156.721C549.334 143.623 588.424 147.312 630.003 165.249C671.583 183.188 715.628 215.368 759.533 259.21C847.344 346.893 934.55 481.175 1000.32 641.277C1066.1 801.379 1097.97 956.958 1096.35 1079.06C1095.53 1140.12 1086.35 1192.79 1068.85 1233.46C1051.35 1274.14 1025.55 1302.81 991.52 1315.9C957.49 1329 918.399 1325.31 876.821 1307.38C835.241 1289.44 791.196 1257.26 747.29 1213.41C659.48 1125.73 572.274 991.449 506.501 831.347Z" stroke="url(#paint72_linear_379_4980)" stroke-opacity="0.2" stroke-width="0.642162"/>
<path d="M504.812 827.131C441.915 665.951 412.831 509.868 416.646 387.819C418.553 326.794 428.684 274.294 446.912 233.923C465.139 193.553 491.451 165.334 525.713 152.817C559.976 140.3 598.998 144.652 640.252 163.291C681.508 181.932 724.973 214.852 768.09 259.429C854.322 348.582 939.114 484.314 1002.01 645.494C1064.91 806.674 1093.99 962.757 1090.18 1084.81C1088.27 1145.83 1078.14 1198.33 1059.91 1238.7C1041.69 1279.07 1015.37 1307.29 981.111 1319.81C946.848 1332.32 907.826 1327.97 866.572 1309.33C825.316 1290.69 781.851 1257.77 738.735 1213.2C652.503 1124.04 567.71 988.311 504.812 827.131Z" stroke="url(#paint73_linear_379_4980)" stroke-opacity="0.2" stroke-width="0.642161"/>
<path d="M503.199 822.887C443.196 660.678 416.914 504.138 422.917 382.184C425.918 321.206 436.99 268.89 455.941 228.839C474.89 188.789 501.707 161.023 536.192 149.091C570.677 137.159 609.619 142.172 650.536 161.508C691.455 180.844 734.327 214.495 776.641 259.794C861.269 350.39 943.622 487.529 1003.62 649.738C1063.63 811.948 1089.91 968.487 1083.91 1090.44C1080.91 1151.42 1069.83 1203.74 1050.88 1243.79C1031.93 1283.84 1005.12 1311.6 970.632 1323.53C936.147 1335.47 897.205 1330.45 856.288 1311.12C815.369 1291.78 772.497 1258.13 730.183 1212.83C645.555 1122.24 563.202 985.097 503.199 822.887Z" stroke="url(#paint74_linear_379_4980)" stroke-opacity="0.2" stroke-width="0.642161"/>
<path d="M501.662 818.616C444.572 655.426 421.099 498.478 429.288 376.655C433.383 315.743 445.392 263.628 465.06 223.908C484.727 184.19 512.04 156.886 546.737 145.543C581.434 134.199 620.283 139.873 660.851 159.899C701.42 179.926 743.686 214.296 785.185 260.303C868.183 352.314 948.071 490.819 1005.16 654.008C1062.25 817.198 1085.73 974.146 1077.54 1095.97C1073.44 1156.88 1061.43 1209 1041.76 1248.72C1022.1 1288.43 994.784 1315.74 960.087 1327.08C925.39 1338.42 886.541 1332.75 845.973 1312.73C805.403 1292.7 763.138 1258.33 721.638 1212.32C638.641 1120.31 558.753 981.806 501.662 818.616Z" stroke="url(#paint75_linear_379_4980)" stroke-opacity="0.2" stroke-width="0.642161"/>
<path d="M500.202 814.321C446.042 650.201 425.385 492.892 435.758 371.238C440.945 310.41 453.888 258.511 474.267 219.135C494.645 179.76 522.446 152.927 557.344 142.176C592.242 131.424 630.988 137.756 671.194 158.466C711.402 179.177 753.048 214.258 793.72 260.958C875.062 354.357 952.461 494.185 1006.62 658.304C1060.78 822.424 1081.44 979.733 1071.07 1101.39C1065.88 1162.22 1052.93 1214.11 1032.56 1253.49C1012.18 1292.86 984.378 1319.7 949.479 1330.45C914.581 1341.2 875.836 1334.87 835.629 1314.16C795.422 1293.45 753.775 1258.37 713.103 1211.67C631.761 1118.27 554.362 978.44 500.202 814.321Z" stroke="url(#paint76_linear_379_4980)" stroke-opacity="0.2" stroke-width="0.642161"/>
<path d="M498.819 810C447.606 645 429.771 487.378 442.326 365.929C448.603 305.204 462.476 253.538 483.56 214.517C504.643 175.498 532.923 149.143 568.012 138.987C603.101 128.831 641.73 135.82 681.563 157.208C721.397 178.597 762.411 214.376 802.243 261.755C881.905 356.514 956.792 497.622 1008.01 662.622C1059.22 827.622 1077.05 985.244 1064.5 1106.69C1058.22 1167.42 1044.35 1219.08 1023.26 1258.1C1002.18 1297.12 973.901 1323.48 938.812 1333.63C903.723 1343.79 865.094 1336.8 825.261 1315.41C785.428 1294.03 744.413 1258.25 704.581 1210.87C624.919 1116.11 550.033 975 498.819 810Z" stroke="url(#paint77_linear_379_4980)" stroke-opacity="0.2" stroke-width="0.642161"/>
<path d="M497.513 805.659C449.262 639.829 434.256 481.943 448.987 360.736C456.353 300.133 471.152 248.715 492.934 210.062C514.716 171.41 543.467 145.542 578.736 135.984C614.005 126.427 652.506 134.07 691.953 156.129C731.4 178.189 771.771 214.656 810.75 262.701C888.708 358.789 961.059 501.136 1009.31 666.966C1057.56 832.796 1072.57 990.682 1057.84 1111.89C1050.47 1172.49 1035.67 1223.91 1013.89 1262.56C992.108 1301.21 963.357 1327.08 928.088 1336.64C892.819 1346.2 854.317 1338.56 814.871 1316.5C775.423 1294.44 735.053 1257.97 696.073 1209.92C618.116 1113.84 545.765 971.489 497.513 805.659Z" stroke="url(#paint78_linear_379_4980)" stroke-opacity="0.2" stroke-width="0.642161"/>
<path d="M496.286 801.296C451.012 634.686 438.837 476.583 455.742 355.656C464.194 295.192 479.915 244.038 502.388 205.764C524.861 167.492 554.075 142.118 589.513 133.162C624.951 124.205 663.313 132.501 702.362 155.225C741.411 177.95 781.125 215.094 819.24 263.789C895.47 361.178 965.264 504.719 1010.54 671.328C1055.81 837.937 1067.99 996.041 1051.08 1116.97C1042.63 1177.43 1026.91 1228.59 1004.44 1266.86C981.962 1305.13 952.749 1330.51 917.311 1339.46C881.872 1348.42 843.51 1340.12 804.462 1317.4C765.412 1294.67 725.698 1257.53 687.583 1208.83C611.354 1111.45 541.56 967.905 496.286 801.296Z" stroke="url(#paint79_linear_379_4980)" stroke-opacity="0.2" stroke-width="0.642162"/>
<path d="M495.136 796.913C452.853 629.575 443.515 471.303 462.587 350.692C472.123 290.386 488.76 239.512 511.919 201.629C535.077 163.747 564.743 138.876 600.34 130.524C635.937 122.171 674.148 131.116 712.786 154.498C751.425 177.881 790.471 215.69 827.71 265.021C902.188 363.681 969.403 508.373 1011.69 675.711C1053.97 843.049 1063.31 1001.32 1044.24 1121.93C1034.7 1182.24 1018.06 1233.11 994.904 1270.99C971.747 1308.88 942.08 1333.75 906.483 1342.1C870.887 1350.45 832.676 1341.51 794.038 1318.13C755.398 1294.74 716.353 1256.93 679.113 1207.6C604.635 1108.94 537.42 964.251 495.136 796.913Z" stroke="url(#paint80_linear_379_4980)" stroke-opacity="0.2" stroke-width="0.642161"/>
<path d="M494.066 792.511C454.786 624.495 448.287 466.103 469.521 345.846C480.138 285.716 497.686 235.137 521.523 197.656C545.359 160.177 575.469 135.816 611.214 128.07C646.958 120.324 685.006 129.916 723.223 153.948C761.441 177.982 799.805 216.445 836.158 266.396C908.862 366.298 973.478 512.096 1012.76 680.112C1052.04 848.128 1058.54 1006.52 1037.3 1126.78C1026.69 1186.91 1009.14 1237.49 985.301 1274.97C961.465 1312.45 931.354 1336.81 895.61 1344.55C859.865 1352.3 821.817 1342.71 783.601 1318.67C745.383 1294.64 707.018 1256.18 670.666 1206.23C597.962 1106.33 533.346 960.527 494.066 792.511Z" stroke="url(#paint81_linear_379_4980)" stroke-opacity="0.2" stroke-width="0.642161"/>
<path d="M493.074 788.093C456.81 619.451 453.152 460.986 476.541 341.119C488.236 281.184 506.69 230.915 531.197 193.848C555.704 156.783 586.249 132.939 622.131 125.802C658.012 118.665 695.886 128.901 733.669 153.576C771.453 178.253 809.125 217.359 844.58 267.915C915.488 369.027 977.485 515.888 1013.75 684.53C1050.01 853.173 1053.67 1011.64 1030.28 1131.5C1018.59 1191.44 1000.13 1241.71 975.626 1278.78C951.119 1315.84 920.574 1339.68 884.693 1346.82C848.811 1353.96 810.937 1343.72 773.155 1319.05C735.37 1294.37 697.698 1255.26 662.243 1204.71C591.336 1103.6 529.338 956.735 493.074 788.093Z" stroke="url(#paint82_linear_379_4980)" stroke-opacity="0.2" stroke-width="0.642162"/>
<path d="M492.163 783.659C458.926 614.441 458.109 455.953 483.647 336.512C496.416 276.79 515.77 226.846 540.941 190.205C566.11 153.565 597.081 130.245 633.088 123.72C669.096 117.194 706.783 128.07 744.121 153.382C781.461 178.694 818.43 218.431 852.975 269.577C922.065 371.869 981.425 519.747 1014.66 688.965C1047.9 858.182 1048.72 1016.67 1023.18 1136.11C1010.41 1195.83 991.055 1245.78 965.884 1282.42C940.715 1319.06 909.744 1342.38 873.736 1348.9C837.729 1355.43 800.041 1344.55 762.704 1319.24C725.364 1293.93 688.395 1254.19 653.85 1203.05C584.76 1100.75 525.4 952.877 492.163 783.659Z" stroke="url(#paint83_linear_379_4980)" stroke-opacity="0.2" stroke-width="0.642161"/>
<path d="M491.33 779.211C461.129 609.469 463.155 451.006 490.833 332.027C504.672 272.537 524.921 222.933 550.747 186.728C576.572 150.525 607.96 127.737 644.082 121.824C680.203 115.912 717.694 127.426 754.576 153.365C791.459 179.306 827.713 219.66 861.339 271.381C928.59 374.822 985.294 523.672 1015.49 693.413C1045.69 863.155 1043.67 1021.62 1015.99 1140.6C1002.15 1200.09 981.903 1249.69 956.077 1285.9C930.252 1322.1 898.864 1344.89 862.742 1350.8C826.62 1356.71 789.13 1345.2 752.248 1319.26C715.365 1293.32 679.111 1252.96 645.485 1201.24C578.234 1097.8 521.53 948.952 491.33 779.211Z" stroke="url(#paint84_linear_379_4980)" stroke-opacity="0.2" stroke-width="0.642161"/>
<path d="M490.577 774.749C463.423 604.535 468.291 446.144 498.101 327.664C513.006 268.423 534.142 219.176 560.616 183.419C587.089 147.662 618.883 125.413 655.109 120.115C691.335 114.818 728.616 126.966 765.03 153.525C801.446 180.086 836.974 221.046 869.67 273.326C935.062 377.884 989.093 527.661 1016.25 697.875C1043.4 868.088 1038.53 1026.48 1008.72 1144.96C993.819 1204.2 972.682 1253.45 946.208 1289.2C919.736 1324.96 887.941 1347.21 851.716 1352.51C815.49 1357.81 778.208 1345.66 741.794 1319.1C705.378 1292.54 669.851 1251.58 637.154 1199.3C571.763 1094.74 517.732 944.962 490.577 774.749Z" stroke="url(#paint85_linear_379_4980)" stroke-opacity="0.2" stroke-width="0.642162"/>
<path d="M489.904 770.276C465.804 599.642 473.512 441.372 505.445 323.427C521.411 264.454 543.43 215.577 570.544 180.278C597.656 144.98 629.847 123.276 666.166 118.595C702.484 113.914 739.546 126.692 775.481 153.864C811.418 181.036 846.209 222.59 877.966 275.413C941.478 381.056 992.819 531.715 1016.92 702.349C1041.02 872.982 1033.31 1031.25 1001.38 1149.2C985.412 1208.17 963.394 1257.05 936.28 1292.35C909.168 1327.64 876.977 1349.35 840.658 1354.03C804.34 1358.71 767.278 1345.93 731.343 1318.76C695.406 1291.59 660.615 1250.03 628.858 1197.21C565.346 1091.57 514.004 940.909 489.904 770.276Z" stroke="url(#paint86_linear_379_4980)" stroke-opacity="0.2" stroke-width="0.642162"/>
<path d="M489.312 765.792C468.273 594.791 478.819 436.69 512.865 319.315C529.888 260.627 552.782 212.137 580.527 177.306C608.27 142.478 640.849 121.325 677.249 117.262C713.649 113.199 750.479 126.604 785.925 154.379C821.373 182.156 855.416 224.291 886.224 277.64C947.837 384.336 996.474 535.831 1017.51 706.832C1038.55 877.834 1028 1035.93 993.959 1153.31C976.936 1212 954.042 1260.49 926.297 1295.32C898.554 1330.15 865.975 1351.3 829.575 1355.36C793.175 1359.43 756.345 1346.02 720.899 1318.25C685.451 1290.47 651.408 1248.33 620.601 1194.98C558.987 1088.29 510.35 936.794 489.312 765.792Z" stroke="url(#paint87_linear_379_4980)" stroke-opacity="0.2" stroke-width="0.642162"/>
<path d="M488.8 761.299C470.829 589.982 484.21 432.098 520.359 315.33C538.433 256.946 562.195 208.856 590.563 174.505C618.929 140.156 651.885 119.562 688.356 116.118C724.827 112.674 761.414 126.701 796.36 155.072C831.307 183.444 864.593 226.147 894.441 280.006C954.138 387.723 1000.05 540.008 1018.02 711.325C1036 882.643 1022.61 1040.53 986.466 1157.29C968.391 1215.68 944.629 1263.77 916.262 1298.12C887.895 1332.47 854.939 1353.06 818.469 1356.51C781.998 1359.95 745.41 1345.92 710.465 1317.55C675.518 1289.18 642.232 1246.48 612.383 1192.62C552.687 1084.9 506.771 932.617 488.8 761.299Z" stroke="url(#paint88_linear_379_4980)" stroke-opacity="0.2" stroke-width="0.642161"/>
<path d="M488.368 756.799C473.471 585.217 489.682 427.599 527.923 311.474C547.044 253.41 571.666 205.736 600.648 171.875C629.629 138.016 662.952 117.986 699.482 115.163C736.013 112.339 772.346 126.984 806.781 155.942C841.217 184.9 873.735 228.158 902.615 282.512C960.376 391.217 1003.56 544.244 1018.46 715.825C1033.35 887.407 1017.14 1045.02 978.901 1161.15C959.781 1219.21 935.158 1266.89 906.176 1300.75C877.195 1334.61 843.872 1354.64 807.342 1357.46C770.812 1360.28 734.478 1345.64 700.043 1316.68C665.607 1287.72 633.09 1244.47 604.209 1190.11C546.448 1081.41 503.265 928.38 488.368 756.799Z" stroke="url(#paint89_linear_379_4980)" stroke-opacity="0.2" stroke-width="0.642162"/>
<path d="M488.018 752.293C476.199 580.499 495.236 423.195 535.556 307.747C555.717 250.022 581.193 202.777 610.78 169.417C640.366 136.058 674.046 116.599 710.625 114.397C747.204 112.194 783.272 127.453 817.186 156.988C851.1 186.525 882.84 230.325 910.744 285.155C966.552 394.815 1006.99 548.539 1018.81 720.332C1030.63 892.125 1011.59 1049.43 971.268 1164.88C951.107 1222.6 925.631 1269.85 896.044 1303.21C866.458 1336.57 832.778 1356.03 796.199 1358.23C759.62 1360.43 723.552 1345.17 689.639 1315.64C655.724 1286.1 623.984 1242.3 596.08 1187.47C540.272 1077.81 499.837 924.086 488.018 752.293Z" stroke="url(#paint90_linear_379_4980)" stroke-opacity="0.2" stroke-width="0.642162"/>
<path d="M487.748 747.78C479.01 575.828 500.867 418.885 543.255 304.149C564.45 246.781 590.772 199.98 620.955 167.131C651.138 134.282 685.165 115.401 721.781 113.82C758.397 112.239 794.19 128.107 827.571 158.211C860.953 188.316 891.906 232.645 918.825 287.936C972.663 398.517 1010.34 552.891 1019.08 724.843C1027.81 896.795 1005.96 1053.74 963.568 1168.47C942.374 1225.84 916.052 1272.64 885.868 1305.49C855.686 1338.34 821.659 1357.22 785.043 1358.8C748.427 1360.38 712.634 1344.52 679.253 1314.41C645.87 1284.31 614.918 1239.98 587.999 1184.69C534.161 1074.11 496.485 919.733 487.748 747.78Z" stroke="url(#paint91_linear_379_4980)" stroke-opacity="0.2" stroke-width="0.642161"/>
<path d="M487.559 743.267C481.905 571.207 506.575 414.673 551.019 300.685C573.241 243.691 600.4 197.348 631.171 165.019C661.941 132.692 696.304 114.392 732.946 113.434C769.588 112.475 805.094 128.947 837.934 159.611C870.774 190.276 900.93 235.12 926.856 290.855C978.707 402.324 1013.61 557.3 1019.26 729.359C1024.92 901.418 1000.25 1057.95 955.805 1171.94C933.583 1228.93 906.423 1275.28 875.652 1307.61C844.883 1339.93 810.519 1358.23 773.877 1359.19C737.235 1360.15 701.729 1343.68 668.89 1313.01C636.049 1282.35 605.894 1237.51 579.968 1181.77C528.117 1070.3 493.212 915.326 487.559 743.267Z" stroke="url(#paint92_linear_379_4980)" stroke-opacity="0.2" stroke-width="0.642161"/>
<path d="M487.451 738.749C484.884 566.635 512.359 410.558 558.844 297.352C582.087 240.749 610.076 194.879 641.425 163.08C672.772 131.283 707.462 113.572 744.119 113.236C780.775 112.9 815.984 129.971 848.271 161.185C880.56 192.401 909.909 237.746 934.834 293.908C984.682 406.23 1016.81 561.762 1019.37 733.875C1021.94 905.989 994.465 1062.07 947.98 1175.27C924.737 1231.88 896.748 1277.75 865.399 1309.54C834.052 1341.34 799.363 1359.05 762.706 1359.39C726.049 1359.72 690.84 1342.65 658.553 1311.44C626.265 1280.22 596.915 1234.88 571.99 1178.72C522.142 1066.39 490.018 910.863 487.451 738.749Z" stroke="url(#paint93_linear_379_4980)" stroke-opacity="0.2" stroke-width="0.642162"/>
<path d="M487.424 734.23C487.944 562.115 518.217 406.541 566.729 294.153C590.985 237.958 619.795 192.574 651.712 161.316C683.628 130.059 718.633 112.941 755.293 113.228C791.954 113.515 826.854 131.179 858.579 162.934C890.306 194.691 918.84 240.523 942.756 297.095C990.587 410.237 1019.92 566.277 1019.4 738.392C1018.88 910.508 988.607 1066.08 940.095 1178.47C915.839 1234.66 887.029 1280.05 855.112 1311.31C823.197 1342.56 788.192 1359.68 751.531 1359.39C714.87 1359.11 679.97 1341.44 648.245 1309.69C616.518 1277.93 587.984 1232.1 564.068 1175.53C516.237 1062.39 486.904 906.346 487.424 734.23Z" stroke="url(#paint94_linear_379_4980)" stroke-opacity="0.2" stroke-width="0.642162"/>
<path d="M487.478 729.713C491.084 557.648 524.145 402.626 574.67 291.089C599.933 235.319 629.554 190.436 662.03 159.727C694.504 129.02 729.814 112.501 766.467 113.41C803.12 114.319 837.701 132.573 868.855 164.859C900.01 197.146 927.721 243.452 950.621 300.417C996.42 414.344 1022.95 570.844 1019.35 742.91C1015.74 914.975 982.678 1070 932.154 1181.53C906.891 1237.3 877.269 1282.19 844.794 1312.9C812.32 1343.6 777.01 1360.12 740.357 1359.21C703.703 1358.3 669.123 1340.05 637.969 1307.76C606.813 1275.48 579.103 1229.17 556.203 1172.21C510.404 1058.28 483.872 901.779 487.478 729.713Z" stroke="url(#paint95_linear_379_4980)" stroke-opacity="0.2" stroke-width="0.642162"/>
<path d="M487.613 725.199C494.305 553.236 530.144 398.814 582.666 288.161C608.927 232.835 639.352 188.465 672.376 158.315C705.399 128.167 741.003 112.251 777.637 113.783C814.272 115.315 848.523 134.151 879.096 166.959C909.67 199.767 936.549 246.533 958.426 303.872C1002.18 418.55 1025.9 575.463 1019.21 747.426C1012.52 919.388 976.68 1073.81 924.158 1184.46C897.897 1239.79 867.472 1284.16 834.448 1314.31C801.425 1344.46 765.821 1360.37 729.187 1358.84C692.552 1357.31 658.301 1338.47 627.728 1305.67C597.153 1272.86 570.275 1226.09 548.398 1168.75C504.645 1054.07 480.921 897.161 487.613 725.199Z" stroke="url(#paint96_linear_379_4980)" stroke-opacity="0.2" stroke-width="0.642162"/>
<path d="M487.829 720.687C497.605 548.88 536.211 395.104 590.714 285.37C617.965 230.502 649.184 186.661 682.747 157.079C716.308 127.498 752.195 112.192 788.8 114.345C825.405 116.499 859.316 135.912 889.299 169.231C919.283 202.551 945.321 249.762 966.168 307.459C1007.86 422.852 1028.77 580.13 1018.99 751.938C1009.22 923.745 970.613 1077.52 916.11 1187.26C888.859 1242.12 857.64 1285.96 824.077 1315.55C790.516 1345.13 754.629 1360.43 718.024 1358.28C681.419 1356.13 647.508 1336.71 617.525 1303.39C587.541 1270.07 561.503 1222.86 540.656 1165.17C498.962 1049.77 478.054 892.495 487.829 720.687Z" stroke="url(#paint97_linear_379_4980)" stroke-opacity="0.2" stroke-width="0.642161"/>
<path d="M488.126 716.181C500.982 544.581 542.344 391.497 598.811 282.715C627.045 228.324 659.048 185.023 693.139 156.018C727.229 127.015 763.388 112.322 799.952 115.096C836.516 117.871 870.077 137.856 899.46 171.676C928.845 205.498 954.034 253.139 973.845 311.176C1013.47 427.25 1031.55 584.845 1018.7 756.445C1005.84 928.045 964.48 1081.13 908.013 1189.91C879.779 1244.3 847.776 1287.6 813.685 1316.61C779.595 1345.61 743.436 1360.3 706.872 1357.53C670.308 1354.75 636.747 1334.77 607.364 1300.95C577.979 1267.13 552.79 1219.49 532.979 1161.45C493.357 1045.38 475.271 887.78 488.126 716.181Z" stroke="url(#paint98_linear_379_4980)" stroke-opacity="0.2" stroke-width="0.642161"/>
<path d="M488.504 711.679C504.437 540.339 548.541 387.995 606.955 280.199C636.163 226.3 668.94 183.553 703.55 155.135C738.157 126.717 774.578 112.641 811.09 116.036C847.601 119.432 880.802 139.981 909.577 174.292C938.353 208.605 962.687 256.663 981.456 315.023C1018.99 431.741 1034.25 589.605 1018.32 760.945C1002.39 932.286 958.283 1084.63 899.868 1192.43C870.661 1246.32 837.883 1289.07 803.274 1317.49C768.666 1345.91 732.246 1359.98 695.734 1356.59C659.222 1353.19 626.022 1332.64 597.247 1298.33C568.471 1264.02 544.137 1215.96 525.368 1157.6C487.831 1040.88 472.572 883.02 488.504 711.679Z" stroke="url(#paint99_linear_379_4980)" stroke-opacity="0.2" stroke-width="0.642161"/>
</g>
<defs>
<linearGradient id="paint0_linear_379_4980" x1="741.705" y1="585.459" x2="760.242" y2="893.306" gradientUnits="userSpaceOnUse">
<stop stop-color="#EF23E8"/>
<stop offset="1" stop-color="white"/>
</linearGradient>
<linearGradient id="paint1_linear_379_4980" x1="744.411" y1="585.296" x2="757.71" y2="893.372" gradientUnits="userSpaceOnUse">
<stop stop-color="#EF23E8"/>
<stop offset="1" stop-color="white"/>
</linearGradient>
<linearGradient id="paint2_linear_379_4980" x1="747.12" y1="585.18" x2="755.182" y2="893.4" gradientUnits="userSpaceOnUse">
<stop stop-color="#EF23E8"/>
<stop offset="1" stop-color="white"/>
</linearGradient>
<linearGradient id="paint3_linear_379_4980" x1="749.831" y1="585.11" x2="752.655" y2="893.389" gradientUnits="userSpaceOnUse">
<stop stop-color="#EF23E8"/>
<stop offset="1" stop-color="white"/>
</linearGradient>
<linearGradient id="paint4_linear_379_4980" x1="752.542" y1="585.085" x2="750.131" y2="893.34" gradientUnits="userSpaceOnUse">
<stop stop-color="#EF23E8"/>
<stop offset="1" stop-color="white"/>
</linearGradient>
<linearGradient id="paint5_linear_379_4980" x1="755.254" y1="585.107" x2="747.609" y2="893.254" gradientUnits="userSpaceOnUse">
<stop stop-color="#EF23E8"/>
<stop offset="1" stop-color="white"/>
</linearGradient>
<linearGradient id="paint6_linear_379_4980" x1="757.965" y1="585.175" x2="745.089" y2="893.131" gradientUnits="userSpaceOnUse">
<stop stop-color="#EF23E8"/>
<stop offset="1" stop-color="white"/>
</linearGradient>
<linearGradient id="paint7_linear_379_4980" x1="760.676" y1="585.289" x2="742.574" y2="892.969" gradientUnits="userSpaceOnUse">
<stop stop-color="#EF23E8"/>
<stop offset="1" stop-color="white"/>
</linearGradient>
<linearGradient id="paint8_linear_379_4980" x1="763.384" y1="585.449" x2="740.062" y2="892.77" gradientUnits="userSpaceOnUse">
<stop stop-color="#EF23E8"/>
<stop offset="1" stop-color="white"/>
</linearGradient>
<linearGradient id="paint9_linear_379_4980" x1="766.089" y1="585.654" x2="737.553" y2="892.532" gradientUnits="userSpaceOnUse">
<stop stop-color="#EF23E8"/>
<stop offset="1" stop-color="white"/>
</linearGradient>
<linearGradient id="paint10_linear_379_4980" x1="768.79" y1="585.906" x2="735.049" y2="892.257" gradientUnits="userSpaceOnUse">
<stop stop-color="#EF23E8"/>
<stop offset="1" stop-color="white"/>
</linearGradient>
<linearGradient id="paint11_linear_379_4980" x1="771.486" y1="586.204" x2="732.548" y2="891.946" gradientUnits="userSpaceOnUse">
<stop stop-color="#EF23E8"/>
<stop offset="1" stop-color="white"/>
</linearGradient>
<linearGradient id="paint12_linear_379_4980" x1="774.177" y1="586.548" x2="730.051" y2="891.597" gradientUnits="userSpaceOnUse">
<stop stop-color="#EF23E8"/>
<stop offset="1" stop-color="white"/>
</linearGradient>
<linearGradient id="paint13_linear_379_4980" x1="776.862" y1="586.937" x2="727.56" y2="891.21" gradientUnits="userSpaceOnUse">
<stop stop-color="#EF23E8"/>
<stop offset="1" stop-color="white"/>
</linearGradient>
<linearGradient id="paint14_linear_379_4980" x1="779.539" y1="587.37" x2="725.073" y2="890.785" gradientUnits="userSpaceOnUse">
<stop stop-color="#EF23E8"/>
<stop offset="1" stop-color="white"/>
</linearGradient>
<linearGradient id="paint15_linear_379_4980" x1="782.208" y1="587.85" x2="722.592" y2="890.323" gradientUnits="userSpaceOnUse">
<stop stop-color="#EF23E8"/>
<stop offset="1" stop-color="white"/>
</linearGradient>
<linearGradient id="paint16_linear_379_4980" x1="784.869" y1="588.375" x2="720.115" y2="889.824" gradientUnits="userSpaceOnUse">
<stop stop-color="#EF23E8"/>
<stop offset="1" stop-color="white"/>
</linearGradient>
<linearGradient id="paint17_linear_379_4980" x1="787.52" y1="588.945" x2="717.646" y2="889.287" gradientUnits="userSpaceOnUse">
<stop stop-color="#EF23E8"/>
<stop offset="1" stop-color="white"/>
</linearGradient>
<linearGradient id="paint18_linear_379_4980" x1="790.161" y1="589.56" x2="715.182" y2="888.712" gradientUnits="userSpaceOnUse">
<stop stop-color="#EF23E8"/>
<stop offset="1" stop-color="white"/>
</linearGradient>
<linearGradient id="paint19_linear_379_4980" x1="792.791" y1="590.219" x2="712.724" y2="888.099" gradientUnits="userSpaceOnUse">
<stop stop-color="#EF23E8"/>
<stop offset="1" stop-color="white"/>
</linearGradient>
<linearGradient id="paint20_linear_379_4980" x1="795.408" y1="590.923" x2="710.273" y2="887.448" gradientUnits="userSpaceOnUse">
<stop stop-color="#EF23E8"/>
<stop offset="1" stop-color="white"/>
</linearGradient>
<linearGradient id="paint21_linear_379_4980" x1="798.012" y1="591.672" x2="707.828" y2="886.76" gradientUnits="userSpaceOnUse">
<stop stop-color="#EF23E8"/>
<stop offset="1" stop-color="white"/>
</linearGradient>
<linearGradient id="paint22_linear_379_4980" x1="800.604" y1="592.464" x2="705.391" y2="886.033" gradientUnits="userSpaceOnUse">
<stop stop-color="#EF23E8"/>
<stop offset="1" stop-color="white"/>
</linearGradient>
<linearGradient id="paint23_linear_379_4980" x1="803.18" y1="593.301" x2="702.961" y2="885.268" gradientUnits="userSpaceOnUse">
<stop stop-color="#EF23E8"/>
<stop offset="1" stop-color="white"/>
</linearGradient>
<linearGradient id="paint24_linear_379_4980" x1="805.742" y1="594.18" x2="700.541" y2="884.464" gradientUnits="userSpaceOnUse">
<stop stop-color="#EF23E8"/>
<stop offset="1" stop-color="white"/>
</linearGradient>
<linearGradient id="paint25_linear_379_4980" x1="808.287" y1="595.103" x2="698.128" y2="883.623" gradientUnits="userSpaceOnUse">
<stop stop-color="#EF23E8"/>
<stop offset="1" stop-color="white"/>
</linearGradient>
<linearGradient id="paint26_linear_379_4980" x1="810.816" y1="596.069" x2="695.724" y2="882.742" gradientUnits="userSpaceOnUse">
<stop stop-color="#EF23E8"/>
<stop offset="1" stop-color="white"/>
</linearGradient>
<linearGradient id="paint27_linear_379_4980" x1="813.328" y1="597.079" x2="693.329" y2="881.823" gradientUnits="userSpaceOnUse">
<stop stop-color="#EF23E8"/>
<stop offset="1" stop-color="white"/>
</linearGradient>
<linearGradient id="paint28_linear_379_4980" x1="815.821" y1="598.13" x2="690.944" y2="880.865" gradientUnits="userSpaceOnUse">
<stop stop-color="#EF23E8"/>
<stop offset="1" stop-color="white"/>
</linearGradient>
<linearGradient id="paint29_linear_379_4980" x1="818.295" y1="599.222" x2="688.569" y2="879.867" gradientUnits="userSpaceOnUse">
<stop stop-color="#EF23E8"/>
<stop offset="1" stop-color="white"/>
</linearGradient>
<linearGradient id="paint30_linear_379_4980" x1="820.75" y1="600.358" x2="686.205" y2="878.831" gradientUnits="userSpaceOnUse">
<stop stop-color="#EF23E8"/>
<stop offset="1" stop-color="white"/>
</linearGradient>
<linearGradient id="paint31_linear_379_4980" x1="823.184" y1="601.535" x2="683.852" y2="877.755" gradientUnits="userSpaceOnUse">
<stop stop-color="#EF23E8"/>
<stop offset="1" stop-color="white"/>
</linearGradient>
<linearGradient id="paint32_linear_379_4980" x1="825.597" y1="602.752" x2="681.51" y2="876.64" gradientUnits="userSpaceOnUse">
<stop stop-color="#EF23E8"/>
<stop offset="1" stop-color="white"/>
</linearGradient>
<linearGradient id="paint33_linear_379_4980" x1="827.987" y1="604.011" x2="679.181" y2="875.485" gradientUnits="userSpaceOnUse">
<stop stop-color="#EF23E8"/>
<stop offset="1" stop-color="white"/>
</linearGradient>
<linearGradient id="paint34_linear_379_4980" x1="830.355" y1="605.309" x2="676.864" y2="874.291" gradientUnits="userSpaceOnUse">
<stop stop-color="#EF23E8"/>
<stop offset="1" stop-color="white"/>
</linearGradient>
<linearGradient id="paint35_linear_379_4980" x1="832.699" y1="606.647" x2="674.56" y2="873.055" gradientUnits="userSpaceOnUse">
<stop stop-color="#EF23E8"/>
<stop offset="1" stop-color="white"/>
</linearGradient>
<linearGradient id="paint36_linear_379_4980" x1="835.02" y1="608.025" x2="672.271" y2="871.78" gradientUnits="userSpaceOnUse">
<stop stop-color="#EF23E8"/>
<stop offset="1" stop-color="white"/>
</linearGradient>
<linearGradient id="paint37_linear_379_4980" x1="837.315" y1="609.443" x2="669.996" y2="870.465" gradientUnits="userSpaceOnUse">
<stop stop-color="#EF23E8"/>
<stop offset="1" stop-color="white"/>
</linearGradient>
<linearGradient id="paint38_linear_379_4980" x1="839.586" y1="610.898" x2="667.736" y2="869.11" gradientUnits="userSpaceOnUse">
<stop stop-color="#EF23E8"/>
<stop offset="1" stop-color="white"/>
</linearGradient>
<linearGradient id="paint39_linear_379_4980" x1="841.829" y1="612.392" x2="665.491" y2="867.713" gradientUnits="userSpaceOnUse">
<stop stop-color="#EF23E8"/>
<stop offset="1" stop-color="white"/>
</linearGradient>
<linearGradient id="paint40_linear_379_4980" x1="844.046" y1="613.923" x2="663.264" y2="866.276" gradientUnits="userSpaceOnUse">
<stop stop-color="#EF23E8"/>
<stop offset="1" stop-color="white"/>
</linearGradient>
<linearGradient id="paint41_linear_379_4980" x1="846.235" y1="615.493" x2="661.053" y2="864.8" gradientUnits="userSpaceOnUse">
<stop stop-color="#EF23E8"/>
<stop offset="1" stop-color="white"/>
</linearGradient>
<linearGradient id="paint42_linear_379_4980" x1="848.396" y1="617.098" x2="658.861" y2="863.281" gradientUnits="userSpaceOnUse">
<stop stop-color="#EF23E8"/>
<stop offset="1" stop-color="white"/>
</linearGradient>
<linearGradient id="paint43_linear_379_4980" x1="850.528" y1="618.741" x2="656.687" y2="861.722" gradientUnits="userSpaceOnUse">
<stop stop-color="#EF23E8"/>
<stop offset="1" stop-color="white"/>
</linearGradient>
<linearGradient id="paint44_linear_379_4980" x1="852.63" y1="620.419" x2="654.532" y2="860.122" gradientUnits="userSpaceOnUse">
<stop stop-color="#EF23E8"/>
<stop offset="1" stop-color="white"/>
</linearGradient>
<linearGradient id="paint45_linear_379_4980" x1="854.702" y1="622.131" x2="652.398" y2="858.481" gradientUnits="userSpaceOnUse">
<stop stop-color="#EF23E8"/>
<stop offset="1" stop-color="white"/>
</linearGradient>
<linearGradient id="paint46_linear_379_4980" x1="856.743" y1="623.879" x2="650.284" y2="856.799" gradientUnits="userSpaceOnUse">
<stop stop-color="#EF23E8"/>
<stop offset="1" stop-color="white"/>
</linearGradient>
<linearGradient id="paint47_linear_379_4980" x1="858.754" y1="625.661" x2="648.194" y2="855.076" gradientUnits="userSpaceOnUse">
<stop stop-color="#EF23E8"/>
<stop offset="1" stop-color="white"/>
</linearGradient>
<linearGradient id="paint48_linear_379_4980" x1="860.731" y1="627.477" x2="646.124" y2="853.313" gradientUnits="userSpaceOnUse">
<stop stop-color="#EF23E8"/>
<stop offset="1" stop-color="white"/>
</linearGradient>
<linearGradient id="paint49_linear_379_4980" x1="862.676" y1="629.325" x2="644.08" y2="851.507" gradientUnits="userSpaceOnUse">
<stop stop-color="#EF23E8"/>
<stop offset="1" stop-color="white"/>
</linearGradient>
<linearGradient id="paint50_linear_379_4980" x1="864.588" y1="631.207" x2="642.06" y2="849.662" gradientUnits="userSpaceOnUse">
<stop stop-color="#EF23E8"/>
<stop offset="1" stop-color="white"/>
</linearGradient>
<linearGradient id="paint51_linear_379_4980" x1="866.466" y1="633.121" x2="640.065" y2="847.776" gradientUnits="userSpaceOnUse">
<stop stop-color="#EF23E8"/>
<stop offset="1" stop-color="white"/>
</linearGradient>
<linearGradient id="paint52_linear_379_4980" x1="868.309" y1="635.066" x2="638.096" y2="845.849" gradientUnits="userSpaceOnUse">
<stop stop-color="#EF23E8"/>
<stop offset="1" stop-color="white"/>
</linearGradient>
<linearGradient id="paint53_linear_379_4980" x1="870.118" y1="637.042" x2="636.155" y2="843.883" gradientUnits="userSpaceOnUse">
<stop stop-color="#EF23E8"/>
<stop offset="1" stop-color="white"/>
</linearGradient>
<linearGradient id="paint54_linear_379_4980" x1="871.891" y1="639.048" x2="634.242" y2="841.876" gradientUnits="userSpaceOnUse">
<stop stop-color="#EF23E8"/>
<stop offset="1" stop-color="white"/>
</linearGradient>
<linearGradient id="paint55_linear_379_4980" x1="873.627" y1="641.084" x2="632.358" y2="839.828" gradientUnits="userSpaceOnUse">
<stop stop-color="#EF23E8"/>
<stop offset="1" stop-color="white"/>
</linearGradient>
<linearGradient id="paint56_linear_379_4980" x1="875.327" y1="643.149" x2="630.505" y2="837.741" gradientUnits="userSpaceOnUse">
<stop stop-color="#EF23E8"/>
<stop offset="1" stop-color="white"/>
</linearGradient>
<linearGradient id="paint57_linear_379_4980" x1="876.99" y1="645.242" x2="628.683" y2="835.615" gradientUnits="userSpaceOnUse">
<stop stop-color="#EF23E8"/>
<stop offset="1" stop-color="white"/>
</linearGradient>
<linearGradient id="paint58_linear_379_4980" x1="878.616" y1="647.363" x2="626.893" y2="833.45" gradientUnits="userSpaceOnUse">
<stop stop-color="#EF23E8"/>
<stop offset="1" stop-color="white"/>
</linearGradient>
<linearGradient id="paint59_linear_379_4980" x1="880.203" y1="649.511" x2="625.136" y2="831.246" gradientUnits="userSpaceOnUse">
<stop stop-color="#EF23E8"/>
<stop offset="1" stop-color="white"/>
</linearGradient>
<linearGradient id="paint60_linear_379_4980" x1="881.752" y1="651.685" x2="623.414" y2="829.003" gradientUnits="userSpaceOnUse">
<stop stop-color="#EF23E8"/>
<stop offset="1" stop-color="white"/>
</linearGradient>
<linearGradient id="paint61_linear_379_4980" x1="883.261" y1="653.885" x2="621.726" y2="826.722" gradientUnits="userSpaceOnUse">
<stop stop-color="#EF23E8"/>
<stop offset="1" stop-color="white"/>
</linearGradient>
<linearGradient id="paint62_linear_379_4980" x1="884.732" y1="656.111" x2="620.076" y2="824.405" gradientUnits="userSpaceOnUse">
<stop stop-color="#EF23E8"/>
<stop offset="1" stop-color="white"/>
</linearGradient>
<linearGradient id="paint63_linear_379_4980" x1="886.161" y1="658.36" x2="618.462" y2="822.05" gradientUnits="userSpaceOnUse">
<stop stop-color="#EF23E8"/>
<stop offset="1" stop-color="white"/>
</linearGradient>
<linearGradient id="paint64_linear_379_4980" x1="887.551" y1="660.634" x2="616.887" y2="819.658" gradientUnits="userSpaceOnUse">
<stop stop-color="#EF23E8"/>
<stop offset="1" stop-color="white"/>
</linearGradient>
<linearGradient id="paint65_linear_379_4980" x1="888.9" y1="662.931" x2="615.351" y2="817.231" gradientUnits="userSpaceOnUse">
<stop stop-color="#EF23E8"/>
<stop offset="1" stop-color="white"/>
</linearGradient>
<linearGradient id="paint66_linear_379_4980" x1="890.207" y1="665.25" x2="613.856" y2="814.769" gradientUnits="userSpaceOnUse">
<stop stop-color="#EF23E8"/>
<stop offset="1" stop-color="white"/>
</linearGradient>
<linearGradient id="paint67_linear_379_4980" x1="891.473" y1="667.59" x2="612.402" y2="812.272" gradientUnits="userSpaceOnUse">
<stop stop-color="#EF23E8"/>
<stop offset="1" stop-color="white"/>
</linearGradient>
<linearGradient id="paint68_linear_379_4980" x1="892.697" y1="669.952" x2="610.99" y2="809.742" gradientUnits="userSpaceOnUse">
<stop stop-color="#EF23E8"/>
<stop offset="1" stop-color="white"/>
</linearGradient>
<linearGradient id="paint69_linear_379_4980" x1="893.878" y1="672.332" x2="609.622" y2="807.177" gradientUnits="userSpaceOnUse">
<stop stop-color="#EF23E8"/>
<stop offset="1" stop-color="white"/>
</linearGradient>
<linearGradient id="paint70_linear_379_4980" x1="895.017" y1="674.735" x2="608.299" y2="804.582" gradientUnits="userSpaceOnUse">
<stop stop-color="#EF23E8"/>
<stop offset="1" stop-color="white"/>
</linearGradient>
<linearGradient id="paint71_linear_379_4980" x1="896.112" y1="677.155" x2="607.02" y2="801.954" gradientUnits="userSpaceOnUse">
<stop stop-color="#EF23E8"/>
<stop offset="1" stop-color="white"/>
</linearGradient>
<linearGradient id="paint72_linear_379_4980" x1="897.163" y1="679.592" x2="605.788" y2="799.296" gradientUnits="userSpaceOnUse">
<stop stop-color="#EF23E8"/>
<stop offset="1" stop-color="white"/>
</linearGradient>
<linearGradient id="paint73_linear_379_4980" x1="898.172" y1="682.048" x2="604.603" y2="796.608" gradientUnits="userSpaceOnUse">
<stop stop-color="#EF23E8"/>
<stop offset="1" stop-color="white"/>
</linearGradient>
<linearGradient id="paint74_linear_379_4980" x1="899.136" y1="684.52" x2="603.467" y2="793.891" gradientUnits="userSpaceOnUse">
<stop stop-color="#EF23E8"/>
<stop offset="1" stop-color="white"/>
</linearGradient>
<linearGradient id="paint75_linear_379_4980" x1="900.055" y1="687.007" x2="602.379" y2="791.146" gradientUnits="userSpaceOnUse">
<stop stop-color="#EF23E8"/>
<stop offset="1" stop-color="white"/>
</linearGradient>
<linearGradient id="paint76_linear_379_4980" x1="900.93" y1="689.51" x2="601.341" y2="788.375" gradientUnits="userSpaceOnUse">
<stop stop-color="#EF23E8"/>
<stop offset="1" stop-color="white"/>
</linearGradient>
<linearGradient id="paint77_linear_379_4980" x1="901.76" y1="692.025" x2="600.355" y2="785.576" gradientUnits="userSpaceOnUse">
<stop stop-color="#EF23E8"/>
<stop offset="1" stop-color="white"/>
</linearGradient>
<linearGradient id="paint78_linear_379_4980" x1="902.545" y1="694.557" x2="599.42" y2="782.756" gradientUnits="userSpaceOnUse">
<stop stop-color="#EF23E8"/>
<stop offset="1" stop-color="white"/>
</linearGradient>
<linearGradient id="paint79_linear_379_4980" x1="903.284" y1="697.099" x2="598.537" y2="779.911" gradientUnits="userSpaceOnUse">
<stop stop-color="#EF23E8"/>
<stop offset="1" stop-color="white"/>
</linearGradient>
<linearGradient id="paint80_linear_379_4980" x1="903.978" y1="699.654" x2="597.708" y2="777.043" gradientUnits="userSpaceOnUse">
<stop stop-color="#EF23E8"/>
<stop offset="1" stop-color="white"/>
</linearGradient>
<linearGradient id="paint81_linear_379_4980" x1="904.626" y1="702.22" x2="596.932" y2="774.154" gradientUnits="userSpaceOnUse">
<stop stop-color="#EF23E8"/>
<stop offset="1" stop-color="white"/>
</linearGradient>
<linearGradient id="paint82_linear_379_4980" x1="905.228" y1="704.797" x2="596.211" y2="771.246" gradientUnits="userSpaceOnUse">
<stop stop-color="#EF23E8"/>
<stop offset="1" stop-color="white"/>
</linearGradient>
<linearGradient id="paint83_linear_379_4980" x1="905.784" y1="707.383" x2="595.547" y2="768.319" gradientUnits="userSpaceOnUse">
<stop stop-color="#EF23E8"/>
<stop offset="1" stop-color="white"/>
</linearGradient>
<linearGradient id="paint84_linear_379_4980" x1="906.293" y1="709.978" x2="594.937" y2="765.375" gradientUnits="userSpaceOnUse">
<stop stop-color="#EF23E8"/>
<stop offset="1" stop-color="white"/>
</linearGradient>
<linearGradient id="paint85_linear_379_4980" x1="906.756" y1="712.581" x2="594.384" y2="762.414" gradientUnits="userSpaceOnUse">
<stop stop-color="#EF23E8"/>
<stop offset="1" stop-color="white"/>
</linearGradient>
<linearGradient id="paint86_linear_379_4980" x1="907.171" y1="715.191" x2="593.888" y2="759.439" gradientUnits="userSpaceOnUse">
<stop stop-color="#EF23E8"/>
<stop offset="1" stop-color="white"/>
</linearGradient>
<linearGradient id="paint87_linear_379_4980" x1="907.54" y1="717.808" x2="593.45" y2="756.451" gradientUnits="userSpaceOnUse">
<stop stop-color="#EF23E8"/>
<stop offset="1" stop-color="white"/>
</linearGradient>
<linearGradient id="paint88_linear_379_4980" x1="907.863" y1="720.43" x2="593.07" y2="753.451" gradientUnits="userSpaceOnUse">
<stop stop-color="#EF23E8"/>
<stop offset="1" stop-color="white"/>
</linearGradient>
<linearGradient id="paint89_linear_379_4980" x1="908.137" y1="723.057" x2="592.748" y2="750.44" gradientUnits="userSpaceOnUse">
<stop stop-color="#EF23E8"/>
<stop offset="1" stop-color="white"/>
</linearGradient>
<linearGradient id="paint90_linear_379_4980" x1="908.365" y1="725.689" x2="592.485" y2="747.421" gradientUnits="userSpaceOnUse">
<stop stop-color="#EF23E8"/>
<stop offset="1" stop-color="white"/>
</linearGradient>
<linearGradient id="paint91_linear_379_4980" x1="908.546" y1="728.322" x2="592.281" y2="744.393" gradientUnits="userSpaceOnUse">
<stop stop-color="#EF23E8"/>
<stop offset="1" stop-color="white"/>
</linearGradient>
<linearGradient id="paint92_linear_379_4980" x1="908.679" y1="730.96" x2="592.136" y2="741.36" gradientUnits="userSpaceOnUse">
<stop stop-color="#EF23E8"/>
<stop offset="1" stop-color="white"/>
</linearGradient>
<linearGradient id="paint93_linear_379_4980" x1="908.766" y1="733.598" x2="592.052" y2="738.322" gradientUnits="userSpaceOnUse">
<stop stop-color="#EF23E8"/>
<stop offset="1" stop-color="white"/>
</linearGradient>
<linearGradient id="paint94_linear_379_4980" x1="908.805" y1="736.236" x2="592.027" y2="735.28" gradientUnits="userSpaceOnUse">
<stop stop-color="#EF23E8"/>
<stop offset="1" stop-color="white"/>
</linearGradient>
<linearGradient id="paint95_linear_379_4980" x1="908.796" y1="738.876" x2="592.062" y2="732.237" gradientUnits="userSpaceOnUse">
<stop stop-color="#EF23E8"/>
<stop offset="1" stop-color="white"/>
</linearGradient>
<linearGradient id="paint96_linear_379_4980" x1="908.74" y1="741.515" x2="592.157" y2="729.195" gradientUnits="userSpaceOnUse">
<stop stop-color="#EF23E8"/>
<stop offset="1" stop-color="white"/>
</linearGradient>
<linearGradient id="paint97_linear_379_4980" x1="908.637" y1="744.152" x2="592.312" y2="726.154" gradientUnits="userSpaceOnUse">
<stop stop-color="#EF23E8"/>
<stop offset="1" stop-color="white"/>
</linearGradient>
<linearGradient id="paint98_linear_379_4980" x1="908.487" y1="746.787" x2="592.527" y2="723.116" gradientUnits="userSpaceOnUse">
<stop stop-color="#EF23E8"/>
<stop offset="1" stop-color="white"/>
</linearGradient>
<linearGradient id="paint99_linear_379_4980" x1="908.289" y1="749.418" x2="592.803" y2="720.082" gradientUnits="userSpaceOnUse">
<stop stop-color="#EF23E8"/>
<stop offset="1" stop-color="white"/>
</linearGradient>
</defs>
</svg>
