<svg width="1451" height="1656" viewBox="0 0 1451 1656" fill="none" xmlns="http://www.w3.org/2000/svg">
<g opacity="0.3">
<path d="M866.956 1118.19C668.568 1130.13 486.739 1108.4 353.14 1063.63C286.34 1041.24 231.615 1013.09 192.908 980.533C154.201 947.972 131.536 911.017 128.782 870.996C126.029 830.974 143.444 791.606 177.369 754.672C211.295 717.737 261.711 683.262 324.893 653.047C451.254 592.618 628.605 549.261 826.993 537.316C1025.38 525.37 1207.21 547.1 1340.81 591.876C1407.61 614.264 1462.33 642.408 1501.04 674.969C1539.75 707.53 1562.41 744.485 1565.17 784.507C1567.92 824.528 1550.51 863.897 1516.58 900.831C1482.65 937.766 1432.24 972.24 1369.06 1002.46C1242.7 1062.88 1065.34 1106.24 866.956 1118.19Z" stroke="url(#paint0_linear_379_3589)" stroke-opacity="0.2" stroke-width="0.721909"/>
<path d="M861.746 1118.46C663.156 1127.03 481.728 1102.22 348.941 1055.18C282.546 1031.66 228.33 1002.6 190.209 969.387C152.089 936.177 130.087 898.845 128.052 858.787C126.016 818.729 144.136 779.665 178.722 743.316C213.308 706.966 264.339 673.356 328.058 644.222C455.495 585.954 633.613 545.619 832.203 537.046C1030.79 528.473 1212.22 553.286 1345.01 600.32C1411.4 623.837 1465.62 652.904 1503.74 686.115C1541.86 719.325 1563.86 756.657 1565.9 796.715C1567.93 836.773 1549.81 875.837 1515.23 912.186C1480.64 948.535 1429.61 982.146 1365.89 1011.28C1238.45 1069.55 1060.34 1109.88 861.746 1118.46Z" stroke="url(#paint1_linear_379_3589)" stroke-opacity="0.2" stroke-width="0.721909"/>
<path d="M856.532 1118.64C657.801 1123.83 476.829 1095.95 344.894 1046.67C278.925 1022.03 225.233 992.049 187.71 958.198C150.188 924.348 128.858 886.652 127.541 846.569C126.224 806.486 145.043 767.74 180.278 731.987C215.514 696.234 267.145 663.498 331.383 635.453C459.856 579.363 638.686 542.064 837.417 536.866C1036.15 531.668 1217.12 559.556 1349.06 608.834C1415.02 633.474 1468.72 663.454 1506.24 697.304C1543.76 731.154 1565.09 768.85 1566.41 808.933C1567.73 849.016 1548.91 887.763 1513.67 923.515C1478.44 959.269 1426.8 992.004 1362.57 1020.05C1234.09 1076.14 1055.26 1113.44 856.532 1118.64Z" stroke="url(#paint2_linear_379_3589)" stroke-opacity="0.2" stroke-width="0.721909"/>
<path d="M851.315 1118.73C652.503 1120.55 472.043 1089.59 341 1038.09C275.477 1012.33 222.326 981.449 185.413 946.969C148.5 912.49 127.847 874.441 127.249 834.345C126.651 794.25 146.164 755.832 182.038 720.687C217.913 685.54 270.128 653.69 334.864 626.742C464.335 572.848 643.823 538.595 842.635 536.774C1041.45 534.952 1221.91 565.907 1352.95 617.415C1418.47 643.168 1471.62 674.054 1508.54 708.533C1545.45 743.012 1566.1 781.061 1566.7 821.157C1567.3 861.253 1547.79 899.67 1511.91 934.816C1476.04 969.962 1423.82 1001.81 1359.09 1028.76C1229.61 1082.65 1050.13 1116.91 851.315 1118.73Z" stroke="url(#paint3_linear_379_3589)" stroke-opacity="0.2" stroke-width="0.721909"/>
<path d="M846.096 1118.73C647.264 1117.18 467.371 1083.16 337.259 1029.44C272.202 1002.58 219.609 970.802 183.316 935.704C147.024 900.606 127.055 862.215 127.176 822.119C127.297 782.023 147.497 743.946 184 709.419C220.503 674.89 273.285 643.934 338.501 618.092C468.931 566.411 649.021 535.214 847.853 536.77C1046.69 538.325 1226.58 572.338 1356.69 626.059C1421.75 652.919 1474.34 684.7 1510.63 719.798C1546.92 754.895 1566.89 793.286 1566.77 833.382C1566.65 873.479 1546.45 911.555 1509.95 946.083C1473.45 980.612 1420.66 1011.57 1355.45 1037.41C1225.02 1089.09 1044.93 1120.29 846.096 1118.73Z" stroke="url(#paint4_linear_379_3589)" stroke-opacity="0.2" stroke-width="0.721909"/>
<path d="M840.878 1118.65C642.086 1113.71 462.814 1076.65 333.674 1020.74C269.103 992.778 217.084 960.112 181.422 924.406C145.762 888.701 126.482 849.98 127.322 809.896C128.162 769.811 149.045 732.087 186.164 698.187C223.284 664.287 276.618 634.235 342.293 609.507C473.641 560.053 654.28 531.923 853.071 536.855C1051.86 541.788 1231.14 578.848 1360.27 634.765C1424.85 662.724 1476.87 695.39 1512.53 731.096C1548.19 766.802 1567.47 805.522 1566.63 845.607C1565.79 885.691 1544.9 923.416 1507.79 957.315C1470.67 991.216 1417.33 1021.27 1351.66 1046C1220.31 1095.45 1039.67 1123.58 840.878 1118.65Z" stroke="url(#paint5_linear_379_3589)" stroke-opacity="0.2" stroke-width="0.721909"/>
<path d="M835.661 1118.47C636.971 1110.17 458.374 1070.07 330.245 1011.97C266.18 982.924 214.749 949.382 179.731 913.079C144.713 876.777 126.129 837.738 127.688 797.677C129.247 757.617 150.804 720.256 188.529 686.995C226.254 653.734 280.124 624.595 346.239 600.989C478.466 553.777 659.597 528.722 858.288 537.03C1056.98 545.337 1235.57 585.433 1363.7 643.53C1427.77 672.579 1479.2 706.121 1514.22 742.424C1549.24 778.726 1567.82 817.765 1566.26 857.826C1564.7 897.886 1543.14 935.247 1505.42 968.508C1467.69 1001.77 1413.82 1030.91 1347.71 1054.51C1215.48 1101.73 1034.35 1126.78 835.661 1118.47Z" stroke="url(#paint6_linear_379_3589)" stroke-opacity="0.2" stroke-width="0.721909"/>
<path d="M830.448 1118.21C631.919 1106.53 454.054 1063.41 326.975 1003.15C263.434 973.022 212.608 938.615 178.243 901.726C143.879 864.837 125.996 825.492 128.273 785.468C130.55 745.444 152.776 708.458 191.095 675.846C229.415 643.233 283.804 615.016 350.337 592.539C483.402 547.585 664.972 525.612 863.501 537.292C1062.03 548.972 1239.9 592.092 1366.97 652.351C1430.51 682.481 1481.34 716.888 1515.71 753.778C1550.07 790.666 1567.95 830.011 1565.68 870.035C1563.4 910.06 1541.17 947.045 1502.85 979.657C1464.53 1012.27 1410.15 1040.49 1343.61 1062.96C1210.55 1107.92 1028.98 1129.89 830.448 1118.21Z" stroke="url(#paint7_linear_379_3589)" stroke-opacity="0.2" stroke-width="0.721908"/>
<path d="M825.24 1117.86C626.933 1102.81 449.852 1056.68 323.862 994.278C260.866 963.076 210.66 927.814 176.959 890.35C143.258 852.887 126.082 813.248 129.077 773.272C132.072 733.296 154.959 696.697 193.861 664.743C232.763 632.789 287.655 605.503 354.587 584.161C488.45 541.477 670.402 522.594 868.709 537.643C1067.02 552.692 1244.1 598.822 1370.09 661.226C1433.08 692.428 1483.29 727.69 1516.99 765.154C1550.69 802.617 1567.87 842.256 1564.87 882.232C1561.88 922.208 1538.99 958.807 1500.09 990.76C1461.19 1022.71 1406.29 1050 1339.36 1071.34C1205.5 1114.03 1023.55 1132.91 825.24 1117.86Z" stroke="url(#paint8_linear_379_3589)" stroke-opacity="0.2" stroke-width="0.721909"/>
<path d="M820.039 1117.42C622.015 1099.01 445.772 1049.88 320.909 985.353C258.476 953.088 208.906 916.982 175.879 878.955C142.852 840.928 126.388 801.007 130.099 761.091C133.811 721.176 157.354 684.974 196.825 653.689C236.298 622.403 291.676 596.056 358.987 575.856C493.607 535.457 675.886 519.668 873.91 538.082C1071.93 556.495 1248.18 605.622 1373.04 670.15C1435.47 702.414 1485.04 738.521 1518.07 776.548C1551.1 814.575 1567.56 854.496 1563.85 894.412C1560.14 934.327 1536.6 970.528 1497.12 1001.81C1457.65 1033.1 1402.27 1059.45 1334.96 1079.65C1200.34 1120.05 1018.06 1135.83 820.039 1117.42Z" stroke="url(#paint9_linear_379_3589)" stroke-opacity="0.2" stroke-width="0.721909"/>
<path d="M814.846 1116.89C617.164 1095.12 441.814 1043.01 318.116 976.379C256.266 943.062 207.346 906.123 175.003 867.543C142.66 828.965 126.913 788.774 131.34 748.931C135.767 709.088 159.958 673.296 199.988 642.688C240.02 612.081 295.866 586.68 363.535 567.628C498.871 529.525 681.422 516.836 879.103 538.609C1076.79 560.381 1252.14 612.489 1375.83 679.123C1437.68 712.44 1486.6 749.379 1518.95 787.958C1551.29 826.537 1567.04 866.728 1562.61 906.571C1558.18 946.414 1533.99 982.206 1493.96 1012.81C1453.93 1043.42 1398.08 1068.82 1330.41 1087.87C1195.08 1125.98 1012.53 1138.67 814.846 1116.89Z" stroke="url(#paint10_linear_379_3589)" stroke-opacity="0.2" stroke-width="0.721908"/>
<path d="M809.663 1116.28C612.384 1091.15 437.979 1036.08 315.484 967.362C254.235 933.002 205.981 895.241 174.332 856.122C142.683 817.004 127.657 776.554 132.799 736.796C137.94 697.038 162.771 661.665 203.348 631.745C243.926 601.825 300.224 577.379 368.231 559.481C504.241 523.686 687.008 514.1 884.287 539.225C1081.57 564.35 1255.97 619.424 1378.47 688.142C1439.71 722.501 1487.97 760.263 1519.62 799.382C1551.27 838.5 1566.29 878.949 1561.15 918.707C1556.01 958.465 1531.18 993.839 1490.6 1023.76C1450.02 1053.68 1393.73 1078.12 1325.72 1096.02C1189.71 1131.82 1006.94 1141.4 809.663 1116.28Z" stroke="url(#paint11_linear_379_3589)" stroke-opacity="0.2" stroke-width="0.721909"/>
<path d="M804.491 1115.58C607.675 1087.11 434.269 1029.08 313.014 958.302C252.385 922.91 204.812 884.338 173.866 844.691C142.92 805.045 128.621 764.35 134.475 724.689C140.33 685.028 165.793 650.085 206.904 620.861C248.016 591.637 304.749 568.154 373.072 551.415C509.716 517.938 692.643 511.459 889.459 539.929C1086.27 568.398 1259.68 626.421 1380.94 697.203C1441.56 732.595 1489.14 771.166 1520.08 810.814C1551.03 850.46 1565.33 891.155 1559.47 930.816C1553.62 970.477 1528.16 1005.42 1487.05 1034.64C1445.93 1063.87 1389.2 1087.35 1320.88 1104.09C1184.23 1137.57 1001.31 1144.05 804.491 1115.58Z" stroke="url(#paint12_linear_379_3589)" stroke-opacity="0.2" stroke-width="0.721909"/>
<path d="M799.331 1114.78C603.039 1082.98 430.684 1022.03 310.706 949.201C250.716 912.789 203.837 873.418 173.604 833.255C143.372 793.092 129.803 752.165 136.368 712.613C142.934 673.06 169.022 638.558 210.655 610.04C252.288 581.521 309.439 559.007 378.058 543.433C515.293 512.285 698.325 508.915 894.618 540.72C1090.91 572.526 1263.27 633.479 1383.24 706.304C1443.23 742.716 1490.11 782.087 1520.34 822.25C1550.58 862.413 1564.15 903.34 1557.58 942.893C1551.02 982.445 1524.93 1016.95 1483.29 1045.46C1441.66 1073.98 1384.51 1096.5 1315.89 1112.07C1178.66 1143.22 995.624 1146.59 799.331 1114.78Z" stroke="url(#paint13_linear_379_3589)" stroke-opacity="0.2" stroke-width="0.721909"/>
<path d="M794.187 1113.91C598.477 1078.77 427.227 1014.91 308.562 940.063C249.229 902.64 203.059 862.483 173.549 821.816C144.038 781.15 131.205 740.001 138.479 700.57C145.753 661.139 172.459 627.089 214.6 599.284C256.742 571.48 314.293 549.941 383.187 535.536C520.972 506.727 704.053 506.466 899.763 541.598C1095.47 576.73 1266.72 640.596 1385.39 715.441C1444.72 752.863 1490.89 793.021 1520.4 833.688C1549.91 874.354 1562.75 915.502 1555.47 954.933C1548.2 994.364 1521.49 1028.42 1479.35 1056.22C1437.21 1084.02 1379.66 1105.56 1310.76 1119.97C1172.98 1148.78 989.897 1149.04 794.187 1113.91Z" stroke="url(#paint14_linear_379_3589)" stroke-opacity="0.2" stroke-width="0.721909"/>
<path d="M789.059 1112.94C593.991 1074.49 423.897 1007.73 306.582 930.891C247.924 892.469 202.477 851.538 173.697 810.379C144.919 769.222 132.824 727.865 140.804 688.567C148.785 649.269 176.1 615.68 218.737 588.599C261.375 561.516 319.308 540.961 388.456 527.729C526.75 501.267 709.823 504.116 904.891 542.563C1099.96 581.01 1270.05 647.77 1387.37 724.612C1446.03 763.033 1491.47 803.965 1520.25 845.124C1549.03 886.281 1561.13 927.638 1553.14 966.936C1545.16 1006.23 1517.85 1039.82 1475.21 1066.9C1432.57 1093.99 1374.64 1114.54 1305.49 1127.77C1167.2 1154.24 984.126 1151.39 789.059 1112.94Z" stroke="url(#paint15_linear_379_3589)" stroke-opacity="0.2" stroke-width="0.721909"/>
<path d="M783.948 1111.89C589.582 1070.14 420.696 1000.5 304.767 921.688C246.801 882.28 202.091 840.586 174.052 798.949C146.013 757.312 134.66 715.76 143.345 676.607C152.03 637.454 179.945 604.338 223.065 577.987C266.186 551.635 324.485 532.068 393.866 520.014C532.625 495.908 715.636 501.865 910.002 543.616C1104.37 585.367 1273.25 655 1389.18 733.816C1447.15 773.224 1491.86 814.918 1519.9 856.555C1547.94 898.192 1559.29 939.743 1550.6 978.896C1541.92 1018.05 1514 1051.17 1470.88 1077.52C1427.76 1103.87 1369.46 1123.44 1300.08 1135.49C1161.32 1159.6 978.313 1153.64 783.948 1111.89Z" stroke="url(#paint16_linear_379_3589)" stroke-opacity="0.2" stroke-width="0.721909"/>
<path d="M778.856 1110.75C585.252 1065.71 417.624 993.222 303.116 912.457C245.861 872.073 201.902 829.63 174.611 787.527C147.32 745.424 136.713 703.689 146.1 664.693C155.486 625.697 183.994 593.062 227.584 567.45C271.175 541.837 329.821 523.265 399.413 512.393C538.596 490.649 721.489 499.713 915.093 544.755C1108.7 589.797 1276.32 662.281 1390.83 743.047C1448.09 783.431 1492.05 825.874 1519.34 867.977C1546.63 910.08 1557.24 951.815 1547.85 990.811C1538.46 1029.81 1509.96 1062.44 1466.37 1088.05C1422.77 1113.67 1364.13 1132.24 1294.54 1143.11C1155.35 1164.86 972.461 1155.79 778.856 1110.75Z" stroke="url(#paint17_linear_379_3589)" stroke-opacity="0.2" stroke-width="0.721909"/>
<path d="M773.785 1109.52C581.001 1061.2 414.684 985.89 301.632 903.199C245.104 861.853 201.909 818.674 175.375 776.117C148.841 733.561 138.983 691.656 149.069 652.829C159.154 614.001 188.245 581.859 232.291 556.993C276.339 532.126 335.314 514.555 405.097 504.867C544.661 485.492 727.38 497.661 920.164 545.98C1112.95 594.3 1279.27 669.614 1392.32 752.305C1448.84 793.651 1492.04 836.83 1518.57 879.387C1545.11 921.943 1554.97 963.848 1544.88 1002.68C1534.8 1041.5 1505.7 1073.65 1461.66 1098.51C1417.61 1123.38 1358.64 1140.95 1288.85 1150.64C1149.29 1170.01 966.57 1157.84 773.785 1109.52Z" stroke="url(#paint18_linear_379_3589)" stroke-opacity="0.2" stroke-width="0.721909"/>
<path d="M768.737 1108.21C576.831 1056.63 411.875 978.51 300.313 893.918C244.531 851.622 202.113 807.719 176.343 764.722C150.574 721.726 141.469 679.664 152.25 641.017C163.031 602.37 192.697 570.729 237.186 546.618C281.677 522.505 340.963 505.94 410.916 497.44C550.818 480.44 733.307 495.709 925.213 547.291C1117.12 598.873 1282.07 676.994 1393.64 761.585C1449.42 803.881 1491.84 847.784 1517.61 890.781C1543.37 933.778 1552.48 975.84 1541.7 1014.49C1530.92 1053.13 1501.25 1084.77 1456.76 1108.89C1412.27 1133 1352.99 1149.56 1283.03 1158.06C1143.13 1175.06 960.642 1159.79 768.737 1108.21Z" stroke="url(#paint19_linear_379_3589)" stroke-opacity="0.2" stroke-width="0.721908"/>
<path d="M763.712 1106.82C572.744 1051.99 409.2 971.083 299.161 884.617C244.141 841.384 202.513 796.771 177.516 753.347C152.52 709.923 144.17 667.716 155.643 629.262C167.116 590.808 197.348 559.678 242.267 536.328C287.187 512.977 346.767 497.423 416.867 490.113C557.066 475.493 739.269 493.858 930.238 548.687C1121.21 603.516 1284.75 684.42 1394.79 770.885C1449.81 814.119 1491.44 858.731 1516.43 902.156C1541.43 945.58 1549.78 987.786 1538.31 1026.24C1526.83 1064.7 1496.6 1095.82 1451.68 1119.17C1406.76 1142.53 1347.18 1158.08 1277.08 1165.39C1136.88 1180.01 954.681 1161.64 763.712 1106.82Z" stroke="url(#paint20_linear_379_3589)" stroke-opacity="0.2" stroke-width="0.721908"/>
<path d="M758.712 1105.34C568.739 1047.28 406.657 963.614 298.176 875.3C243.935 831.143 203.109 785.834 178.893 741.995C154.677 698.158 147.084 655.819 159.246 617.569C171.409 579.319 202.196 548.71 247.531 526.129C292.867 503.547 352.723 489.008 422.95 482.89C563.401 470.655 745.264 492.11 935.237 550.17C1125.21 608.229 1287.29 691.89 1395.77 780.204C1450.01 824.362 1490.84 869.67 1515.06 913.509C1539.27 957.347 1546.87 999.685 1534.7 1037.94C1522.54 1076.19 1491.75 1106.79 1446.42 1129.38C1401.08 1151.96 1341.23 1166.5 1271 1172.61C1130.55 1184.85 948.686 1163.39 758.712 1105.34Z" stroke="url(#paint21_linear_379_3589)" stroke-opacity="0.2" stroke-width="0.721909"/>
<path d="M753.74 1103.77C564.82 1042.5 404.248 956.103 297.358 865.968C243.912 820.899 203.902 774.908 180.473 730.669C157.045 686.43 150.212 643.973 163.059 605.939C175.907 567.904 207.242 537.826 252.979 516.02C298.717 494.213 358.829 480.695 429.161 475.771C569.824 465.925 751.289 490.463 940.209 551.735C1129.13 613.007 1289.7 699.401 1396.59 789.536C1450.04 834.604 1490.05 880.596 1513.48 924.835C1536.9 969.073 1543.74 1011.53 1530.89 1049.57C1518.04 1087.6 1486.71 1117.68 1440.97 1139.48C1395.23 1161.29 1335.12 1174.81 1264.79 1179.73C1124.13 1189.58 942.66 1165.04 753.74 1103.77Z" stroke="url(#paint22_linear_379_3589)" stroke-opacity="0.2" stroke-width="0.721909"/>
<path d="M748.796 1102.12C560.987 1037.65 401.974 948.552 296.708 856.623C244.074 810.658 204.89 763.999 182.257 719.372C159.623 674.746 153.552 632.184 167.081 594.376C180.609 556.569 212.482 527.03 258.607 506.006C304.733 484.982 365.084 472.487 435.5 468.76C576.33 461.305 757.344 488.919 945.153 553.385C1132.96 617.851 1291.97 706.952 1397.24 798.88C1449.88 844.845 1489.06 891.505 1511.69 936.132C1534.33 980.757 1540.4 1023.32 1526.87 1061.13C1513.34 1098.93 1481.47 1128.47 1435.34 1149.5C1389.22 1170.52 1328.87 1183.02 1258.45 1186.74C1117.62 1194.2 936.605 1166.58 748.796 1102.12Z" stroke="url(#paint23_linear_379_3589)" stroke-opacity="0.2" stroke-width="0.721909"/>
<path d="M743.881 1100.38C557.24 1032.74 399.836 940.965 296.224 847.27C244.418 800.423 206.074 753.109 184.242 708.108C162.41 663.109 157.103 620.453 171.309 582.885C185.515 545.316 217.915 516.326 264.414 496.09C310.915 475.854 371.486 464.388 441.964 461.857C582.919 456.796 763.427 487.478 950.068 555.119C1136.71 622.759 1294.11 714.539 1397.72 808.233C1449.53 855.081 1487.88 902.395 1509.71 947.395C1531.54 992.394 1536.85 1035.05 1522.64 1072.62C1508.43 1110.19 1476.03 1139.18 1429.54 1159.41C1383.03 1179.65 1322.46 1191.12 1251.99 1193.65C1111.03 1198.71 930.523 1168.03 743.881 1100.38Z" stroke="url(#paint24_linear_379_3589)" stroke-opacity="0.2" stroke-width="0.721909"/>
<path d="M738.999 1098.57C553.583 1027.77 397.834 933.343 295.91 837.912C244.947 790.195 207.454 742.242 186.43 696.881C165.407 651.522 160.864 608.786 175.743 571.468C190.622 534.15 223.54 505.717 270.4 486.276C317.26 466.835 378.033 456.4 448.552 455.067C589.589 452.401 769.535 486.141 954.951 556.935C1140.37 627.729 1296.12 722.16 1398.04 817.592C1449 865.308 1486.5 913.262 1507.52 958.622C1528.54 1003.98 1533.09 1046.72 1518.21 1084.04C1503.33 1121.35 1470.41 1149.79 1423.55 1169.23C1376.69 1188.67 1315.92 1199.1 1245.4 1200.44C1104.36 1203.1 924.415 1169.36 738.999 1098.57Z" stroke="url(#paint25_linear_379_3589)" stroke-opacity="0.2" stroke-width="0.721908"/>
<path d="M734.149 1096.67C550.014 1022.74 395.969 925.689 295.762 828.55C245.658 779.979 209.028 731.4 188.819 685.694C168.611 639.989 164.835 597.186 180.382 560.129C195.929 523.073 229.355 495.206 276.56 476.565C323.766 457.925 384.722 448.524 455.261 448.389C596.336 448.119 775.666 484.908 959.801 558.834C1143.94 632.76 1297.98 729.814 1398.19 826.953C1448.29 875.524 1484.92 924.103 1505.13 969.809C1525.34 1015.51 1529.11 1058.32 1513.57 1095.37C1498.02 1132.43 1464.59 1160.3 1417.39 1178.94C1370.18 1197.58 1309.23 1206.98 1238.69 1207.11C1097.61 1207.38 918.284 1170.59 734.149 1096.67Z" stroke="url(#paint26_linear_379_3589)" stroke-opacity="0.2" stroke-width="0.721909"/>
<path d="M729.333 1094.69C546.536 1017.65 394.241 918.007 295.783 819.189C246.553 769.779 210.796 720.59 191.408 674.551C172.021 628.513 169.013 585.657 185.223 548.873C201.434 512.089 235.358 484.797 282.894 466.963C330.432 449.128 391.552 440.766 462.089 441.829C603.16 443.955 781.819 483.781 964.616 560.816C1147.41 637.852 1299.71 737.498 1398.17 836.316C1447.4 885.726 1483.15 934.915 1502.54 980.954C1521.93 1026.99 1524.94 1069.85 1508.73 1106.63C1492.51 1143.42 1458.59 1170.71 1411.05 1188.54C1363.52 1206.38 1302.4 1214.74 1231.86 1213.68C1090.79 1211.55 912.13 1171.72 729.333 1094.69Z" stroke="url(#paint27_linear_379_3589)" stroke-opacity="0.2" stroke-width="0.721909"/>
<path d="M724.554 1092.63C543.149 1012.5 392.651 910.295 295.971 809.829C247.631 759.595 212.758 709.81 194.197 663.453C175.637 617.098 173.397 574.2 190.267 537.701C207.137 501.201 241.548 474.491 289.401 457.469C337.255 440.446 398.522 433.124 469.035 435.385C610.059 439.906 787.992 482.757 969.396 562.879C1150.8 643 1301.3 745.209 1397.98 845.676C1446.32 895.91 1481.19 945.694 1499.75 992.051C1518.31 1038.41 1520.55 1081.3 1503.68 1117.8C1486.81 1154.3 1452.4 1181.01 1404.55 1198.04C1356.69 1215.06 1295.43 1222.38 1224.91 1220.12C1083.89 1215.6 905.958 1172.75 724.554 1092.63Z" stroke="url(#paint28_linear_379_3589)" stroke-opacity="0.2" stroke-width="0.721909"/>
<path d="M719.811 1090.48C539.855 1007.3 391.2 902.558 296.328 800.474C248.891 749.431 214.914 699.066 197.185 652.405C179.457 605.745 177.987 562.82 195.51 526.616C213.033 490.412 247.921 464.293 296.077 448.087C344.233 431.881 405.627 425.601 476.095 429.059C617.03 435.975 794.183 481.837 974.138 565.021C1154.09 648.204 1302.75 752.944 1397.62 855.029C1445.06 906.072 1479.04 956.437 1496.76 1003.1C1514.49 1049.76 1515.96 1092.68 1498.44 1128.89C1480.92 1165.09 1446.03 1191.21 1397.87 1207.42C1349.72 1223.62 1288.32 1229.9 1217.85 1226.44C1076.92 1219.53 899.767 1173.67 719.811 1090.48Z" stroke="url(#paint29_linear_379_3589)" stroke-opacity="0.2" stroke-width="0.721909"/>
<path d="M715.107 1088.26C536.655 1002.04 389.887 894.799 296.852 791.128C250.334 739.292 217.261 688.362 200.371 641.412C183.481 594.462 182.78 551.522 200.952 515.624C219.123 479.726 254.478 454.206 302.92 438.822C351.364 423.438 412.867 418.202 483.269 422.856C624.07 432.164 800.389 481.024 978.842 567.244C1157.29 653.464 1304.06 760.704 1397.1 864.375C1443.62 916.211 1476.69 967.141 1493.58 1014.09C1510.47 1061.04 1511.17 1103.98 1493 1139.88C1474.83 1175.78 1439.47 1201.3 1391.03 1216.68C1342.58 1232.06 1281.08 1237.3 1210.68 1232.65C1069.88 1223.34 893.56 1174.48 715.107 1088.26Z" stroke="url(#paint30_linear_379_3589)" stroke-opacity="0.2" stroke-width="0.721909"/>
<path d="M710.444 1085.96C533.549 996.727 388.714 887.02 297.544 781.794C251.958 729.18 219.802 677.701 203.754 630.475C187.707 583.25 187.777 540.308 206.591 504.728C225.405 469.147 261.215 444.233 309.931 429.676C358.647 415.118 420.24 410.928 490.554 416.777C631.179 428.474 806.611 480.317 983.506 569.547C1160.4 658.777 1305.24 768.483 1396.41 873.709C1441.99 926.323 1474.15 977.803 1490.2 1025.03C1506.24 1072.25 1506.17 1115.2 1487.36 1150.78C1468.55 1186.36 1432.74 1211.27 1384.02 1225.83C1335.3 1240.39 1273.71 1244.58 1203.4 1238.73C1062.77 1227.03 887.339 1175.19 710.444 1085.96Z" stroke="url(#paint31_linear_379_3589)" stroke-opacity="0.2" stroke-width="0.721909"/>
<path d="M705.822 1083.58C530.538 991.363 387.68 879.223 298.403 772.474C253.763 719.098 222.532 667.085 207.332 619.598C192.133 572.112 192.973 529.182 212.424 493.929C231.875 458.676 268.13 434.377 317.103 420.65C366.078 406.924 427.742 403.781 497.947 410.822C638.353 424.905 812.844 479.715 988.128 571.928C1163.41 664.141 1306.27 776.281 1395.55 883.03C1440.19 936.405 1471.42 988.418 1486.62 1035.91C1501.82 1083.39 1500.98 1126.32 1481.53 1161.57C1462.07 1196.83 1425.82 1221.13 1376.85 1234.85C1327.87 1248.58 1266.21 1251.72 1196 1244.68C1055.6 1230.6 881.105 1175.79 705.822 1083.58Z" stroke="url(#paint32_linear_379_3589)" stroke-opacity="0.2" stroke-width="0.721909"/>
<path d="M701.243 1081.12C527.624 985.949 386.786 871.41 299.429 763.17C255.749 709.05 225.453 656.519 211.106 608.785C196.759 561.052 198.369 518.147 218.451 483.232C238.533 448.318 275.221 424.641 324.438 411.749C373.656 398.858 435.372 396.763 505.446 404.995C645.591 421.459 819.088 479.22 992.707 574.387C1166.33 669.555 1307.16 784.094 1394.52 892.334C1438.2 946.455 1468.5 998.985 1482.84 1046.72C1497.19 1094.45 1495.58 1137.36 1475.5 1172.27C1455.42 1207.19 1418.73 1230.86 1369.51 1243.75C1320.29 1256.65 1258.58 1258.74 1188.5 1250.51C1048.36 1234.05 874.862 1176.28 701.243 1081.12Z" stroke="url(#paint33_linear_379_3589)" stroke-opacity="0.2" stroke-width="0.721908"/>
<path d="M696.708 1078.58C524.807 980.488 386.032 863.584 300.622 753.887C257.916 699.037 228.563 646.005 215.073 598.038C201.584 550.073 203.963 507.206 224.67 472.641C245.377 438.076 282.487 415.027 331.932 402.975C381.378 390.923 443.128 389.877 513.05 399.297C652.89 418.137 825.34 478.83 997.241 576.924C1169.14 675.017 1307.92 791.921 1393.33 901.618C1436.03 956.468 1465.39 1009.5 1478.88 1057.47C1492.37 1105.43 1489.99 1148.3 1469.28 1182.86C1448.57 1217.43 1411.46 1240.48 1362.02 1252.53C1312.57 1264.58 1250.82 1265.63 1180.9 1256.21C1041.06 1237.37 868.609 1176.67 696.708 1078.58Z" stroke="url(#paint34_linear_379_3589)" stroke-opacity="0.2" stroke-width="0.721909"/>
<path d="M692.219 1075.97C522.088 974.978 385.418 855.746 301.981 744.624C260.261 689.063 231.861 635.544 219.233 587.361C206.604 539.178 209.752 496.361 231.077 462.156C252.403 427.951 289.924 405.538 339.582 394.329C389.241 383.119 451.006 383.122 520.754 393.728C660.249 414.939 831.599 478.546 1001.73 579.536C1171.86 680.525 1308.53 799.758 1391.97 910.879C1433.69 966.441 1462.09 1019.96 1474.72 1068.14C1487.35 1116.33 1484.2 1159.14 1462.87 1193.35C1441.55 1227.55 1404.02 1249.97 1354.37 1261.17C1304.71 1272.38 1242.94 1272.38 1173.19 1261.78C1033.7 1240.56 862.35 1176.96 692.219 1075.97Z" stroke="url(#paint35_linear_379_3589)" stroke-opacity="0.2" stroke-width="0.721908"/>
<path d="M687.778 1073.28C519.469 969.424 384.946 847.899 303.506 735.388C262.786 679.131 235.348 625.143 223.584 576.757C211.82 528.371 215.735 485.618 237.673 451.783C259.611 417.949 297.532 396.179 347.388 385.815C397.245 375.452 459.006 376.504 528.559 388.291C667.664 411.866 837.863 478.369 1006.17 582.224C1174.48 686.078 1309 807.603 1390.44 920.115C1431.16 976.371 1458.6 1030.36 1470.37 1078.75C1482.13 1127.13 1478.21 1169.88 1456.28 1203.72C1434.34 1237.55 1396.42 1259.32 1346.56 1269.69C1296.71 1280.05 1234.94 1279 1165.39 1267.21C1026.29 1243.64 856.087 1177.13 687.778 1073.28Z" stroke="url(#paint36_linear_379_3589)" stroke-opacity="0.2" stroke-width="0.721908"/>
<path d="M683.385 1070.52C516.949 963.829 384.614 840.048 305.197 726.181C265.488 669.246 239.02 614.805 228.125 566.23C217.229 517.657 221.911 474.98 244.454 441.526C266.998 408.072 305.307 386.951 355.345 377.437C405.385 367.923 467.123 370.024 536.461 382.99C675.134 408.922 844.129 478.299 1010.57 584.987C1177 691.675 1309.34 815.456 1388.75 929.324C1428.46 986.258 1454.93 1040.7 1465.83 1089.27C1476.72 1137.85 1472.04 1180.52 1449.5 1213.98C1426.95 1247.43 1388.64 1268.55 1338.6 1278.07C1288.56 1287.58 1226.83 1285.48 1157.49 1272.51C1018.82 1246.58 849.82 1177.2 683.385 1070.52Z" stroke="url(#paint37_linear_379_3589)" stroke-opacity="0.2" stroke-width="0.721908"/>
<path d="M679.041 1067.68C514.529 958.191 384.422 832.192 307.052 717.003C268.367 659.408 242.877 604.531 232.853 555.783C222.83 507.036 228.277 464.449 251.419 431.386C274.561 398.323 313.246 377.858 363.452 369.196C413.659 360.534 475.356 363.683 544.456 377.823C682.656 406.104 850.396 478.335 1014.91 587.824C1179.42 697.314 1309.53 823.312 1386.9 938.501C1425.58 996.096 1451.07 1050.97 1461.1 1099.72C1471.12 1148.47 1465.67 1191.06 1442.53 1224.12C1419.39 1257.18 1380.7 1277.65 1330.5 1286.31C1280.29 1294.97 1218.59 1291.82 1149.49 1277.68C1011.29 1249.4 843.553 1177.17 679.041 1067.68Z" stroke="url(#paint38_linear_379_3589)" stroke-opacity="0.2" stroke-width="0.721909"/>
<path d="M674.748 1064.77C512.21 952.513 384.372 824.335 309.073 707.86C271.423 649.621 246.918 594.324 237.77 545.418C228.621 496.513 234.831 454.029 258.565 421.366C282.298 388.704 321.349 368.901 371.706 361.094C422.066 353.287 483.702 357.483 552.544 372.793C690.228 403.415 856.663 478.477 1019.2 590.734C1181.74 702.991 1309.58 831.169 1384.88 947.644C1422.53 1005.88 1447.03 1061.18 1456.18 1110.09C1465.33 1158.99 1459.12 1201.47 1435.38 1234.14C1411.65 1266.8 1372.6 1286.6 1322.24 1294.41C1271.88 1302.22 1210.25 1298.02 1141.4 1282.71C1003.72 1252.09 837.286 1177.03 674.748 1064.77Z" stroke="url(#paint39_linear_379_3589)" stroke-opacity="0.2" stroke-width="0.721909"/>
<path d="M670.509 1061.79C509.994 946.797 384.462 816.479 311.257 698.753C274.654 639.889 251.143 584.189 242.871 535.139C234.601 486.09 241.572 443.722 265.89 411.47C290.208 379.219 329.611 360.084 380.106 353.134C430.602 346.184 492.159 351.426 560.722 367.902C697.848 400.855 862.926 478.726 1023.44 593.716C1183.95 708.706 1309.49 839.024 1382.69 956.75C1419.3 1015.61 1442.81 1071.31 1451.08 1120.36C1459.35 1169.41 1452.38 1211.78 1428.06 1244.03C1403.74 1276.28 1364.34 1295.42 1313.84 1302.37C1263.35 1309.32 1201.79 1304.08 1133.23 1287.6C996.101 1254.65 831.023 1176.78 670.509 1061.79Z" stroke="url(#paint40_linear_379_3589)" stroke-opacity="0.2" stroke-width="0.721909"/>
<path d="M666.323 1058.73C507.881 941.046 384.694 808.627 313.604 689.686C278.059 630.215 255.549 574.13 248.158 524.951C240.767 475.774 248.498 433.533 273.393 401.703C298.288 369.872 338.031 351.411 388.647 345.32C439.265 339.229 500.724 345.516 568.988 363.152C705.514 398.426 869.185 479.082 1027.63 596.771C1186.07 714.46 1309.26 846.878 1380.35 965.819C1415.89 1025.29 1438.4 1081.38 1445.79 1130.55C1453.18 1179.73 1445.45 1221.97 1420.56 1253.8C1395.66 1285.63 1355.92 1304.09 1305.3 1310.19C1254.68 1316.28 1193.23 1309.99 1124.96 1292.35C988.436 1257.08 824.765 1176.42 666.323 1058.73Z" stroke="url(#paint41_linear_379_3589)" stroke-opacity="0.2" stroke-width="0.721909"/>
<path d="M662.192 1055.61C505.87 935.259 385.066 800.78 316.114 680.66C281.638 620.6 260.135 564.146 253.626 514.853C247.118 465.562 255.606 423.463 281.07 392.063C306.534 360.663 346.607 342.881 397.329 337.652C448.052 332.422 509.395 339.751 577.338 358.543C713.223 396.126 875.436 479.542 1031.76 599.894C1188.08 720.245 1308.88 854.724 1377.84 974.844C1412.31 1034.9 1433.81 1091.36 1440.32 1140.65C1446.83 1189.94 1438.34 1232.04 1412.88 1263.44C1387.42 1294.84 1347.34 1312.62 1296.62 1317.85C1245.9 1323.08 1184.55 1315.75 1116.61 1296.96C980.727 1259.38 818.513 1175.96 662.192 1055.61Z" stroke="url(#paint42_linear_379_3589)" stroke-opacity="0.2" stroke-width="0.721909"/>
<path d="M658.117 1052.42C503.964 929.44 385.579 792.942 318.786 671.68C285.389 611.049 264.899 554.243 259.275 504.851C253.651 455.462 262.893 413.517 288.919 382.557C314.945 351.597 355.334 334.5 406.147 330.133C456.961 325.766 518.168 334.135 585.77 354.076C720.972 393.959 881.679 480.11 1035.83 603.088C1189.99 726.065 1308.37 862.563 1375.16 983.825C1408.56 1044.46 1429.05 1101.26 1434.67 1150.65C1440.3 1200.04 1431.06 1241.99 1405.03 1272.95C1379 1303.91 1338.62 1321.01 1287.8 1325.37C1236.99 1329.74 1175.78 1321.37 1108.18 1301.43C972.978 1261.55 812.27 1175.39 658.117 1052.42Z" stroke="url(#paint43_linear_379_3589)" stroke-opacity="0.2" stroke-width="0.721909"/>
<path d="M654.1 1049.16C502.162 923.589 386.232 785.114 321.618 662.747C289.311 601.563 269.841 544.423 265.103 494.948C260.365 445.475 270.359 403.697 296.939 373.186C323.518 342.676 364.211 326.269 415.099 322.766C465.988 319.263 527.041 328.67 594.281 349.754C728.759 391.923 887.912 480.783 1039.85 606.349C1191.79 731.915 1307.72 870.391 1372.33 992.758C1404.64 1053.94 1424.11 1111.08 1428.85 1160.56C1433.58 1210.03 1423.59 1251.81 1397.01 1282.32C1370.43 1312.83 1329.74 1329.24 1278.85 1332.74C1227.96 1336.24 1166.91 1326.84 1099.67 1305.75C965.19 1263.58 806.038 1174.72 654.1 1049.16Z" stroke="url(#paint44_linear_379_3589)" stroke-opacity="0.2" stroke-width="0.721908"/>
<path d="M650.142 1045.83C500.465 917.709 387.026 777.298 324.611 653.863C293.402 592.145 274.959 534.688 271.108 485.145C267.258 435.603 278.001 394.006 305.126 363.953C332.251 333.901 373.236 318.189 424.183 315.552C475.132 312.914 536.012 323.355 602.87 345.577C736.583 390.02 894.132 481.562 1043.81 609.678C1193.48 737.794 1306.92 878.205 1369.34 1001.64C1400.55 1063.36 1418.99 1120.82 1422.84 1170.36C1426.69 1219.9 1415.95 1261.5 1388.82 1291.55C1361.7 1321.6 1320.71 1337.31 1269.77 1339.95C1218.82 1342.59 1157.94 1332.15 1091.08 1309.93C957.367 1265.48 799.818 1173.94 650.142 1045.83Z" stroke="url(#paint45_linear_379_3589)" stroke-opacity="0.2" stroke-width="0.721909"/>
<path d="M646.243 1042.43C498.873 911.802 387.96 769.498 327.762 645.033C297.663 582.8 280.25 525.044 277.289 475.447C274.327 425.852 285.815 384.447 313.478 354.862C341.14 325.278 382.404 310.266 433.396 308.494C484.388 306.723 545.078 318.195 611.533 341.547C744.44 388.25 900.337 482.446 1047.71 613.073C1195.08 743.701 1305.99 886.005 1366.19 1010.47C1396.29 1072.7 1413.7 1130.46 1416.66 1180.06C1419.62 1229.65 1408.13 1271.06 1380.47 1300.64C1352.81 1330.23 1311.55 1345.24 1260.55 1347.01C1209.56 1348.78 1148.87 1337.31 1082.42 1313.96C949.509 1267.25 793.612 1173.06 646.243 1042.43Z" stroke="url(#paint46_linear_379_3589)" stroke-opacity="0.2" stroke-width="0.721909"/>
<path d="M642.406 1038.97C497.389 905.87 389.034 761.717 331.072 636.26C302.091 573.53 285.716 515.492 283.643 465.857C281.571 416.224 293.801 375.023 321.993 345.916C350.184 316.808 391.715 302.501 442.735 301.596C493.756 300.691 554.236 313.191 620.268 337.666C752.329 386.615 906.527 483.436 1051.54 616.534C1196.56 749.633 1304.92 893.787 1362.88 1019.24C1391.86 1081.97 1408.23 1140.01 1410.31 1189.65C1412.38 1239.28 1400.15 1280.48 1371.96 1309.59C1343.77 1338.7 1302.24 1353 1251.22 1353.91C1200.19 1354.81 1139.71 1342.31 1073.68 1317.84C941.621 1268.89 787.423 1172.07 642.406 1038.97Z" stroke="url(#paint47_linear_379_3589)" stroke-opacity="0.2" stroke-width="0.721909"/>
<path d="M638.63 1035.44C496.009 899.914 390.247 753.955 334.538 627.544C306.684 564.338 291.35 506.035 290.169 456.377C288.987 406.721 301.955 365.738 330.666 337.116C359.378 308.494 401.163 294.895 452.196 294.857C503.23 294.819 563.482 308.343 629.071 333.934C760.246 385.115 912.698 484.531 1055.32 620.06C1197.94 755.59 1303.7 901.549 1359.41 1027.96C1387.27 1091.17 1402.6 1149.47 1403.78 1199.13C1404.96 1248.78 1391.99 1289.77 1363.28 1318.39C1334.57 1347.01 1292.79 1360.61 1241.75 1360.65C1190.72 1360.69 1130.47 1347.16 1064.88 1321.57C933.703 1270.39 781.251 1170.97 638.63 1035.44Z" stroke="url(#paint48_linear_379_3589)" stroke-opacity="0.2" stroke-width="0.721909"/>
<path d="M634.919 1031.85C494.737 893.935 391.599 746.215 338.161 618.888C311.442 555.224 297.155 496.675 296.864 447.009C296.573 397.344 310.275 356.591 339.498 328.464C368.722 300.336 410.748 287.451 461.778 288.279C512.81 289.108 572.816 303.653 637.941 330.351C768.19 383.747 918.849 485.728 1059.03 623.648C1199.21 761.567 1302.35 909.287 1355.79 1036.61C1382.51 1100.28 1396.79 1158.83 1397.09 1208.49C1397.38 1258.16 1383.67 1298.91 1354.45 1327.04C1325.23 1355.17 1283.2 1368.05 1232.17 1367.22C1181.14 1366.39 1121.13 1351.85 1056.01 1325.15C925.759 1271.75 775.1 1169.77 634.919 1031.85Z" stroke="url(#paint49_linear_379_3589)" stroke-opacity="0.2" stroke-width="0.721908"/>
<path d="M631.272 1028.2C493.573 887.937 393.09 738.501 341.939 610.297C316.364 546.194 303.128 487.417 303.727 437.758C304.327 388.1 318.759 347.59 348.485 319.966C378.211 292.341 420.466 280.172 471.478 281.868C522.492 283.563 582.232 299.123 646.875 326.921C776.158 382.516 924.979 487.032 1062.68 627.299C1200.38 767.566 1300.86 917.002 1352.01 1045.21C1377.59 1109.31 1390.82 1168.09 1390.22 1217.74C1389.62 1267.4 1375.19 1307.91 1345.47 1335.54C1315.74 1363.16 1273.48 1375.33 1222.47 1373.64C1171.46 1371.94 1111.72 1356.38 1047.07 1328.58C917.792 1272.99 768.971 1168.47 631.272 1028.2Z" stroke="url(#paint50_linear_379_3589)" stroke-opacity="0.2" stroke-width="0.721909"/>
<path d="M627.69 1024.49C492.516 881.92 394.72 730.814 345.871 601.772C321.446 537.251 309.265 478.263 310.755 428.626C312.245 378.991 327.403 338.735 357.623 311.622C387.843 284.509 430.313 273.061 481.292 275.622C532.272 278.183 591.73 294.755 655.869 323.644C784.148 381.422 931.084 488.439 1066.26 631.011C1201.43 773.583 1299.23 924.69 1348.08 1053.73C1372.5 1118.25 1384.68 1177.24 1383.19 1226.88C1381.7 1276.51 1366.55 1316.77 1336.33 1343.88C1306.11 1370.99 1263.64 1382.44 1212.66 1379.88C1161.68 1377.32 1102.22 1360.75 1038.08 1331.86C909.802 1274.08 762.865 1167.06 627.69 1024.49Z" stroke="url(#paint51_linear_379_3589)" stroke-opacity="0.2" stroke-width="0.721909"/>
<path d="M624.176 1020.72C491.566 875.886 396.487 723.155 349.955 593.315C326.689 528.395 315.567 469.214 317.947 419.615C320.327 370.017 336.206 330.028 366.91 303.435C397.614 276.841 440.288 266.117 491.217 269.544C542.148 272.97 601.305 290.547 664.922 320.519C792.156 380.461 937.164 489.949 1069.77 634.782C1202.38 779.615 1297.46 932.347 1343.99 1062.19C1367.26 1127.11 1378.38 1186.29 1376 1235.89C1373.62 1285.49 1357.74 1325.47 1327.04 1352.07C1296.34 1378.66 1253.66 1389.38 1202.73 1385.96C1151.8 1382.53 1092.65 1364.95 1029.03 1334.98C901.794 1275.04 756.785 1165.55 624.176 1020.72Z" stroke="url(#paint52_linear_379_3589)" stroke-opacity="0.2" stroke-width="0.721909"/>
<path d="M620.729 1016.89C490.725 869.839 398.391 715.53 354.191 584.931C332.091 519.631 322.03 460.276 325.3 410.729C328.569 361.183 345.164 321.474 376.343 295.408C407.523 269.343 450.386 259.346 501.25 263.637C552.117 267.927 610.954 286.505 674.031 317.55C800.181 379.639 943.217 491.563 1073.22 638.613C1203.22 785.664 1295.56 939.973 1339.76 1070.57C1361.86 1135.87 1371.92 1195.23 1368.65 1244.77C1365.38 1294.32 1348.79 1334.03 1317.61 1360.09C1286.43 1386.16 1243.56 1396.16 1192.7 1391.87C1141.83 1387.58 1083 1369 1019.92 1337.95C893.768 1275.86 750.733 1163.94 620.729 1016.89Z" stroke="url(#paint53_linear_379_3589)" stroke-opacity="0.2" stroke-width="0.721909"/>
<path d="M617.351 1013C489.993 863.779 400.432 707.939 358.577 576.621C337.649 510.961 328.654 451.449 332.812 401.97C336.969 352.491 354.275 313.073 385.92 287.544C417.565 262.014 460.605 252.748 511.389 257.901C562.175 263.055 620.676 282.627 683.192 314.736C808.221 378.952 949.24 493.279 1076.6 642.502C1203.96 791.725 1293.52 947.565 1335.37 1078.88C1356.3 1144.54 1365.3 1204.05 1361.14 1253.53C1356.98 1303.01 1339.67 1342.43 1308.03 1367.96C1276.38 1393.49 1233.34 1402.76 1182.56 1397.6C1131.77 1392.45 1073.27 1372.88 1010.76 1340.77C885.729 1276.55 744.71 1162.22 617.351 1013Z" stroke="url(#paint54_linear_379_3589)" stroke-opacity="0.2" stroke-width="0.721909"/>
<path d="M614.044 1009.06C489.37 857.706 402.608 700.383 363.111 568.386C343.362 502.386 335.435 442.737 340.48 393.339C345.525 343.944 363.536 304.829 395.637 279.843C427.738 254.857 470.942 246.324 521.63 252.338C572.321 258.353 630.467 278.914 692.403 312.077C816.272 378.402 955.232 495.096 1079.91 646.446C1204.58 797.796 1291.34 955.12 1330.84 1087.12C1350.59 1153.12 1358.51 1212.77 1353.47 1262.16C1348.42 1311.56 1330.41 1350.67 1298.31 1375.66C1266.21 1400.65 1223.01 1409.18 1172.32 1403.16C1121.63 1397.15 1063.48 1376.59 1001.55 1343.43C877.677 1277.1 738.718 1160.41 614.044 1009.06Z" stroke="url(#paint55_linear_379_3589)" stroke-opacity="0.2" stroke-width="0.721908"/>
<path d="M610.806 1005.06C488.854 851.625 404.92 692.866 367.793 560.23C349.229 493.912 342.372 434.142 348.302 384.842C354.233 335.544 372.944 296.745 405.492 272.309C438.039 247.874 481.393 240.077 531.97 246.952C582.549 253.826 640.323 275.37 701.66 309.576C824.332 377.989 961.19 497.015 1083.14 650.446C1205.09 803.877 1289.03 962.636 1326.16 1095.27C1344.72 1161.59 1351.58 1221.36 1345.65 1270.66C1339.72 1319.96 1321 1358.76 1288.46 1383.19C1255.91 1407.63 1212.56 1415.42 1161.98 1408.55C1111.4 1401.68 1053.63 1380.13 992.289 1345.93C869.616 1277.51 732.758 1158.49 610.806 1005.06Z" stroke="url(#paint56_linear_379_3589)" stroke-opacity="0.2" stroke-width="0.721908"/>
<path d="M607.641 1001C488.449 845.538 407.367 685.392 372.621 552.157C355.247 485.539 349.463 425.667 356.277 376.48C363.091 327.295 382.497 288.823 415.481 264.946C448.465 241.069 491.955 234.011 542.406 241.742C592.859 249.474 650.243 271.994 710.963 307.234C832.4 377.713 967.115 499.035 1086.31 654.5C1205.5 809.966 1286.58 970.112 1321.33 1103.35C1338.7 1169.96 1344.49 1229.84 1337.67 1279.02C1330.86 1328.21 1311.45 1366.68 1278.47 1390.56C1245.48 1414.43 1201.99 1421.49 1151.54 1413.76C1101.09 1406.03 1043.71 1383.51 982.986 1348.27C861.549 1277.79 726.834 1156.47 607.641 1001Z" stroke="url(#paint57_linear_379_3589)" stroke-opacity="0.2" stroke-width="0.721909"/>
<path d="M604.55 996.896C488.153 839.444 409.948 677.959 377.594 544.167C361.416 477.27 356.705 417.314 364.401 368.255C372.097 319.197 392.192 281.064 425.602 257.753C459.012 234.442 502.627 228.124 552.936 236.71C603.247 245.297 660.223 268.786 720.307 305.049C840.472 377.574 973.003 501.154 1089.4 658.607C1205.8 816.059 1284 977.543 1316.36 1111.34C1332.53 1178.23 1337.24 1238.19 1329.55 1287.25C1321.85 1336.31 1301.76 1374.44 1268.35 1397.75C1234.94 1421.06 1191.32 1427.38 1141.01 1418.79C1090.7 1410.21 1033.73 1386.72 973.643 1350.45C853.477 1277.93 720.947 1154.35 604.55 996.896Z" stroke="url(#paint58_linear_379_3589)" stroke-opacity="0.2" stroke-width="0.721908"/>
<path d="M601.531 992.738C487.965 833.347 412.662 670.573 382.709 536.264C367.732 469.108 364.097 409.087 372.672 360.17C381.247 311.255 402.025 273.472 435.85 250.734C469.676 227.996 513.402 222.42 563.554 231.859C613.708 241.298 670.259 265.749 729.689 303.024C848.546 377.572 978.852 503.374 1092.42 662.765C1205.98 822.156 1281.29 984.93 1311.24 1119.24C1326.22 1186.4 1329.85 1246.42 1321.28 1295.33C1312.7 1344.25 1291.92 1382.03 1258.1 1404.77C1224.27 1427.51 1180.55 1433.08 1130.4 1423.64C1080.24 1414.2 1023.69 1389.75 964.261 1352.48C845.403 1277.93 715.097 1152.13 601.531 992.738Z" stroke="url(#paint59_linear_379_3589)" stroke-opacity="0.2" stroke-width="0.721909"/>
<path d="M598.588 988.529C487.888 827.248 415.509 663.234 387.966 528.449C374.194 461.055 371.636 400.986 381.088 352.227C390.539 303.469 411.993 266.048 446.225 243.89C480.457 221.732 524.28 216.9 574.259 227.189C624.24 237.478 680.35 262.883 739.107 301.158C856.62 377.707 984.661 505.692 1095.36 666.973C1206.06 828.254 1278.44 992.268 1305.98 1127.05C1319.76 1194.45 1322.31 1254.52 1312.86 1303.28C1303.41 1352.03 1281.96 1389.45 1247.72 1411.61C1213.49 1433.77 1169.67 1438.6 1119.69 1428.31C1069.71 1418.02 1013.6 1392.62 954.843 1354.34C837.33 1277.79 709.288 1149.81 598.588 988.529Z" stroke="url(#paint60_linear_379_3589)" stroke-opacity="0.2" stroke-width="0.721908"/>
<path d="M595.72 984.272C487.919 821.15 418.486 655.946 393.362 520.725C380.8 453.114 379.319 393.016 389.645 344.429C399.97 295.844 422.094 258.796 456.721 237.225C491.348 215.654 535.255 211.567 585.047 222.702C634.84 233.837 690.491 260.19 748.558 299.453C864.69 377.98 990.428 508.108 1098.23 671.23C1206.03 834.353 1275.46 999.556 1300.59 1134.78C1313.15 1202.39 1314.63 1262.49 1304.3 1311.07C1293.98 1359.66 1271.86 1396.71 1237.23 1418.28C1202.6 1439.85 1158.69 1443.94 1108.9 1432.8C1059.11 1421.67 1003.46 1395.31 945.392 1356.05C829.259 1277.52 703.521 1147.39 595.72 984.272Z" stroke="url(#paint61_linear_379_3589)" stroke-opacity="0.2" stroke-width="0.721909"/>
<path d="M592.929 979.967C488.06 815.053 421.594 648.71 398.897 513.095C387.548 445.287 387.145 385.179 398.341 336.779C409.537 288.381 432.324 251.717 467.336 230.739C502.348 209.762 546.326 206.422 595.914 218.4C645.505 230.378 700.679 257.669 758.038 297.91C872.755 378.39 996.152 510.622 1101.02 675.536C1205.89 840.45 1272.36 1006.79 1295.05 1142.41C1306.4 1210.22 1306.8 1270.32 1295.61 1318.72C1284.41 1367.12 1261.62 1403.79 1226.61 1424.76C1191.6 1445.74 1147.62 1449.08 1098.03 1437.1C1048.44 1425.13 993.27 1397.83 935.911 1357.59C821.194 1277.11 697.797 1144.88 592.929 979.967Z" stroke="url(#paint62_linear_379_3589)" stroke-opacity="0.2" stroke-width="0.721909"/>
<path d="M590.215 975.615C488.311 808.96 424.832 641.529 404.568 505.561C394.436 437.576 395.111 377.476 407.175 329.278C419.238 281.081 442.681 244.814 478.067 224.435C513.453 204.057 557.488 201.465 606.859 214.282C656.231 227.1 710.912 255.322 767.546 296.527C880.813 378.936 1001.83 513.232 1103.73 679.887C1205.64 846.542 1269.12 1013.97 1289.38 1149.94C1299.51 1217.93 1298.84 1278.03 1286.77 1326.22C1274.71 1374.42 1251.27 1410.69 1215.88 1431.07C1180.5 1451.45 1136.46 1454.04 1087.09 1441.22C1037.72 1428.4 983.037 1400.18 926.403 1358.98C813.137 1276.57 692.119 1142.27 590.215 975.615Z" stroke="url(#paint63_linear_379_3589)" stroke-opacity="0.2" stroke-width="0.721909"/>
<path d="M587.579 971.219C488.67 802.873 428.198 634.404 410.374 498.125C401.462 429.985 403.214 369.91 416.142 321.929C429.069 273.949 453.161 238.088 488.91 218.316C524.659 198.543 568.738 196.7 617.876 210.352C667.016 224.005 721.187 253.149 777.078 295.306C888.86 379.619 1007.46 515.938 1106.37 684.284C1205.28 852.63 1265.75 1021.1 1283.58 1157.38C1292.49 1225.52 1290.73 1285.59 1277.81 1333.57C1264.88 1381.55 1240.79 1417.41 1205.04 1437.19C1169.29 1456.96 1125.21 1458.8 1076.07 1445.15C1026.93 1431.5 972.762 1402.35 916.871 1360.2C805.09 1275.88 686.489 1139.56 587.579 971.219Z" stroke="url(#paint64_linear_379_3589)" stroke-opacity="0.2" stroke-width="0.721908"/>
<path d="M585.023 966.779C489.139 796.794 431.692 627.338 416.313 490.789C408.623 422.514 411.453 362.484 425.24 314.733C439.027 266.985 463.76 231.542 499.862 212.381C535.964 193.221 580.073 192.126 628.963 206.61C677.855 221.095 731.5 251.152 786.632 294.247C896.894 380.438 1013.04 518.739 1108.93 688.724C1204.81 858.709 1262.26 1028.16 1277.64 1164.71C1285.33 1232.99 1282.5 1293.02 1268.71 1340.77C1254.92 1388.52 1230.19 1423.96 1194.09 1443.12C1157.99 1462.28 1113.88 1463.38 1064.99 1448.89C1016.09 1434.41 962.449 1404.35 907.318 1361.26C797.056 1275.06 680.907 1136.76 585.023 966.779Z" stroke="url(#paint65_linear_379_3589)" stroke-opacity="0.2" stroke-width="0.721909"/>
<path d="M582.546 962.297C489.717 790.724 435.312 620.334 422.383 483.557C415.919 415.167 419.825 355.2 434.467 307.695C449.109 260.192 474.477 225.178 510.92 206.635C547.364 188.092 591.489 187.747 640.117 203.058C688.746 218.369 741.848 249.33 796.204 293.352C904.913 381.395 1018.57 521.634 1111.4 693.207C1204.23 864.779 1258.64 1035.17 1271.57 1171.95C1278.03 1240.34 1274.12 1300.3 1259.48 1347.81C1244.84 1395.31 1219.47 1430.33 1183.03 1448.87C1146.59 1467.41 1102.46 1467.76 1053.83 1452.45C1005.2 1437.13 952.101 1406.17 897.746 1362.15C789.037 1274.11 675.375 1133.87 582.546 962.297Z" stroke="url(#paint66_linear_379_3589)" stroke-opacity="0.2" stroke-width="0.721908"/>
<path d="M580.15 957.773C490.403 784.665 439.058 613.392 428.582 476.428C423.345 407.946 428.326 348.059 443.82 300.814C459.312 253.572 485.307 218.996 522.08 201.077C558.854 183.157 602.983 183.562 651.333 199.695C699.684 215.829 752.228 247.684 805.791 292.618C912.914 382.486 1024.05 524.622 1113.8 697.73C1203.55 870.838 1254.89 1042.11 1265.37 1179.07C1270.6 1247.56 1265.62 1307.44 1250.13 1354.69C1234.64 1401.93 1208.64 1436.51 1171.87 1454.43C1135.1 1472.35 1090.97 1471.94 1042.62 1455.81C994.265 1439.67 941.721 1407.82 888.159 1362.88C781.035 1273.02 669.896 1130.88 580.15 957.773Z" stroke="url(#paint67_linear_379_3589)" stroke-opacity="0.2" stroke-width="0.721909"/>
<path d="M577.835 953.21C491.199 778.62 442.928 606.516 434.909 469.407C430.9 400.852 436.955 341.065 453.295 294.095C469.634 247.127 496.247 213.001 533.34 195.71C570.433 178.42 614.552 179.574 662.609 196.524C710.668 213.475 762.637 246.215 815.391 292.048C920.896 383.714 1029.48 527.703 1116.11 702.294C1202.75 876.884 1251.02 1048.99 1259.04 1186.1C1263.05 1254.65 1256.99 1314.44 1240.65 1361.41C1224.32 1408.38 1197.7 1442.5 1160.61 1459.79C1123.52 1477.08 1079.4 1475.93 1031.34 1458.98C983.282 1442.03 931.312 1409.29 878.559 1363.46C773.054 1271.79 664.471 1127.8 577.835 953.21Z" stroke="url(#paint68_linear_379_3589)" stroke-opacity="0.2" stroke-width="0.721909"/>
<path d="M575.602 948.607C492.102 772.588 446.921 599.706 441.362 462.494C438.582 393.888 445.709 334.217 462.89 287.536C480.071 240.857 507.293 207.191 544.694 190.535C582.095 173.878 626.191 175.782 673.941 193.544C721.693 211.307 773.072 244.922 825 291.64C928.854 385.075 1034.85 530.874 1118.35 706.894C1201.85 882.914 1247.03 1055.8 1252.59 1193.01C1255.37 1261.61 1248.24 1321.28 1231.06 1367.97C1213.88 1414.64 1186.66 1448.31 1149.26 1464.97C1111.85 1481.62 1067.76 1479.72 1020.01 1461.96C972.256 1444.19 920.877 1410.58 868.949 1363.86C765.095 1270.43 659.101 1124.63 575.602 948.607Z" stroke="url(#paint69_linear_379_3589)" stroke-opacity="0.2" stroke-width="0.721909"/>
<path d="M573.451 943.971C493.114 766.576 451.036 592.968 447.938 455.695C446.389 387.058 454.585 327.523 472.603 281.145C490.619 234.769 518.444 201.574 556.141 185.557C593.839 169.539 637.898 172.191 685.326 190.76C732.756 209.33 783.529 243.809 834.616 291.398C936.788 386.575 1040.16 534.139 1120.5 711.534C1200.84 888.929 1242.91 1062.54 1246.01 1199.81C1247.56 1268.45 1239.36 1327.98 1221.35 1374.36C1203.33 1420.74 1175.51 1453.93 1137.81 1469.95C1100.11 1485.97 1056.05 1483.31 1008.62 1464.74C961.193 1446.17 910.42 1411.7 859.333 1364.11C757.161 1268.93 653.789 1121.37 573.451 943.971Z" stroke="url(#paint70_linear_379_3589)" stroke-opacity="0.2" stroke-width="0.721909"/>
<path d="M571.384 939.297C494.233 760.58 455.271 586.3 454.635 449.007C454.317 380.36 463.581 320.979 482.429 274.918C501.276 228.859 529.694 196.145 567.676 180.772C605.659 165.398 649.668 168.798 696.76 188.168C743.854 207.539 794.006 242.872 844.236 291.317C944.694 388.206 1045.41 537.49 1122.57 716.207C1199.72 894.924 1238.68 1069.2 1239.31 1206.5C1239.63 1275.14 1230.37 1334.52 1211.52 1380.59C1192.67 1426.64 1164.26 1459.36 1126.27 1474.73C1088.29 1490.11 1044.28 1486.71 997.189 1467.34C950.095 1447.97 899.944 1412.63 849.714 1364.19C749.255 1267.3 648.535 1118.01 571.384 939.297Z" stroke="url(#paint71_linear_379_3589)" stroke-opacity="0.2" stroke-width="0.721908"/>
<path d="M569.401 934.589C495.46 754.605 459.626 579.705 461.452 442.435C462.366 373.799 472.694 314.59 492.366 268.86C512.038 223.132 541.041 190.908 579.297 176.184C617.553 161.459 661.498 165.606 708.24 185.771C754.984 205.937 804.499 242.113 853.857 291.4C952.571 389.972 1050.61 540.93 1124.55 720.914C1198.49 900.898 1234.32 1075.8 1232.5 1213.07C1231.58 1281.7 1221.26 1340.91 1201.58 1386.64C1181.91 1432.37 1152.91 1464.59 1114.65 1479.32C1076.4 1494.04 1032.45 1489.9 985.709 1469.73C938.966 1449.57 889.451 1413.39 840.093 1364.1C741.378 1265.53 643.342 1114.57 569.401 934.589Z" stroke="url(#paint72_linear_379_3589)" stroke-opacity="0.2" stroke-width="0.721909"/>
<path d="M567.503 929.849C496.794 748.652 464.099 573.186 468.387 435.981C470.531 367.377 481.92 308.357 502.411 262.973C522.902 217.59 552.481 185.866 590.999 171.795C629.517 157.724 673.385 162.616 719.762 183.57C766.141 204.525 815.004 241.534 863.475 291.647C960.416 391.871 1055.74 544.458 1126.45 725.655C1197.16 906.851 1229.85 1082.32 1225.56 1219.52C1223.42 1288.13 1212.03 1347.15 1191.54 1392.53C1171.05 1437.91 1141.47 1469.64 1102.95 1483.71C1064.43 1497.78 1020.56 1492.89 974.187 1471.93C927.808 1450.98 878.945 1413.97 830.474 1363.86C733.534 1263.63 638.211 1111.05 567.503 929.849Z" stroke="url(#paint73_linear_379_3589)" stroke-opacity="0.2" stroke-width="0.721909"/>
<path d="M565.689 925.078C498.234 742.724 468.688 566.745 475.437 429.645C478.811 361.095 491.258 302.283 512.562 257.257C533.865 212.234 564.011 181.02 602.779 167.606C641.547 154.192 685.324 159.828 731.323 181.565C777.323 203.303 825.519 241.132 873.089 292.056C968.226 393.903 1060.81 548.073 1128.26 730.426C1195.72 912.78 1225.26 1088.76 1218.51 1225.86C1215.14 1294.41 1202.69 1353.22 1181.39 1398.25C1160.08 1443.27 1129.94 1474.48 1091.17 1487.9C1052.4 1501.31 1008.63 1495.68 962.626 1473.94C916.626 1452.2 868.43 1414.37 820.861 1363.45C725.724 1261.6 633.144 1107.43 565.689 925.078Z" stroke="url(#paint74_linear_379_3589)" stroke-opacity="0.2" stroke-width="0.721909"/>
<path d="M563.962 920.276C499.781 736.821 473.393 560.382 482.6 423.43C487.203 354.954 500.704 296.367 522.814 251.715C544.923 207.064 575.628 176.369 614.633 163.617C653.639 150.865 697.313 157.243 742.919 179.756C788.527 202.27 836.041 240.909 882.694 292.629C975.999 396.067 1065.81 551.771 1129.99 735.227C1194.17 918.682 1220.56 1095.12 1211.35 1232.07C1206.75 1300.55 1193.25 1359.14 1171.14 1403.79C1149.03 1448.44 1118.32 1479.13 1079.32 1491.89C1040.31 1504.64 996.636 1498.26 951.031 1475.75C905.423 1453.23 857.908 1414.59 811.256 1362.87C717.951 1259.44 628.142 1103.73 563.962 920.276Z" stroke="url(#paint75_linear_379_3589)" stroke-opacity="0.2" stroke-width="0.721909"/>
<path d="M562.32 915.447C501.434 730.946 478.212 554.102 489.873 417.34C495.704 348.958 510.255 290.615 533.165 246.349C556.073 202.084 587.326 171.919 626.559 159.832C665.791 147.746 709.348 154.864 754.547 178.146C799.748 201.429 846.566 240.866 892.289 293.365C983.732 398.363 1070.74 555.555 1131.63 740.056C1192.52 924.557 1215.74 1101.4 1204.08 1238.16C1198.25 1306.55 1183.69 1364.89 1160.78 1409.15C1137.88 1453.42 1106.62 1483.58 1067.39 1495.67C1028.16 1507.76 984.602 1500.64 939.403 1477.36C894.202 1454.07 847.383 1414.64 801.661 1362.14C710.217 1257.14 623.206 1099.95 562.32 915.447Z" stroke="url(#paint76_linear_379_3589)" stroke-opacity="0.2" stroke-width="0.721908"/>
<path d="M560.765 910.59C503.192 725.099 483.143 547.903 497.256 411.372C504.313 343.106 519.909 285.024 543.611 241.157C567.312 197.293 599.104 167.665 638.551 156.248C677.998 144.83 721.424 152.687 766.203 176.731C810.984 200.776 857.092 240.998 901.87 294.262C991.425 400.788 1075.61 559.42 1133.18 744.91C1190.76 930.401 1210.81 1107.6 1196.69 1244.13C1189.64 1312.39 1174.04 1370.48 1150.34 1414.34C1126.64 1458.21 1094.85 1487.84 1055.4 1499.25C1015.95 1510.67 972.526 1502.81 927.747 1478.77C882.966 1454.72 836.858 1414.5 792.08 1361.24C702.525 1254.71 618.339 1096.08 560.765 910.59Z" stroke="url(#paint77_linear_379_3589)" stroke-opacity="0.2" stroke-width="0.721909"/>
<path d="M559.297 905.71C505.054 719.287 488.184 541.793 504.745 405.535C513.026 337.405 529.663 279.602 554.15 236.148C578.636 192.697 610.957 163.616 650.606 152.872C690.255 142.127 733.538 150.719 777.883 175.518C822.23 200.318 867.614 241.314 911.434 295.325C999.072 403.346 1080.41 563.369 1134.65 749.793C1188.9 936.217 1205.77 1113.71 1189.2 1249.97C1180.92 1318.1 1164.29 1375.9 1139.8 1419.36C1115.31 1462.81 1082.99 1491.89 1043.34 1502.63C1003.69 1513.38 960.411 1504.78 916.066 1479.99C871.72 1455.19 826.336 1414.19 782.516 1360.18C694.877 1252.16 613.541 1092.13 559.297 905.71Z" stroke="url(#paint78_linear_379_3589)" stroke-opacity="0.2" stroke-width="0.721909"/>
<path d="M557.918 900.805C507.021 713.505 493.335 535.768 512.339 399.824C521.841 331.851 539.513 274.344 564.778 231.317C590.042 188.292 622.883 159.767 662.722 149.699C702.562 139.63 745.688 148.955 789.585 174.501C833.484 200.049 878.13 241.805 920.978 296.547C1006.67 406.031 1085.14 567.397 1136.03 754.697C1186.93 941.997 1200.61 1119.73 1181.61 1255.68C1172.11 1323.65 1154.44 1381.16 1129.17 1424.18C1103.91 1467.21 1071.07 1495.73 1031.23 1505.8C991.388 1515.87 948.262 1506.55 904.365 1481C860.466 1455.45 815.82 1413.7 772.972 1358.95C687.276 1249.47 608.814 1088.1 557.918 900.805Z" stroke="url(#paint79_linear_379_3589)" stroke-opacity="0.2" stroke-width="0.721909"/>
<path d="M556.626 895.878C509.091 707.759 498.593 529.832 520.034 394.244C530.755 326.449 549.457 269.256 575.492 226.669C601.526 184.083 634.876 156.123 674.894 146.733C714.911 137.344 757.867 147.399 801.304 173.685C844.742 199.971 888.636 242.476 930.5 297.933C1014.23 408.845 1089.79 571.505 1137.32 759.625C1184.86 947.744 1195.36 1125.67 1173.92 1261.26C1163.19 1329.05 1144.49 1386.25 1118.46 1428.83C1092.42 1471.42 1059.07 1499.38 1019.06 1508.77C979.038 1518.16 936.082 1508.1 892.646 1481.82C849.208 1455.53 805.313 1413.03 763.449 1357.57C679.722 1246.66 604.16 1084 556.626 895.878Z" stroke="url(#paint80_linear_379_3589)" stroke-opacity="0.2" stroke-width="0.721909"/>
<path d="M555.422 890.93C511.265 702.049 503.958 523.987 527.829 388.795C539.765 321.199 559.492 264.338 586.289 222.203C613.085 180.069 646.934 152.683 687.118 143.975C727.301 135.267 770.075 146.05 813.037 173.067C856.001 200.085 899.13 243.325 939.997 299.479C1021.73 411.787 1094.37 575.691 1138.53 764.572C1182.69 953.453 1189.99 1131.51 1166.12 1266.71C1154.18 1334.3 1134.46 1391.16 1107.66 1433.3C1080.86 1475.43 1047.02 1502.82 1006.83 1511.53C966.648 1520.23 923.875 1509.45 880.913 1482.44C837.949 1455.42 794.82 1412.18 753.953 1356.02C672.22 1243.72 599.58 1079.81 555.422 890.93Z" stroke="url(#paint81_linear_379_3589)" stroke-opacity="0.2" stroke-width="0.721908"/>
<path d="M554.307 885.963C513.54 696.377 509.427 518.234 535.721 383.481C548.868 316.103 569.614 259.591 597.165 217.921C624.714 176.253 659.053 149.448 699.39 141.425C739.727 133.402 782.305 144.908 824.78 172.649C867.256 200.39 909.607 244.352 949.464 301.187C1029.18 414.855 1098.87 579.954 1139.64 769.539C1180.41 959.124 1184.52 1137.27 1158.23 1272.02C1145.08 1339.4 1124.34 1395.91 1096.78 1437.58C1069.23 1479.25 1034.9 1506.05 994.559 1514.08C954.222 1522.1 911.644 1510.59 869.169 1482.85C826.693 1455.11 784.342 1411.15 744.485 1354.32C664.771 1240.65 595.075 1075.55 554.307 885.963Z" stroke="url(#paint82_linear_379_3589)" stroke-opacity="0.2" stroke-width="0.721909"/>
<path d="M553.282 880.978C515.917 690.746 515 512.576 543.709 378.302C558.063 311.164 579.821 255.018 608.117 213.826C636.413 172.636 671.23 146.42 711.709 139.084C752.187 131.748 794.555 143.975 836.53 172.43C878.507 200.886 920.066 245.557 958.902 303.055C1036.57 418.05 1103.3 584.292 1140.67 774.524C1178.03 964.756 1178.95 1142.93 1150.24 1277.2C1135.89 1344.34 1114.13 1400.48 1085.83 1441.68C1057.54 1482.87 1022.72 1509.08 982.241 1516.42C941.763 1523.75 899.395 1511.53 857.42 1483.07C815.443 1454.62 773.884 1409.95 735.048 1352.45C657.378 1237.45 590.647 1071.21 553.282 880.978Z" stroke="url(#paint83_linear_379_3589)" stroke-opacity="0.2" stroke-width="0.721909"/>
<path d="M552.346 875.977C518.395 685.157 520.673 507.014 551.788 373.26C567.346 306.382 590.109 250.619 619.142 209.918C648.174 169.218 683.46 143.6 724.067 136.953C764.675 130.306 806.821 143.25 848.283 172.411C889.747 201.573 930.503 246.939 968.304 305.083C1043.91 421.369 1107.65 588.705 1141.6 779.525C1175.55 970.346 1173.28 1148.49 1142.16 1282.24C1126.6 1349.12 1103.84 1404.88 1074.81 1445.59C1045.78 1486.28 1010.49 1511.9 969.882 1518.55C929.275 1525.2 887.128 1512.25 845.667 1483.09C804.203 1453.93 763.447 1408.56 725.645 1350.42C650.043 1234.13 586.297 1066.8 552.346 875.977Z" stroke="url(#paint84_linear_379_3589)" stroke-opacity="0.2" stroke-width="0.721908"/>
<path d="M551.5 870.961C520.973 679.61 526.445 501.549 559.957 368.356C576.713 301.758 600.475 246.395 630.236 206.197C659.997 166 695.739 140.988 736.464 135.032C777.188 129.077 819.1 142.733 860.036 172.591C900.974 202.45 940.914 248.498 977.67 307.269C1051.18 424.812 1111.92 593.19 1142.45 784.541C1172.98 975.892 1167.5 1153.95 1133.99 1287.15C1117.24 1353.74 1093.47 1409.11 1063.71 1449.31C1033.95 1489.5 998.21 1514.51 957.486 1520.47C916.762 1526.43 874.85 1512.77 833.914 1482.91C792.976 1453.05 753.036 1407 716.279 1348.23C642.767 1230.69 582.026 1062.31 551.5 870.961Z" stroke="url(#paint85_linear_379_3589)" stroke-opacity="0.2" stroke-width="0.721909"/>
<path d="M550.743 865.933C523.65 674.109 532.315 496.184 568.214 363.592C586.163 297.295 610.916 242.349 641.397 202.666C671.876 162.985 708.065 138.585 748.894 133.323C789.722 128.06 831.386 142.425 871.784 172.971C912.184 203.519 951.296 250.233 986.996 309.615C1058.4 428.378 1116.11 597.746 1143.21 789.57C1170.3 981.394 1161.63 1159.32 1125.74 1291.91C1107.79 1358.21 1083.03 1413.15 1052.55 1452.84C1022.07 1492.52 985.885 1516.92 945.056 1522.18C904.227 1527.44 862.563 1513.08 822.165 1482.53C781.765 1451.98 742.654 1405.27 706.953 1345.89C635.554 1227.12 577.836 1057.76 550.743 865.933Z" stroke="url(#paint86_linear_379_3589)" stroke-opacity="0.2" stroke-width="0.721909"/>
<path d="M550.077 860.892C526.426 668.655 538.281 490.92 576.555 358.97C595.692 292.994 621.429 238.481 652.62 199.326C683.808 160.171 720.433 136.392 761.353 131.825C802.274 127.257 843.678 142.326 883.525 173.551C923.375 204.777 961.646 252.145 996.279 312.119C1065.54 432.065 1120.22 602.373 1143.87 794.611C1167.52 986.848 1155.67 1164.58 1117.39 1296.53C1098.26 1362.51 1072.52 1417.02 1041.33 1456.18C1010.14 1495.33 973.516 1519.11 932.596 1523.68C891.675 1528.25 850.271 1513.18 810.424 1481.95C770.574 1450.73 732.303 1403.36 697.67 1343.38C628.404 1223.44 573.728 1053.13 550.077 860.892Z" stroke="url(#paint87_linear_379_3589)" stroke-opacity="0.2" stroke-width="0.721909"/>
<path d="M549.502 855.842C529.299 663.249 544.342 485.759 584.98 354.49C605.299 288.855 632.012 234.793 663.902 196.176C695.791 157.561 732.84 134.41 773.84 130.539C814.84 126.667 855.971 142.436 895.256 174.33C934.543 206.225 971.962 254.231 1005.52 314.779C1072.63 435.873 1124.25 607.069 1144.45 799.661C1164.65 992.254 1149.61 1169.74 1108.97 1301.01C1088.65 1366.65 1061.94 1420.71 1030.05 1459.33C998.159 1497.94 961.11 1521.09 920.11 1524.96C879.11 1528.84 837.979 1513.07 798.694 1481.17C759.407 1449.28 721.988 1401.27 688.432 1340.72C621.322 1219.63 569.704 1048.43 549.502 855.842Z" stroke="url(#paint88_linear_379_3589)" stroke-opacity="0.2" stroke-width="0.721908"/>
<path d="M549.016 850.782C532.269 657.893 550.494 480.701 593.483 350.155C614.978 284.88 642.659 231.285 675.24 193.22C707.82 155.156 745.281 132.639 786.348 129.465C827.415 126.29 868.26 142.754 906.971 175.308C945.683 207.863 982.24 256.493 1014.71 317.596C1079.64 439.8 1128.19 611.831 1144.93 804.721C1161.68 997.61 1143.46 1174.8 1100.47 1305.35C1078.97 1370.62 1051.29 1424.22 1018.71 1462.28C986.13 1500.35 948.669 1522.86 907.602 1526.04C866.535 1529.21 825.689 1512.75 786.979 1480.2C748.266 1447.64 711.71 1399.01 679.243 1337.91C614.309 1215.7 565.764 1043.67 549.016 850.782Z" stroke="url(#paint89_linear_379_3589)" stroke-opacity="0.2" stroke-width="0.721909"/>
<path d="M548.622 845.716C535.335 652.589 556.736 475.749 602.064 345.964C624.729 281.071 653.369 227.959 686.63 190.456C719.89 152.954 757.753 131.08 798.874 128.604C839.996 126.128 880.543 143.281 918.668 176.484C956.794 209.689 992.476 258.928 1023.85 320.568C1086.58 443.846 1132.04 616.66 1145.33 809.787C1158.61 1002.91 1137.21 1179.75 1091.88 1309.54C1069.22 1374.43 1040.58 1427.54 1007.32 1465.05C974.059 1502.55 936.196 1524.42 895.075 1526.9C853.954 1529.38 813.406 1512.22 775.281 1479.02C737.155 1445.81 701.474 1396.58 670.104 1334.94C607.366 1211.66 561.909 1038.84 548.622 845.716Z" stroke="url(#paint90_linear_379_3589)" stroke-opacity="0.2" stroke-width="0.721909"/>
<path d="M548.319 840.644C538.496 647.338 563.067 470.904 610.72 341.92C634.546 277.428 664.137 224.815 698.069 187.886C732 150.958 770.252 129.732 811.416 127.955C852.579 126.178 892.816 144.016 930.343 177.859C967.871 211.703 1002.67 261.536 1032.93 323.694C1093.45 448.007 1135.81 621.552 1145.63 814.858C1155.45 1008.16 1130.88 1184.6 1083.23 1313.58C1059.4 1378.07 1029.81 1430.69 995.88 1467.62C961.949 1504.54 923.697 1525.77 882.534 1527.55C841.371 1529.32 801.133 1511.49 763.606 1477.64C726.078 1443.8 691.282 1393.97 661.019 1331.81C600.496 1207.49 558.141 1033.95 548.319 840.644Z" stroke="url(#paint91_linear_379_3589)" stroke-opacity="0.2" stroke-width="0.721909"/>
<path d="M548.107 835.57C541.751 642.143 569.485 466.17 619.448 338.026C644.429 273.954 674.962 221.856 709.554 185.513C744.145 149.17 782.775 128.599 823.968 127.521C865.16 126.444 905.076 144.961 941.993 179.433C978.912 213.906 1012.81 264.318 1041.96 326.975C1100.25 452.287 1139.49 626.508 1145.84 819.935C1152.2 1013.36 1124.46 1189.33 1074.5 1317.48C1049.52 1381.55 1018.99 1433.65 984.396 1469.99C949.805 1506.33 911.174 1526.91 869.982 1527.98C828.789 1529.06 788.874 1510.54 751.957 1476.07C715.038 1441.6 681.137 1391.19 651.992 1328.53C593.701 1203.22 554.462 1029 548.107 835.57Z" stroke="url(#paint92_linear_379_3589)" stroke-opacity="0.2" stroke-width="0.721909"/>
<path d="M547.985 830.491C545.099 637.003 575.987 461.543 628.245 334.28C654.374 270.647 685.839 219.081 721.08 183.333C756.321 147.587 795.318 127.676 836.527 127.299C877.736 126.921 917.317 146.112 953.614 181.203C989.912 216.295 1022.91 267.27 1050.93 330.407C1106.97 456.678 1143.08 631.525 1145.96 825.012C1148.85 1018.5 1117.96 1193.96 1065.7 1321.22C1039.58 1384.86 1008.11 1436.42 972.869 1472.17C937.629 1507.92 898.632 1527.83 857.422 1528.2C816.213 1528.58 776.633 1509.39 740.336 1474.3C704.037 1439.21 671.043 1388.23 643.023 1325.1C586.984 1198.82 550.871 1023.98 547.985 830.491Z" stroke="url(#paint93_linear_379_3589)" stroke-opacity="0.2" stroke-width="0.721909"/>
<path d="M547.955 825.411C548.539 631.921 582.572 457.028 637.108 330.682C664.377 267.509 696.764 216.489 732.645 181.349C768.524 146.21 807.876 126.967 849.089 127.289C890.303 127.612 929.537 147.47 965.202 183.169C1000.87 218.869 1032.95 270.393 1059.83 333.99C1113.6 461.183 1146.58 636.6 1145.99 830.09C1145.41 1023.58 1111.38 1198.47 1056.84 1324.82C1029.57 1387.99 997.185 1439.01 961.304 1474.15C925.425 1509.29 886.073 1528.53 844.86 1528.21C803.647 1527.89 764.413 1508.03 728.747 1472.33C693.081 1436.63 661.003 1385.11 634.117 1321.51C580.346 1194.32 547.371 1018.9 547.955 825.411Z" stroke="url(#paint94_linear_379_3589)" stroke-opacity="0.2" stroke-width="0.721909"/>
<path d="M548.016 820.333C552.07 626.9 589.237 452.627 646.036 327.238C674.436 264.543 707.736 214.086 744.245 179.563C780.752 145.042 820.446 126.472 861.651 127.494C902.856 128.516 941.732 149.036 976.754 185.332C1011.78 221.629 1042.93 273.686 1068.67 337.724C1120.16 465.8 1149.99 641.735 1145.93 835.168C1141.88 1028.6 1104.71 1202.87 1047.91 1328.26C1019.51 1390.96 986.214 1441.42 949.705 1475.94C913.198 1510.46 873.503 1529.03 832.298 1528.01C791.093 1526.98 752.218 1506.46 717.195 1470.17C682.171 1433.87 651.019 1381.82 625.275 1317.78C573.789 1189.7 543.962 1013.77 548.016 820.333Z" stroke="url(#paint95_linear_379_3589)" stroke-opacity="0.2" stroke-width="0.721909"/>
<path d="M548.168 815.258C555.69 621.94 595.98 448.341 655.024 323.947C684.547 261.749 718.75 211.87 755.875 177.976C792.999 144.083 833.024 126.191 874.208 127.913C915.392 129.635 953.897 150.811 988.267 187.692C1022.64 224.576 1052.85 277.149 1077.45 341.609C1126.63 470.528 1153.3 646.927 1145.78 840.245C1138.26 1033.56 1097.97 1207.16 1038.92 1331.56C1009.4 1393.75 975.199 1443.63 938.074 1477.53C900.95 1511.42 860.925 1529.31 819.741 1527.59C778.557 1525.87 740.052 1504.69 705.682 1467.81C671.311 1430.93 641.095 1378.35 616.501 1313.89C567.315 1184.97 540.645 1008.58 548.168 815.258Z" stroke="url(#paint96_linear_379_3589)" stroke-opacity="0.2" stroke-width="0.721909"/>
<path d="M548.411 810.186C559.4 617.043 602.8 444.17 664.072 320.809C694.708 259.128 729.803 209.841 767.534 176.586C805.263 143.332 845.607 126.124 886.757 128.546C927.908 130.967 966.031 152.791 999.737 190.247C1033.44 227.706 1062.72 280.779 1086.15 345.641C1133.02 475.365 1156.53 652.174 1145.54 845.318C1134.55 1038.46 1091.15 1211.33 1029.88 1334.7C999.242 1396.38 964.146 1445.66 926.415 1478.92C888.686 1512.17 848.343 1529.38 807.192 1526.96C766.041 1524.54 727.919 1502.71 694.213 1465.26C660.505 1427.8 631.234 1374.72 607.798 1309.86C560.926 1180.14 537.421 1003.33 548.411 810.186Z" stroke="url(#paint97_linear_379_3589)" stroke-opacity="0.2" stroke-width="0.721908"/>
<path d="M548.744 805.12C563.197 612.21 609.695 440.115 673.174 317.825C704.915 256.679 740.892 208 779.217 175.394C817.54 142.789 858.19 126.27 899.294 129.39C940.399 132.509 978.128 154.976 1011.16 192.996C1044.19 231.017 1072.51 284.575 1094.78 349.82C1139.32 480.308 1159.66 657.474 1145.2 850.384C1130.75 1043.29 1084.25 1215.39 1020.77 1337.68C989.035 1398.83 953.057 1447.5 914.733 1480.11C876.409 1512.72 835.76 1529.23 794.655 1526.11C753.55 1522.99 715.822 1500.53 682.789 1462.51C649.756 1424.49 621.438 1370.93 599.167 1305.68C554.624 1175.2 534.292 998.03 548.744 805.12Z" stroke="url(#paint98_linear_379_3589)" stroke-opacity="0.2" stroke-width="0.721909"/>
<path d="M549.169 800.06C567.08 607.442 616.662 436.178 682.33 314.996C715.165 254.404 752.013 206.348 790.92 174.4C829.826 142.454 870.769 126.63 911.815 130.447C952.861 134.264 990.185 157.365 1022.53 195.937C1054.88 234.511 1082.24 288.537 1103.34 354.144C1145.54 485.357 1162.69 662.826 1144.78 855.444C1126.87 1048.06 1077.29 1219.33 1011.62 1340.51C978.784 1401.1 941.936 1449.16 903.029 1481.1C864.124 1513.05 823.18 1528.87 782.134 1525.06C741.088 1521.24 703.765 1498.14 671.416 1459.57C639.067 1420.99 611.711 1366.97 590.611 1301.36C548.412 1170.15 531.258 992.678 549.169 800.06Z" stroke="url(#paint99_linear_379_3589)" stroke-opacity="0.2" stroke-width="0.721909"/>
</g>
<defs>
<linearGradient id="paint0_linear_379_3589" x1="833.814" y1="658.165" x2="854.652" y2="1004.24" gradientUnits="userSpaceOnUse">
<stop stop-color="#C8B1E4"/>
<stop offset="1" stop-color="#60458D"/>
</linearGradient>
<linearGradient id="paint1_linear_379_3589" x1="836.856" y1="657.982" x2="851.807" y2="1004.32" gradientUnits="userSpaceOnUse">
<stop stop-color="#C8B1E4"/>
<stop offset="1" stop-color="#60458D"/>
</linearGradient>
<linearGradient id="paint2_linear_379_3589" x1="839.901" y1="657.851" x2="848.964" y2="1004.35" gradientUnits="userSpaceOnUse">
<stop stop-color="#C8B1E4"/>
<stop offset="1" stop-color="#60458D"/>
</linearGradient>
<linearGradient id="paint3_linear_379_3589" x1="842.948" y1="657.772" x2="846.124" y2="1004.34" gradientUnits="userSpaceOnUse">
<stop stop-color="#C8B1E4"/>
<stop offset="1" stop-color="#60458D"/>
</linearGradient>
<linearGradient id="paint4_linear_379_3589" x1="845.997" y1="657.744" x2="843.286" y2="1004.28" gradientUnits="userSpaceOnUse">
<stop stop-color="#C8B1E4"/>
<stop offset="1" stop-color="#60458D"/>
</linearGradient>
<linearGradient id="paint5_linear_379_3589" x1="849.046" y1="657.769" x2="840.451" y2="1004.18" gradientUnits="userSpaceOnUse">
<stop stop-color="#C8B1E4"/>
<stop offset="1" stop-color="#60458D"/>
</linearGradient>
<linearGradient id="paint6_linear_379_3589" x1="852.094" y1="657.846" x2="837.619" y2="1004.04" gradientUnits="userSpaceOnUse">
<stop stop-color="#C8B1E4"/>
<stop offset="1" stop-color="#60458D"/>
</linearGradient>
<linearGradient id="paint7_linear_379_3589" x1="855.141" y1="657.974" x2="834.791" y2="1003.86" gradientUnits="userSpaceOnUse">
<stop stop-color="#C8B1E4"/>
<stop offset="1" stop-color="#60458D"/>
</linearGradient>
<linearGradient id="paint8_linear_379_3589" x1="858.185" y1="658.154" x2="831.967" y2="1003.64" gradientUnits="userSpaceOnUse">
<stop stop-color="#C8B1E4"/>
<stop offset="1" stop-color="#60458D"/>
</linearGradient>
<linearGradient id="paint9_linear_379_3589" x1="861.226" y1="658.384" x2="829.146" y2="1003.37" gradientUnits="userSpaceOnUse">
<stop stop-color="#C8B1E4"/>
<stop offset="1" stop-color="#60458D"/>
</linearGradient>
<linearGradient id="paint10_linear_379_3589" x1="864.262" y1="658.667" x2="826.331" y2="1003.06" gradientUnits="userSpaceOnUse">
<stop stop-color="#C8B1E4"/>
<stop offset="1" stop-color="#60458D"/>
</linearGradient>
<linearGradient id="paint11_linear_379_3589" x1="867.294" y1="659.002" x2="823.52" y2="1002.71" gradientUnits="userSpaceOnUse">
<stop stop-color="#C8B1E4"/>
<stop offset="1" stop-color="#60458D"/>
</linearGradient>
<linearGradient id="paint12_linear_379_3589" x1="870.319" y1="659.389" x2="820.713" y2="1002.32" gradientUnits="userSpaceOnUse">
<stop stop-color="#C8B1E4"/>
<stop offset="1" stop-color="#60458D"/>
</linearGradient>
<linearGradient id="paint13_linear_379_3589" x1="873.336" y1="659.826" x2="817.912" y2="1001.89" gradientUnits="userSpaceOnUse">
<stop stop-color="#C8B1E4"/>
<stop offset="1" stop-color="#60458D"/>
</linearGradient>
<linearGradient id="paint14_linear_379_3589" x1="876.347" y1="660.313" x2="815.117" y2="1001.41" gradientUnits="userSpaceOnUse">
<stop stop-color="#C8B1E4"/>
<stop offset="1" stop-color="#60458D"/>
</linearGradient>
<linearGradient id="paint15_linear_379_3589" x1="879.347" y1="660.852" x2="812.327" y2="1000.89" gradientUnits="userSpaceOnUse">
<stop stop-color="#C8B1E4"/>
<stop offset="1" stop-color="#60458D"/>
</linearGradient>
<linearGradient id="paint16_linear_379_3589" x1="882.338" y1="661.443" x2="809.544" y2="1000.33" gradientUnits="userSpaceOnUse">
<stop stop-color="#C8B1E4"/>
<stop offset="1" stop-color="#60458D"/>
</linearGradient>
<linearGradient id="paint17_linear_379_3589" x1="885.319" y1="662.084" x2="806.767" y2="999.723" gradientUnits="userSpaceOnUse">
<stop stop-color="#C8B1E4"/>
<stop offset="1" stop-color="#60458D"/>
</linearGradient>
<linearGradient id="paint18_linear_379_3589" x1="888.287" y1="662.775" x2="803.996" y2="999.077" gradientUnits="userSpaceOnUse">
<stop stop-color="#C8B1E4"/>
<stop offset="1" stop-color="#60458D"/>
</linearGradient>
<linearGradient id="paint19_linear_379_3589" x1="891.243" y1="663.516" x2="801.233" y2="998.388" gradientUnits="userSpaceOnUse">
<stop stop-color="#C8B1E4"/>
<stop offset="1" stop-color="#60458D"/>
</linearGradient>
<linearGradient id="paint20_linear_379_3589" x1="894.186" y1="664.307" x2="798.478" y2="997.656" gradientUnits="userSpaceOnUse">
<stop stop-color="#C8B1E4"/>
<stop offset="1" stop-color="#60458D"/>
</linearGradient>
<linearGradient id="paint21_linear_379_3589" x1="897.114" y1="665.15" x2="795.73" y2="996.883" gradientUnits="userSpaceOnUse">
<stop stop-color="#C8B1E4"/>
<stop offset="1" stop-color="#60458D"/>
</linearGradient>
<linearGradient id="paint22_linear_379_3589" x1="900.027" y1="666.04" x2="792.99" y2="996.065" gradientUnits="userSpaceOnUse">
<stop stop-color="#C8B1E4"/>
<stop offset="1" stop-color="#60458D"/>
</linearGradient>
<linearGradient id="paint23_linear_379_3589" x1="902.924" y1="666.98" x2="790.259" y2="995.205" gradientUnits="userSpaceOnUse">
<stop stop-color="#C8B1E4"/>
<stop offset="1" stop-color="#60458D"/>
</linearGradient>
<linearGradient id="paint24_linear_379_3589" x1="905.803" y1="667.969" x2="787.537" y2="994.302" gradientUnits="userSpaceOnUse">
<stop stop-color="#C8B1E4"/>
<stop offset="1" stop-color="#60458D"/>
</linearGradient>
<linearGradient id="paint25_linear_379_3589" x1="908.665" y1="669.007" x2="784.825" y2="993.356" gradientUnits="userSpaceOnUse">
<stop stop-color="#C8B1E4"/>
<stop offset="1" stop-color="#60458D"/>
</linearGradient>
<linearGradient id="paint26_linear_379_3589" x1="911.508" y1="670.093" x2="782.123" y2="992.366" gradientUnits="userSpaceOnUse">
<stop stop-color="#C8B1E4"/>
<stop offset="1" stop-color="#60458D"/>
</linearGradient>
<linearGradient id="paint27_linear_379_3589" x1="914.331" y1="671.228" x2="779.43" y2="991.333" gradientUnits="userSpaceOnUse">
<stop stop-color="#C8B1E4"/>
<stop offset="1" stop-color="#60458D"/>
</linearGradient>
<linearGradient id="paint28_linear_379_3589" x1="917.134" y1="672.409" x2="776.749" y2="990.256" gradientUnits="userSpaceOnUse">
<stop stop-color="#C8B1E4"/>
<stop offset="1" stop-color="#60458D"/>
</linearGradient>
<linearGradient id="paint29_linear_379_3589" x1="919.916" y1="673.637" x2="774.08" y2="989.134" gradientUnits="userSpaceOnUse">
<stop stop-color="#C8B1E4"/>
<stop offset="1" stop-color="#60458D"/>
</linearGradient>
<linearGradient id="paint30_linear_379_3589" x1="922.675" y1="674.914" x2="771.422" y2="987.969" gradientUnits="userSpaceOnUse">
<stop stop-color="#C8B1E4"/>
<stop offset="1" stop-color="#60458D"/>
</linearGradient>
<linearGradient id="paint31_linear_379_3589" x1="925.411" y1="676.237" x2="768.777" y2="986.76" gradientUnits="userSpaceOnUse">
<stop stop-color="#C8B1E4"/>
<stop offset="1" stop-color="#60458D"/>
</linearGradient>
<linearGradient id="paint32_linear_379_3589" x1="928.123" y1="677.605" x2="766.144" y2="985.506" gradientUnits="userSpaceOnUse">
<stop stop-color="#C8B1E4"/>
<stop offset="1" stop-color="#60458D"/>
</linearGradient>
<linearGradient id="paint33_linear_379_3589" x1="930.811" y1="679.02" x2="763.525" y2="984.208" gradientUnits="userSpaceOnUse">
<stop stop-color="#C8B1E4"/>
<stop offset="1" stop-color="#60458D"/>
</linearGradient>
<linearGradient id="paint34_linear_379_3589" x1="933.473" y1="680.48" x2="760.92" y2="982.865" gradientUnits="userSpaceOnUse">
<stop stop-color="#C8B1E4"/>
<stop offset="1" stop-color="#60458D"/>
</linearGradient>
<linearGradient id="paint35_linear_379_3589" x1="936.109" y1="681.984" x2="758.331" y2="981.476" gradientUnits="userSpaceOnUse">
<stop stop-color="#C8B1E4"/>
<stop offset="1" stop-color="#60458D"/>
</linearGradient>
<linearGradient id="paint36_linear_379_3589" x1="938.717" y1="683.533" x2="755.757" y2="980.042" gradientUnits="userSpaceOnUse">
<stop stop-color="#C8B1E4"/>
<stop offset="1" stop-color="#60458D"/>
</linearGradient>
<linearGradient id="paint37_linear_379_3589" x1="941.298" y1="685.127" x2="753.199" y2="978.564" gradientUnits="userSpaceOnUse">
<stop stop-color="#C8B1E4"/>
<stop offset="1" stop-color="#60458D"/>
</linearGradient>
<linearGradient id="paint38_linear_379_3589" x1="943.849" y1="686.763" x2="750.658" y2="977.041" gradientUnits="userSpaceOnUse">
<stop stop-color="#C8B1E4"/>
<stop offset="1" stop-color="#60458D"/>
</linearGradient>
<linearGradient id="paint39_linear_379_3589" x1="946.372" y1="688.442" x2="748.135" y2="975.471" gradientUnits="userSpaceOnUse">
<stop stop-color="#C8B1E4"/>
<stop offset="1" stop-color="#60458D"/>
</linearGradient>
<linearGradient id="paint40_linear_379_3589" x1="948.864" y1="690.164" x2="745.631" y2="973.855" gradientUnits="userSpaceOnUse">
<stop stop-color="#C8B1E4"/>
<stop offset="1" stop-color="#60458D"/>
</linearGradient>
<linearGradient id="paint41_linear_379_3589" x1="951.325" y1="691.929" x2="743.146" y2="972.196" gradientUnits="userSpaceOnUse">
<stop stop-color="#C8B1E4"/>
<stop offset="1" stop-color="#60458D"/>
</linearGradient>
<linearGradient id="paint42_linear_379_3589" x1="953.754" y1="693.733" x2="740.681" y2="970.488" gradientUnits="userSpaceOnUse">
<stop stop-color="#C8B1E4"/>
<stop offset="1" stop-color="#60458D"/>
</linearGradient>
<linearGradient id="paint43_linear_379_3589" x1="956.151" y1="695.579" x2="738.237" y2="968.736" gradientUnits="userSpaceOnUse">
<stop stop-color="#C8B1E4"/>
<stop offset="1" stop-color="#60458D"/>
</linearGradient>
<linearGradient id="paint44_linear_379_3589" x1="958.514" y1="697.466" x2="735.815" y2="966.937" gradientUnits="userSpaceOnUse">
<stop stop-color="#C8B1E4"/>
<stop offset="1" stop-color="#60458D"/>
</linearGradient>
<linearGradient id="paint45_linear_379_3589" x1="960.844" y1="699.391" x2="733.416" y2="965.092" gradientUnits="userSpaceOnUse">
<stop stop-color="#C8B1E4"/>
<stop offset="1" stop-color="#60458D"/>
</linearGradient>
<linearGradient id="paint46_linear_379_3589" x1="963.138" y1="701.356" x2="731.04" y2="963.201" gradientUnits="userSpaceOnUse">
<stop stop-color="#C8B1E4"/>
<stop offset="1" stop-color="#60458D"/>
</linearGradient>
<linearGradient id="paint47_linear_379_3589" x1="965.398" y1="703.359" x2="728.69" y2="961.264" gradientUnits="userSpaceOnUse">
<stop stop-color="#C8B1E4"/>
<stop offset="1" stop-color="#60458D"/>
</linearGradient>
<linearGradient id="paint48_linear_379_3589" x1="967.621" y1="705.401" x2="726.364" y2="959.282" gradientUnits="userSpaceOnUse">
<stop stop-color="#C8B1E4"/>
<stop offset="1" stop-color="#60458D"/>
</linearGradient>
<linearGradient id="paint49_linear_379_3589" x1="969.808" y1="707.479" x2="724.065" y2="957.252" gradientUnits="userSpaceOnUse">
<stop stop-color="#C8B1E4"/>
<stop offset="1" stop-color="#60458D"/>
</linearGradient>
<linearGradient id="paint50_linear_379_3589" x1="971.957" y1="709.594" x2="721.794" y2="955.178" gradientUnits="userSpaceOnUse">
<stop stop-color="#C8B1E4"/>
<stop offset="1" stop-color="#60458D"/>
</linearGradient>
<linearGradient id="paint51_linear_379_3589" x1="974.068" y1="711.746" x2="719.552" y2="953.058" gradientUnits="userSpaceOnUse">
<stop stop-color="#C8B1E4"/>
<stop offset="1" stop-color="#60458D"/>
</linearGradient>
<linearGradient id="paint52_linear_379_3589" x1="976.14" y1="713.932" x2="717.339" y2="950.891" gradientUnits="userSpaceOnUse">
<stop stop-color="#C8B1E4"/>
<stop offset="1" stop-color="#60458D"/>
</linearGradient>
<linearGradient id="paint53_linear_379_3589" x1="978.173" y1="716.154" x2="715.156" y2="948.681" gradientUnits="userSpaceOnUse">
<stop stop-color="#C8B1E4"/>
<stop offset="1" stop-color="#60458D"/>
</linearGradient>
<linearGradient id="paint54_linear_379_3589" x1="980.167" y1="718.409" x2="713.006" y2="946.424" gradientUnits="userSpaceOnUse">
<stop stop-color="#C8B1E4"/>
<stop offset="1" stop-color="#60458D"/>
</linearGradient>
<linearGradient id="paint55_linear_379_3589" x1="982.119" y1="720.697" x2="710.888" y2="944.122" gradientUnits="userSpaceOnUse">
<stop stop-color="#C8B1E4"/>
<stop offset="1" stop-color="#60458D"/>
</linearGradient>
<linearGradient id="paint56_linear_379_3589" x1="984.03" y1="723.018" x2="708.804" y2="941.776" gradientUnits="userSpaceOnUse">
<stop stop-color="#C8B1E4"/>
<stop offset="1" stop-color="#60458D"/>
</linearGradient>
<linearGradient id="paint57_linear_379_3589" x1="985.9" y1="725.372" x2="706.756" y2="939.387" gradientUnits="userSpaceOnUse">
<stop stop-color="#C8B1E4"/>
<stop offset="1" stop-color="#60458D"/>
</linearGradient>
<linearGradient id="paint58_linear_379_3589" x1="987.727" y1="727.756" x2="704.744" y2="936.952" gradientUnits="userSpaceOnUse">
<stop stop-color="#C8B1E4"/>
<stop offset="1" stop-color="#60458D"/>
</linearGradient>
<linearGradient id="paint59_linear_379_3589" x1="989.511" y1="730.171" x2="702.769" y2="934.474" gradientUnits="userSpaceOnUse">
<stop stop-color="#C8B1E4"/>
<stop offset="1" stop-color="#60458D"/>
</linearGradient>
<linearGradient id="paint60_linear_379_3589" x1="991.253" y1="732.615" x2="700.833" y2="931.953" gradientUnits="userSpaceOnUse">
<stop stop-color="#C8B1E4"/>
<stop offset="1" stop-color="#60458D"/>
</linearGradient>
<linearGradient id="paint61_linear_379_3589" x1="992.949" y1="735.088" x2="698.936" y2="929.389" gradientUnits="userSpaceOnUse">
<stop stop-color="#C8B1E4"/>
<stop offset="1" stop-color="#60458D"/>
</linearGradient>
<linearGradient id="paint62_linear_379_3589" x1="994.602" y1="737.59" x2="697.08" y2="926.784" gradientUnits="userSpaceOnUse">
<stop stop-color="#C8B1E4"/>
<stop offset="1" stop-color="#60458D"/>
</linearGradient>
<linearGradient id="paint63_linear_379_3589" x1="996.21" y1="740.119" x2="695.266" y2="924.136" gradientUnits="userSpaceOnUse">
<stop stop-color="#C8B1E4"/>
<stop offset="1" stop-color="#60458D"/>
</linearGradient>
<linearGradient id="paint64_linear_379_3589" x1="997.772" y1="742.675" x2="693.495" y2="921.448" gradientUnits="userSpaceOnUse">
<stop stop-color="#C8B1E4"/>
<stop offset="1" stop-color="#60458D"/>
</linearGradient>
<linearGradient id="paint65_linear_379_3589" x1="999.288" y1="745.257" x2="691.769" y2="918.72" gradientUnits="userSpaceOnUse">
<stop stop-color="#C8B1E4"/>
<stop offset="1" stop-color="#60458D"/>
</linearGradient>
<linearGradient id="paint66_linear_379_3589" x1="1000.76" y1="747.864" x2="690.088" y2="915.952" gradientUnits="userSpaceOnUse">
<stop stop-color="#C8B1E4"/>
<stop offset="1" stop-color="#60458D"/>
</linearGradient>
<linearGradient id="paint67_linear_379_3589" x1="1002.18" y1="750.495" x2="688.453" y2="913.145" gradientUnits="userSpaceOnUse">
<stop stop-color="#C8B1E4"/>
<stop offset="1" stop-color="#60458D"/>
</linearGradient>
<linearGradient id="paint68_linear_379_3589" x1="1003.56" y1="753.15" x2="686.866" y2="910.3" gradientUnits="userSpaceOnUse">
<stop stop-color="#C8B1E4"/>
<stop offset="1" stop-color="#60458D"/>
</linearGradient>
<linearGradient id="paint69_linear_379_3589" x1="1004.88" y1="755.826" x2="685.328" y2="907.416" gradientUnits="userSpaceOnUse">
<stop stop-color="#C8B1E4"/>
<stop offset="1" stop-color="#60458D"/>
</linearGradient>
<linearGradient id="paint70_linear_379_3589" x1="1006.16" y1="758.527" x2="683.84" y2="904.5" gradientUnits="userSpaceOnUse">
<stop stop-color="#C8B1E4"/>
<stop offset="1" stop-color="#60458D"/>
</linearGradient>
<linearGradient id="paint71_linear_379_3589" x1="1007.4" y1="761.248" x2="682.403" y2="901.545" gradientUnits="userSpaceOnUse">
<stop stop-color="#C8B1E4"/>
<stop offset="1" stop-color="#60458D"/>
</linearGradient>
<linearGradient id="paint72_linear_379_3589" x1="1008.58" y1="763.988" x2="681.018" y2="898.556" gradientUnits="userSpaceOnUse">
<stop stop-color="#C8B1E4"/>
<stop offset="1" stop-color="#60458D"/>
</linearGradient>
<linearGradient id="paint73_linear_379_3589" x1="1009.71" y1="766.748" x2="679.686" y2="895.535" gradientUnits="userSpaceOnUse">
<stop stop-color="#C8B1E4"/>
<stop offset="1" stop-color="#60458D"/>
</linearGradient>
<linearGradient id="paint74_linear_379_3589" x1="1010.8" y1="769.527" x2="678.408" y2="892.481" gradientUnits="userSpaceOnUse">
<stop stop-color="#C8B1E4"/>
<stop offset="1" stop-color="#60458D"/>
</linearGradient>
<linearGradient id="paint75_linear_379_3589" x1="1011.83" y1="772.323" x2="677.186" y2="889.395" gradientUnits="userSpaceOnUse">
<stop stop-color="#C8B1E4"/>
<stop offset="1" stop-color="#60458D"/>
</linearGradient>
<linearGradient id="paint76_linear_379_3589" x1="1012.81" y1="775.137" x2="676.019" y2="886.28" gradientUnits="userSpaceOnUse">
<stop stop-color="#C8B1E4"/>
<stop offset="1" stop-color="#60458D"/>
</linearGradient>
<linearGradient id="paint77_linear_379_3589" x1="1013.75" y1="777.964" x2="674.91" y2="883.134" gradientUnits="userSpaceOnUse">
<stop stop-color="#C8B1E4"/>
<stop offset="1" stop-color="#60458D"/>
</linearGradient>
<linearGradient id="paint78_linear_379_3589" x1="1014.63" y1="780.81" x2="673.859" y2="879.963" gradientUnits="userSpaceOnUse">
<stop stop-color="#C8B1E4"/>
<stop offset="1" stop-color="#60458D"/>
</linearGradient>
<linearGradient id="paint79_linear_379_3589" x1="1015.46" y1="783.669" x2="672.867" y2="876.764" gradientUnits="userSpaceOnUse">
<stop stop-color="#C8B1E4"/>
<stop offset="1" stop-color="#60458D"/>
</linearGradient>
<linearGradient id="paint80_linear_379_3589" x1="1016.24" y1="786.541" x2="671.935" y2="873.541" gradientUnits="userSpaceOnUse">
<stop stop-color="#C8B1E4"/>
<stop offset="1" stop-color="#60458D"/>
</linearGradient>
<linearGradient id="paint81_linear_379_3589" x1="1016.97" y1="789.426" x2="671.063" y2="870.293" gradientUnits="userSpaceOnUse">
<stop stop-color="#C8B1E4"/>
<stop offset="1" stop-color="#60458D"/>
</linearGradient>
<linearGradient id="paint82_linear_379_3589" x1="1017.64" y1="792.322" x2="670.252" y2="867.023" gradientUnits="userSpaceOnUse">
<stop stop-color="#C8B1E4"/>
<stop offset="1" stop-color="#60458D"/>
</linearGradient>
<linearGradient id="paint83_linear_379_3589" x1="1018.27" y1="795.23" x2="669.505" y2="863.733" gradientUnits="userSpaceOnUse">
<stop stop-color="#C8B1E4"/>
<stop offset="1" stop-color="#60458D"/>
</linearGradient>
<linearGradient id="paint84_linear_379_3589" x1="1018.84" y1="798.147" x2="668.82" y2="860.423" gradientUnits="userSpaceOnUse">
<stop stop-color="#C8B1E4"/>
<stop offset="1" stop-color="#60458D"/>
</linearGradient>
<linearGradient id="paint85_linear_379_3589" x1="1019.36" y1="801.073" x2="668.198" y2="857.095" gradientUnits="userSpaceOnUse">
<stop stop-color="#C8B1E4"/>
<stop offset="1" stop-color="#60458D"/>
</linearGradient>
<linearGradient id="paint86_linear_379_3589" x1="1019.83" y1="804.008" x2="667.641" y2="853.751" gradientUnits="userSpaceOnUse">
<stop stop-color="#C8B1E4"/>
<stop offset="1" stop-color="#60458D"/>
</linearGradient>
<linearGradient id="paint87_linear_379_3589" x1="1020.24" y1="806.949" x2="667.148" y2="850.391" gradientUnits="userSpaceOnUse">
<stop stop-color="#C8B1E4"/>
<stop offset="1" stop-color="#60458D"/>
</linearGradient>
<linearGradient id="paint88_linear_379_3589" x1="1020.61" y1="809.897" x2="666.721" y2="847.019" gradientUnits="userSpaceOnUse">
<stop stop-color="#C8B1E4"/>
<stop offset="1" stop-color="#60458D"/>
</linearGradient>
<linearGradient id="paint89_linear_379_3589" x1="1020.91" y1="812.851" x2="666.359" y2="843.634" gradientUnits="userSpaceOnUse">
<stop stop-color="#C8B1E4"/>
<stop offset="1" stop-color="#60458D"/>
</linearGradient>
<linearGradient id="paint90_linear_379_3589" x1="1021.17" y1="815.809" x2="666.063" y2="840.239" gradientUnits="userSpaceOnUse">
<stop stop-color="#C8B1E4"/>
<stop offset="1" stop-color="#60458D"/>
</linearGradient>
<linearGradient id="paint91_linear_379_3589" x1="1021.37" y1="818.769" x2="665.834" y2="836.836" gradientUnits="userSpaceOnUse">
<stop stop-color="#C8B1E4"/>
<stop offset="1" stop-color="#60458D"/>
</linearGradient>
<linearGradient id="paint92_linear_379_3589" x1="1021.52" y1="821.735" x2="665.671" y2="833.427" gradientUnits="userSpaceOnUse">
<stop stop-color="#C8B1E4"/>
<stop offset="1" stop-color="#60458D"/>
</linearGradient>
<linearGradient id="paint93_linear_379_3589" x1="1021.62" y1="824.7" x2="665.576" y2="830.011" gradientUnits="userSpaceOnUse">
<stop stop-color="#C8B1E4"/>
<stop offset="1" stop-color="#60458D"/>
</linearGradient>
<linearGradient id="paint94_linear_379_3589" x1="1021.66" y1="827.666" x2="665.548" y2="826.591" gradientUnits="userSpaceOnUse">
<stop stop-color="#C8B1E4"/>
<stop offset="1" stop-color="#60458D"/>
</linearGradient>
<linearGradient id="paint95_linear_379_3589" x1="1021.66" y1="830.633" x2="665.588" y2="823.171" gradientUnits="userSpaceOnUse">
<stop stop-color="#C8B1E4"/>
<stop offset="1" stop-color="#60458D"/>
</linearGradient>
<linearGradient id="paint96_linear_379_3589" x1="1021.59" y1="833.6" x2="665.694" y2="819.751" gradientUnits="userSpaceOnUse">
<stop stop-color="#C8B1E4"/>
<stop offset="1" stop-color="#60458D"/>
</linearGradient>
<linearGradient id="paint97_linear_379_3589" x1="1021.48" y1="836.565" x2="665.869" y2="816.332" gradientUnits="userSpaceOnUse">
<stop stop-color="#C8B1E4"/>
<stop offset="1" stop-color="#60458D"/>
</linearGradient>
<linearGradient id="paint98_linear_379_3589" x1="1021.31" y1="839.527" x2="666.111" y2="812.917" gradientUnits="userSpaceOnUse">
<stop stop-color="#C8B1E4"/>
<stop offset="1" stop-color="#60458D"/>
</linearGradient>
<linearGradient id="paint99_linear_379_3589" x1="1021.09" y1="842.485" x2="666.42" y2="809.506" gradientUnits="userSpaceOnUse">
<stop stop-color="#C8B1E4"/>
<stop offset="1" stop-color="#60458D"/>
</linearGradient>
</defs>
</svg>
