<svg width="157" height="37" viewBox="0 0 157 37" fill="none" xmlns="http://www.w3.org/2000/svg">
<path id="path4359" d="M0.719728 15.4833V0.44144H10.5388V3.74331H4.97932V6.35264H10.2182V9.57207H4.97932V12.1196H10.5388V15.4833H0.719728ZM13.4239 15.4833V0.44144H17.6395L23.6952 8.17465C23.8094 8.33129 24.0026 8.6487 24.2705 9.12687C24.5383 9.60092 24.8325 10.1698 25.1487 10.8293C25.0653 10.2028 24.9994 9.65039 24.9599 9.16397C24.9204 8.67755 24.8984 8.24472 24.8984 7.86961V0.44144H29.0921V15.4833H24.8984L18.8428 7.71709C18.7154 7.55632 18.5222 7.23891 18.2543 6.76899C17.9865 6.29081 17.6966 5.7302 17.3848 5.08301C17.4683 5.71371 17.5341 6.2702 17.5737 6.76074C17.6132 7.25128 17.6351 7.67999 17.6351 8.0551V15.4874H13.4195L13.4239 15.4833ZM40.1407 9.95131V6.79372H48.7258C48.7346 6.89677 48.739 7.01219 48.7434 7.13586C48.7434 7.2554 48.7434 7.43678 48.7434 7.67999C48.7434 10.2687 48.0188 12.2721 46.5609 13.6984C45.1073 15.1246 43.0566 15.8419 40.4174 15.8419C39.1219 15.8419 37.9626 15.6605 36.9526 15.2895C35.9426 14.9268 35.0424 14.3662 34.2432 13.6118C33.4879 12.8945 32.895 12.0454 32.4735 11.0602C32.0563 10.0791 31.8455 9.05267 31.8455 7.97678C31.8455 6.9009 32.0475 5.82088 32.4559 4.8769C32.8643 3.93705 33.4791 3.08788 34.2827 2.33764C35.0863 1.6039 36.0129 1.05152 37.0492 0.672283C38.09 0.297164 39.2098 0.107544 40.413 0.107544C41.9807 0.107544 43.3684 0.396097 44.5804 0.981446C45.7836 1.56267 46.8024 2.42833 47.628 3.57842L43.8382 5.285C43.3859 4.70377 42.8721 4.27095 42.3101 3.98651C41.7436 3.70208 41.1112 3.55781 40.4086 3.55781C39.1 3.55781 38.068 3.9659 37.3171 4.78622C36.5662 5.60653 36.1885 6.71952 36.1885 8.14167C36.1885 9.56382 36.5662 10.6974 37.3171 11.5177C38.068 12.3422 39.1 12.7544 40.4086 12.7544C41.5196 12.7544 42.4418 12.4947 43.1839 11.9877C43.9261 11.4765 44.3608 10.8005 44.4838 9.95543H40.1363L40.1407 9.95131ZM51.4133 15.4833V0.44144H61.2279V3.74331H55.6685V6.35264H60.9118V9.57207H55.6685V12.1196H61.2279V15.4833H51.4133ZM64.1174 15.4833V0.44144H68.3287L74.3888 8.17465C74.5029 8.33129 74.6962 8.6487 74.9596 9.12687C75.2275 9.60092 75.5217 10.1698 75.8423 10.8293C75.7545 10.2028 75.693 9.65039 75.6535 9.16397C75.6139 8.67755 75.592 8.24472 75.592 7.86961V0.44144H79.7857V15.4833H75.592L69.5363 7.71709C69.409 7.55632 69.2158 7.23891 68.9523 6.76899C68.6844 6.29081 68.3946 5.7302 68.0784 5.08301C68.1662 5.71371 68.2277 6.2702 68.2716 6.76074C68.3112 7.24716 68.3287 7.67999 68.3287 8.0551V15.4874H64.1174V15.4833ZM83.2153 15.4833V0.44144H87.5847V6.29081H93.412V0.44144H97.7858V15.4833H93.412V9.36183H87.5847V15.4833H83.2153ZM105.427 9.86474H109.77L108.141 4.89752C108.088 4.74912 108.018 4.50591 107.934 4.16789C107.846 3.83399 107.732 3.40117 107.596 2.87353C107.499 3.24452 107.407 3.59903 107.315 3.93293C107.227 4.2627 107.131 4.58423 107.038 4.89339L105.431 9.86062L105.427 9.86474ZM99.3008 15.4833L104.834 0.44144H110.305L115.839 15.4833H111.496L110.683 12.7915H104.478L103.648 15.4833H99.3008ZM117.371 15.4833V0.44144H121.943C123.73 0.44144 124.977 0.519762 125.675 0.672283C126.378 0.828926 126.988 1.08862 127.498 1.44725C128.073 1.85947 128.521 2.38299 128.828 3.0178C129.136 3.65674 129.289 4.35751 129.289 5.12836C129.289 6.29081 128.982 7.23891 128.376 7.96854C127.761 8.69816 126.874 9.18458 125.706 9.41955L130.075 15.4874H125.144L121.468 9.59268V15.4874H117.367L117.371 15.4833ZM121.473 7.5522H122.281C123.22 7.5522 123.91 7.4038 124.34 7.09876C124.775 6.79784 124.99 6.32379 124.99 5.68485C124.99 4.93049 124.788 4.39461 124.384 4.0772C123.976 3.75567 123.299 3.59903 122.342 3.59903H121.468V7.5522H121.473ZM131.854 15.4833V0.44144H136.271V15.4833H131.854ZM144.027 9.86474H148.37L146.74 4.89752C146.688 4.74912 146.617 4.50591 146.534 4.16789C146.446 3.83399 146.332 3.40117 146.196 2.87353C146.099 3.24452 146.007 3.59903 145.915 3.93293C145.827 4.2627 145.73 4.58423 145.638 4.89339L144.031 9.86062L144.027 9.86474ZM137.901 15.4833L143.434 0.44144H148.905L154.438 15.4833H150.095L149.283 12.7915H143.078L142.244 15.4833H137.896H137.901ZM0.719728 36.2261V21.1842H4.06153C6.54703 21.1842 8.30795 21.2914 9.33552 21.514C10.3719 21.7325 11.2721 22.0952 12.0538 22.6105C13.0726 23.2783 13.841 24.1275 14.3636 25.1621C14.8906 26.2009 15.154 27.3881 15.154 28.7155C15.154 30.0428 14.8906 31.2217 14.3636 32.2647C13.841 33.3034 13.0726 34.1526 12.0538 34.8204C11.2809 35.3274 10.3982 35.6861 9.40579 35.9045C8.41774 36.1189 6.87637 36.2261 4.79049 36.2261H0.715332H0.719728ZM5.04519 32.8624H5.77854C7.49116 32.8624 8.74709 32.5326 9.53753 31.8731C10.3236 31.2135 10.7144 30.1665 10.7144 28.7237C10.7144 27.2809 10.3236 26.2298 9.53753 25.5579C8.74709 24.8901 7.49555 24.5521 5.77854 24.5521H5.04519V32.8624ZM17.8942 36.2261V21.1842H27.7089V24.4902H22.1494V27.0954H27.3927V30.3149H22.1494V32.8624H27.7089V36.2261H17.8942ZM38.3271 31.366C38.977 32.0585 39.6182 32.5738 40.2505 32.9201C40.8829 33.2581 41.5108 33.4312 42.1344 33.4312C42.7185 33.4312 43.2015 33.2828 43.5748 32.9902C43.9524 32.6934 44.1369 32.3224 44.1369 31.8731C44.1369 31.3743 43.9788 30.9868 43.6494 30.7188C43.3288 30.4468 42.5955 30.1665 41.4494 29.882C39.8817 29.4822 38.7663 28.9669 38.1207 28.328C37.4708 27.689 37.1459 26.8193 37.1459 25.7104C37.1459 24.2676 37.6552 23.0969 38.6828 22.1901C39.706 21.2832 41.041 20.8297 42.6702 20.8297C43.5572 20.8297 44.3916 20.941 45.182 21.1636C45.9768 21.3862 46.7277 21.7242 47.4347 22.1736L46.0647 25.1209C45.5684 24.7211 45.059 24.4243 44.5365 24.2223C44.0183 24.0203 43.5001 23.9214 42.9907 23.9214C42.4813 23.9214 42.0422 24.0409 41.7128 24.28C41.3835 24.5108 41.221 24.82 41.221 25.1869C41.221 25.5538 41.3615 25.8629 41.6514 26.0896C41.9368 26.3164 42.4945 26.5307 43.3157 26.7368L43.5177 26.7863C45.2962 27.2397 46.473 27.7344 47.0307 28.2785C47.4128 28.6495 47.6982 29.0906 47.8958 29.6059C48.0978 30.1252 48.1901 30.6941 48.1901 31.3248C48.1901 32.9201 47.6324 34.2062 46.517 35.1708C45.4016 36.1436 43.9085 36.6259 42.051 36.6259C40.9356 36.6259 39.9168 36.4487 38.999 36.0942C38.0856 35.7355 37.2029 35.1749 36.3598 34.4164L38.3271 31.3619V31.366ZM67.086 28.7361C67.086 29.8202 66.8752 30.8343 66.4492 31.7782C66.0277 32.7263 65.4085 33.5714 64.6005 34.3175C63.7837 35.0554 62.8483 35.6242 61.7988 36.0282C60.7449 36.4281 59.6558 36.6259 58.5273 36.6259C57.3987 36.6259 56.2789 36.4239 55.2338 36.0282C54.1886 35.6242 53.2708 35.0554 52.4716 34.3175C51.646 33.5673 51.0225 32.7222 50.5921 31.7659C50.1662 30.8178 49.9554 29.8078 49.9554 28.7361C49.9554 27.6643 50.1662 26.6503 50.5921 25.698C51.0181 24.7499 51.646 23.9049 52.4716 23.1588C53.2708 22.4168 54.1842 21.8479 55.2338 21.4481C56.2789 21.0482 57.3811 20.8503 58.5273 20.8503C59.6734 20.8503 60.7625 21.0482 61.812 21.4481C62.8659 21.8479 63.7925 22.4168 64.5961 23.1588C65.3953 23.8966 66.0101 24.7417 66.4404 25.6939C66.8664 26.642 67.0772 27.6561 67.0772 28.7361H67.086ZM58.5273 33.155C59.7349 33.155 60.7361 32.7387 61.5265 31.9019C62.317 31.0651 62.7166 30.0098 62.7166 28.7319C62.7166 27.4541 62.317 26.4194 61.5134 25.5785C60.7097 24.7376 59.7085 24.3171 58.5273 24.3171C57.346 24.3171 56.314 24.7376 55.5236 25.5744C54.7332 26.4112 54.3335 27.4664 54.3335 28.7319C54.3335 29.9975 54.72 31.0775 55.5016 31.906C56.2833 32.7387 57.2889 33.1509 58.5273 33.1509V33.155ZM69.8218 36.2261V21.1842H79.6364V24.4902H74.077V27.0954H79.3202V30.3149H74.077V36.2261H69.8174H69.8218ZM84.322 36.2261V24.7417H80.7386V21.1842H92.2834V24.7417H88.6957V36.2261H84.3264H84.322ZM105.326 21.1842L107.337 28.3403C107.429 28.6578 107.521 28.9916 107.6 29.3462C107.684 29.6924 107.763 30.0964 107.855 30.5457C107.965 30.0098 108.057 29.5688 108.132 29.2225C108.211 28.8762 108.285 28.5836 108.356 28.3362L110.24 21.1801H114.649L110.117 36.222H106.068L104.087 29.7996C104.013 29.5729 103.89 29.1318 103.723 28.4723C103.653 28.1755 103.591 27.9487 103.547 27.7838C103.512 27.9281 103.464 28.1301 103.394 28.3898C103.222 29.0576 103.099 29.5234 103.011 29.7996L101.057 36.222H96.9954L92.4723 21.1801H96.8856L98.7255 28.3733C98.8134 28.7443 98.9012 29.1112 98.9846 29.4863C99.0681 29.8532 99.1471 30.2365 99.2174 30.624C99.2832 30.3355 99.3579 30.0346 99.4325 29.7172C99.5116 29.3997 99.6258 28.9504 99.7795 28.3733L101.791 21.1801H105.317L105.326 21.1842ZM120.002 30.6117H124.345L122.711 25.6444C122.663 25.4919 122.592 25.2528 122.509 24.9148C122.417 24.5768 122.307 24.1481 122.171 23.6205C122.074 23.9873 121.982 24.346 121.89 24.6798C121.802 25.0137 121.705 25.3353 121.613 25.6444L120.006 30.6117H120.002ZM113.876 36.2261L119.409 21.1842H124.88L130.413 36.2261H126.07L125.258 33.5343H119.053L118.223 36.2261H113.876ZM131.946 36.2261V21.1842H136.517C138.305 21.1842 139.552 21.2626 140.25 21.4151C140.953 21.5676 141.559 21.8314 142.072 22.1901C142.648 22.6023 143.096 23.1258 143.403 23.7606C143.71 24.3995 143.864 25.1003 143.864 25.867C143.864 27.0295 143.557 27.9817 142.951 28.7072C142.336 29.4368 141.449 29.9233 140.281 30.1623L144.65 36.2261H139.719L136.043 30.3355V36.2261H131.942H131.946ZM136.047 28.295H136.855C137.795 28.295 138.485 28.1425 138.915 27.8416C139.35 27.5406 139.565 27.0625 139.565 26.4235C139.565 25.6733 139.363 25.1333 138.959 24.8159C138.551 24.4985 137.874 24.3377 136.917 24.3377H136.043V28.295H136.047ZM146.319 36.2261V21.1842H156.138V24.4902H150.578V27.0954H155.822V30.3149H150.578V32.8624H156.138V36.2261H146.319Z" fill="white"/>
</svg>
