<svg id="Jogos_Digitais" data-name="Jogos Digitais" xmlns="http://www.w3.org/2000/svg" xmlns:xlink="http://www.w3.org/1999/xlink" viewBox="0 0 394.33 103.67"><defs><style>.cls-1,.cls-9{fill:#fff;}.cls-10,.cls-2,.cls-3,.cls-4,.cls-5,.cls-6,.cls-7,.cls-8,.cls-9{fill-rule:evenodd;}.cls-2{fill:url(#Gradiente_sem_nome_67);}.cls-3{fill:url(#Gradiente_sem_nome_84);}.cls-4{fill:url(#Gradiente_sem_nome_84-2);}.cls-5{fill:url(#Gradiente_sem_nome_59);}.cls-6{fill:url(#Gradiente_sem_nome_84-3);}.cls-7{fill:url(#Gradiente_sem_nome_67-2);}.cls-8{fill:#dadada;opacity:0.65;}.cls-10,.cls-8{isolation:isolate;}.cls-10{fill:#ededed;opacity:0.4;}</style><linearGradient id="Gradiente_sem_nome_67" x1="156.92" y1="632.14" x2="168.95" y2="630.02" gradientTransform="matrix(1, 0, 0, -1, -65.38, 666.19)" gradientUnits="userSpaceOnUse"><stop offset="0" stop-color="#b2b2b2"/><stop offset="1" stop-color="#dadada"/></linearGradient><linearGradient id="Gradiente_sem_nome_84" x1="119.15" y1="577.17" x2="106.85" y2="578.92" xlink:href="#Gradiente_sem_nome_67"/><linearGradient id="Gradiente_sem_nome_84-2" x1="119.48" y1="569.03" x2="114.11" y2="569.79" xlink:href="#Gradiente_sem_nome_67"/><linearGradient id="Gradiente_sem_nome_59" x1="131.28" y1="627.22" x2="162.72" y2="580.97" gradientTransform="matrix(1, 0, 0, -1, -65.38, 666.19)" gradientUnits="userSpaceOnUse"><stop offset="0" stop-color="#dadada"/><stop offset="1" stop-color="#cdcbcc"/></linearGradient><linearGradient id="Gradiente_sem_nome_84-3" x1="138.53" y1="604.15" x2="119.46" y2="606.88" xlink:href="#Gradiente_sem_nome_67"/><linearGradient id="Gradiente_sem_nome_67-2" x1="159.04" y1="605.55" x2="169.71" y2="603.67" xlink:href="#Gradiente_sem_nome_67"/></defs><path class="cls-1" d="M184,23V48.66a42.91,42.91,0,0,1-.35,6.45,11,11,0,0,1-1.14,3.49,7.66,7.66,0,0,1-3.45,3.3A12.53,12.53,0,0,1,173.55,63,10,10,0,0,1,167,61a9.69,9.69,0,0,1-3.15-6l6-2.88a5.43,5.43,0,0,0,.94,2.77,2.42,2.42,0,0,0,2,.93A2.27,2.27,0,0,0,175,54.62c.41-.78.61-2.5.61-5.19V23Z" transform="translate(-0.13 -18.88)"/><path class="cls-1" d="M232.33,42.56a20.26,20.26,0,0,1-1.56,7.91A19.36,19.36,0,0,1,226.29,57a21.7,21.7,0,0,1-6.85,4.44,20.8,20.8,0,0,1-14.87.34,21.59,21.59,0,0,1-6.28-3.48,19.81,19.81,0,0,1-7.59-15.77,20.22,20.22,0,0,1,1.55-7.89,19.56,19.56,0,0,1,4.53-6.57,21.38,21.38,0,0,1,14.78-6,20.72,20.72,0,0,1,7.92,1.57,21.33,21.33,0,0,1,6.81,4.42,19.7,19.7,0,0,1,4.5,6.58A20.24,20.24,0,0,1,232.33,42.56Zm-20.77,13a11.42,11.42,0,0,0,8.75-3.72,13.16,13.16,0,0,0,3.45-9.31,13.26,13.26,0,0,0-3.49-9.32,12,12,0,0,0-17.5,0,13.19,13.19,0,0,0-3.49,9.33,13.12,13.12,0,0,0,3.44,9.34A11.52,11.52,0,0,0,211.56,55.59Z" transform="translate(-0.13 -18.88)"/><path class="cls-1" d="M258.73,41.42h17.76a5.64,5.64,0,0,1,.07.74c0,.27,0,.68,0,1.23q0,8.76-5,14.19A16.76,16.76,0,0,1,258.62,63a20.48,20.48,0,0,1-15-5.79,19.8,19.8,0,0,1-5.88-14.72,19.57,19.57,0,0,1,5.91-14.62,20.47,20.47,0,0,1,14.94-5.78,19.07,19.07,0,0,1,8.74,2,21.18,21.18,0,0,1,7.08,6l-5.62,4.16a13.57,13.57,0,0,0-4.42-3.77,11.83,11.83,0,0,0-5.35-1.16,12.27,12.27,0,0,0-9.25,3.59,13.33,13.33,0,0,0-3.46,9.62,13.25,13.25,0,0,0,3.48,9.55,12,12,0,0,0,9.07,3.63,10.76,10.76,0,0,0,6.66-1.93,6,6,0,0,0,2.55-5v-.43h-9.37Z" transform="translate(-0.13 -18.88)"/><path class="cls-1" d="M323.1,42.56a20.26,20.26,0,0,1-1.56,7.91A19.36,19.36,0,0,1,317.06,57a21.7,21.7,0,0,1-6.85,4.44,20.8,20.8,0,0,1-14.87.34,21.59,21.59,0,0,1-6.28-3.48,19.81,19.81,0,0,1-7.59-15.77A20.22,20.22,0,0,1,283,34.67a19.56,19.56,0,0,1,4.53-6.57,21.38,21.38,0,0,1,14.78-6,20.72,20.72,0,0,1,7.92,1.57,21.33,21.33,0,0,1,6.81,4.42,19.7,19.7,0,0,1,4.5,6.58A20.24,20.24,0,0,1,323.1,42.56Zm-20.77,13a11.42,11.42,0,0,0,8.75-3.72,13.16,13.16,0,0,0,3.45-9.31A13.26,13.26,0,0,0,311,33.24a12,12,0,0,0-17.5,0,13.19,13.19,0,0,0-3.49,9.33,13.12,13.12,0,0,0,3.44,9.34A11.51,11.51,0,0,0,302.33,55.59Z" transform="translate(-0.13 -18.88)"/><path class="cls-1" d="M327.63,57l4.64-5.25a7,7,0,0,0,2.82,3.39,7.91,7.91,0,0,0,4.37,1.24A7.16,7.16,0,0,0,344.09,55a4.56,4.56,0,0,0,1.71-3.73c0-1.85-1.9-3.69-5.68-5.51-1.22-.59-2.19-1.07-2.9-1.44q-5.12-2.67-7.09-5.21a9.64,9.64,0,0,1-2-6.06A9.76,9.76,0,0,1,332,25.16a15.21,15.21,0,0,1,9.92-3.11A14,14,0,0,1,348,23.29a12.46,12.46,0,0,1,4.54,3.88l-4.93,4.71a6,6,0,0,0-2.33-2.54,6.87,6.87,0,0,0-3.5-.84,6.08,6.08,0,0,0-4,1.24A3.91,3.91,0,0,0,336.29,33c0,2.06,2,3.94,6,5.64l1.83.8a20.52,20.52,0,0,1,7.34,5.12,9.84,9.84,0,0,1,2.39,6.5,11,11,0,0,1-3.75,8.74Q346.39,63,340.07,63a17.49,17.49,0,0,1-7.67-1.55A10.41,10.41,0,0,1,327.63,57Z" transform="translate(-0.13 -18.88)"/><path class="cls-1" d="M168.2,119.83v-39h10.62a43.68,43.68,0,0,1,9.91.88,17.17,17.17,0,0,1,6.37,2.93,16.83,16.83,0,0,1,5.36,6.64,21.79,21.79,0,0,1,1.83,9.13,21.48,21.48,0,0,1-1.87,9.2,16.79,16.79,0,0,1-5.46,6.62A17.63,17.63,0,0,1,189,119a40.91,40.91,0,0,1-9.55.84H168.2Zm8.33-7h4.64q6.56,0,9.55-3t3-9.46q0-6.44-3-9.44t-9.55-3h-4.64Z" transform="translate(-0.13 -18.88)"/><path class="cls-1" d="M209.43,119.83v-39h8.33v39Z" transform="translate(-0.13 -18.88)"/><path class="cls-1" d="M246,99.27h17.77q0,.35.06.75c0,.26,0,.67,0,1.22q0,8.76-5,14.2a16.8,16.8,0,0,1-12.94,5.43,20.45,20.45,0,0,1-15-5.79,19.76,19.76,0,0,1-5.89-14.72A19.59,19.59,0,0,1,231,85.74,20.55,20.55,0,0,1,245.92,80a19.16,19.16,0,0,1,8.73,2,21.12,21.12,0,0,1,7.09,6l-5.62,4.16a13.77,13.77,0,0,0-4.42-3.77,11.88,11.88,0,0,0-5.36-1.16,12.23,12.23,0,0,0-9.24,3.6q-3.47,3.59-3.46,9.61a13.27,13.27,0,0,0,3.47,9.55,12,12,0,0,0,9.07,3.64,10.79,10.79,0,0,0,6.66-1.93,6,6,0,0,0,2.56-5.05v-.43H246Z" transform="translate(-0.13 -18.88)"/><path class="cls-1" d="M270.63,119.83v-39H279v39Z" transform="translate(-0.13 -18.88)"/><path class="cls-1" d="M302.43,87.92v31.91h-8.36V87.92h-9.53V80.84H312v7.08Z" transform="translate(-0.13 -18.88)"/><path class="cls-1" d="M309.81,119.83l14.84-39h9.53l15.05,39h-9.48l-3.17-8.28h-15.1l-2.72,8.28ZM334.63,105l-4.36-12.6a17.21,17.21,0,0,1-.48-1.92c-.2-.9-.4-2-.62-3.33-.23,1.26-.45,2.39-.66,3.4s-.37,1.67-.48,2L323.82,105Z" transform="translate(-0.13 -18.88)"/><path class="cls-1" d="M353.49,119.83v-39h8.34v39Z" transform="translate(-0.13 -18.88)"/><path class="cls-1" d="M368.22,114.88l4.64-5.25a7.07,7.07,0,0,0,2.82,3.4,8,8,0,0,0,4.37,1.24,7.14,7.14,0,0,0,4.63-1.39,4.55,4.55,0,0,0,1.71-3.73c0-1.85-1.9-3.68-5.68-5.51-1.22-.59-2.19-1.07-2.9-1.44q-5.12-2.67-7.08-5.21a9.55,9.55,0,0,1-2-6.06A9.76,9.76,0,0,1,372.58,83a15.21,15.21,0,0,1,9.92-3.1,13.88,13.88,0,0,1,6.11,1.24A12.33,12.33,0,0,1,393.15,85l-4.93,4.72a6,6,0,0,0-2.33-2.55,6.85,6.85,0,0,0-3.5-.84,6.14,6.14,0,0,0-4,1.24,3.94,3.94,0,0,0-1.52,3.21c0,2.06,2,3.94,6,5.65.8.33,1.41.6,1.83.8a20.51,20.51,0,0,1,7.34,5.11,9.86,9.86,0,0,1,2.39,6.5,11,11,0,0,1-3.75,8.75q-3.73,3.26-10,3.26a17.49,17.49,0,0,1-7.67-1.54A10.43,10.43,0,0,1,368.22,114.88Z" transform="translate(-0.13 -18.88)"/><path class="cls-2" d="M85.79,25.68C82.17,27.3,78,31.21,73.42,38.18V38a70.3,70.3,0,0,1,9.32-12.38Z" transform="translate(-0.13 -18.88)"/><path class="cls-3" d="M36.69,81.1a38,38,0,0,0,4.45,11.59l.5-.57c.42-.47.83-.9,1.24-1.32A21.94,21.94,0,0,1,36.69,81.1Z" transform="translate(-0.13 -18.88)"/><path class="cls-4" d="M46,98.17a11.94,11.94,0,0,0,3.08,1.62L50,93.21h-.38C48.67,94.57,47.53,96.19,46,98.17Z" transform="translate(-0.13 -18.88)"/><path class="cls-5" d="M89.26,62.41c-3,10-9.63,16.92-14.72,15.38a6.24,6.24,0,0,1-3.62-3.29,4.71,4.71,0,0,0,2.17,1.42c4.46,1.35,10.28-4.74,13-13.61C89.53,50.89,84.9,34.07,72.76,51,87.14,29.9,93.67,47.75,89.26,62.41Z" transform="translate(-0.13 -18.88)"/><path class="cls-6" d="M77.21,62.31c2.93-22.48-3.95-41.9-15.35-43.38a13.45,13.45,0,0,0-10,3.28,10.13,10.13,0,0,1,5.53-.88c10,1.31,16.09,18.44,13.48,38.35-2.48,18.75-11.66,33.2-21.11,33.61-.15,0-2.25,5.51-2.4,5.79a11.35,11.35,0,0,0,4,1.31C62.67,101.81,74.29,84.79,77.21,62.31Z" transform="translate(-0.13 -18.88)"/><path class="cls-7" d="M108.36,64.24c-4.75,22.27-17.74,38.35-29,35.94a13.54,13.54,0,0,1-8.42-6.46,10.25,10.25,0,0,0,5,2.68c9.9,2.1,21.34-12.11,25.55-31.74,4.3-20.06-2.65-47-17.23-38.15L82,26.29C102.68,4.13,114.31,36.32,108.36,64.24Z" transform="translate(-0.13 -18.88)"/><path class="cls-8" d="M64.79,27.08C28.34,24.44,18.21,30.3,9.17,69.28c-10.5,45.56-1.95,72,35.95,25.1,16.35-20.21,15.2-3.9,45.77-8.66,15.59-2.48,13.83-6.66,26,7.22,63.76,72.81,37.8-46.48,15.4-62.31-17.43-12.37-39.51.11-57.45-1.79Zm0,0,10.09,1.06C92,29.2,104.3,20.72,123.67,24.9c26.69,5.82,37.87,61.1,34.92,80.8-4.83,32.38-35.45-1.39-44-11-16-18-13-2-44.24-5.71C44.6,86,60.63,84.69,35.84,109.55,13.14,132.3,4.05,121,2.89,102.78,2.21,92.05,5,79,7.43,68.88,16.84,30,27.84,22.47,64.79,27.08Z" transform="translate(-0.13 -18.88)"/><path class="cls-9" d="M64.81,26.67C28.42,23.34,18.13,29,8.38,67.74c-9.13,36.41-5.85,60.48,15.91,44.81,5.34-3.86,11.9-9.9,19.56-19,16.72-19.87,15.27-3.6,45.91-7.78,15.64-2.12,14-6.39,25.85,7.72,62.33,74,38.69-45.77,16.6-62-17.18-12.7-39.51-.64-57.4-2.91Zm0,0,10.07,1.24c17,1.37,29.56-6.9,48.84-2.3,26.56,6.33,36.67,61.85,33.4,81.46-5.45,32.27-35.43-2.08-43.75-11.83C97.74,76.92,100.44,93,69.25,88.67c-25.73-3.55-9.66-4.51-34.94,19.87C11.52,130.52,2,119.8,1,102,.42,91.13,3.18,77.28,5.89,67,16,28.28,28,21.34,64.81,26.67Z" transform="translate(-0.13 -18.88)"/><path class="cls-10" d="M64.85,26a100.8,100.8,0,0,0-25.09-.29C22.72,27.75,15,37.59,7.08,65.17c-12.88,44.94-5.74,71.75,34.64,27C59.11,72.81,57.12,89,87.88,85.94c15.7-1.6,14.17-5.91,25.56,8.58a108.51,108.51,0,0,0,19.24,19.54c35.87,27.36,18.26-66.1-.57-81-16.75-13.27-39.46-2-57.26-4.81Zm0,0,10,1.59c17,1.94,29.77-5.91,48.88-.67,26.34,7.22,35.14,63,31.17,82.47-6.53,32.07-35.87-3.19-43.88-13.23-15-18.83-12.85-2.68-43.87-8-11.66-2-14.22-2.89-16.49-1.36C48,88.57,45.74,94,31.59,106.8-6.31,141-2.67,91.54,5.36,64.74,16.82,26.34,28.2,19.41,64.85,26Z" transform="translate(-0.13 -18.88)"/></svg>