<svg width="49" height="47" viewBox="0 0 49 47" fill="none" xmlns="http://www.w3.org/2000/svg">
<path opacity="0.7" fill-rule="evenodd" clip-rule="evenodd" d="M29.3242 41.7416C36.8985 44.7516 45.7078 45.5011 47.7986 35.3348V35.3268L47.8288 35.0836C48.1778 31.9341 47.6006 29.3825 46.6777 26.7433L46.6609 26.7752C45.879 28.2224 44.9192 29.5978 43.8017 30.8776C41.0364 34.1428 37.0193 37.1089 31.4082 38.6119C31.4082 38.6119 31.4082 38.6119 31.4048 38.6119C30.784 38.7874 30.1497 38.9428 29.5087 39.0744C27.9315 39.3973 26.3743 39.5688 24.8507 39.6047C26.3139 40.4339 27.814 41.1436 29.3275 41.7456L29.3242 41.7416Z" fill="white"/>
<path opacity="0.7" fill-rule="evenodd" clip-rule="evenodd" d="M5.19835 16.1184C7.96364 12.8533 11.9874 9.88311 17.5985 8.38408C18.2194 8.20866 18.8503 8.05717 19.4879 7.9256C21.0652 7.60267 22.6224 7.43124 24.1459 7.39536C22.6828 6.56611 21.1827 5.85646 19.6691 5.25446C12.0981 2.24842 3.29218 1.4989 1.19808 11.6652C1.19808 11.6652 1.19808 11.6692 1.19808 11.6732C0.788655 14.9344 1.37259 17.5537 2.31896 20.2567C2.32567 20.2488 2.32903 20.2368 2.33574 20.2248C3.11767 18.7776 4.08082 17.3982 5.19835 16.1224V16.1184Z" fill="white"/>
<path opacity="0.7" fill-rule="evenodd" clip-rule="evenodd" d="M25.2299 43.4798C17.1757 40.3302 9.58119 33.5487 5.13793 26.1453C4.01034 36.7182 13.011 46.9842 29.5826 44.7875C28.1999 44.5004 26.7434 44.0699 25.2299 43.4758V43.4798Z" fill="white"/>
<path fill-rule="evenodd" clip-rule="evenodd" d="M29.5826 44.7915C13.011 46.9843 4.01034 36.7223 5.13794 26.1493C3.98349 24.2237 3.04048 22.2582 2.35922 20.3047C1.44977 22.007 0.835629 23.6576 0.473189 25.1008C0.211426 26.2251 0.0570531 27.3653 0.0134259 28.5175C-0.127523 34.8006 3.33244 40.6493 8.96705 43.9583C13.417 46.446 19.1053 47.367 25.0453 46.147C26.183 45.9118 27.2904 45.6088 28.3643 45.242C28.3711 45.242 28.3744 45.242 28.3811 45.238C28.7872 45.0985 29.1899 44.947 29.5859 44.7915H29.5826Z" fill="white"/>
<path opacity="0.9" fill-rule="evenodd" clip-rule="evenodd" d="M17.6052 8.38814C17.6052 8.38814 17.6052 8.38814 17.6018 8.38814C17.6018 8.38814 17.6018 8.38814 17.6052 8.38814ZM5.13791 26.1453C5.94668 18.5624 11.9706 10.8161 24.1493 7.39941C21.7598 7.51104 19.5852 7.85789 17.6052 8.38814C17.6052 8.38814 17.6052 8.38814 17.6018 8.38814C17.6018 8.38814 17.6018 8.38814 17.5985 8.38814C12.5981 9.79946 8.29919 12.5822 5.20167 16.1185C4.04052 17.49 3.10421 18.9093 2.36255 20.3007C3.0438 22.2542 3.98682 24.2197 5.14126 26.1453H5.13791Z" fill="white"/>
<path opacity="0.5" fill-rule="evenodd" clip-rule="evenodd" d="M0.0100678 29.5779C0.0436271 30.3274 0.097322 31.0012 0.18122 31.5713C0.0838983 30.9095 0.0302034 30.2437 0.0100678 29.5819H0.00671186L0.0100678 29.5779ZM2.32231 20.2568C1.49003 21.8037 0.865831 23.4303 0.476542 25.0968C0.30539 25.7705 0.191288 26.3965 0.12417 26.9626C0.0637627 27.4809 0.0268475 27.9952 0.0167797 28.5095C0.00335594 28.8603 0.00335594 29.2151 0.0100678 29.5699C0.00671188 29.4703 0.00335593 29.3706 0 29.2669C0 25.9659 0.375864 19.906 0.681254 16.0627C0.855763 14.3324 1.04034 12.8015 1.20142 11.6653C0.792 14.9265 1.37593 17.5458 2.32231 20.2488V20.2568Z" fill="white"/>
<path opacity="0.7" fill-rule="evenodd" clip-rule="evenodd" d="M23.7701 3.52429C31.8244 6.67385 39.4188 13.4554 43.8621 20.8549C44.9897 10.2819 35.9891 0.0159211 19.4175 2.21264C20.8001 2.49969 22.2566 2.93026 23.7701 3.52429Z" fill="white"/>
<path fill-rule="evenodd" clip-rule="evenodd" d="M19.4141 2.2126C35.9857 0.0198695 44.9863 10.2819 43.8587 20.8548C45.0131 22.7804 45.9561 24.7459 46.6374 26.6994C47.5468 24.9971 48.161 23.3465 48.5234 21.9033C48.7852 20.7791 48.9429 19.6349 48.9832 18.4827C49.1241 12.1995 45.6642 6.35088 40.0296 3.04185C35.5796 0.554099 29.8913 -0.366849 23.9513 0.853108C22.8136 1.08833 21.7062 1.39132 20.6323 1.75811C20.6256 1.75811 20.6222 1.75811 20.6155 1.7621C20.2094 1.90163 19.8067 2.04914 19.4107 2.20861L19.4141 2.2126Z" fill="white"/>
<path opacity="0.9" fill-rule="evenodd" clip-rule="evenodd" d="M43.8587 20.8549C43.0499 28.4377 37.026 36.184 24.8474 39.6007C27.2401 39.4891 29.4215 39.1422 31.4015 38.612C36.4018 37.2007 40.7008 34.4179 43.7983 30.8776C44.9561 29.5102 45.8924 28.0869 46.6341 26.6995C45.9528 24.746 45.0098 22.7805 43.8554 20.8549H43.8587Z" fill="white"/>
<path opacity="0.5" fill-rule="evenodd" clip-rule="evenodd" d="M48.5269 21.9033C48.1376 23.5738 47.51 25.2004 46.6777 26.7473C47.6241 29.4543 48.208 32.0736 47.7986 35.3388C47.7986 35.3388 47.7986 35.3348 47.7986 35.3308C47.9563 34.1946 48.1409 32.6637 48.3188 30.9334C48.6242 27.0902 49 21.0342 49 17.7332C48.9967 17.6295 48.9933 17.5298 48.99 17.4302C49 17.785 48.9967 18.1358 48.9866 18.4907C48.9765 19.005 48.9396 19.5193 48.8792 20.0375C48.8121 20.6037 48.698 21.2336 48.5269 21.9073V21.9033Z" fill="white"/>
</svg>
