<svg width="101" height="85" viewBox="0 0 101 85" fill="none" xmlns="http://www.w3.org/2000/svg">
<path id="Vector" d="M55.1898 82.2604C56.7127 83.497 58.558 84.3285 60.6132 84.4518C62.1011 84.5505 63.7017 84.2827 65.38 83.5358C66.1026 83.2116 66.8369 82.8875 67.5867 82.5775C67.8819 82.4612 68.1772 82.3414 68.4841 82.2357C71.7242 81.0378 75.2944 80.467 79.6883 82.7325C80.5508 83.1764 81.4482 83.7331 82.3806 84.4236C78.2276 76.8769 81.8289 72.8851 85.0807 69.1716C87.8467 66.0218 87.6331 62.6677 85.9004 59.8738C85.3293 58.9577 83.5383 57.411 80.0069 56.2272C79.902 56.192 79.7971 56.1568 79.6883 56.1215C77.4234 55.3852 74.5019 54.67 71.3978 53.9442C71.6037 53.4368 71.7902 52.926 71.9573 52.408C72.0466 52.1297 72.136 51.8479 72.2137 51.566C74.9875 52.6864 77.5477 53.6729 79.6883 54.3212H79.7039C83.278 55.4028 85.7489 55.2125 86.8211 54.8179C90.0961 53.62 92.5709 51.1256 92.5825 47.0915C92.5903 42.3563 92.5281 37.1947 100.966 33.6539C91.6696 33.6962 89.3075 29.0068 87.0775 24.719C85.442 21.5763 82.672 20.174 79.6883 19.9591C79.2105 19.9239 78.7287 19.9168 78.2431 19.9415C77.0893 20.0014 74.7622 20.78 72.0311 23.1265C70.9394 24.0707 69.7467 25.2263 68.4841 26.5123C68.1927 26.8153 67.8897 27.1183 67.5867 27.4319C67.1438 27.8899 66.697 28.3514 66.2425 28.8306C65.7452 28.4818 65.2246 28.1682 64.6807 27.8969C65.7646 26.5405 66.7631 25.2545 67.5867 24.0848C67.7654 23.8241 67.9363 23.5669 68.1073 23.3167C68.2393 23.1194 68.3637 22.9221 68.4841 22.7284C70.0847 20.0965 70.3605 18.0988 70.1857 17.1299C69.9293 15.7524 69.3815 14.4523 68.4841 13.3566C68.216 13.0289 67.9169 12.7189 67.5867 12.43C66.4756 11.4646 65.0032 10.7318 63.1267 10.3442C62.2953 10.1751 61.4562 10.006 60.6171 9.80515C56.3125 8.76932 52.1401 6.89848 50.489 0C48.8728 6.72585 44.8674 8.67067 40.6755 9.72411C39.7393 9.96017 38.7836 10.1504 37.8473 10.3442C35.967 10.7318 34.4946 11.4646 33.3835 12.43C33.1853 12.6061 32.9911 12.7964 32.8085 12.9866C31.7168 14.1599 31.0642 15.5973 30.7844 17.1299C30.598 18.1552 30.9204 20.3537 32.8085 23.2392L32.8629 23.3167C33.0261 23.5669 33.197 23.8206 33.3796 24.0848C34.1954 25.2545 35.1939 26.5405 36.2855 27.8969C35.7339 28.1682 35.2133 28.4818 34.7199 28.8271C34.2615 28.355 33.8186 27.8899 33.3757 27.4319C33.1815 27.231 32.995 27.0373 32.8007 26.84C31.4138 25.4236 30.1162 24.1447 28.9274 23.123C26.2002 20.773 23.877 19.9943 22.7193 19.938C22.2336 19.9133 21.748 19.9168 21.2779 19.9556C18.2826 20.167 15.5204 21.5692 13.8849 24.7155C11.651 29.0032 9.29671 33.6926 0 33.6504C8.43425 37.1912 8.37209 42.3527 8.38375 47.088C8.3954 51.1221 10.874 53.6165 14.149 54.8144C15.2213 55.209 17.6882 55.3993 21.2624 54.3212H21.2779C23.4108 53.6729 25.9749 52.6758 28.7448 51.5625C28.8225 51.8443 28.9119 52.1262 29.0051 52.4045C29.1683 52.9224 29.3548 53.4333 29.5607 53.9407C26.4605 54.67 23.5351 55.3817 21.274 56.118C21.1653 56.1497 21.0604 56.1849 20.9516 56.2237C17.424 57.4075 15.6253 58.9542 15.0581 59.8703C13.3215 62.6642 13.1117 66.0183 15.8778 69.1681C19.1295 72.878 22.7348 76.8734 18.5818 84.4201C19.5142 83.7331 20.4116 83.1799 21.274 82.729C25.8156 80.386 29.4752 81.0766 32.7968 82.3485C32.995 82.4295 33.1815 82.5035 33.3718 82.5775C34.1216 82.8875 34.8598 83.2116 35.5785 83.5358C37.3772 84.3356 39.0866 84.5822 40.6639 84.4272C42.5947 84.2404 44.3196 83.4371 45.7726 82.2604C46.6312 81.5557 47.9093 79.6356 48.4222 76.2568C48.764 74.0618 48.9039 71.2679 49.036 68.2485C49.5061 68.2978 49.9878 68.3401 50.4773 68.3648C50.9629 68.3401 51.4447 68.2978 51.9147 68.2485C52.0429 71.2679 52.1867 74.0618 52.5247 76.2568C53.0414 79.6356 54.3156 81.5557 55.182 82.2604H55.1898ZM67.5867 29.8277L68.4841 29.0807L70.3333 27.5376C72.237 25.9556 75.5975 22.7389 76.3939 22.6966C77.8702 22.6227 78.8259 23.1053 79.6883 24.0672C80.2361 24.6802 80.745 25.48 81.3317 26.4595C83.041 29.3097 86.9882 34.9046 91.8249 35.5036C87.7302 37.9064 86.7706 44.4913 86.5647 47.7292C86.3821 50.5865 86.1024 52.2178 83.8569 53.0387C83.414 53.2008 81.5958 52.7005 79.6883 52.1086C78.4063 51.7175 77.0854 51.2877 76.1064 50.9917C74.77 50.5901 73.7404 50.3293 72.6177 50.0122C73.3869 46.5806 73.4413 43.0539 72.8197 39.8125C72.136 36.3175 70.6791 33.1465 68.488 30.7825C68.1966 30.4689 67.8975 30.1765 67.5906 29.8946L67.5478 29.8594L67.5906 29.8241L67.5867 29.8277ZM67.5867 36.4372C67.9286 37.1102 68.2277 37.8219 68.4841 38.5723C68.5851 38.8894 68.69 39.2136 68.7794 39.5483H51.8176V30.9234C55.1004 29.729 58.0879 29.648 60.6171 30.4125C63.6629 31.3391 66.0715 33.4953 67.5867 36.4372ZM28.1543 39.8125C27.5288 43.0574 27.5832 46.5841 28.3486 50.0122C27.2219 50.3293 26.1963 50.5901 24.8599 50.9917C23.8847 51.2877 22.56 51.714 21.2818 52.1086C19.3704 52.7005 17.5561 53.2008 17.1094 53.0387C14.8716 52.2178 14.5919 50.5865 14.4054 47.7292C14.1918 44.4949 13.2361 37.9064 9.13743 35.5036C13.9781 34.9046 17.9213 29.3062 19.6346 26.4595C20.2212 25.4835 20.734 24.6802 21.2818 24.0672C22.1443 23.1053 23.1 22.6227 24.5724 22.6966C25.3649 22.7389 28.7332 25.9521 30.6213 27.5376L32.8046 29.352L33.3796 29.8277L33.4184 29.8629L33.3796 29.8946C33.1853 30.0743 32.9911 30.2575 32.8046 30.4478C30.4348 32.8471 28.8614 36.1519 28.1543 39.816V39.8125ZM46.7205 71.8492C46.3282 74.164 45.9241 78.5751 45.322 79.0648C43.9273 80.1958 42.5636 80.15 40.6717 79.5545C40.1278 79.3819 39.5334 79.167 38.8768 78.9239C37.5132 78.4024 35.5357 77.733 33.3796 77.2891C33.1892 77.2433 33.0027 77.2116 32.8046 77.1728C29.8987 76.6338 26.7596 76.5492 24.4558 77.8C25.7495 74.2979 23.3175 69.7564 21.2818 66.8145C20.8778 66.2297 20.4893 65.7082 20.1474 65.2678C18.3292 62.939 17.4202 61.505 18.609 59.5919C18.7916 59.296 19.9104 58.845 21.2818 58.3658C22.8552 57.8162 24.7783 57.2313 26.072 56.798C27.6648 56.2625 28.7643 55.8221 30.1823 55.3464C30.901 56.8473 31.7712 58.2707 32.8046 59.6025C32.9911 59.8421 33.1853 60.0816 33.3796 60.3142C35.3026 62.5796 37.723 64.528 40.6717 65.9443C42.6685 66.8991 44.9063 67.6143 47.381 68.0265L46.7205 71.8563V71.8492ZM49.1564 64.757C45.9746 64.1193 43.1114 63.1222 40.6678 61.7411C37.4433 59.916 34.9452 57.4181 33.3757 54.1767C33.1776 53.7469 32.9794 53.3029 32.8007 52.8414C31.6469 49.8185 31.2467 46.2072 31.744 41.9581H49.1525V64.7605L49.1564 64.757ZM49.1564 39.5447H32.1908C32.3617 38.907 32.5637 38.2799 32.8046 37.6915C32.9833 37.2546 33.1776 36.8389 33.3796 36.4302C34.953 33.3896 37.4705 31.1806 40.6717 30.3139C43.1347 29.6409 46.0057 29.7678 49.1603 30.9163V39.5412L49.1564 39.5447ZM50.5744 28.1717H50.3646C46.7205 26.7096 43.4805 26.2586 40.6717 26.6004C39.7742 26.7096 38.9195 26.8963 38.1115 27.1606C37.8434 26.7237 37.5637 26.2798 37.2335 25.783C36.0369 23.9685 33.7331 20.7871 33.3796 19.6561C33.3446 19.5328 33.3252 19.4341 33.3446 19.3672C33.3563 19.2967 33.3679 19.2368 33.3796 19.1734C33.838 17.1652 35.528 16.5768 38.4728 15.8123C39.0983 15.6502 39.8597 15.4353 40.6717 15.1746C44.273 14.0154 49.102 11.8768 50.4851 8.48746C51.907 11.9755 56.9846 14.1422 60.6132 15.2767C61.3047 15.4916 61.9457 15.6713 62.4974 15.8123C65.4344 16.5733 67.1205 17.1617 67.5828 19.1699C67.5906 19.2368 67.61 19.3003 67.6216 19.3672C67.6294 19.4341 67.6216 19.5328 67.5828 19.6526C67.2293 20.7765 64.8944 23.9509 63.725 25.7795L62.8548 27.1571C62.14 26.921 61.3979 26.7484 60.6132 26.6356C57.7266 26.2199 54.3817 26.6427 50.5977 28.1682H50.5783L50.5744 28.1717ZM51.8098 64.7605V41.9581H69.2494C69.6845 45.7668 69.3893 49.0821 68.4802 51.9289C68.2238 52.7146 67.9285 53.4615 67.5828 54.1767C66.0676 57.2983 63.6862 59.7469 60.6132 61.5614C58.1074 63.0376 55.1393 64.1016 51.8137 64.7675L51.8098 64.7605ZM53.5775 68.0195C56.1921 67.5861 58.5347 66.811 60.6093 65.7787C63.4142 64.38 65.7258 62.4951 67.5789 60.3071C67.8897 59.9337 68.185 59.5567 68.4763 59.1621C69.366 57.9607 70.1352 56.6747 70.7762 55.3358C72.1903 55.8115 73.2937 56.2519 74.8826 56.7874C76.1724 57.2243 78.0994 57.8056 79.6767 58.3553C81.0519 58.8344 82.163 59.2854 82.3495 59.5813C83.5383 61.4945 82.6254 62.9284 80.8033 65.2573C80.4614 65.6977 80.0729 66.2191 79.6728 66.804C77.6332 69.7494 75.209 74.2908 76.4988 77.7894C74.2727 76.5844 71.2774 76.6232 68.4686 77.1024C68.1616 77.1552 67.8703 77.2151 67.5711 77.2785C65.415 77.7225 63.4336 78.3919 62.07 78.9133C61.5456 79.1071 61.0522 79.2903 60.5976 79.4453C58.5308 80.1323 57.0973 80.2557 55.621 79.0578C55.0266 78.5715 54.6187 74.1569 54.2263 71.8422L53.5658 68.0124L53.5775 68.0195Z" fill="white"/>
</svg>
