<svg width="49" height="59" viewBox="0 0 49 59" fill="none" xmlns="http://www.w3.org/2000/svg">
<g id="Group">
<path id="Vector" opacity="0.8" fill-rule="evenodd" clip-rule="evenodd" d="M12.0762 17.4698L24.1084 11.6575L48.1993 23.3192V17.4904L24.0865 5.81641L6.05127 14.5472L12.0762 17.4698Z" fill="white"/>
<path id="Vector_2" opacity="0.8" fill-rule="evenodd" clip-rule="evenodd" d="M15.0798 24.7826L42.1831 37.9035L36.1758 40.8014L15.071 30.5949L15.0798 24.7826Z" fill="white"/>
<path id="Vector_3" opacity="0.8" fill-rule="evenodd" clip-rule="evenodd" d="M0 40.7889L24.0996 52.4629L48.1993 40.8178V46.6383L24.0996 58.2876L0 46.6177V40.7889Z" fill="white"/>
<path id="Vector_4" fill-rule="evenodd" clip-rule="evenodd" d="M12.0762 17.4698L6.05126 14.5472L24.0865 5.81639L48.1993 17.4904V11.6616L24.0996 0L0.0307393 11.6328L0 11.6493V17.478L6.00735 20.3883L6.02052 20.3965L12.0762 17.4698Z" fill="white"/>
<path id="Vector_5" fill-rule="evenodd" clip-rule="evenodd" d="M24.0996 46.6218L9.03298 39.3338L6.20935 37.9652L0 34.9601V40.7889L18.066 49.5362L18.1099 49.5568L24.0996 52.4629L48.1993 40.8178L48.2169 40.8095V34.9849L27.0901 24.7454L24.104 23.3109L24.1172 23.3067L18.1143 20.3965L15.0842 21.864L15.0798 24.7825L42.1832 37.9034L24.0996 46.6218Z" fill="white"/>
<path id="Vector_6" opacity="0.3" fill-rule="evenodd" clip-rule="evenodd" d="M36.1538 20.4048L27.1296 24.7661L30.1465 26.2254L36.1538 23.3233L39.1663 21.8682L39.1707 18.9497L36.1538 20.4048Z" fill="white"/>
<path id="Vector_7" opacity="0.5" fill-rule="evenodd" clip-rule="evenodd" d="M24.0996 46.6218V40.8013L9.00661 33.5009L9.07687 21.8764H9.08126L24.1084 14.5719L33.1458 18.9455L30.1333 20.4047L24.104 23.3109L27.1296 24.766L34.8804 21.0231L36.1538 20.4047L39.1707 18.9496L24.1084 11.6575L6.0205 20.3965L6.00732 20.3882V20.4006L6.02928 37.8786L9.03295 39.3338L24.0996 46.6218Z" fill="white"/>
<path id="Vector_8" opacity="0.3" fill-rule="evenodd" clip-rule="evenodd" d="M15.0843 21.864L15.0711 30.5948L9.00665 33.5009V21.8764L24.1085 14.5719L33.1458 18.9455L30.1334 20.4048L24.1085 17.4904L15.0843 21.864Z" fill="white"/>
<path id="Vector_9" opacity="0.4" fill-rule="evenodd" clip-rule="evenodd" d="M9.00665 33.501L24.0997 40.7972L30.1246 37.887L15.0711 30.5907L9.00665 33.501Z" fill="white"/>
<path id="Vector_10" opacity="0.3" fill-rule="evenodd" clip-rule="evenodd" d="M24.0997 40.8013L30.1246 37.887L36.1495 40.8137L24.0997 46.6219V40.8013Z" fill="white"/>
</g>
</svg>
