<svg width="41" height="51" viewBox="0 0 41 51" fill="none" xmlns="http://www.w3.org/2000/svg">
<path opacity="0.7" fill-rule="evenodd" clip-rule="evenodd" d="M32.8407 20.9458C37.6161 5.85387 19.7365 11.449 11.7912 19.1908C11.2196 19.7456 10.6782 20.3112 10.163 20.8842C10.7797 20.2387 11.449 19.6041 12.171 18.9877C18.8114 13.3273 34.3748 9.20441 32.8407 20.9458Z" fill="white"/>
<path opacity="0.7" fill-rule="evenodd" clip-rule="evenodd" d="M25.4105 32.1868C27.5463 30.1055 29.306 27.8899 30.6296 25.707C29.5204 27.346 28.0539 28.9814 26.264 30.5043C19.6536 36.1393 11.1443 38.1264 7.25255 34.9463C4.4813 32.6836 4.80091 28.4084 7.59849 24.1006C3.53373 29.9241 2.44328 35.7948 5.3687 38.5833C9.12888 42.1732 18.1007 39.3086 25.4105 32.1832V32.1868Z" fill="white"/>
<path fill-rule="evenodd" clip-rule="evenodd" d="M25.764 46.6297C14.882 52.2429 3.66916 52.4823 0.717414 47.1591C-0.166229 45.5709 -0.207591 43.6635 0.450441 41.622C0.390278 42.6627 0.585808 43.6345 1.06711 44.4975C3.66164 49.1644 13.5547 48.9359 23.1582 43.9935C35.5555 37.6152 45.7043 20.4056 21.53 24.2275C51.0437 18.8391 41.647 38.431 25.764 46.6297Z" fill="white"/>
<path fill-rule="evenodd" clip-rule="evenodd" d="M14.9084 4.10612C24.3728 -1.00672 34.2282 -1.39834 36.9167 3.23223C37.7214 4.61378 37.7928 6.28905 37.2476 8.09486C37.2815 7.18108 37.0935 6.32894 36.6535 5.57833C34.2884 1.5207 25.5986 1.87968 17.2434 6.38333C8.88831 10.887 4.03016 17.8274 6.39155 21.885C7.56473 23.9011 10.2984 24.8258 13.7766 24.6953C8.5499 25.522 4.27457 24.5611 2.63889 21.7509C-0.0496426 17.1167 5.44399 9.21896 14.9084 4.10612Z" fill="white"/>
</svg>
