<svg width="694" height="377" viewBox="0 0 694 377" fill="none" xmlns="http://www.w3.org/2000/svg">
<path opacity="0.010101" d="M309.707 417.617C303.587 412.372 301.542 403.782 304.64 396.342L417.91 124.284C421.008 116.844 428.544 112.244 436.578 112.891L730.322 136.547C738.356 137.194 745.06 142.94 746.927 150.781L815.201 437.458C817.068 445.299 813.674 453.45 806.795 457.649L555.246 611.169C548.366 615.368 539.565 614.659 533.446 609.414L309.707 417.617Z" stroke="url(#paint0_linear_147_407)" stroke-opacity="0.1" stroke-width="3.0169"/>
<path opacity="0.020202" d="M306.068 414.315C300.041 408.964 298.145 400.34 301.373 392.955L419.137 123.457C422.364 116.072 429.98 111.604 438.001 112.391L730.7 141.113C738.721 141.9 745.323 147.762 747.053 155.634L810.187 442.882C811.917 450.754 808.381 458.845 801.429 462.923L547.75 611.731C540.798 615.809 532.01 614.946 525.984 609.595L306.068 414.315Z" stroke="url(#paint1_linear_147_407)" stroke-opacity="0.1" stroke-width="3.0169"/>
<path opacity="0.030303" d="M302.51 411.01C296.578 405.555 294.833 396.899 298.189 389.571L420.393 122.707C423.748 115.379 431.441 111.046 439.447 111.973L731.013 145.73C739.019 146.656 745.518 152.633 747.11 160.534L805.104 448.261C806.697 456.162 803.021 464.19 795.998 468.146L540.275 612.214C533.253 616.17 524.482 615.154 518.55 609.698L302.51 411.01Z" stroke="url(#paint2_linear_147_407)" stroke-opacity="0.1" stroke-width="3.0169"/>
<path opacity="0.040404" d="M299.035 407.704C293.199 402.145 291.606 393.461 295.089 386.193L421.676 122.035C425.159 114.767 432.926 110.568 440.915 111.635L731.261 150.397C739.25 151.463 745.643 157.553 747.098 165.48L799.954 453.594C801.409 461.521 797.593 469.484 790.503 473.317L532.825 612.618C525.734 616.451 516.983 615.283 511.146 609.724L299.035 407.704Z" stroke="url(#paint3_linear_147_407)" stroke-opacity="0.1" stroke-width="3.0169"/>
<path opacity="0.050505" d="M295.642 404.397C289.904 398.738 288.462 390.027 292.072 382.82L422.985 121.441C426.594 114.235 434.433 110.172 442.402 111.378L731.443 155.113C739.412 156.318 745.699 162.519 747.014 170.47L794.738 458.879C796.054 466.831 792.1 474.726 784.944 478.434L525.398 612.946C518.243 616.654 509.512 615.333 503.774 609.674L295.642 404.397Z" stroke="url(#paint4_linear_147_407)" stroke-opacity="0.1" stroke-width="3.0169"/>
<path opacity="0.0606061" d="M292.33 401.09C286.691 395.331 285.402 386.596 289.137 379.454L424.318 120.923C428.052 113.781 435.961 109.856 443.908 111.2L731.559 159.875C739.506 161.219 745.683 167.528 746.86 175.502L789.456 464.115C790.633 472.088 786.542 479.913 779.323 483.496L517.998 613.194C510.779 616.777 502.073 615.304 496.434 609.545L292.33 401.09Z" stroke="url(#paint5_linear_147_407)" stroke-opacity="0.1" stroke-width="3.0169"/>
<path opacity="0.0707071" d="M289.1 397.786C283.562 391.929 282.426 383.173 286.285 376.097L425.674 120.484C429.532 113.408 437.509 109.621 445.431 111.104L731.607 164.683C739.529 166.166 745.595 172.582 746.633 180.574L784.11 469.301C785.148 477.294 780.921 485.045 773.64 488.502L510.626 613.366C503.345 616.823 494.666 615.198 489.129 609.342L289.1 397.786Z" stroke="url(#paint6_linear_147_407)" stroke-opacity="0.1" stroke-width="3.0169"/>
<path opacity="0.0808081" d="M285.95 394.486C280.516 388.534 279.533 379.759 283.514 372.752L427.051 120.124C431.033 113.116 439.074 109.469 446.969 111.091L731.588 169.536C739.483 171.158 745.436 177.678 746.334 185.688L778.701 474.437C779.599 482.447 775.237 490.123 767.897 493.452L503.282 613.464C495.942 616.793 487.293 615.017 481.858 609.064L285.95 394.486Z" stroke="url(#paint7_linear_147_407)" stroke-opacity="0.1" stroke-width="3.0169"/>
<path opacity="0.0909091" d="M282.882 391.191C277.553 385.145 276.722 376.355 280.826 369.418L428.449 119.842C432.552 112.905 440.656 109.399 448.521 111.158L731.5 174.433C739.365 176.192 745.204 182.815 745.962 190.839L773.229 479.521C773.987 487.545 769.491 495.144 762.094 498.345L495.968 613.485C488.571 616.685 479.954 614.758 474.624 608.712L282.882 391.191Z" stroke="url(#paint8_linear_147_407)" stroke-opacity="0.1" stroke-width="3.0169"/>
<path opacity="0.10101" d="M279.894 387.902C274.671 381.764 273.994 372.96 278.218 366.096L429.865 119.638C434.089 112.774 442.252 109.41 450.086 111.306L731.342 179.371C739.176 181.266 744.898 187.991 745.516 196.027L767.695 484.551C768.313 492.587 763.686 500.107 756.234 503.178L488.685 613.43C481.233 616.501 472.651 614.424 467.428 608.286L279.894 387.902Z" stroke="url(#paint9_linear_147_407)" stroke-opacity="0.1" stroke-width="3.0169"/>
<path opacity="0.111111" d="M276.987 384.623C271.872 378.394 271.349 369.58 275.692 362.79L431.298 119.515C435.641 112.725 443.862 109.504 451.662 111.536L731.115 184.351C738.915 186.383 744.519 193.206 744.996 201.252L762.101 489.529C762.579 497.575 757.821 505.013 750.317 507.953L481.435 613.304C473.931 616.244 465.386 614.018 460.271 607.789L276.987 384.623Z" stroke="url(#paint10_linear_147_407)" stroke-opacity="0.1" stroke-width="3.0169"/>
<path opacity="0.121212" d="M274.16 381.351C269.154 375.034 268.785 366.212 273.246 359.499L432.747 119.469C437.208 112.756 445.484 109.679 453.247 111.847L730.818 189.368C738.581 191.536 744.065 198.456 744.402 206.509L756.449 494.45C756.786 502.503 751.899 509.857 744.344 512.666L474.219 613.102C466.664 615.911 458.16 613.536 453.154 607.219L274.16 381.351Z" stroke="url(#paint11_linear_147_407)" stroke-opacity="0.1" stroke-width="3.0169"/>
<path opacity="0.131313" d="M271.413 378.092C266.518 371.689 266.303 362.862 270.88 356.228L434.211 119.504C438.788 112.87 447.116 109.938 454.84 112.241L730.449 194.426C738.173 196.729 743.535 203.744 743.732 211.801L750.737 499.318C750.934 507.375 745.919 514.643 738.317 517.319L467.037 612.829C459.435 615.506 450.974 612.983 446.079 606.58L271.413 378.092Z" stroke="url(#paint12_linear_147_407)" stroke-opacity="0.1" stroke-width="3.0169"/>
<path opacity="0.141414" d="M268.745 374.844C263.963 368.356 263.902 359.527 268.594 352.974L435.687 119.618C440.379 113.064 448.757 110.278 456.44 112.716L730.01 199.519C737.692 201.957 742.931 209.064 742.987 217.124L744.969 504.128C745.025 512.187 739.884 519.366 732.237 521.91L459.892 612.484C452.244 615.028 443.828 612.358 439.046 605.87L268.745 374.844Z" stroke="url(#paint13_linear_147_407)" stroke-opacity="0.1" stroke-width="3.0169"/>
<path opacity="0.151515" d="M266.156 371.61C261.488 365.04 261.581 356.211 266.387 349.74L437.175 119.81C441.98 113.34 450.406 110.7 458.045 113.272L729.498 204.648C737.136 207.219 742.251 214.417 742.166 222.476L739.145 508.88C739.06 516.939 733.795 524.027 726.104 526.437L452.784 612.068C445.093 614.478 436.725 611.661 432.057 605.091L266.156 371.61Z" stroke="url(#paint14_linear_147_407)" stroke-opacity="0.1" stroke-width="3.0169"/>
<path opacity="0.161616" d="M263.646 368.391C259.093 361.74 259.34 352.914 264.259 346.529L438.672 120.083C443.59 113.697 452.061 111.205 459.653 113.909L728.913 209.811C736.506 212.515 741.494 219.801 741.268 227.857L733.266 513.574C733.041 521.631 727.653 528.626 719.921 530.901L445.715 611.582C437.983 613.857 429.666 610.895 425.113 604.244L263.646 368.391Z" stroke="url(#paint15_linear_147_407)" stroke-opacity="0.1" stroke-width="3.0169"/>
<path opacity="0.171717" d="M261.214 365.189C256.778 358.46 257.179 349.64 262.208 343.341L440.178 120.435C445.207 114.137 453.72 111.792 461.264 114.629L728.256 215.007C735.8 217.843 740.66 225.215 740.294 233.266L727.334 518.209C726.968 526.261 721.459 533.161 713.688 535.301L438.686 611.027C430.916 613.167 422.651 610.06 418.215 603.331L261.214 365.189Z" stroke="url(#paint16_linear_147_407)" stroke-opacity="0.1" stroke-width="3.0169"/>
<path opacity="0.181818" d="M258.86 362.004C254.542 355.199 255.097 346.387 260.235 340.177L441.692 120.867C446.83 114.657 455.382 112.462 462.876 115.429L727.525 220.234C735.019 223.202 739.75 230.657 739.243 238.701L721.349 522.784C720.842 530.828 715.214 537.631 707.407 539.635L431.698 610.403C423.891 612.407 415.682 609.156 411.364 602.351L258.86 362.004Z" stroke="url(#paint17_linear_147_407)" stroke-opacity="0.1" stroke-width="3.0169"/>
<path opacity="0.191919" d="M256.583 358.839C252.385 351.959 253.093 343.158 258.339 337.039L443.211 121.378C448.456 115.259 457.046 113.213 464.486 116.311L726.721 225.491C734.162 228.589 738.761 236.126 738.114 244.16L715.313 527.299C714.666 535.332 708.919 542.036 701.079 543.903L424.752 609.712C416.911 611.579 408.76 608.186 404.561 601.306L256.583 358.839Z" stroke="url(#paint18_linear_147_407)" stroke-opacity="0.1" stroke-width="3.0169"/>
<path opacity="0.20202" d="M254.383 355.693C250.305 348.741 251.167 339.953 256.519 333.927L444.734 121.966C450.085 115.94 458.709 114.044 466.095 117.272L725.842 230.775C733.228 234.003 737.695 241.618 736.908 249.64L709.226 531.749C708.439 539.771 702.577 546.373 694.705 548.103L417.848 608.952C409.976 610.683 401.886 607.147 397.808 600.195L254.383 355.693Z" stroke="url(#paint19_linear_147_407)" stroke-opacity="0.1" stroke-width="3.0169"/>
<path opacity="0.212121" d="M252.259 352.57C248.303 345.548 249.319 336.777 254.775 330.845L446.26 122.637C451.716 116.704 460.371 114.96 467.7 118.316L724.889 236.089C732.217 239.445 736.551 247.138 735.624 255.144L703.091 536.14C702.164 544.146 696.187 550.645 688.286 552.238L410.99 608.129C403.089 609.722 395.061 606.046 391.105 599.024L252.259 352.57Z" stroke="url(#paint20_linear_147_407)" stroke-opacity="0.1" stroke-width="3.0169"/>
<path opacity="0.222222" d="M250.211 349.469C246.378 342.379 247.547 333.627 253.105 327.791L447.788 123.384C453.346 117.548 462.031 115.955 469.299 119.438L723.861 241.427C731.13 244.91 735.329 252.677 734.262 260.666L696.908 540.466C695.841 548.455 689.752 554.848 681.825 556.303L404.176 607.24C396.249 608.694 388.286 604.878 384.453 597.788L250.211 349.469Z" stroke="url(#paint21_linear_147_407)" stroke-opacity="0.1" stroke-width="3.0169"/>
<path opacity="0.232323" d="M248.238 346.394C244.53 339.238 245.851 330.508 251.51 324.769L449.315 124.213C454.975 118.474 463.686 117.033 470.893 120.642L722.758 246.791C729.965 250.4 734.028 258.239 732.822 266.208L690.679 544.729C689.473 552.698 683.273 558.984 675.321 560.3L397.409 606.287C389.457 607.603 381.563 603.649 377.854 596.493L248.238 346.394Z" stroke="url(#paint22_linear_147_407)" stroke-opacity="0.1" stroke-width="3.0169"/>
<path opacity="0.242424" d="M246.34 343.344C242.757 336.125 244.23 327.419 249.989 321.78L450.842 125.12C456.601 119.481 465.335 118.192 472.478 121.926L721.58 252.177C728.722 255.912 732.648 263.821 731.303 271.767L684.404 548.927C683.059 556.874 676.75 563.052 668.777 564.228L390.689 605.272C382.716 606.449 374.892 602.357 371.308 595.138L246.34 343.344Z" stroke="url(#paint23_linear_147_407)" stroke-opacity="0.1" stroke-width="3.0169"/>
<path opacity="0.252525" d="M244.516 340.32C241.059 333.039 242.684 324.361 248.54 318.823L452.365 126.104C458.222 120.567 466.978 119.43 474.054 123.289L720.326 257.584C727.402 261.443 731.189 269.419 729.705 277.341L678.085 553.06C676.602 560.982 670.186 567.048 662.193 568.085L384.018 604.193C376.026 605.231 368.274 601.004 364.817 593.723L244.516 340.32Z" stroke="url(#paint24_linear_147_407)" stroke-opacity="0.1" stroke-width="3.0169"/>
<path opacity="0.262626" d="M242.764 337.325C239.435 329.984 241.212 321.335 247.164 315.901L453.884 127.167C459.837 121.733 468.611 120.749 475.619 124.731L718.996 263.012C726.004 266.993 729.65 275.035 728.029 282.93L671.724 557.126C670.102 565.021 663.582 570.974 655.572 571.872L377.397 603.054C369.387 603.952 361.71 599.59 358.381 592.25L242.764 337.325Z" stroke="url(#paint25_linear_147_407)" stroke-opacity="0.1" stroke-width="3.0169"/>
<path opacity="0.272727" d="M241.086 334.359C237.886 326.962 239.812 318.345 245.859 313.016L455.398 128.309C461.444 122.98 470.235 122.149 477.172 126.253L717.59 268.459C724.527 272.562 728.033 280.666 726.274 288.532L665.321 561.127C663.562 568.992 656.938 574.831 648.914 575.589L370.825 601.855C362.801 602.613 355.202 598.118 352.001 590.721L241.086 334.359Z" stroke="url(#paint26_linear_147_407)" stroke-opacity="0.1" stroke-width="3.0169"/>
<path opacity="0.282828" d="M239.48 331.424C236.409 323.972 238.486 315.391 244.624 310.167L456.905 129.529C463.044 124.306 471.847 123.629 478.711 127.853L716.107 273.924C722.972 278.147 726.336 286.311 724.44 294.145L658.878 565.06C656.982 572.894 650.257 578.616 642.221 579.233L364.306 600.597C356.27 601.215 348.75 596.588 345.679 589.136L239.48 331.424Z" stroke="url(#paint27_linear_147_407)" stroke-opacity="0.1" stroke-width="3.0169"/>
<path opacity="0.292929" d="M237.945 328.522C235.005 321.017 237.231 312.473 243.459 307.358L458.404 130.827C464.632 125.712 473.446 125.189 480.236 129.532L714.549 279.405C721.338 283.748 724.559 291.969 722.527 299.768L652.396 568.926C650.363 576.725 643.54 582.329 635.494 582.807L357.838 599.282C349.793 599.759 342.355 595.002 339.414 587.497L237.945 328.522Z" stroke="url(#paint28_linear_147_407)" stroke-opacity="0.1" stroke-width="3.0169"/>
<path opacity="0.30303" d="M236.48 325.651C233.671 318.097 236.046 309.593 242.363 304.587L459.893 132.201C466.21 127.195 475.031 126.826 481.744 131.287L712.913 284.899C719.626 289.36 722.703 297.636 720.535 305.399L645.876 572.722C643.708 580.485 636.788 585.969 628.735 586.306L351.424 597.908C343.371 598.245 336.017 593.359 333.209 585.804L236.48 325.651Z" stroke="url(#paint29_linear_147_407)" stroke-opacity="0.1" stroke-width="3.0169"/>
<path opacity="0.313131" d="M235.086 322.816C232.409 315.214 234.932 306.752 241.336 301.857L461.371 133.653C467.774 128.759 476.601 128.544 483.235 133.121L711.201 290.409C717.835 294.986 720.767 303.314 718.464 311.038L639.32 576.452C637.016 584.175 630.002 589.538 621.944 589.734L345.064 596.48C337.007 596.677 329.739 591.662 327.063 584.06L235.086 322.816Z" stroke="url(#paint30_linear_147_407)" stroke-opacity="0.1" stroke-width="3.0169"/>
<path opacity="0.323232" d="M233.76 320.015C231.217 312.367 233.887 303.951 240.375 299.169L462.836 135.181C469.324 130.399 478.153 130.338 484.706 135.03L709.412 295.929C715.965 300.621 718.752 308.999 716.314 316.681L632.728 580.11C630.291 587.792 623.183 593.031 615.124 593.087L338.759 594.996C330.7 595.052 323.521 589.911 320.977 582.263L233.76 320.015Z" stroke="url(#paint31_linear_147_407)" stroke-opacity="0.1" stroke-width="3.0169"/>
<path opacity="0.333333" d="M232.503 317.252C230.094 309.56 232.91 301.192 239.481 296.524L464.288 136.786C470.858 132.118 479.687 132.211 486.158 137.017L707.547 301.46C714.017 306.266 716.657 314.692 714.085 322.33L626.103 583.7C623.532 591.338 616.335 596.452 608.275 596.367L332.51 593.459C324.451 593.374 317.363 588.109 314.953 580.418L232.503 317.252Z" stroke="url(#paint32_linear_147_407)" stroke-opacity="0.1" stroke-width="3.0169"/>
<path opacity="0.343434" d="M231.313 314.525C229.038 306.793 232.001 298.475 238.651 293.922L465.725 138.466C472.376 133.913 481.202 134.161 487.587 139.079L705.604 307C711.989 311.918 714.482 320.389 711.777 327.981L619.446 587.218C616.741 594.811 609.456 599.799 601.399 599.573L326.318 591.869C318.261 591.643 311.266 586.256 308.991 578.524L231.313 314.525Z" stroke="url(#paint33_linear_147_407)" stroke-opacity="0.1" stroke-width="3.0169"/>
<path opacity="0.353535" d="M230.191 311.839C228.051 304.068 231.158 295.803 237.887 291.367L467.146 140.223C473.875 135.787 482.695 136.188 488.994 141.217L703.585 312.549C709.883 317.578 712.227 326.09 709.391 333.634L612.757 590.667C609.921 598.212 602.549 603.071 594.498 602.705L320.183 590.228C312.132 589.862 305.232 584.353 303.092 576.583L230.191 311.839Z" stroke="url(#paint34_linear_147_407)" stroke-opacity="0.1" stroke-width="3.0169"/>
<path opacity="0.363636" d="M229.133 309.191C227.13 301.385 230.381 293.175 237.186 288.857L468.548 142.054C475.354 137.736 484.166 138.291 490.376 143.429L701.489 318.103C707.699 323.241 709.894 331.793 706.926 339.287L606.039 594.044C603.071 601.538 595.616 606.269 587.572 605.762L314.107 588.537C306.063 588.03 299.26 582.402 297.257 574.595L229.133 309.191Z" stroke="url(#paint35_linear_147_407)" stroke-opacity="0.1" stroke-width="3.0169"/>
<path opacity="0.373737" d="M228.142 306.586C226.274 298.745 229.668 290.594 236.548 286.395L469.932 143.96C476.812 139.762 485.613 140.47 491.732 145.716L699.316 323.663C705.435 328.909 707.481 337.498 704.383 344.939L599.292 597.351C596.194 604.792 588.657 609.391 580.624 608.744L308.09 586.797C300.056 586.15 293.353 580.403 291.486 572.563L228.142 306.586Z" stroke="url(#paint36_linear_147_407)" stroke-opacity="0.1" stroke-width="3.0169"/>
<path opacity="0.383838" d="M227.214 304.021C225.484 296.149 229.019 288.059 235.971 283.981L471.296 145.939C478.248 141.861 487.036 142.724 493.062 148.075L697.067 329.226C703.093 334.577 704.989 343.201 701.761 350.586L592.518 600.585C589.291 607.97 581.675 612.438 573.654 611.651L302.133 585.007C294.112 584.22 287.509 578.358 285.779 570.486L227.214 304.021Z" stroke="url(#paint37_linear_147_407)" stroke-opacity="0.1" stroke-width="3.0169"/>
<path opacity="0.393939" d="M226.349 301.501C224.757 293.6 228.433 285.572 235.455 281.616L472.638 147.993C479.66 144.037 488.431 145.052 494.364 150.508L694.74 334.791C700.673 340.247 702.417 348.903 699.062 356.231L585.718 603.747C582.362 611.075 574.67 615.409 566.663 614.482L296.236 583.172C288.23 582.245 281.731 576.268 280.138 568.367L226.349 301.501Z" stroke="url(#paint38_linear_147_407)" stroke-opacity="0.1" stroke-width="3.0169"/>
<path opacity="0.40404" d="M225.547 299.023C224.093 291.096 227.908 283.133 234.998 279.3L473.958 150.118C481.048 146.285 489.8 147.454 495.636 153.012L692.338 340.357C698.174 345.915 699.768 354.6 696.284 361.868L578.894 606.835C575.411 614.104 567.643 618.303 559.654 617.236L290.401 581.29C282.412 580.223 276.018 574.134 274.564 566.206L225.547 299.023Z" stroke="url(#paint39_linear_147_407)" stroke-opacity="0.1" stroke-width="3.0169"/>
<path opacity="0.414141" d="M224.806 296.592C223.49 288.641 227.445 280.746 234.6 277.037L475.253 152.317C482.409 148.609 491.139 149.93 496.878 155.589L689.859 345.923C695.597 351.583 697.039 360.294 693.43 367.5L572.046 609.853C568.437 617.059 560.597 621.122 552.628 619.916L284.628 579.365C276.658 578.159 270.372 571.959 269.056 564.007L224.806 296.592Z" stroke="url(#paint40_linear_147_407)" stroke-opacity="0.1" stroke-width="3.0169"/>
<path opacity="0.424242" d="M224.126 294.207C222.949 286.234 227.041 278.409 234.26 274.826L476.523 154.588C483.743 151.005 492.449 152.478 498.087 158.237L687.304 351.487C692.943 357.246 694.232 365.981 690.498 373.123L565.177 612.797C561.442 619.939 553.533 623.865 545.586 622.52L278.917 577.396C270.97 576.051 264.793 569.742 263.616 561.769L224.126 294.207Z" stroke="url(#paint41_linear_147_407)" stroke-opacity="0.1" stroke-width="3.0169"/>
<path opacity="0.434343" d="M223.506 291.869C222.468 283.876 226.695 276.124 233.976 272.668L477.767 156.929C485.048 153.473 493.727 155.098 499.264 160.954L684.673 357.048C690.211 362.904 691.347 371.66 687.489 378.736L558.287 615.667C554.428 622.743 546.452 626.53 538.53 625.047L273.27 575.385C265.348 573.901 259.281 567.486 258.244 559.493L223.506 291.869Z" stroke="url(#paint42_linear_147_407)" stroke-opacity="0.1" stroke-width="3.0169"/>
<path opacity="0.444444" d="M222.944 289.579C222.046 281.57 226.408 273.893 233.748 270.564L478.983 159.342C486.323 156.013 494.972 157.789 500.407 163.741L681.967 362.604C687.401 368.557 688.385 377.331 684.403 384.339L551.378 618.465C547.397 625.473 539.356 629.119 531.46 627.498L267.686 573.333C259.791 571.712 253.838 565.191 252.94 557.181L222.944 289.579Z" stroke="url(#paint43_linear_147_407)" stroke-opacity="0.1" stroke-width="3.0169"/>
<path opacity="0.454545" d="M222.439 287.339C221.682 279.315 226.177 271.716 233.574 268.515L480.17 161.825C487.567 158.625 496.184 160.551 501.514 166.597L679.185 368.155C684.514 374.202 685.345 382.992 681.241 389.929L544.452 621.189C540.348 628.126 532.245 631.632 524.379 629.874L262.167 571.242C254.302 569.483 248.463 562.86 247.705 554.836L222.439 287.339Z" stroke="url(#paint44_linear_147_407)" stroke-opacity="0.1" stroke-width="3.0169"/>
<path opacity="0.464646" d="M221.992 285.149C221.374 277.112 226.001 269.593 233.453 266.522L481.327 164.377C488.779 161.306 497.361 163.383 502.584 169.521L676.328 373.699C681.551 379.837 682.228 388.641 678.004 395.505L537.509 623.839C533.285 630.704 525.121 634.068 517.288 632.172L256.714 569.112C248.88 567.216 243.158 560.492 242.54 552.456L221.992 285.149Z" stroke="url(#paint45_linear_147_407)" stroke-opacity="0.1" stroke-width="3.0169"/>
<path opacity="0.474747" d="M221.6 283.008C221.122 274.963 225.88 267.525 233.384 264.584L482.453 166.996C489.958 164.056 498.502 166.282 503.617 172.511L673.395 379.233C678.511 385.462 679.034 394.276 674.691 401.065L530.55 626.415C526.208 633.205 517.987 636.426 510.187 634.393L251.325 566.945C243.526 564.912 237.922 558.089 237.445 550.043L221.6 283.008Z" stroke="url(#paint46_linear_147_407)" stroke-opacity="0.1" stroke-width="3.0169"/>
<path opacity="0.484848" d="M221.262 280.92C220.925 272.867 225.812 265.514 233.366 262.705L483.547 169.684C491.101 166.876 499.605 169.251 504.611 175.567L670.388 384.758C675.394 391.075 675.763 399.897 671.303 406.61L523.579 628.917C519.118 635.63 510.842 638.707 503.079 636.539L246.003 564.741C238.241 562.573 232.757 555.653 232.42 547.601L221.262 280.92Z" stroke="url(#paint47_linear_147_407)" stroke-opacity="0.1" stroke-width="3.0169"/>
<path opacity="0.494949" d="M220.978 278.884C220.782 270.827 225.796 263.559 233.399 260.883L484.606 172.439C492.209 169.763 500.67 172.286 505.565 178.689L667.307 390.271C672.202 396.675 672.417 405.501 667.84 412.135L516.594 631.344C512.017 637.978 503.689 640.91 495.965 638.607L240.748 562.503C233.024 560.2 227.662 553.185 227.465 545.128L220.978 278.884Z" stroke="url(#paint48_linear_147_407)" stroke-opacity="0.1" stroke-width="3.0169"/>
<path opacity="0.50505" d="M220.747 276.903C220.691 268.843 225.831 261.665 233.479 259.121L485.632 175.262C493.28 172.718 501.696 175.389 506.478 181.876L664.152 395.773C668.935 402.261 668.996 411.09 664.304 417.643L509.599 633.699C504.907 640.252 496.529 643.038 488.846 640.6L235.559 560.233C227.877 557.795 222.638 550.688 222.582 542.628L220.747 276.903Z" stroke="url(#paint49_linear_147_407)" stroke-opacity="0.1" stroke-width="3.0169"/>
<path opacity="0.515152" d="M220.567 274.976C220.652 266.916 225.917 259.828 233.608 257.419L486.621 178.149C494.312 175.74 502.68 178.557 507.349 185.127L660.924 401.261C665.592 407.832 665.499 416.66 660.693 423.131L502.594 635.978C497.788 642.449 489.363 645.088 481.724 642.517L230.439 557.93C222.8 555.358 217.686 548.161 217.771 540.101L220.567 274.976Z" stroke="url(#paint50_linear_147_407)" stroke-opacity="0.1" stroke-width="3.0169"/>
<path opacity="0.525253" d="M220.437 273.103C220.663 265.046 226.05 258.051 233.782 255.776L487.574 181.102C495.306 178.827 503.624 181.789 508.177 188.44L657.622 406.734C662.175 413.384 661.928 422.211 657.01 428.596L495.581 638.184C490.663 644.569 482.192 647.061 474.6 644.357L225.386 555.595C217.793 552.891 212.805 545.605 213.031 537.549L220.437 273.103Z" stroke="url(#paint51_linear_147_407)" stroke-opacity="0.1" stroke-width="3.0169"/>
<path opacity="0.535354" d="M220.357 271.287C220.723 263.235 226.232 256.335 234.003 254.196L488.489 184.119C496.259 181.979 504.524 185.086 508.96 191.815L654.248 412.191C658.684 418.92 658.283 427.74 653.254 434.039L488.561 640.315C483.532 646.614 475.019 648.958 467.475 646.122L220.401 553.232C212.857 550.395 207.997 543.024 208.363 534.972L220.357 271.287Z" stroke="url(#paint52_linear_147_407)" stroke-opacity="0.1" stroke-width="3.0169"/>
<path opacity="0.545455" d="M220.324 269.527C220.831 261.483 226.46 254.68 234.266 252.676L489.364 187.198C497.171 185.194 505.38 188.445 509.698 195.251L650.801 417.629C655.119 424.435 654.564 433.247 649.426 439.457L481.535 642.372C476.397 648.582 467.845 650.777 460.351 647.81L215.485 550.84C207.992 547.872 203.261 540.417 203.768 532.373L220.324 269.527Z" stroke="url(#paint53_linear_147_407)" stroke-opacity="0.1" stroke-width="3.0169"/>
<path opacity="0.555556" d="M220.339 267.824C220.986 259.79 226.733 253.087 234.573 251.22L490.2 190.341C498.04 188.473 506.191 191.867 510.39 198.747L647.283 423.049C651.481 429.929 650.772 438.73 645.527 444.849L474.504 644.355C469.259 650.474 460.67 652.52 453.229 649.422L210.639 548.421C203.198 545.323 198.599 537.786 199.246 529.752L220.339 267.824Z" stroke="url(#paint54_linear_147_407)" stroke-opacity="0.1" stroke-width="3.0169"/>
<path opacity="0.565657" d="M220.4 266.18C221.187 258.159 227.05 251.557 234.922 249.826L490.994 193.545C498.866 191.815 506.957 195.35 511.035 202.302L643.693 428.45C647.771 435.402 646.909 444.189 641.557 450.216L467.471 646.265C462.12 652.291 453.496 654.187 446.111 650.959L205.862 545.976C198.476 542.749 194.009 535.133 194.796 527.112L220.4 266.18Z" stroke="url(#paint55_linear_147_407)" stroke-opacity="0.1" stroke-width="3.0169"/>
<path opacity="0.575758" d="M220.505 264.594C221.432 256.588 227.409 250.089 235.31 248.496L491.747 196.809C499.648 195.217 507.676 198.893 511.632 205.915L640.032 433.828C643.988 440.851 642.973 449.621 637.517 455.554L460.436 648.099C454.98 654.032 446.325 655.776 438.997 652.421L201.154 543.507C193.826 540.151 189.492 532.458 190.419 524.452L220.505 264.594Z" stroke="url(#paint56_linear_147_407)" stroke-opacity="0.1" stroke-width="3.0169"/>
<path opacity="0.585859" d="M220.655 263.068C221.721 255.079 227.811 248.686 235.738 247.231L492.456 200.134C500.384 198.68 508.346 202.496 512.179 209.586L636.302 439.186C640.135 446.276 638.966 455.027 633.408 460.864L453.401 649.861C447.842 655.698 439.158 657.291 431.89 653.808L196.517 541.015C189.249 537.532 185.05 529.765 186.116 521.776L220.655 263.068Z" stroke="url(#paint57_linear_147_407)" stroke-opacity="0.1" stroke-width="3.0169"/>
<path opacity="0.59596" d="M220.846 261.602C222.052 253.633 228.252 247.347 236.204 246.031L493.122 203.518C501.073 202.202 508.968 206.156 512.677 213.312L632.501 444.518C636.21 451.674 634.889 460.404 629.229 466.143L446.367 651.549C440.707 657.287 431.996 658.729 424.789 655.119L191.95 538.501C184.743 534.891 180.681 527.052 181.887 519.083L220.846 261.602Z" stroke="url(#paint58_linear_147_407)" stroke-opacity="0.1" stroke-width="3.0169"/>
<path opacity="0.606061" d="M221.079 260.197C222.424 252.25 228.733 246.073 236.706 244.896L493.742 206.96C501.716 205.783 509.54 209.874 513.123 217.094L628.632 449.826C632.215 457.046 630.742 465.752 624.983 471.39L439.335 653.163C433.576 658.802 424.841 660.091 417.698 656.357L187.453 535.966C180.311 532.231 176.386 524.322 177.731 516.376L221.079 260.197Z" stroke="url(#paint59_linear_147_407)" stroke-opacity="0.1" stroke-width="3.0169"/>
<path opacity="0.616162" d="M221.352 258.853C222.836 250.93 229.251 244.864 237.244 243.827L494.317 210.458C502.31 209.421 510.062 213.648 513.518 220.929L624.694 455.108C628.15 462.389 626.525 471.068 620.669 476.605L432.306 654.705C426.45 660.242 417.694 661.378 410.618 657.52L183.028 533.412C175.952 529.553 172.165 521.577 173.648 513.655L221.352 258.853Z" stroke="url(#paint60_linear_147_407)" stroke-opacity="0.1" stroke-width="3.0169"/>
<path opacity="0.626263" d="M221.664 257.571C223.286 249.676 229.806 243.723 237.816 242.825L494.845 214.014C502.854 213.116 510.531 217.478 513.86 224.818L620.687 460.363C624.016 467.703 622.24 476.352 616.288 481.787L425.283 656.173C419.33 661.607 410.556 662.591 403.548 658.609L178.673 530.841C171.665 526.859 168.018 518.818 169.639 510.923L221.664 257.571Z" stroke="url(#paint61_linear_147_407)" stroke-opacity="0.1" stroke-width="3.0169"/>
<path opacity="0.636364" d="M222.014 256.352C223.773 248.486 230.397 242.648 238.421 241.89L495.325 217.624C503.349 216.867 510.948 221.362 514.149 228.759L616.614 465.59C619.814 472.988 617.888 481.604 611.842 486.934L418.265 657.569C412.219 662.899 403.428 663.729 396.491 659.626L174.389 528.253C167.452 524.15 163.946 516.046 165.705 508.18L222.014 256.352Z" stroke="url(#paint62_linear_147_407)" stroke-opacity="0.1" stroke-width="3.0169"/>
<path opacity="0.646465" d="M222.401 255.195C224.297 247.361 231.021 241.639 239.057 241.022L495.756 221.289C503.792 220.671 511.312 225.298 514.383 232.75L612.474 470.787C615.545 478.239 613.468 486.821 607.33 492.044L411.255 658.892C405.117 664.115 396.313 664.792 389.449 660.568L170.176 525.649C163.312 521.425 159.948 513.262 161.844 505.428L222.401 255.195Z" stroke="url(#paint63_linear_147_407)" stroke-opacity="0.1" stroke-width="3.0169"/>
<path opacity="0.656566" d="M222.823 254.102C224.855 246.303 231.678 240.699 239.724 240.222L496.138 225.007C504.183 224.529 511.621 229.287 514.562 236.791L608.268 475.954C611.209 483.458 608.982 492.003 602.754 497.118L404.254 660.143C398.025 665.259 389.211 665.782 382.421 661.439L166.035 523.032C159.245 518.689 156.024 510.468 158.057 502.668L222.823 254.102Z" stroke="url(#paint64_linear_147_407)" stroke-opacity="0.1" stroke-width="3.0169"/>
<path opacity="0.666667" d="M223.279 253.072C225.447 245.31 232.367 239.826 240.419 239.489L496.469 228.776C504.522 228.439 511.876 233.326 514.685 240.88L603.997 481.088C606.806 488.642 604.431 497.146 598.114 502.152L397.262 661.322C390.945 666.327 382.124 666.697 375.411 662.236L161.965 520.4C155.252 515.94 152.175 507.664 154.343 499.901L223.279 253.072Z" stroke="url(#paint65_linear_147_407)" stroke-opacity="0.1" stroke-width="3.0169"/>
<path opacity="0.676768" d="M223.767 252.108C226.071 244.384 233.085 239.022 241.143 238.826L496.75 232.598C504.807 232.401 512.075 237.416 514.751 245.018L599.661 486.19C602.338 493.793 599.815 502.254 593.412 507.149L390.282 662.429C383.879 667.324 375.052 667.539 368.418 662.962L157.967 517.759C151.333 513.181 148.401 504.853 150.704 497.129L223.767 252.108Z" stroke="url(#paint66_linear_147_407)" stroke-opacity="0.1" stroke-width="3.0169"/>
<path opacity="0.686869" d="M224.288 251.208C226.726 243.526 233.833 238.287 241.893 238.231L496.978 236.469C505.038 236.413 512.217 241.554 514.76 249.202L595.262 491.258C597.805 498.906 595.135 507.322 588.647 512.104L383.314 663.465C376.827 668.248 367.997 668.309 361.444 663.617L154.04 515.106C147.487 510.414 144.701 502.036 147.138 494.354L224.288 251.208Z" stroke="url(#paint67_linear_147_407)" stroke-opacity="0.1" stroke-width="3.0169"/>
<path opacity="0.69697" d="M224.839 250.373C227.411 242.735 234.608 237.621 242.667 237.706L497.154 240.389C505.213 240.474 512.301 245.739 514.711 253.43L590.799 496.291C593.209 503.982 590.392 512.35 583.822 517.018L376.361 664.431C369.79 669.099 360.961 669.006 354.491 664.2L150.185 512.445C143.715 507.639 141.075 499.214 143.646 491.575L224.839 250.373Z" stroke="url(#paint68_linear_147_407)" stroke-opacity="0.1" stroke-width="3.0169"/>
<path opacity="0.707071" d="M225.42 249.606C228.124 242.013 235.41 237.025 243.466 237.251L497.276 244.359C505.333 244.585 512.328 249.972 514.603 257.704L586.274 501.289C588.549 509.021 585.587 517.338 578.936 521.891L369.422 665.327C362.771 669.88 353.945 669.632 347.56 664.714L146.401 509.778C140.016 504.86 137.523 496.389 140.228 488.797L225.42 249.606Z" stroke="url(#paint69_linear_147_407)" stroke-opacity="0.1" stroke-width="3.0169"/>
<path opacity="0.717172" d="M226.028 248.902C228.864 241.358 236.236 236.498 244.288 236.864L497.344 248.374C505.396 248.74 512.296 254.249 514.436 262.02L581.688 506.248C583.828 514.019 580.721 522.283 573.992 526.72L362.499 666.151C355.77 670.587 346.949 670.186 340.651 665.157L142.689 507.103C136.39 502.074 134.046 493.561 136.883 486.017L226.028 248.902Z" stroke="url(#paint70_linear_147_407)" stroke-opacity="0.1" stroke-width="3.0169"/>
<path opacity="0.727273" d="M226.663 248.267C229.631 240.773 237.086 236.042 245.13 236.549L497.357 252.437C505.401 252.943 512.204 258.572 514.208 266.379L577.041 511.171C579.044 518.977 575.793 527.187 568.988 531.505L355.593 666.907C348.788 671.225 339.976 670.67 333.766 665.532L139.048 504.424C132.838 499.286 130.643 490.733 133.611 483.24L226.663 248.267Z" stroke="url(#paint71_linear_147_407)" stroke-opacity="0.1" stroke-width="3.0169"/>
<path opacity="0.737374" d="M227.324 247.697C230.422 240.256 237.959 235.657 245.993 236.304L497.315 256.543C505.349 257.19 512.052 262.937 513.92 270.777L572.334 516.054C574.201 523.894 570.807 532.045 563.927 536.244L348.707 667.594C341.827 671.792 333.026 671.084 326.907 665.838L135.479 501.74C129.36 496.495 127.314 487.905 130.412 480.465L227.324 247.697Z" stroke="url(#paint72_linear_147_407)" stroke-opacity="0.1" stroke-width="3.0169"/>
<path opacity="0.747475" d="M228.009 247.196C231.236 239.81 238.852 235.343 246.873 236.13L497.216 260.695C505.238 261.482 511.84 267.344 513.57 275.216L567.568 520.897C569.298 528.769 565.762 536.86 558.81 540.938L341.84 668.213C334.888 672.291 326.1 671.428 320.074 666.077L131.981 499.055C125.954 493.704 124.059 485.08 127.286 477.695L228.009 247.196Z" stroke="url(#paint73_linear_147_407)" stroke-opacity="0.1" stroke-width="3.0169"/>
<path opacity="0.757576" d="M228.717 246.76C232.073 239.432 239.765 235.098 247.772 236.025L497.061 264.887C505.067 265.814 511.566 271.791 513.158 279.692L562.743 525.699C564.336 533.6 560.66 541.627 553.637 545.584L334.994 668.762C327.972 672.718 319.201 671.702 313.268 666.246L128.554 496.368C122.622 490.912 120.877 482.257 124.233 474.929L228.717 246.76Z" stroke="url(#paint74_linear_147_407)" stroke-opacity="0.1" stroke-width="3.0169"/>
<path opacity="0.767677" d="M229.447 246.393C232.93 239.124 240.697 234.925 248.686 235.992L496.847 269.122C504.836 270.189 511.23 276.278 512.684 284.206L557.861 530.459C559.316 538.387 555.5 546.349 548.41 550.182L328.17 669.244C321.08 673.077 312.328 671.909 306.492 666.35L125.199 493.682C119.362 488.123 117.769 479.439 121.252 472.17L229.447 246.393Z" stroke="url(#paint75_linear_147_407)" stroke-opacity="0.1" stroke-width="3.0169"/>
<path opacity="0.777778" d="M230.197 246.094C233.807 238.888 241.646 234.825 249.615 236.031L496.576 273.398C504.545 274.604 510.831 280.804 512.147 288.756L552.923 535.177C554.239 543.129 550.285 551.023 543.129 554.732L321.369 669.661C314.213 673.369 305.483 672.048 299.745 666.389L121.914 490.997C116.175 485.338 114.734 476.627 118.343 469.42L230.197 246.094Z" stroke="url(#paint76_linear_147_407)" stroke-opacity="0.1" stroke-width="3.0169"/>
<path opacity="0.787879" d="M230.967 245.863C234.702 238.721 242.611 234.796 250.557 236.14L496.246 277.714C504.193 279.059 510.37 285.367 511.547 293.341L547.93 539.851C549.106 547.825 545.015 555.649 537.796 559.232L314.593 670.01C307.374 673.594 298.668 672.12 293.029 666.362L118.7 488.316C113.061 482.557 111.772 473.822 115.506 466.68L230.967 245.863Z" stroke="url(#paint77_linear_147_407)" stroke-opacity="0.1" stroke-width="3.0169"/>
<path opacity="0.79798" d="M231.755 245.7C235.613 238.623 243.59 234.837 251.512 236.32L495.856 282.066C503.778 283.55 509.844 289.965 510.882 297.958L542.881 544.48C543.918 552.472 539.691 560.224 532.41 563.681L307.842 670.293C300.562 673.75 291.883 672.125 286.345 666.269L115.556 485.637C110.018 479.78 108.882 471.024 112.741 463.948L231.755 245.7Z" stroke="url(#paint78_linear_147_407)" stroke-opacity="0.1" stroke-width="3.0169"/>
<path opacity="0.808081" d="M232.559 245.606C236.541 238.598 244.582 234.951 252.477 236.572L495.406 286.457C503.302 288.078 509.255 294.599 510.153 302.609L537.779 549.064C538.676 557.073 534.315 564.75 526.974 568.079L301.119 670.512C293.778 673.841 285.129 672.065 279.695 666.113L112.483 482.964C107.048 477.012 106.065 468.238 110.046 461.23L232.559 245.606Z" stroke="url(#paint79_linear_147_407)" stroke-opacity="0.1" stroke-width="3.0169"/>
<path opacity="0.818182" d="M233.379 245.579C237.482 238.642 245.586 235.136 253.451 236.895L494.896 290.883C502.762 292.641 508.6 299.265 509.358 307.289L532.623 553.6C533.381 561.624 528.886 569.224 521.489 572.424L294.422 670.665C287.025 673.865 278.408 671.939 273.079 665.893L109.479 480.297C104.149 474.251 103.319 465.461 107.422 458.524L233.379 245.579Z" stroke="url(#paint80_linear_147_407)" stroke-opacity="0.1" stroke-width="3.0169"/>
<path opacity="0.828283" d="M234.213 245.622C238.437 238.757 246.6 235.393 254.434 237.289L494.325 295.344C502.159 297.239 507.881 303.964 508.499 312L527.416 558.09C528.034 566.126 523.407 573.646 515.955 576.717L287.755 670.755C280.303 673.826 271.721 671.749 266.498 665.611L106.545 477.639C101.322 471.5 100.645 462.697 104.869 455.832L234.213 245.622Z" stroke="url(#paint81_linear_147_407)" stroke-opacity="0.1" stroke-width="3.0169"/>
<path opacity="0.838384" d="M235.06 245.733C239.403 238.943 247.624 235.722 255.423 237.754L493.693 299.838C501.493 301.87 507.096 308.693 507.574 316.739L522.159 562.532C522.636 570.577 517.878 578.015 510.374 580.956L281.118 670.781C273.613 673.721 265.069 671.495 259.954 665.266L103.681 474.988C98.5658 468.76 98.0428 459.946 102.386 453.156L235.06 245.733Z" stroke="url(#paint82_linear_147_407)" stroke-opacity="0.1" stroke-width="3.0169"/>
<path opacity="0.848485" d="M235.919 245.914C240.379 239.201 248.655 236.124 256.418 238.292L492.999 304.365C500.762 306.533 506.246 313.453 506.583 321.506L516.851 566.925C517.187 574.978 512.301 582.332 504.746 585.141L274.511 670.745C266.957 673.554 258.453 671.179 253.447 664.862L100.886 472.349C95.8801 466.032 95.511 457.21 99.9718 450.497L235.919 245.914Z" stroke="url(#paint83_linear_147_407)" stroke-opacity="0.1" stroke-width="3.0169"/>
<path opacity="0.858586" d="M236.788 246.162C241.365 239.528 249.693 236.596 257.417 238.899L492.242 308.922C499.966 311.226 505.328 318.24 505.525 326.298L511.494 571.268C511.69 579.325 506.676 586.593 499.073 589.27L267.937 670.646C260.335 673.323 251.873 670.8 246.978 664.397L98.1596 469.72C93.2647 463.317 93.0496 454.49 97.6268 447.856L236.788 246.162Z" stroke="url(#paint84_linear_147_407)" stroke-opacity="0.1" stroke-width="3.0169"/>
<path opacity="0.868687" d="M237.666 246.48C242.359 239.927 250.737 237.141 258.419 239.578L491.423 313.51C499.106 315.948 504.345 323.055 504.4 331.115L506.089 575.561C506.145 583.621 501.004 590.8 493.356 593.343L261.396 670.487C253.748 673.031 245.332 670.36 240.55 663.873L95.5016 467.104C90.7192 460.616 90.6582 451.787 95.3505 445.234L237.666 246.48Z" stroke="url(#paint85_linear_147_407)" stroke-opacity="0.1" stroke-width="3.0169"/>
<path opacity="0.878788" d="M238.553 246.868C243.359 240.398 251.784 237.758 259.423 240.329L490.541 318.128C498.179 320.699 503.294 327.897 503.209 335.956L500.637 579.803C500.552 587.863 495.287 594.951 487.596 597.361L254.889 670.268C247.198 672.677 238.83 669.861 234.161 663.29L92.9117 464.502C88.2433 457.932 88.3364 449.103 93.1424 442.633L238.553 246.868Z" stroke="url(#paint86_linear_147_407)" stroke-opacity="0.1" stroke-width="3.0169"/>
<path opacity="0.888889" d="M239.446 247.324C244.364 240.938 252.834 238.446 260.427 241.15L489.595 322.772C497.188 325.477 502.175 332.762 501.95 340.819L495.139 583.993C494.914 592.05 489.526 599.045 481.794 601.32L248.417 669.988C240.685 672.263 232.367 669.301 227.814 662.65L90.3892 461.915C85.8362 455.264 86.0834 446.438 91.0015 440.053L239.446 247.324Z" stroke="url(#paint87_linear_147_407)" stroke-opacity="0.1" stroke-width="3.0169"/>
<path opacity="0.89899" d="M240.344 247.848C245.373 241.55 253.886 239.206 261.43 242.042L488.585 327.443C496.13 330.28 500.989 337.651 500.623 345.703L489.597 588.131C489.231 596.182 483.722 603.082 475.951 605.222L241.981 669.65C234.21 671.79 225.945 668.682 221.509 661.953L87.9341 459.344C83.4978 452.615 83.899 443.794 88.9278 437.496L240.344 247.848Z" stroke="url(#paint88_linear_147_407)" stroke-opacity="0.1" stroke-width="3.0169"/>
<path opacity="0.909091" d="M241.247 248.443C246.385 242.233 254.937 240.038 262.431 243.006L487.512 332.141C495.005 335.108 499.736 342.564 499.229 350.607L484.01 592.216C483.504 600.26 477.875 607.063 470.068 609.067L235.582 669.254C227.775 671.258 219.566 668.007 215.248 661.202L85.5459 456.791C81.2277 449.985 81.7827 441.173 86.9207 434.964L241.247 248.443Z" stroke="url(#paint89_linear_147_407)" stroke-opacity="0.1" stroke-width="3.0169"/>
<path opacity="0.919192" d="M242.153 249.105C247.398 242.985 255.987 240.94 263.428 244.038L486.373 336.86C493.814 339.958 498.414 347.495 497.767 355.529L478.381 596.246C477.734 604.28 471.988 610.983 464.147 612.851L229.221 668.8C221.381 670.667 213.229 667.273 209.031 660.393L83.2238 454.255C79.025 447.375 79.7338 438.574 84.9794 432.455L242.153 249.105Z" stroke="url(#paint90_linear_147_407)" stroke-opacity="0.1" stroke-width="3.0169"/>
<path opacity="0.929293" d="M243.06 249.836C248.411 243.809 257.035 241.914 264.421 245.141L485.17 341.604C492.556 344.831 497.023 352.447 496.236 360.468L472.71 600.222C471.923 608.243 466.06 614.846 458.189 616.576L222.899 668.289C215.027 670.019 206.936 666.484 202.858 659.532L80.9674 451.739C76.8894 444.787 77.7516 436 83.1032 429.973L243.06 249.836Z" stroke="url(#paint91_linear_147_407)" stroke-opacity="0.1" stroke-width="3.0169"/>
<path opacity="0.939394" d="M243.968 250.636C249.424 244.703 258.079 242.959 265.407 246.314L483.902 346.369C491.23 349.724 495.564 357.417 494.637 365.423L466.998 604.143C466.072 612.149 460.095 618.648 452.194 620.241L216.617 667.723C208.716 669.316 200.688 665.64 196.732 658.618L78.7763 449.244C74.8202 442.222 75.8357 433.451 81.2917 427.518L243.968 250.636Z" stroke="url(#paint92_linear_147_407)" stroke-opacity="0.1" stroke-width="3.0169"/>
<path opacity="0.949495" d="M244.875 251.505C250.434 245.668 259.118 244.075 266.386 247.558L482.569 351.155C489.837 354.638 494.036 362.405 492.97 370.394L461.247 608.009C460.181 615.998 454.091 622.392 446.164 623.846L210.376 667.104C202.448 668.558 194.486 664.742 190.653 657.652L76.6503 446.772C72.8173 439.682 73.9857 430.93 79.5444 425.093L244.875 251.505Z" stroke="url(#paint93_linear_147_407)" stroke-opacity="0.1" stroke-width="3.0169"/>
<path opacity="0.959596" d="M245.78 252.44C251.44 246.702 260.151 245.26 267.357 248.87L481.17 355.959C488.377 359.568 492.44 367.408 491.234 375.377L455.458 611.818C454.252 619.787 448.052 626.073 440.1 627.389L204.176 666.428C196.224 667.744 188.33 663.79 184.621 656.634L74.5882 444.32C70.8796 437.165 72.2006 428.434 77.8603 422.696L245.78 252.44Z" stroke="url(#paint94_linear_147_407)" stroke-opacity="0.1" stroke-width="3.0169"/>
<path opacity="0.969697" d="M246.682 253.445C252.441 247.806 261.176 246.517 268.318 250.251L479.706 360.782C486.848 364.517 490.774 372.426 489.429 380.373L449.631 615.57C448.286 623.517 441.977 629.694 434.004 630.871L198.019 665.7C190.045 666.877 182.221 662.786 178.638 655.567L72.5899 441.895C69.0067 434.675 70.4799 425.969 76.2388 420.331L246.682 253.445Z" stroke="url(#paint95_linear_147_407)" stroke-opacity="0.1" stroke-width="3.0169"/>
<path opacity="0.979798" d="M247.58 254.516C253.436 248.978 262.192 247.842 269.268 251.7L478.176 365.62C485.252 369.479 489.039 377.455 487.556 385.378L443.767 619.264C442.284 627.186 435.868 633.252 427.875 634.29L191.905 664.919C183.912 665.957 176.16 661.729 172.704 654.448L70.6546 439.492C67.198 432.211 68.8228 423.533 74.6793 417.995L247.58 254.516Z" stroke="url(#paint96_linear_147_407)" stroke-opacity="0.1" stroke-width="3.0169"/>
<path opacity="0.989899" d="M248.472 255.655C254.424 250.221 263.199 249.238 270.206 253.219L476.58 370.476C483.588 374.457 487.235 382.499 485.613 390.394L437.869 622.901C436.247 630.796 429.727 636.749 421.717 637.647L185.836 664.088C177.826 664.986 170.149 660.624 166.82 653.284L68.7819 437.118C65.4529 429.778 67.2289 421.129 73.1811 415.694L248.472 255.655Z" stroke="url(#paint97_linear_147_407)" stroke-opacity="0.1" stroke-width="3.0169"/>
<path d="M249.357 256.862C255.403 251.533 264.194 250.702 271.131 254.806L474.918 375.345C481.855 379.449 485.361 387.552 483.602 395.418L431.936 626.479C430.177 634.345 423.554 640.184 415.53 640.942L179.811 663.206C171.787 663.964 164.187 659.469 160.987 652.072L66.971 434.77C63.7706 427.373 65.6974 418.756 71.7435 413.426L249.357 256.862Z" stroke="url(#paint98_linear_147_407)" stroke-opacity="0.1" stroke-width="3.0169"/>
<defs>
<linearGradient id="paint0_linear_147_407" x1="603.48" y1="501.685" x2="527.547" y2="182.846" gradientUnits="userSpaceOnUse">
<stop stop-color="#9172CF"/>
<stop offset="1" stop-color="#FE1BF6"/>
</linearGradient>
<linearGradient id="paint1_linear_147_407" x1="597.774" y1="503.319" x2="527.545" y2="183.787" gradientUnits="userSpaceOnUse">
<stop stop-color="#9172CF"/>
<stop offset="1" stop-color="#FE1BF6"/>
</linearGradient>
<linearGradient id="paint2_linear_147_407" x1="592.067" y1="504.904" x2="527.544" y2="184.781" gradientUnits="userSpaceOnUse">
<stop stop-color="#9172CF"/>
<stop offset="1" stop-color="#FE1BF6"/>
</linearGradient>
<linearGradient id="paint3_linear_147_407" x1="586.361" y1="506.439" x2="527.542" y2="185.827" gradientUnits="userSpaceOnUse">
<stop stop-color="#9172CF"/>
<stop offset="1" stop-color="#FE1BF6"/>
</linearGradient>
<linearGradient id="paint4_linear_147_407" x1="580.656" y1="507.925" x2="527.539" y2="186.925" gradientUnits="userSpaceOnUse">
<stop stop-color="#9172CF"/>
<stop offset="1" stop-color="#FE1BF6"/>
</linearGradient>
<linearGradient id="paint5_linear_147_407" x1="574.952" y1="509.359" x2="527.533" y2="188.073" gradientUnits="userSpaceOnUse">
<stop stop-color="#9172CF"/>
<stop offset="1" stop-color="#FE1BF6"/>
</linearGradient>
<linearGradient id="paint6_linear_147_407" x1="569.252" y1="510.745" x2="527.524" y2="189.273" gradientUnits="userSpaceOnUse">
<stop stop-color="#9172CF"/>
<stop offset="1" stop-color="#FE1BF6"/>
</linearGradient>
<linearGradient id="paint7_linear_147_407" x1="563.555" y1="512.082" x2="527.511" y2="190.525" gradientUnits="userSpaceOnUse">
<stop stop-color="#9172CF"/>
<stop offset="1" stop-color="#FE1BF6"/>
</linearGradient>
<linearGradient id="paint8_linear_147_407" x1="557.863" y1="513.369" x2="527.492" y2="191.828" gradientUnits="userSpaceOnUse">
<stop stop-color="#9172CF"/>
<stop offset="1" stop-color="#FE1BF6"/>
</linearGradient>
<linearGradient id="paint9_linear_147_407" x1="552.176" y1="514.606" x2="527.468" y2="193.181" gradientUnits="userSpaceOnUse">
<stop stop-color="#9172CF"/>
<stop offset="1" stop-color="#FE1BF6"/>
</linearGradient>
<linearGradient id="paint10_linear_147_407" x1="546.496" y1="515.797" x2="527.436" y2="194.586" gradientUnits="userSpaceOnUse">
<stop stop-color="#9172CF"/>
<stop offset="1" stop-color="#FE1BF6"/>
</linearGradient>
<linearGradient id="paint11_linear_147_407" x1="540.823" y1="516.936" x2="527.397" y2="196.039" gradientUnits="userSpaceOnUse">
<stop stop-color="#9172CF"/>
<stop offset="1" stop-color="#FE1BF6"/>
</linearGradient>
<linearGradient id="paint12_linear_147_407" x1="535.158" y1="518.029" x2="527.349" y2="197.545" gradientUnits="userSpaceOnUse">
<stop stop-color="#9172CF"/>
<stop offset="1" stop-color="#FE1BF6"/>
</linearGradient>
<linearGradient id="paint13_linear_147_407" x1="529.502" y1="519.074" x2="527.291" y2="199.1" gradientUnits="userSpaceOnUse">
<stop stop-color="#9172CF"/>
<stop offset="1" stop-color="#FE1BF6"/>
</linearGradient>
<linearGradient id="paint14_linear_147_407" x1="523.855" y1="520.069" x2="527.223" y2="200.704" gradientUnits="userSpaceOnUse">
<stop stop-color="#9172CF"/>
<stop offset="1" stop-color="#FE1BF6"/>
</linearGradient>
<linearGradient id="paint15_linear_147_407" x1="518.22" y1="521.018" x2="527.144" y2="202.358" gradientUnits="userSpaceOnUse">
<stop stop-color="#9172CF"/>
<stop offset="1" stop-color="#FE1BF6"/>
</linearGradient>
<linearGradient id="paint16_linear_147_407" x1="512.595" y1="521.92" x2="527.052" y2="204.061" gradientUnits="userSpaceOnUse">
<stop stop-color="#9172CF"/>
<stop offset="1" stop-color="#FE1BF6"/>
</linearGradient>
<linearGradient id="paint17_linear_147_407" x1="506.983" y1="522.774" x2="526.948" y2="205.813" gradientUnits="userSpaceOnUse">
<stop stop-color="#9172CF"/>
<stop offset="1" stop-color="#FE1BF6"/>
</linearGradient>
<linearGradient id="paint18_linear_147_407" x1="501.384" y1="523.582" x2="526.829" y2="207.614" gradientUnits="userSpaceOnUse">
<stop stop-color="#9172CF"/>
<stop offset="1" stop-color="#FE1BF6"/>
</linearGradient>
<linearGradient id="paint19_linear_147_407" x1="495.798" y1="524.341" x2="526.696" y2="209.461" gradientUnits="userSpaceOnUse">
<stop stop-color="#9172CF"/>
<stop offset="1" stop-color="#FE1BF6"/>
</linearGradient>
<linearGradient id="paint20_linear_147_407" x1="490.228" y1="525.057" x2="526.547" y2="211.358" gradientUnits="userSpaceOnUse">
<stop stop-color="#9172CF"/>
<stop offset="1" stop-color="#FE1BF6"/>
</linearGradient>
<linearGradient id="paint21_linear_147_407" x1="484.673" y1="525.726" x2="526.382" y2="213.301" gradientUnits="userSpaceOnUse">
<stop stop-color="#9172CF"/>
<stop offset="1" stop-color="#FE1BF6"/>
</linearGradient>
<linearGradient id="paint22_linear_147_407" x1="479.134" y1="526.35" x2="526.2" y2="215.292" gradientUnits="userSpaceOnUse">
<stop stop-color="#9172CF"/>
<stop offset="1" stop-color="#FE1BF6"/>
</linearGradient>
<linearGradient id="paint23_linear_147_407" x1="473.612" y1="526.929" x2="526" y2="217.329" gradientUnits="userSpaceOnUse">
<stop stop-color="#9172CF"/>
<stop offset="1" stop-color="#FE1BF6"/>
</linearGradient>
<linearGradient id="paint24_linear_147_407" x1="468.107" y1="527.463" x2="525.781" y2="219.412" gradientUnits="userSpaceOnUse">
<stop stop-color="#9172CF"/>
<stop offset="1" stop-color="#FE1BF6"/>
</linearGradient>
<linearGradient id="paint25_linear_147_407" x1="462.621" y1="527.952" x2="525.542" y2="221.541" gradientUnits="userSpaceOnUse">
<stop stop-color="#9172CF"/>
<stop offset="1" stop-color="#FE1BF6"/>
</linearGradient>
<linearGradient id="paint26_linear_147_407" x1="457.155" y1="528.398" x2="525.283" y2="223.716" gradientUnits="userSpaceOnUse">
<stop stop-color="#9172CF"/>
<stop offset="1" stop-color="#FE1BF6"/>
</linearGradient>
<linearGradient id="paint27_linear_147_407" x1="451.709" y1="528.801" x2="525.003" y2="225.935" gradientUnits="userSpaceOnUse">
<stop stop-color="#9172CF"/>
<stop offset="1" stop-color="#FE1BF6"/>
</linearGradient>
<linearGradient id="paint28_linear_147_407" x1="446.283" y1="529.161" x2="524.701" y2="228.2" gradientUnits="userSpaceOnUse">
<stop stop-color="#9172CF"/>
<stop offset="1" stop-color="#FE1BF6"/>
</linearGradient>
<linearGradient id="paint29_linear_147_407" x1="440.879" y1="529.478" x2="524.377" y2="230.507" gradientUnits="userSpaceOnUse">
<stop stop-color="#9172CF"/>
<stop offset="1" stop-color="#FE1BF6"/>
</linearGradient>
<linearGradient id="paint30_linear_147_407" x1="435.497" y1="529.754" x2="524.029" y2="232.859" gradientUnits="userSpaceOnUse">
<stop stop-color="#9172CF"/>
<stop offset="1" stop-color="#FE1BF6"/>
</linearGradient>
<linearGradient id="paint31_linear_147_407" x1="430.138" y1="529.987" x2="523.657" y2="235.252" gradientUnits="userSpaceOnUse">
<stop stop-color="#9172CF"/>
<stop offset="1" stop-color="#FE1BF6"/>
</linearGradient>
<linearGradient id="paint32_linear_147_407" x1="424.802" y1="530.18" x2="523.26" y2="237.689" gradientUnits="userSpaceOnUse">
<stop stop-color="#9172CF"/>
<stop offset="1" stop-color="#FE1BF6"/>
</linearGradient>
<linearGradient id="paint33_linear_147_407" x1="419.491" y1="530.332" x2="522.838" y2="240.167" gradientUnits="userSpaceOnUse">
<stop stop-color="#9172CF"/>
<stop offset="1" stop-color="#FE1BF6"/>
</linearGradient>
<linearGradient id="paint34_linear_147_407" x1="414.205" y1="530.445" x2="522.389" y2="242.688" gradientUnits="userSpaceOnUse">
<stop stop-color="#9172CF"/>
<stop offset="1" stop-color="#FE1BF6"/>
</linearGradient>
<linearGradient id="paint35_linear_147_407" x1="408.944" y1="530.517" x2="521.914" y2="245.248" gradientUnits="userSpaceOnUse">
<stop stop-color="#9172CF"/>
<stop offset="1" stop-color="#FE1BF6"/>
</linearGradient>
<linearGradient id="paint36_linear_147_407" x1="403.709" y1="530.552" x2="521.411" y2="247.85" gradientUnits="userSpaceOnUse">
<stop stop-color="#9172CF"/>
<stop offset="1" stop-color="#FE1BF6"/>
</linearGradient>
<linearGradient id="paint37_linear_147_407" x1="398.502" y1="530.547" x2="520.88" y2="250.49" gradientUnits="userSpaceOnUse">
<stop stop-color="#9172CF"/>
<stop offset="1" stop-color="#FE1BF6"/>
</linearGradient>
<linearGradient id="paint38_linear_147_407" x1="393.322" y1="530.504" x2="520.32" y2="253.17" gradientUnits="userSpaceOnUse">
<stop stop-color="#9172CF"/>
<stop offset="1" stop-color="#FE1BF6"/>
</linearGradient>
<linearGradient id="paint39_linear_147_407" x1="388.17" y1="530.424" x2="519.731" y2="255.887" gradientUnits="userSpaceOnUse">
<stop stop-color="#9172CF"/>
<stop offset="1" stop-color="#FE1BF6"/>
</linearGradient>
<linearGradient id="paint40_linear_147_407" x1="383.047" y1="530.308" x2="519.111" y2="258.644" gradientUnits="userSpaceOnUse">
<stop stop-color="#9172CF"/>
<stop offset="1" stop-color="#FE1BF6"/>
</linearGradient>
<linearGradient id="paint41_linear_147_407" x1="377.953" y1="530.155" x2="518.461" y2="261.438" gradientUnits="userSpaceOnUse">
<stop stop-color="#9172CF"/>
<stop offset="1" stop-color="#FE1BF6"/>
</linearGradient>
<linearGradient id="paint42_linear_147_407" x1="372.89" y1="529.967" x2="517.779" y2="264.268" gradientUnits="userSpaceOnUse">
<stop stop-color="#9172CF"/>
<stop offset="1" stop-color="#FE1BF6"/>
</linearGradient>
<linearGradient id="paint43_linear_147_407" x1="367.856" y1="529.744" x2="517.065" y2="267.134" gradientUnits="userSpaceOnUse">
<stop stop-color="#9172CF"/>
<stop offset="1" stop-color="#FE1BF6"/>
</linearGradient>
<linearGradient id="paint44_linear_147_407" x1="362.854" y1="529.488" x2="516.319" y2="270.036" gradientUnits="userSpaceOnUse">
<stop stop-color="#9172CF"/>
<stop offset="1" stop-color="#FE1BF6"/>
</linearGradient>
<linearGradient id="paint45_linear_147_407" x1="357.884" y1="529.197" x2="515.54" y2="272.973" gradientUnits="userSpaceOnUse">
<stop stop-color="#9172CF"/>
<stop offset="1" stop-color="#FE1BF6"/>
</linearGradient>
<linearGradient id="paint46_linear_147_407" x1="352.945" y1="528.872" x2="514.727" y2="275.942" gradientUnits="userSpaceOnUse">
<stop stop-color="#9172CF"/>
<stop offset="1" stop-color="#FE1BF6"/>
</linearGradient>
<linearGradient id="paint47_linear_147_407" x1="348.04" y1="528.516" x2="513.88" y2="278.946" gradientUnits="userSpaceOnUse">
<stop stop-color="#9172CF"/>
<stop offset="1" stop-color="#FE1BF6"/>
</linearGradient>
<linearGradient id="paint48_linear_147_407" x1="343.167" y1="528.127" x2="512.998" y2="281.982" gradientUnits="userSpaceOnUse">
<stop stop-color="#9172CF"/>
<stop offset="1" stop-color="#FE1BF6"/>
</linearGradient>
<linearGradient id="paint49_linear_147_407" x1="338.328" y1="527.708" x2="512.081" y2="285.051" gradientUnits="userSpaceOnUse">
<stop stop-color="#9172CF"/>
<stop offset="1" stop-color="#FE1BF6"/>
</linearGradient>
<linearGradient id="paint50_linear_147_407" x1="333.524" y1="527.259" x2="511.128" y2="288.151" gradientUnits="userSpaceOnUse">
<stop stop-color="#9172CF"/>
<stop offset="1" stop-color="#FE1BF6"/>
</linearGradient>
<linearGradient id="paint51_linear_147_407" x1="328.754" y1="526.779" x2="510.139" y2="291.282" gradientUnits="userSpaceOnUse">
<stop stop-color="#9172CF"/>
<stop offset="1" stop-color="#FE1BF6"/>
</linearGradient>
<linearGradient id="paint52_linear_147_407" x1="324.019" y1="526.271" x2="509.113" y2="294.442" gradientUnits="userSpaceOnUse">
<stop stop-color="#9172CF"/>
<stop offset="1" stop-color="#FE1BF6"/>
</linearGradient>
<linearGradient id="paint53_linear_147_407" x1="319.32" y1="525.734" x2="508.051" y2="297.632" gradientUnits="userSpaceOnUse">
<stop stop-color="#9172CF"/>
<stop offset="1" stop-color="#FE1BF6"/>
</linearGradient>
<linearGradient id="paint54_linear_147_407" x1="314.656" y1="525.17" x2="506.95" y2="300.85" gradientUnits="userSpaceOnUse">
<stop stop-color="#9172CF"/>
<stop offset="1" stop-color="#FE1BF6"/>
</linearGradient>
<linearGradient id="paint55_linear_147_407" x1="310.029" y1="524.579" x2="505.812" y2="304.096" gradientUnits="userSpaceOnUse">
<stop stop-color="#9172CF"/>
<stop offset="1" stop-color="#FE1BF6"/>
</linearGradient>
<linearGradient id="paint56_linear_147_407" x1="305.439" y1="523.96" x2="504.635" y2="307.368" gradientUnits="userSpaceOnUse">
<stop stop-color="#9172CF"/>
<stop offset="1" stop-color="#FE1BF6"/>
</linearGradient>
<linearGradient id="paint57_linear_147_407" x1="300.887" y1="523.318" x2="503.42" y2="310.668" gradientUnits="userSpaceOnUse">
<stop stop-color="#9172CF"/>
<stop offset="1" stop-color="#FE1BF6"/>
</linearGradient>
<linearGradient id="paint58_linear_147_407" x1="296.371" y1="522.649" x2="502.165" y2="313.993" gradientUnits="userSpaceOnUse">
<stop stop-color="#9172CF"/>
<stop offset="1" stop-color="#FE1BF6"/>
</linearGradient>
<linearGradient id="paint59_linear_147_407" x1="291.894" y1="521.957" x2="500.87" y2="317.342" gradientUnits="userSpaceOnUse">
<stop stop-color="#9172CF"/>
<stop offset="1" stop-color="#FE1BF6"/>
</linearGradient>
<linearGradient id="paint60_linear_147_407" x1="287.455" y1="521.241" x2="499.536" y2="320.716" gradientUnits="userSpaceOnUse">
<stop stop-color="#9172CF"/>
<stop offset="1" stop-color="#FE1BF6"/>
</linearGradient>
<linearGradient id="paint61_linear_147_407" x1="283.055" y1="520.503" x2="498.161" y2="324.113" gradientUnits="userSpaceOnUse">
<stop stop-color="#9172CF"/>
<stop offset="1" stop-color="#FE1BF6"/>
</linearGradient>
<linearGradient id="paint62_linear_147_407" x1="278.693" y1="519.744" x2="496.746" y2="327.533" gradientUnits="userSpaceOnUse">
<stop stop-color="#9172CF"/>
<stop offset="1" stop-color="#FE1BF6"/>
</linearGradient>
<linearGradient id="paint63_linear_147_407" x1="274.371" y1="518.962" x2="495.29" y2="330.974" gradientUnits="userSpaceOnUse">
<stop stop-color="#9172CF"/>
<stop offset="1" stop-color="#FE1BF6"/>
</linearGradient>
<linearGradient id="paint64_linear_147_407" x1="270.089" y1="518.161" x2="493.792" y2="334.436" gradientUnits="userSpaceOnUse">
<stop stop-color="#9172CF"/>
<stop offset="1" stop-color="#FE1BF6"/>
</linearGradient>
<linearGradient id="paint65_linear_147_407" x1="265.846" y1="517.338" x2="492.253" y2="337.917" gradientUnits="userSpaceOnUse">
<stop stop-color="#9172CF"/>
<stop offset="1" stop-color="#FE1BF6"/>
</linearGradient>
<linearGradient id="paint66_linear_147_407" x1="261.643" y1="516.498" x2="490.672" y2="341.419" gradientUnits="userSpaceOnUse">
<stop stop-color="#9172CF"/>
<stop offset="1" stop-color="#FE1BF6"/>
</linearGradient>
<linearGradient id="paint67_linear_147_407" x1="257.481" y1="515.639" x2="489.049" y2="344.939" gradientUnits="userSpaceOnUse">
<stop stop-color="#9172CF"/>
<stop offset="1" stop-color="#FE1BF6"/>
</linearGradient>
<linearGradient id="paint68_linear_147_407" x1="253.36" y1="514.763" x2="487.384" y2="348.476" gradientUnits="userSpaceOnUse">
<stop stop-color="#9172CF"/>
<stop offset="1" stop-color="#FE1BF6"/>
</linearGradient>
<linearGradient id="paint69_linear_147_407" x1="249.279" y1="513.871" x2="485.676" y2="352.032" gradientUnits="userSpaceOnUse">
<stop stop-color="#9172CF"/>
<stop offset="1" stop-color="#FE1BF6"/>
</linearGradient>
<linearGradient id="paint70_linear_147_407" x1="245.239" y1="512.962" x2="483.926" y2="355.602" gradientUnits="userSpaceOnUse">
<stop stop-color="#9172CF"/>
<stop offset="1" stop-color="#FE1BF6"/>
</linearGradient>
<linearGradient id="paint71_linear_147_407" x1="241.241" y1="512.038" x2="482.132" y2="359.189" gradientUnits="userSpaceOnUse">
<stop stop-color="#9172CF"/>
<stop offset="1" stop-color="#FE1BF6"/>
</linearGradient>
<linearGradient id="paint72_linear_147_407" x1="237.284" y1="511.1" x2="480.296" y2="362.79" gradientUnits="userSpaceOnUse">
<stop stop-color="#9172CF"/>
<stop offset="1" stop-color="#FE1BF6"/>
</linearGradient>
<linearGradient id="paint73_linear_147_407" x1="233.368" y1="510.149" x2="478.416" y2="366.405" gradientUnits="userSpaceOnUse">
<stop stop-color="#9172CF"/>
<stop offset="1" stop-color="#FE1BF6"/>
</linearGradient>
<linearGradient id="paint74_linear_147_407" x1="229.495" y1="509.184" x2="476.492" y2="370.032" gradientUnits="userSpaceOnUse">
<stop stop-color="#9172CF"/>
<stop offset="1" stop-color="#FE1BF6"/>
</linearGradient>
<linearGradient id="paint75_linear_147_407" x1="225.663" y1="508.208" x2="474.525" y2="373.672" gradientUnits="userSpaceOnUse">
<stop stop-color="#9172CF"/>
<stop offset="1" stop-color="#FE1BF6"/>
</linearGradient>
<linearGradient id="paint76_linear_147_407" x1="221.873" y1="507.221" x2="472.515" y2="377.324" gradientUnits="userSpaceOnUse">
<stop stop-color="#9172CF"/>
<stop offset="1" stop-color="#FE1BF6"/>
</linearGradient>
<linearGradient id="paint77_linear_147_407" x1="218.126" y1="506.223" x2="470.46" y2="380.987" gradientUnits="userSpaceOnUse">
<stop stop-color="#9172CF"/>
<stop offset="1" stop-color="#FE1BF6"/>
</linearGradient>
<linearGradient id="paint78_linear_147_407" x1="214.42" y1="505.215" x2="468.362" y2="384.658" gradientUnits="userSpaceOnUse">
<stop stop-color="#9172CF"/>
<stop offset="1" stop-color="#FE1BF6"/>
</linearGradient>
<linearGradient id="paint79_linear_147_407" x1="210.757" y1="504.199" x2="466.219" y2="388.339" gradientUnits="userSpaceOnUse">
<stop stop-color="#9172CF"/>
<stop offset="1" stop-color="#FE1BF6"/>
</linearGradient>
<linearGradient id="paint80_linear_147_407" x1="207.136" y1="503.173" x2="464.033" y2="392.027" gradientUnits="userSpaceOnUse">
<stop stop-color="#9172CF"/>
<stop offset="1" stop-color="#FE1BF6"/>
</linearGradient>
<linearGradient id="paint81_linear_147_407" x1="203.558" y1="502.141" x2="461.802" y2="395.723" gradientUnits="userSpaceOnUse">
<stop stop-color="#9172CF"/>
<stop offset="1" stop-color="#FE1BF6"/>
</linearGradient>
<linearGradient id="paint82_linear_147_407" x1="200.023" y1="501.102" x2="459.527" y2="399.425" gradientUnits="userSpaceOnUse">
<stop stop-color="#9172CF"/>
<stop offset="1" stop-color="#FE1BF6"/>
</linearGradient>
<linearGradient id="paint83_linear_147_407" x1="196.529" y1="500.058" x2="457.208" y2="403.134" gradientUnits="userSpaceOnUse">
<stop stop-color="#9172CF"/>
<stop offset="1" stop-color="#FE1BF6"/>
</linearGradient>
<linearGradient id="paint84_linear_147_407" x1="193.078" y1="499.008" x2="454.845" y2="406.847" gradientUnits="userSpaceOnUse">
<stop stop-color="#9172CF"/>
<stop offset="1" stop-color="#FE1BF6"/>
</linearGradient>
<linearGradient id="paint85_linear_147_407" x1="189.67" y1="497.954" x2="452.438" y2="410.564" gradientUnits="userSpaceOnUse">
<stop stop-color="#9172CF"/>
<stop offset="1" stop-color="#FE1BF6"/>
</linearGradient>
<linearGradient id="paint86_linear_147_407" x1="186.304" y1="496.897" x2="449.987" y2="414.285" gradientUnits="userSpaceOnUse">
<stop stop-color="#9172CF"/>
<stop offset="1" stop-color="#FE1BF6"/>
</linearGradient>
<linearGradient id="paint87_linear_147_407" x1="182.981" y1="495.837" x2="447.491" y2="418.008" gradientUnits="userSpaceOnUse">
<stop stop-color="#9172CF"/>
<stop offset="1" stop-color="#FE1BF6"/>
</linearGradient>
<linearGradient id="paint88_linear_147_407" x1="179.7" y1="494.774" x2="444.951" y2="421.733" gradientUnits="userSpaceOnUse">
<stop stop-color="#9172CF"/>
<stop offset="1" stop-color="#FE1BF6"/>
</linearGradient>
<linearGradient id="paint89_linear_147_407" x1="176.461" y1="493.712" x2="442.368" y2="425.46" gradientUnits="userSpaceOnUse">
<stop stop-color="#9172CF"/>
<stop offset="1" stop-color="#FE1BF6"/>
</linearGradient>
<linearGradient id="paint90_linear_147_407" x1="173.265" y1="492.648" x2="439.74" y2="429.185" gradientUnits="userSpaceOnUse">
<stop stop-color="#9172CF"/>
<stop offset="1" stop-color="#FE1BF6"/>
</linearGradient>
<linearGradient id="paint91_linear_147_407" x1="170.111" y1="491.584" x2="437.069" y2="432.91" gradientUnits="userSpaceOnUse">
<stop stop-color="#9172CF"/>
<stop offset="1" stop-color="#FE1BF6"/>
</linearGradient>
<linearGradient id="paint92_linear_147_407" x1="166.999" y1="490.522" x2="434.354" y2="436.634" gradientUnits="userSpaceOnUse">
<stop stop-color="#9172CF"/>
<stop offset="1" stop-color="#FE1BF6"/>
</linearGradient>
<linearGradient id="paint93_linear_147_407" x1="163.929" y1="489.463" x2="431.595" y2="440.357" gradientUnits="userSpaceOnUse">
<stop stop-color="#9172CF"/>
<stop offset="1" stop-color="#FE1BF6"/>
</linearGradient>
<linearGradient id="paint94_linear_147_407" x1="160.9" y1="488.404" x2="428.793" y2="444.075" gradientUnits="userSpaceOnUse">
<stop stop-color="#9172CF"/>
<stop offset="1" stop-color="#FE1BF6"/>
</linearGradient>
<linearGradient id="paint95_linear_147_407" x1="157.914" y1="487.35" x2="425.948" y2="447.791" gradientUnits="userSpaceOnUse">
<stop stop-color="#9172CF"/>
<stop offset="1" stop-color="#FE1BF6"/>
</linearGradient>
<linearGradient id="paint96_linear_147_407" x1="154.969" y1="486.299" x2="423.059" y2="451.5" gradientUnits="userSpaceOnUse">
<stop stop-color="#9172CF"/>
<stop offset="1" stop-color="#FE1BF6"/>
</linearGradient>
<linearGradient id="paint97_linear_147_407" x1="152.065" y1="485.254" x2="420.128" y2="455.206" gradientUnits="userSpaceOnUse">
<stop stop-color="#9172CF"/>
<stop offset="1" stop-color="#FE1BF6"/>
</linearGradient>
<linearGradient id="paint98_linear_147_407" x1="149.203" y1="484.214" x2="417.154" y2="458.905" gradientUnits="userSpaceOnUse">
<stop stop-color="#9172CF"/>
<stop offset="1" stop-color="#FE1BF6"/>
</linearGradient>
</defs>
</svg>
