<svg width="487" height="608" viewBox="0 0 487 608" fill="none" xmlns="http://www.w3.org/2000/svg">
<path opacity="0.010101" d="M-125.294 225.617C-131.413 220.372 -133.458 211.782 -130.36 204.342L-17.0904 -67.7157C-13.9925 -75.1564 -6.45577 -79.7561 1.57805 -79.1091L295.322 -55.4532C303.356 -54.8063 310.06 -49.0598 311.927 -41.2192L380.201 245.458C382.068 253.299 378.674 261.45 371.795 265.649L120.246 419.169C113.366 423.368 104.565 422.659 98.446 417.414L-125.294 225.617Z" stroke="url(#paint0_linear_147_835)" stroke-opacity="0.1" stroke-width="3.0169"/>
<path opacity="0.020202" d="M-128.932 222.315C-134.959 216.964 -136.855 208.34 -133.627 200.955L-15.8632 -68.5427C-12.6359 -75.9282 -5.02006 -80.3957 3.00124 -79.6086L295.7 -50.8875C303.721 -50.1004 310.323 -44.2378 312.053 -36.3658L375.187 250.882C376.917 258.754 373.381 266.845 366.429 270.923L112.75 419.731C105.798 423.809 97.0103 422.946 90.9836 417.595L-128.932 222.315Z" stroke="url(#paint1_linear_147_835)" stroke-opacity="0.1" stroke-width="3.0169"/>
<path opacity="0.030303" d="M-132.49 219.01C-138.422 213.554 -140.167 204.899 -136.811 197.571L-14.6074 -69.2927C-11.2517 -76.6207 -3.55905 -80.9546 4.4473 -80.0276L296.013 -46.2706C304.019 -45.3436 310.518 -39.3667 312.11 -31.4658L370.104 256.261C371.697 264.162 368.021 272.19 360.998 276.146L105.275 420.213C98.2532 424.169 89.4823 423.154 83.5499 417.698L-132.49 219.01Z" stroke="url(#paint2_linear_147_835)" stroke-opacity="0.1" stroke-width="3.0169"/>
<path opacity="0.040404" d="M-135.965 215.704C-141.801 210.145 -143.394 201.461 -139.911 194.193L-13.3244 -69.9646C-9.84129 -77.2329 -2.07416 -81.4319 5.91479 -80.3653L296.261 -41.6032C304.25 -40.5367 310.643 -34.4472 312.098 -26.5197L364.954 261.594C366.409 269.521 362.593 277.484 355.503 281.317L97.8244 420.618C90.7343 424.451 81.9825 423.283 76.1462 417.724L-135.965 215.704Z" stroke="url(#paint3_linear_147_835)" stroke-opacity="0.1" stroke-width="3.0169"/>
<path opacity="0.050505" d="M-139.358 212.397C-145.096 206.738 -146.538 198.027 -142.928 190.82L-12.0154 -70.5591C-8.40599 -77.7656 -0.566762 -81.8284 7.40235 -80.6225L296.443 -36.8874C304.412 -35.6816 310.699 -29.4815 312.014 -21.5298L359.738 266.879C361.054 274.831 357.1 282.725 349.944 286.434L90.3985 420.945C83.2426 424.654 74.5125 423.333 68.7741 417.673L-139.358 212.397Z" stroke="url(#paint4_linear_147_835)" stroke-opacity="0.1" stroke-width="3.0169"/>
<path opacity="0.0606061" d="M-142.67 209.09C-148.308 203.331 -149.598 194.596 -145.863 187.454L-10.6822 -71.0766C-6.9476 -78.2189 0.96135 -82.1443 8.90821 -80.7996L296.559 -32.1254C304.506 -30.7807 310.683 -24.4718 311.86 -16.4984L354.457 272.115C355.633 280.088 351.542 287.913 344.323 291.496L82.9985 421.194C75.7789 424.777 67.0732 423.304 61.4345 417.545L-142.67 209.09Z" stroke="url(#paint5_linear_147_835)" stroke-opacity="0.1" stroke-width="3.0169"/>
<path opacity="0.0707071" d="M-145.9 205.786C-151.438 199.929 -152.574 191.173 -148.715 184.097L-9.32609 -71.5161C-5.4674 -78.5922 2.50884 -82.3789 10.431 -80.8957L296.607 -27.3174C304.529 -25.8343 310.596 -19.4185 311.633 -11.4257L349.11 277.301C350.148 285.293 345.921 293.045 338.64 296.502L75.6259 421.366C68.3449 424.823 59.6662 423.198 54.1289 417.342L-145.9 205.786Z" stroke="url(#paint6_linear_147_835)" stroke-opacity="0.1" stroke-width="3.0169"/>
<path opacity="0.0808081" d="M-149.05 202.486C-154.484 196.534 -155.467 187.759 -151.486 180.752L-7.94873 -71.8761C-3.96713 -78.8838 4.07399 -82.5307 11.9691 -80.9095L296.588 -22.4638C304.483 -20.8426 310.436 -14.322 311.334 -6.3123L343.701 282.437C344.599 290.446 340.237 298.123 332.897 301.452L68.2818 421.463C60.9416 424.792 52.2926 423.016 46.8583 417.064L-149.05 202.486Z" stroke="url(#paint7_linear_147_835)" stroke-opacity="0.1" stroke-width="3.0169"/>
<path opacity="0.0909091" d="M-152.118 199.191C-157.447 193.145 -158.278 184.355 -154.174 177.417L-6.55111 -72.1579C-2.44782 -79.095 5.65573 -82.6011 13.5213 -80.8423L296.5 -17.5673C304.365 -15.8085 310.204 -9.18499 310.962 -1.16086L338.229 287.521C338.987 295.545 334.492 303.144 327.094 306.345L60.9679 421.485C53.5708 424.685 44.954 422.758 39.6244 416.712L-152.118 199.191Z" stroke="url(#paint8_linear_147_835)" stroke-opacity="0.1" stroke-width="3.0169"/>
<path opacity="0.10101" d="M-155.105 195.902C-160.329 189.764 -161.005 180.96 -156.782 174.096L-5.13506 -72.3616C-0.911324 -79.2261 7.25218 -82.5902 15.0859 -80.6943L296.342 -12.6293C304.176 -10.7336 309.898 -4.00917 310.516 4.02696L332.695 292.551C333.313 300.587 328.686 308.107 321.234 311.178L53.6851 421.431C46.2332 424.501 37.6515 422.425 32.4282 416.286L-155.105 195.902Z" stroke="url(#paint9_linear_147_835)" stroke-opacity="0.1" stroke-width="3.0169"/>
<path opacity="0.111111" d="M-158.013 192.622C-163.128 186.394 -163.651 177.58 -159.308 170.79L-3.70167 -72.4852C0.641228 -79.2749 8.86219 -82.496 16.6616 -80.4638L296.115 -7.64953C303.915 -5.61735 309.519 1.20589 309.996 9.25158L327.102 297.529C327.579 305.574 322.821 313.012 315.317 315.953L46.435 421.304C38.9307 424.244 30.3865 422.018 25.2711 415.789L-158.013 192.622Z" stroke="url(#paint10_linear_147_835)" stroke-opacity="0.1" stroke-width="3.0169"/>
<path opacity="0.121212" d="M-160.84 189.351C-165.846 183.034 -166.215 174.212 -161.754 167.499L-2.25275 -72.5311C2.20797 -79.2439 10.4839 -82.3211 18.2467 -80.153L295.818 -2.63173C303.581 -0.463738 309.064 6.45626 309.401 14.5091L321.448 302.45C321.785 310.503 316.899 317.857 309.344 320.666L39.2185 421.102C31.664 423.911 23.1599 421.536 18.1541 415.219L-160.84 189.351Z" stroke="url(#paint11_linear_147_835)" stroke-opacity="0.1" stroke-width="3.0169"/>
<path opacity="0.131313" d="M-163.587 186.092C-168.482 179.688 -168.697 170.862 -164.12 164.228L-0.789235 -72.496C3.78797 -79.1301 12.1164 -82.0623 19.8401 -79.7591L295.45 2.42571C303.173 4.72885 308.536 11.7435 308.732 19.801L315.737 307.318C315.934 315.375 310.92 322.643 303.317 325.319L32.0374 420.829C24.435 423.506 15.9737 420.983 11.0788 414.58L-163.587 186.092Z" stroke="url(#paint12_linear_147_835)" stroke-opacity="0.1" stroke-width="3.0169"/>
<path opacity="0.141414" d="M-166.255 182.844C-171.037 176.356 -171.098 167.527 -166.406 160.974L0.686839 -72.3824C5.37913 -78.9355 13.7574 -81.722 21.4398 -79.2843L295.01 7.51925C302.692 9.95684 307.931 17.064 307.987 25.1237L309.969 312.128C310.025 320.187 304.884 327.366 297.237 329.91L24.8921 420.484C17.2441 423.028 8.82816 420.358 4.04579 413.87L-166.255 182.844Z" stroke="url(#paint13_linear_147_835)" stroke-opacity="0.1" stroke-width="3.0169"/>
<path opacity="0.151515" d="M-168.844 179.61C-173.512 173.04 -173.419 164.211 -168.613 157.74L2.1746 -72.1898C6.98054 -78.66 15.4062 -81.2998 23.0448 -78.7284L294.498 12.6478C302.136 15.2191 307.251 22.4166 307.166 30.476L304.145 316.88C304.06 324.939 298.795 332.027 291.104 334.437L17.7845 420.068C10.0934 422.478 1.72527 419.661 -2.94315 413.091L-168.844 179.61Z" stroke="url(#paint14_linear_147_835)" stroke-opacity="0.1" stroke-width="3.0169"/>
<path opacity="0.161616" d="M-171.354 176.391C-175.907 169.74 -175.66 160.914 -170.741 154.529L3.67225 -71.9174C8.59037 -78.3027 17.0608 -80.7951 24.6534 -78.0908L293.913 17.8108C301.506 20.515 306.494 27.8007 306.268 35.8573L298.266 321.574C298.041 329.631 292.653 336.626 284.921 338.901L10.7155 419.582C2.98346 421.857 -5.33421 418.895 -9.88725 412.244L-171.354 176.391Z" stroke="url(#paint15_linear_147_835)" stroke-opacity="0.1" stroke-width="3.0169"/>
<path opacity="0.171717" d="M-173.786 173.189C-178.222 166.46 -177.821 157.64 -172.792 151.341L5.1783 -71.5647C10.2071 -77.8633 18.7197 -80.2074 26.264 -77.3711L293.256 23.0071C300.8 25.8434 305.66 33.215 305.294 41.2666L292.334 326.21C291.968 334.261 286.459 341.161 278.688 343.301L3.68609 419.027C-4.0845 421.167 -12.3492 418.06 -16.7855 411.331L-173.786 173.189Z" stroke="url(#paint16_linear_147_835)" stroke-opacity="0.1" stroke-width="3.0169"/>
<path opacity="0.181818" d="M-176.14 170.004C-180.458 163.199 -179.903 154.387 -174.765 148.177L6.69172 -71.1335C11.8297 -77.3433 20.3819 -79.5386 27.8756 -76.571L292.525 28.2339C300.019 31.2015 304.75 38.6568 304.243 46.7007L286.349 330.784C285.842 338.828 280.214 345.631 272.407 347.635L-3.30215 418.403C-11.1089 420.407 -19.3181 417.156 -23.6363 410.351L-176.14 170.004Z" stroke="url(#paint17_linear_147_835)" stroke-opacity="0.1" stroke-width="3.0169"/>
<path opacity="0.191919" d="M-178.417 166.839C-182.615 159.959 -181.907 151.158 -176.661 145.039L8.21072 -70.6224C13.4563 -76.7416 22.0455 -78.7872 29.4862 -75.6893L291.721 33.4912C299.162 36.5891 303.761 44.1258 303.114 52.1597L280.313 335.298C279.666 343.332 273.919 350.036 266.079 351.903L-10.2485 417.712C-18.089 419.579 -26.2402 416.186 -30.439 409.306L-178.417 166.839Z" stroke="url(#paint18_linear_147_835)" stroke-opacity="0.1" stroke-width="3.0169"/>
<path opacity="0.20202" d="M-180.617 163.693C-184.695 156.741 -183.833 147.953 -178.481 141.927L9.73394 -70.0335C15.0855 -76.0602 23.7092 -77.9556 31.0946 -74.7283L290.842 38.7755C298.228 42.0027 302.695 49.6186 301.908 57.6399L274.226 339.749C273.439 347.771 267.577 354.373 259.705 356.103L-17.1516 416.953C-25.0235 418.683 -33.1143 415.147 -37.1923 408.195L-180.617 163.693Z" stroke="url(#paint19_linear_147_835)" stroke-opacity="0.1" stroke-width="3.0169"/>
<path opacity="0.212121" d="M-182.741 160.57C-186.697 153.548 -185.681 144.777 -180.225 138.845L11.2602 -69.3632C16.7162 -75.2956 25.3716 -77.0402 32.6996 -73.6845L289.89 44.0892C297.218 47.4448 301.551 55.1375 300.624 63.1439L268.091 344.14C267.164 352.146 261.187 358.645 253.286 360.238L-24.0103 416.129C-31.9113 417.722 -39.9391 414.046 -43.8951 407.024L-182.741 160.57Z" stroke="url(#paint20_linear_147_835)" stroke-opacity="0.1" stroke-width="3.0169"/>
<path opacity="0.222222" d="M-184.789 157.469C-188.622 150.379 -187.453 141.627 -181.895 135.791L12.7877 -68.6154C18.3463 -74.4517 27.0309 -76.045 34.2992 -72.5619L288.861 49.427C296.13 52.9101 300.329 60.6772 299.262 68.6662L261.908 348.466C260.841 356.455 254.752 362.848 246.825 364.303L-30.824 415.24C-38.7515 416.694 -46.7139 412.878 -50.5468 405.788L-184.789 157.469Z" stroke="url(#paint21_linear_147_835)" stroke-opacity="0.1" stroke-width="3.0169"/>
<path opacity="0.232323" d="M-186.762 154.394C-190.47 147.238 -189.149 138.508 -183.49 132.769L14.3153 -67.7873C19.975 -73.5257 28.686 -74.9672 35.8925 -71.3578L287.758 54.7905C294.965 58.3999 299.028 66.2391 297.822 74.2083L255.679 352.729C254.473 360.698 248.273 366.984 240.321 368.3L-37.591 414.287C-45.5427 415.603 -53.4373 411.649 -57.1459 404.493L-186.762 154.394Z" stroke="url(#paint22_linear_147_835)" stroke-opacity="0.1" stroke-width="3.0169"/>
<path opacity="0.242424" d="M-188.66 151.344C-192.243 144.125 -190.77 135.419 -185.011 129.78L15.8416 -66.8804C21.6006 -72.5191 30.3354 -73.8084 37.4778 -70.0737L286.58 60.1771C293.722 63.9117 297.648 71.8206 296.303 79.7675L249.404 356.927C248.059 364.874 241.75 371.052 233.777 372.228L-44.3106 413.272C-52.284 414.449 -60.1084 410.357 -63.6916 403.138L-188.66 151.344Z" stroke="url(#paint23_linear_147_835)" stroke-opacity="0.1" stroke-width="3.0169"/>
<path opacity="0.252525" d="M-190.484 148.32C-193.941 141.039 -192.316 132.361 -186.46 126.823L17.3653 -65.8959C23.2217 -71.4332 31.9778 -72.5698 39.0539 -68.7111L285.326 65.5843C292.402 69.443 296.189 77.4193 294.706 85.3415L243.085 361.06C241.602 368.982 235.186 375.048 227.194 376.085L-50.9816 412.193C-58.9744 413.231 -66.7262 409.004 -70.1828 401.723L-190.484 148.32Z" stroke="url(#paint24_linear_147_835)" stroke-opacity="0.1" stroke-width="3.0169"/>
<path opacity="0.262626" d="M-192.235 145.325C-195.564 137.984 -193.788 129.335 -187.836 123.901L18.8846 -64.833C24.8368 -70.2673 33.6113 -71.2508 40.619 -67.2692L283.996 71.0118C291.004 74.9934 294.651 83.0345 293.029 90.9296L236.724 365.126C235.103 373.021 228.582 378.974 220.572 379.872L-57.6033 411.054C-65.613 411.952 -73.2898 407.59 -76.6189 400.25L-192.235 145.325Z" stroke="url(#paint25_linear_147_835)" stroke-opacity="0.1" stroke-width="3.0169"/>
<path opacity="0.272727" d="M-193.914 142.359C-197.114 134.962 -195.188 126.345 -189.141 121.016L20.3981 -63.6908C26.4443 -69.0204 35.2346 -69.8507 42.1717 -65.7474L282.589 76.4592C289.527 80.5624 293.033 88.666 291.274 96.5316L230.321 369.127C228.562 376.992 221.938 382.831 213.914 383.589L-64.1748 409.855C-72.1989 410.613 -79.7985 406.118 -82.9988 398.721L-193.914 142.359Z" stroke="url(#paint26_linear_147_835)" stroke-opacity="0.1" stroke-width="3.0169"/>
<path opacity="0.282828" d="M-195.52 139.424C-198.591 131.972 -196.514 123.391 -190.376 118.167L21.9052 -62.471C28.0435 -67.6943 36.847 -68.3711 43.7114 -64.1473L281.107 81.9237C287.972 86.1474 291.336 94.3109 289.44 102.145L223.878 373.06C221.982 380.894 215.257 386.616 207.221 387.233L-70.6944 408.597C-78.7305 409.215 -86.2504 404.588 -89.3213 397.136L-195.52 139.424Z" stroke="url(#paint27_linear_147_835)" stroke-opacity="0.1" stroke-width="3.0169"/>
<path opacity="0.292929" d="M-197.055 136.522C-199.995 129.017 -197.769 120.473 -191.54 115.358L23.404 -61.173C29.6325 -66.2884 38.4465 -66.8114 45.2362 -62.4685L279.549 87.4049C286.338 91.7477 289.559 99.9687 287.527 107.768L217.396 376.926C215.363 384.725 208.54 390.329 200.495 390.807L-77.1615 407.282C-85.2072 407.759 -92.6453 403.002 -95.5856 395.497L-197.055 136.522Z" stroke="url(#paint28_linear_147_835)" stroke-opacity="0.1" stroke-width="3.0169"/>
<path opacity="0.30303" d="M-198.52 133.651C-201.329 126.097 -198.954 117.593 -192.637 112.587L24.8927 -59.799C31.2095 -64.8049 40.0313 -65.174 46.7442 -60.7133L277.913 92.8994C284.626 97.3601 287.703 105.636 285.535 113.399L210.876 380.722C208.708 388.485 201.788 393.969 193.735 394.306L-83.5759 405.908C-91.6287 406.245 -98.9826 401.359 -101.791 393.804L-198.52 133.651Z" stroke="url(#paint29_linear_147_835)" stroke-opacity="0.1" stroke-width="3.0169"/>
<path opacity="0.313131" d="M-199.914 130.816C-202.591 123.214 -200.068 114.752 -193.664 109.857L26.3708 -58.3465C32.774 -63.2414 41.6009 -63.4565 48.2349 -58.8793L276.201 98.4088C282.835 102.986 285.767 111.314 283.464 119.038L204.32 384.452C202.016 392.175 195.002 397.538 186.944 397.734L-89.9357 404.48C-97.9932 404.677 -105.261 399.662 -107.937 392.06L-199.914 130.816Z" stroke="url(#paint30_linear_147_835)" stroke-opacity="0.1" stroke-width="3.0169"/>
<path opacity="0.323232" d="M-201.24 128.015C-203.783 120.367 -201.113 111.951 -194.625 107.169L27.8362 -56.8189C34.3238 -61.6013 43.1531 -61.6623 49.7062 -56.97L274.412 103.929C280.965 108.621 283.751 116.999 281.314 124.681L197.728 388.11C195.291 395.792 188.183 401.031 180.124 401.087L-96.2409 402.996C-104.301 403.052 -111.479 397.911 -114.023 390.263L-201.24 128.015Z" stroke="url(#paint31_linear_147_835)" stroke-opacity="0.1" stroke-width="3.0169"/>
<path opacity="0.333333" d="M-202.497 125.252C-204.906 117.56 -202.09 109.192 -195.519 104.524L29.2883 -55.2137C35.8584 -59.8821 44.6874 -59.789 51.1576 -54.9831L272.547 109.46C279.017 114.266 281.657 122.692 279.085 130.33L191.103 391.7C188.532 399.338 181.335 404.452 173.275 404.367L-102.49 401.459C-110.549 401.374 -117.637 396.109 -120.047 388.418L-202.497 125.252Z" stroke="url(#paint32_linear_147_835)" stroke-opacity="0.1" stroke-width="3.0169"/>
<path opacity="0.343434" d="M-203.687 122.525C-205.962 114.793 -202.999 106.475 -196.348 101.922L30.7251 -53.5335C37.3757 -58.0866 46.2017 -57.8394 52.587 -52.9213L270.604 115C276.989 119.918 279.482 128.389 276.777 135.981L184.446 395.218C181.742 402.811 174.456 407.799 166.399 407.573L-108.682 399.869C-116.739 399.643 -123.734 394.256 -126.009 386.524L-203.687 122.525Z" stroke="url(#paint33_linear_147_835)" stroke-opacity="0.1" stroke-width="3.0169"/>
<path opacity="0.353535" d="M-204.809 119.839C-206.949 112.068 -203.842 103.803 -197.113 99.3671L32.1457 -51.7768C38.8747 -56.213 47.6951 -55.8119 53.9936 -50.7831L268.585 120.549C274.883 125.578 277.228 134.09 274.391 141.634L177.757 398.667C174.921 406.212 167.549 411.071 159.498 410.705L-114.816 398.228C-122.868 397.862 -129.768 392.353 -131.908 384.583L-204.809 119.839Z" stroke="url(#paint34_linear_147_835)" stroke-opacity="0.1" stroke-width="3.0169"/>
<path opacity="0.363636" d="M-205.867 117.191C-207.87 109.385 -204.619 101.175 -197.814 96.8572L33.5484 -49.9459C40.3539 -54.2641 49.1659 -53.709 55.3757 -48.5711L266.489 126.103C272.699 131.241 274.894 139.793 271.926 147.287L171.039 402.044C168.071 409.538 160.616 414.269 152.572 413.762L-120.893 396.537C-128.937 396.03 -135.74 390.402 -137.743 382.595L-205.867 117.191Z" stroke="url(#paint35_linear_147_835)" stroke-opacity="0.1" stroke-width="3.0169"/>
<path opacity="0.373737" d="M-206.858 114.586C-208.726 106.745 -205.332 98.5941 -198.452 94.3953L34.9326 -48.0397C41.8124 -52.2385 50.6134 -51.5297 56.7326 -46.2841L264.316 131.663C270.435 136.909 272.481 145.498 269.383 152.939L164.292 405.351C161.194 412.792 153.657 417.391 145.624 416.744L-126.91 394.797C-134.944 394.15 -141.647 388.403 -143.514 380.563L-206.858 114.586Z" stroke="url(#paint36_linear_147_835)" stroke-opacity="0.1" stroke-width="3.0169"/>
<path opacity="0.383838" d="M-207.786 112.021C-209.516 104.149 -205.981 96.0586 -199.029 91.9806L36.2964 -46.0605C43.2484 -50.1386 52.0357 -49.2763 58.0624 -43.9248L262.067 137.226C268.094 142.577 269.989 151.201 266.762 158.586L157.518 408.585C154.291 415.97 146.675 420.438 138.654 419.651L-132.867 393.007C-140.888 392.22 -147.49 386.358 -149.221 378.486L-207.786 112.021Z" stroke="url(#paint37_linear_147_835)" stroke-opacity="0.1" stroke-width="3.0169"/>
<path opacity="0.393939" d="M-208.651 109.501C-210.243 101.6 -206.567 93.572 -199.545 89.6159L37.6383 -44.007C44.6604 -47.9631 53.4313 -46.9476 59.3637 -41.4917L259.74 142.791C265.673 148.247 267.417 156.903 264.062 164.231L150.718 411.747C147.362 419.075 139.67 423.409 131.663 422.482L-138.764 391.172C-146.77 390.245 -153.269 384.268 -154.862 376.367L-208.651 109.501Z" stroke="url(#paint38_linear_147_835)" stroke-opacity="0.1" stroke-width="3.0169"/>
<path opacity="0.40404" d="M-209.453 107.023C-210.907 99.0955 -207.092 91.1331 -200.001 87.3002L38.9579 -41.8819C46.048 -45.7149 54.7998 -44.5465 60.6361 -38.9878L257.338 148.357C263.174 153.915 264.768 162.6 261.285 169.868L143.894 414.835C140.411 422.104 132.644 426.303 124.655 425.236L-144.599 389.29C-152.588 388.223 -158.982 382.134 -160.436 374.206L-209.453 107.023Z" stroke="url(#paint39_linear_147_835)" stroke-opacity="0.1" stroke-width="3.0169"/>
<path opacity="0.414141" d="M-210.194 104.592C-211.509 96.6406 -207.555 88.746 -200.399 85.0374L40.2532 -39.6826C47.4091 -43.3912 56.1393 -42.0703 61.8776 -36.4106L254.859 153.923C260.598 159.583 262.039 168.294 258.43 175.5L137.046 417.853C133.437 425.059 125.598 429.122 117.628 427.916L-150.372 387.365C-158.341 386.159 -164.628 379.959 -165.944 372.007L-210.194 104.592Z" stroke="url(#paint40_linear_147_835)" stroke-opacity="0.1" stroke-width="3.0169"/>
<path opacity="0.424242" d="M-210.874 102.207C-212.051 94.2338 -207.959 86.4094 -200.74 82.8262L41.5235 -37.412C48.743 -40.9952 57.4487 -39.5221 63.0874 -33.7632L252.304 159.487C257.943 165.246 259.232 173.981 255.498 181.123L130.177 420.797C126.442 427.939 118.533 431.865 110.586 430.52L-156.083 385.396C-164.03 384.051 -170.207 377.742 -171.384 369.769L-210.874 102.207Z" stroke="url(#paint41_linear_147_835)" stroke-opacity="0.1" stroke-width="3.0169"/>
<path opacity="0.434343" d="M-211.494 99.869C-212.532 91.8762 -208.305 84.1244 -201.024 80.6678L42.767 -35.0706C50.048 -38.5272 58.7267 -36.9024 64.264 -31.0459L249.673 165.048C255.211 170.904 256.347 179.66 252.489 186.736L123.287 423.667C119.428 430.743 111.452 434.53 103.53 433.047L-161.73 383.385C-169.653 381.901 -175.719 375.486 -176.756 367.493L-211.494 99.869Z" stroke="url(#paint42_linear_147_835)" stroke-opacity="0.1" stroke-width="3.0169"/>
<path opacity="0.444444" d="M-212.056 97.5794C-212.954 89.5698 -208.592 81.8929 -201.252 78.5639L43.983 -32.658C51.3232 -35.987 59.9722 -34.211 65.4065 -28.2588L246.967 170.604C252.401 176.557 253.385 185.331 249.403 192.339L116.378 426.465C112.396 433.473 104.355 437.119 96.4603 435.498L-167.314 381.333C-175.209 379.712 -181.162 373.191 -182.06 365.181L-212.056 97.5794Z" stroke="url(#paint43_linear_147_835)" stroke-opacity="0.1" stroke-width="3.0169"/>
<path opacity="0.454545" d="M-212.561 95.3393C-213.318 87.3152 -208.823 79.7156 -201.426 76.5152L45.1704 -30.175C52.5675 -33.3754 61.1842 -31.4487 66.5138 -25.4026L244.185 176.155C249.514 182.202 250.345 190.992 246.241 197.929L109.452 429.189C105.348 436.126 97.2448 439.632 89.3793 437.874L-172.832 379.242C-180.698 377.483 -186.537 370.86 -187.295 362.836L-212.561 95.3393Z" stroke="url(#paint44_linear_147_835)" stroke-opacity="0.1" stroke-width="3.0169"/>
<path opacity="0.464646" d="M-213.008 93.1486C-213.626 85.1125 -208.999 77.5925 -201.547 74.5217L46.3274 -27.6234C53.7793 -30.6942 62.3611 -28.6174 67.5844 -22.4791L241.328 181.699C246.551 187.837 247.228 196.641 243.004 203.505L102.509 431.839C98.2849 438.704 90.1214 442.068 82.2877 440.172L-178.286 377.112C-186.12 375.216 -191.842 368.492 -192.46 360.456L-213.008 93.1486Z" stroke="url(#paint45_linear_147_835)" stroke-opacity="0.1" stroke-width="3.0169"/>
<path opacity="0.474747" d="M-213.4 91.0083C-213.878 82.9627 -209.12 75.5246 -201.616 72.5843L47.4533 -25.0036C54.9576 -27.9439 63.5018 -25.7177 68.6172 -19.4892L238.395 187.233C243.511 193.462 244.034 202.276 239.691 209.065L95.5505 434.415C91.2076 441.205 82.9866 444.426 75.1872 442.393L-183.675 374.945C-191.474 372.912 -197.078 366.089 -197.555 358.043L-213.4 91.0083Z" stroke="url(#paint46_linear_147_835)" stroke-opacity="0.1" stroke-width="3.0169"/>
<path opacity="0.484848" d="M-213.738 88.9203C-214.075 80.8675 -209.188 73.5136 -201.633 70.7047L48.5467 -22.3155C56.1012 -25.1244 64.6053 -22.7494 69.6111 -16.4326L235.389 192.758C240.394 199.075 240.764 207.897 236.303 214.61L88.5787 436.917C84.118 443.63 75.842 446.707 68.0793 444.539L-188.997 372.741C-196.759 370.573 -202.243 363.653 -202.58 355.601L-213.738 88.9203Z" stroke="url(#paint47_linear_147_835)" stroke-opacity="0.1" stroke-width="3.0169"/>
<path opacity="0.494949" d="M-214.022 86.8842C-214.218 78.8268 -209.204 71.5593 -201.602 68.8827L49.6064 -19.5608C57.2088 -22.2374 65.6701 -19.7143 70.565 -13.3111L232.307 198.271C237.202 204.675 237.417 213.501 232.84 220.135L81.5943 439.344C77.0171 445.978 68.6887 448.91 60.965 446.607L-194.252 370.503C-201.976 368.2 -207.338 361.185 -207.535 353.128L-214.022 86.8842Z" stroke="url(#paint48_linear_147_835)" stroke-opacity="0.1" stroke-width="3.0169"/>
<path opacity="0.50505" d="M-214.253 84.903C-214.309 76.8434 -209.169 69.6645 -201.521 67.121L50.6319 -16.7383C58.2798 -19.2818 66.6958 -16.6114 71.4781 -10.1238L229.153 203.773C233.935 210.261 233.996 219.09 229.304 225.643L74.5993 441.699C69.907 448.252 61.5287 451.038 53.8463 448.6L-199.441 368.233C-207.123 365.795 -212.362 358.688 -212.418 350.628L-214.253 84.903Z" stroke="url(#paint49_linear_147_835)" stroke-opacity="0.1" stroke-width="3.0169"/>
<path opacity="0.515152" d="M-214.433 82.9757C-214.348 74.9163 -209.084 67.8283 -201.392 65.4186L51.6211 -13.8505C59.3123 -16.2602 67.6804 -13.4433 72.3488 -6.87318L225.924 209.261C230.592 215.832 230.499 224.66 225.693 231.131L67.5941 443.978C62.7882 450.449 54.3626 453.088 46.7239 450.517L-204.562 365.93C-212.2 363.358 -217.314 356.161 -217.229 348.101L-214.433 82.9757Z" stroke="url(#paint50_linear_147_835)" stroke-opacity="0.1" stroke-width="3.0169"/>
<path opacity="0.525253" d="M-214.563 81.1031C-214.337 73.0464 -208.95 66.0513 -201.217 63.7762L52.5739 -10.8983C60.3059 -13.1734 68.6236 -10.2109 73.1766 -3.56032L222.622 214.734C227.175 221.384 226.928 230.211 222.01 236.596L60.581 446.184C55.6629 452.569 47.1925 455.061 39.5999 452.357L-209.614 363.595C-217.207 360.891 -222.195 353.605 -221.969 345.549L-214.563 81.1031Z" stroke="url(#paint51_linear_147_835)" stroke-opacity="0.1" stroke-width="3.0169"/>
<path opacity="0.535354" d="M-214.643 79.2868C-214.277 71.2353 -208.768 64.3353 -200.998 62.1956L53.4885 -7.8814C61.2591 -10.0212 69.5238 -6.91401 73.96 -0.184948L219.248 220.191C223.684 226.92 223.283 235.74 218.254 242.039L53.5607 448.315C48.5318 454.614 40.0192 456.958 32.475 454.122L-214.599 361.232C-222.143 358.395 -227.003 351.024 -226.637 342.972L-214.643 79.2868Z" stroke="url(#paint52_linear_147_835)" stroke-opacity="0.1" stroke-width="3.0169"/>
<path opacity="0.545455" d="M-214.676 77.5268C-214.169 69.4829 -208.54 62.6801 -200.734 60.6763L54.3641 -4.80165C62.1709 -6.80551 70.3801 -3.55456 74.6982 3.2509L215.801 225.629C220.119 232.435 219.564 241.247 214.426 247.457L46.5347 450.372C41.3967 456.582 32.8445 458.777 25.3509 455.81L-219.515 358.84C-227.008 355.872 -231.739 348.417 -231.232 340.373L-214.676 77.5268Z" stroke="url(#paint53_linear_147_835)" stroke-opacity="0.1" stroke-width="3.0169"/>
<path opacity="0.555556" d="M-214.661 75.8242C-214.014 67.7904 -208.267 61.0868 -200.427 59.2195L55.1997 -1.65942C63.0403 -3.52669 71.1915 -0.132984 75.3903 6.7468L212.283 231.049C216.481 237.929 215.773 246.73 210.527 252.849L39.5045 452.355C34.2589 458.474 25.6697 460.52 18.229 457.422L-224.361 356.421C-231.802 353.323 -236.401 345.786 -235.754 337.752L-214.661 75.8242Z" stroke="url(#paint54_linear_147_835)" stroke-opacity="0.1" stroke-width="3.0169"/>
<path opacity="0.565657" d="M-214.6 74.1801C-213.813 66.1588 -207.95 59.5566 -200.078 57.8264L55.9943 1.54492C63.8663 -0.185241 71.957 3.35021 76.035 10.3022L208.693 236.45C212.771 243.402 211.909 252.189 206.557 258.216L32.4712 454.265C27.1196 460.291 18.496 462.187 11.1105 458.959L-229.138 353.976C-236.524 350.749 -240.991 343.133 -240.204 335.112L-214.6 74.1801Z" stroke="url(#paint55_linear_147_835)" stroke-opacity="0.1" stroke-width="3.0169"/>
<path opacity="0.575758" d="M-214.495 72.5939C-213.568 64.5876 -207.591 58.0887 -199.69 56.4962L56.7469 4.80911C64.6479 3.21659 72.6757 6.89271 76.6318 13.9148L205.032 241.828C208.988 248.851 207.973 257.621 202.517 263.554L25.4363 456.099C19.9804 462.032 11.325 463.776 3.99692 460.421L-233.846 351.507C-241.174 348.151 -245.507 340.458 -244.581 332.452L-214.495 72.5939Z" stroke="url(#paint56_linear_147_835)" stroke-opacity="0.1" stroke-width="3.0169"/>
<path opacity="0.585859" d="M-214.345 71.0684C-213.279 63.0794 -207.189 56.6858 -199.262 55.2315L57.4566 8.13438C65.3841 6.68 73.3465 10.4957 77.1794 17.5858L201.302 247.186C205.135 254.276 203.966 263.027 198.408 268.864L18.4011 457.861C12.8425 463.698 4.15795 465.291 -3.11041 461.808L-238.483 349.015C-245.751 345.532 -249.95 337.765 -248.884 329.776L-214.345 71.0684Z" stroke="url(#paint57_linear_147_835)" stroke-opacity="0.1" stroke-width="3.0169"/>
<path opacity="0.59596" d="M-214.154 69.6021C-212.948 61.633 -206.748 55.3466 -198.796 54.0308L58.1217 11.5177C66.0734 10.2019 73.968 14.156 77.6766 21.3119L197.501 252.518C201.21 259.674 199.889 268.404 194.229 274.143L11.3665 459.549C5.70686 465.287 -3.00416 466.729 -10.2106 463.119L-243.05 346.501C-250.257 342.891 -254.319 335.052 -253.114 327.083L-214.154 69.6021Z" stroke="url(#paint58_linear_147_835)" stroke-opacity="0.1" stroke-width="3.0169"/>
<path opacity="0.606061" d="M-213.921 68.1968C-212.576 60.25 -206.267 54.0728 -198.294 52.896L58.7422 14.9596C66.7157 13.7827 74.5401 17.874 78.1232 25.0935L193.631 257.826C197.215 265.046 195.741 273.752 189.982 279.39L4.33448 461.163C-1.42446 466.802 -10.1593 468.091 -17.3017 464.357L-247.547 343.966C-254.689 340.231 -258.614 332.322 -257.27 324.376L-213.921 68.1968Z" stroke="url(#paint59_linear_147_835)" stroke-opacity="0.1" stroke-width="3.0169"/>
<path opacity="0.616162" d="M-213.648 66.8526C-212.164 58.9304 -205.749 52.8642 -197.756 51.8268L59.317 18.4581C67.3098 17.4206 75.0616 21.6477 78.5182 28.9287L189.694 263.108C193.15 270.389 191.525 279.068 185.669 284.605L-2.69379 462.705C-8.55026 468.242 -17.3063 469.378 -24.3824 465.52L-251.972 341.412C-259.048 337.553 -262.835 329.577 -261.352 321.655L-213.648 66.8526Z" stroke="url(#paint60_linear_147_835)" stroke-opacity="0.1" stroke-width="3.0169"/>
<path opacity="0.626263" d="M-213.336 65.571C-211.714 57.6759 -205.194 51.7226 -197.184 50.8248L59.8445 22.0135C67.8542 21.1157 75.5311 25.4775 78.8601 32.8177L185.687 268.363C189.016 275.703 187.24 284.352 181.288 289.787L-9.71754 464.173C-15.6698 469.607 -24.4443 470.591 -31.452 466.609L-256.327 338.841C-263.335 334.859 -266.982 326.818 -265.361 318.923L-213.336 65.571Z" stroke="url(#paint61_linear_147_835)" stroke-opacity="0.1" stroke-width="3.0169"/>
<path opacity="0.636364" d="M-212.986 64.352C-211.227 56.4864 -204.603 50.6478 -196.579 49.8899L60.3246 25.6245C68.3487 24.8666 75.9483 29.3617 79.1487 36.7588L181.614 273.59C184.815 280.988 182.888 289.604 176.842 294.934L-16.7349 465.569C-22.7811 470.899 -31.5714 471.729 -38.5086 467.626L-260.611 336.253C-267.548 332.15 -271.054 324.046 -269.295 316.18L-212.986 64.352Z" stroke="url(#paint62_linear_147_835)" stroke-opacity="0.1" stroke-width="3.0169"/>
<path opacity="0.646465" d="M-212.599 63.1951C-210.703 55.3614 -203.979 49.6393 -195.943 49.0216L60.7559 29.2887C68.792 28.6709 76.312 33.298 79.3828 40.7499L177.474 278.787C180.545 286.239 178.468 294.821 172.33 300.044L-23.7451 466.892C-29.8833 472.115 -38.6868 472.792 -45.5513 468.568L-264.824 333.649C-271.688 329.425 -275.052 321.262 -273.156 313.428L-212.599 63.1951Z" stroke="url(#paint63_linear_147_835)" stroke-opacity="0.1" stroke-width="3.0169"/>
<path opacity="0.656566" d="M-212.177 62.1024C-210.145 54.303 -203.322 48.6992 -195.276 48.2217L61.1378 33.0069C69.1834 32.5295 76.6215 37.2871 79.5618 44.7915L173.268 283.954C176.209 291.458 173.982 300.003 167.754 305.118L-30.7464 468.143C-36.9749 473.259 -45.7888 473.782 -52.5785 469.439L-268.965 331.032C-275.755 326.689 -278.976 318.468 -276.943 310.668L-212.177 62.1024Z" stroke="url(#paint64_linear_147_835)" stroke-opacity="0.1" stroke-width="3.0169"/>
<path opacity="0.666667" d="M-211.721 61.0725C-209.553 53.3097 -202.633 47.8258 -194.58 47.4889L61.4694 36.7761C69.5222 36.4391 76.8761 41.3258 79.685 48.8804L168.997 289.088C171.806 296.642 169.431 305.146 163.114 310.152L-37.7376 469.322C-44.0544 474.327 -52.8762 474.697 -59.589 470.236L-273.035 328.4C-279.747 323.94 -282.825 315.664 -280.657 307.901L-211.721 61.0725Z" stroke="url(#paint65_linear_147_835)" stroke-opacity="0.1" stroke-width="3.0169"/>
<path opacity="0.676768" d="M-211.233 60.1081C-208.93 52.3844 -201.915 47.0221 -193.857 46.8258L61.7495 40.5977C69.8069 40.4014 77.0744 45.4157 79.751 53.0181L164.661 294.19C167.338 301.793 164.815 310.254 158.411 315.149L-44.7181 470.429C-51.1213 475.324 -59.9482 475.539 -66.5822 470.962L-277.033 325.759C-283.667 321.181 -286.6 312.853 -284.296 305.129L-211.233 60.1081Z" stroke="url(#paint66_linear_147_835)" stroke-opacity="0.1" stroke-width="3.0169"/>
<path opacity="0.686869" d="M-210.712 59.2081C-208.274 51.5257 -201.167 46.2867 -193.107 46.231L61.9783 44.4689C70.038 44.4133 77.2168 49.5536 79.7603 57.2016L160.262 299.258C162.806 306.906 160.135 315.322 153.647 320.104L-51.6855 471.465C-58.1731 476.248 -67.0024 476.309 -73.5555 471.617L-280.96 323.106C-287.513 318.414 -290.299 310.036 -287.862 302.354L-210.712 59.2081Z" stroke="url(#paint67_linear_147_835)" stroke-opacity="0.1" stroke-width="3.0169"/>
<path opacity="0.69697" d="M-210.161 58.3734C-207.589 50.7348 -200.392 45.6205 -192.333 45.7055L62.1539 48.3893C70.2133 48.4743 77.3014 53.7392 79.711 61.4304L155.799 304.291C158.209 311.982 155.392 320.35 148.822 325.018L-58.6395 472.431C-65.2096 477.099 -74.0386 477.006 -80.5088 472.2L-284.815 320.445C-291.285 315.639 -293.925 307.214 -291.354 299.575L-210.161 58.3734Z" stroke="url(#paint68_linear_147_835)" stroke-opacity="0.1" stroke-width="3.0169"/>
<path opacity="0.707071" d="M-209.58 57.6056C-206.876 50.0129 -199.59 45.0251 -191.534 45.2507L62.2763 52.359C70.3329 52.5846 77.3281 57.9724 79.6031 65.7045L151.274 309.289C153.549 317.021 150.587 325.338 143.936 329.891L-65.5784 473.327C-72.229 477.88 -81.055 477.632 -87.4404 472.714L-288.599 317.778C-294.984 312.86 -297.476 304.389 -294.772 296.797L-209.58 57.6056Z" stroke="url(#paint69_linear_147_835)" stroke-opacity="0.1" stroke-width="3.0169"/>
<path opacity="0.717172" d="M-208.972 56.9023C-206.136 49.358 -198.764 44.4981 -190.713 44.8643L62.3443 56.3742C70.3958 56.7404 77.2958 62.2495 79.4356 70.0201L146.688 314.248C148.828 322.019 145.72 330.283 138.991 334.72L-72.5012 474.151C-79.2303 478.587 -88.0506 478.186 -94.3492 473.157L-292.311 315.103C-298.61 310.074 -300.954 301.561 -298.117 294.017L-208.972 56.9023Z" stroke="url(#paint70_linear_147_835)" stroke-opacity="0.1" stroke-width="3.0169"/>
<path opacity="0.727273" d="M-208.337 56.2666C-205.369 48.773 -197.914 44.0425 -189.87 44.5492L62.3572 60.4366C70.4011 60.9433 77.2039 66.5719 79.2077 74.3786L142.04 319.171C144.044 326.977 140.793 335.187 133.988 339.505L-79.4068 474.907C-86.2123 479.225 -95.0243 478.67 -101.234 473.532L-295.952 312.424C-302.162 307.286 -304.357 298.733 -301.389 291.24L-208.337 56.2666Z" stroke="url(#paint71_linear_147_835)" stroke-opacity="0.1" stroke-width="3.0169"/>
<path opacity="0.737374" d="M-207.676 55.6971C-204.578 48.2564 -197.041 43.6567 -189.007 44.3037L62.3152 64.5432C70.349 65.1902 77.0526 70.9367 78.9199 78.7773L137.334 324.054C139.201 331.894 135.807 340.045 128.928 344.244L-86.2931 475.594C-93.1729 479.792 -101.974 479.084 -108.093 473.838L-299.521 309.74C-305.64 304.495 -307.686 295.905 -304.588 288.465L-207.676 55.6971Z" stroke="url(#paint72_linear_147_835)" stroke-opacity="0.1" stroke-width="3.0169"/>
<path opacity="0.747475" d="M-206.991 55.1956C-203.764 47.8101 -196.148 43.3427 -188.127 44.1298L62.2163 68.6947C70.2376 69.4818 76.8398 75.3444 78.5699 83.2163L132.568 328.897C134.298 336.769 130.762 344.86 123.81 348.938L-93.1603 476.213C-100.112 480.291 -108.9 479.428 -114.926 474.077L-303.019 307.055C-309.046 301.704 -310.941 293.08 -307.714 285.695L-206.991 55.1956Z" stroke="url(#paint73_linear_147_835)" stroke-opacity="0.1" stroke-width="3.0169"/>
<path opacity="0.757576" d="M-206.283 54.7599C-202.927 47.4318 -195.235 43.098 -187.228 44.0249L62.0605 72.8872C70.0669 73.8142 76.5658 79.7911 78.1583 87.692L127.743 333.699C129.336 341.6 125.659 349.627 118.637 353.584L-100.006 476.762C-107.028 480.718 -115.799 479.702 -121.732 474.246L-306.446 304.368C-312.378 298.912 -314.123 290.257 -310.767 282.929L-206.283 54.7599Z" stroke="url(#paint74_linear_147_835)" stroke-opacity="0.1" stroke-width="3.0169"/>
<path opacity="0.767677" d="M-205.553 54.3928C-202.07 47.1244 -194.303 42.9254 -186.314 43.992L61.8472 77.1224C69.8362 78.1889 76.2298 84.2784 77.6842 92.2059L122.861 338.459C124.316 346.387 120.5 354.349 113.41 358.182L-106.83 477.244C-113.92 481.077 -122.672 479.909 -128.508 474.35L-309.801 301.682C-315.638 296.123 -317.231 287.439 -313.748 280.17L-205.553 54.3928Z" stroke="url(#paint75_linear_147_835)" stroke-opacity="0.1" stroke-width="3.0169"/>
<path opacity="0.777778" d="M-204.803 54.094C-201.193 46.8875 -193.354 42.8248 -185.385 44.0306L61.5758 81.3985C69.5449 82.6043 75.8313 88.8044 77.1471 96.7561L117.923 343.177C119.239 351.129 115.285 359.023 108.129 362.732L-113.631 477.661C-120.787 481.369 -129.517 480.048 -135.255 474.389L-313.086 298.997C-318.825 293.338 -320.266 284.627 -316.657 277.42L-204.803 54.094Z" stroke="url(#paint76_linear_147_835)" stroke-opacity="0.1" stroke-width="3.0169"/>
<path opacity="0.787879" d="M-204.033 53.8633C-200.298 46.7209 -192.389 42.7956 -184.442 44.1403L61.2458 85.7139C69.1927 87.0586 75.3698 93.3675 76.5466 101.341L112.93 347.851C114.106 355.825 110.015 363.649 102.796 367.232L-120.407 478.01C-127.626 481.594 -136.332 480.12 -141.971 474.362L-316.3 296.316C-321.939 290.557 -323.228 281.822 -319.494 274.68L-204.033 53.8633Z" stroke="url(#paint77_linear_147_835)" stroke-opacity="0.1" stroke-width="3.0169"/>
<path opacity="0.79798" d="M-203.245 53.6995C-199.387 46.6234 -191.41 42.8368 -183.488 44.32L60.856 90.0664C68.7782 91.5496 74.8443 97.9653 75.8818 105.958L107.881 352.48C108.918 360.472 104.691 368.224 97.4102 371.681L-127.158 478.293C-134.438 481.75 -143.117 480.125 -148.655 474.269L-319.444 293.637C-324.982 287.78 -326.118 279.024 -322.259 271.948L-203.245 53.6995Z" stroke="url(#paint78_linear_147_835)" stroke-opacity="0.1" stroke-width="3.0169"/>
<path opacity="0.808081" d="M-202.441 53.6055C-198.459 46.5978 -190.418 42.9509 -182.523 44.5721L60.4064 94.457C68.3015 96.0783 74.2548 102.599 75.1526 110.609L102.779 357.064C103.676 365.073 99.3146 372.75 91.9744 376.079L-133.881 478.512C-141.222 481.841 -149.871 480.065 -155.305 474.113L-322.517 290.964C-327.952 285.012 -328.935 276.238 -324.954 269.23L-202.441 53.6055Z" stroke="url(#paint79_linear_147_835)" stroke-opacity="0.1" stroke-width="3.0169"/>
<path opacity="0.818182" d="M-201.621 53.579C-197.518 46.6419 -189.414 43.1358 -181.549 44.8946L59.8963 98.8827C67.7619 100.641 73.6005 107.265 74.3584 115.289L97.6234 361.6C98.3813 369.624 93.8862 377.224 86.489 380.424L-140.578 478.665C-147.975 481.865 -156.591 479.939 -161.921 473.893L-325.521 288.297C-330.851 282.251 -331.681 273.461 -327.578 266.524L-201.621 53.579Z" stroke="url(#paint80_linear_147_835)" stroke-opacity="0.1" stroke-width="3.0169"/>
<path opacity="0.828283" d="M-200.787 53.6218C-196.563 46.7573 -188.4 43.3933 -180.566 45.2891L59.3254 103.344C67.1591 105.239 72.8812 111.964 73.4989 120L92.4163 366.09C93.0341 374.126 88.407 381.646 80.9551 384.717L-147.245 478.755C-154.697 481.826 -163.279 479.749 -168.502 473.611L-328.455 285.639C-333.678 279.5 -334.355 270.697 -330.131 263.832L-200.787 53.6218Z" stroke="url(#paint81_linear_147_835)" stroke-opacity="0.1" stroke-width="3.0169"/>
<path opacity="0.838384" d="M-199.94 53.7327C-195.597 46.943 -187.376 43.722 -179.577 45.7542L58.6931 107.838C66.4926 109.87 72.0964 116.693 72.5738 124.739L87.1584 370.532C87.6358 378.577 82.8782 386.015 75.3738 388.956L-153.882 478.781C-161.387 481.721 -169.931 479.495 -175.046 473.266L-331.319 282.988C-336.434 276.76 -336.957 267.946 -332.614 261.156L-199.94 53.7327Z" stroke="url(#paint82_linear_147_835)" stroke-opacity="0.1" stroke-width="3.0169"/>
<path opacity="0.848485" d="M-199.081 53.9135C-194.621 47.2006 -186.345 44.1235 -178.582 46.2915L57.999 112.365C65.7617 114.533 71.2457 121.453 71.5826 129.506L81.8506 374.925C82.1875 382.978 77.3008 390.332 69.7463 393.141L-160.488 478.745C-168.043 481.554 -176.547 479.179 -181.553 472.862L-334.114 280.349C-339.12 274.032 -339.489 265.21 -335.028 258.497L-199.081 53.9135Z" stroke="url(#paint83_linear_147_835)" stroke-opacity="0.1" stroke-width="3.0169"/>
<path opacity="0.858586" d="M-198.212 54.1621C-193.635 47.5281 -185.307 44.5959 -177.583 46.8991L57.2424 116.922C64.9661 119.226 70.3285 126.24 70.5248 134.298L76.4936 379.268C76.69 387.325 71.6757 394.593 64.0733 397.27L-167.063 478.646C-174.665 481.323 -183.127 478.8 -188.021 472.397L-336.84 277.72C-341.735 271.317 -341.95 262.49 -337.373 255.856L-198.212 54.1621Z" stroke="url(#paint84_linear_147_835)" stroke-opacity="0.1" stroke-width="3.0169"/>
<path opacity="0.868687" d="M-197.334 54.4803C-192.642 47.9272 -184.263 45.1408 -176.581 47.5784L56.4231 121.51C64.1054 123.948 69.3445 131.055 69.4001 139.115L71.0887 383.561C71.1444 391.621 66.004 398.8 58.3561 401.343L-173.604 478.487C-181.252 481.031 -189.668 478.36 -194.451 471.873L-339.499 275.104C-344.281 268.616 -344.342 259.787 -339.65 253.234L-197.334 54.4803Z" stroke="url(#paint85_linear_147_835)" stroke-opacity="0.1" stroke-width="3.0169"/>
<path opacity="0.878788" d="M-196.447 54.8678C-191.641 48.3976 -183.216 45.7578 -175.577 48.3292L55.5408 126.128C63.1795 128.699 68.2937 135.897 68.2087 143.956L65.6371 387.803C65.5521 395.863 60.2873 402.951 52.5961 405.361L-180.111 478.268C-187.802 480.677 -196.17 477.861 -200.839 471.29L-342.088 272.502C-346.757 265.932 -346.664 257.103 -341.858 250.633L-196.447 54.8678Z" stroke="url(#paint86_linear_147_835)" stroke-opacity="0.1" stroke-width="3.0169"/>
<path opacity="0.888889" d="M-195.554 55.3236C-190.636 48.9383 -182.166 46.446 -174.573 49.1502L54.595 130.772C62.1876 133.477 67.1754 140.762 66.9498 148.819L60.1394 391.993C59.9138 400.05 54.526 407.045 46.7939 409.32L-186.583 477.988C-194.315 480.263 -202.633 477.301 -207.186 470.65L-344.611 269.915C-349.164 263.264 -348.917 254.438 -343.998 248.053L-195.554 55.3236Z" stroke="url(#paint87_linear_147_835)" stroke-opacity="0.1" stroke-width="3.0169"/>
<path opacity="0.89899" d="M-194.656 55.8484C-189.627 49.5499 -181.114 47.2058 -173.57 50.0421L53.5854 135.443C61.1296 138.28 65.9895 145.651 65.6233 153.703L54.5968 396.131C54.2306 404.182 48.7216 411.082 40.951 413.222L-193.019 477.65C-200.79 479.79 -209.054 476.682 -213.491 469.953L-347.066 267.344C-351.502 260.615 -351.101 251.794 -346.072 245.496L-194.656 55.8484Z" stroke="url(#paint88_linear_147_835)" stroke-opacity="0.1" stroke-width="3.0169"/>
<path opacity="0.909091" d="M-193.753 56.4432C-188.615 50.2333 -180.063 48.0382 -172.569 51.0057L52.5116 140.141C60.0053 143.108 64.7358 150.564 64.2291 158.607L49.0105 400.216C48.5039 408.26 42.8753 415.063 35.0685 417.067L-199.418 477.254C-207.225 479.258 -215.434 476.007 -219.752 469.202L-349.454 264.791C-353.772 257.985 -353.217 249.173 -348.079 242.964L-193.753 56.4432Z" stroke="url(#paint89_linear_147_835)" stroke-opacity="0.1" stroke-width="3.0169"/>
<path opacity="0.919192" d="M-192.847 57.1047C-187.602 50.9855 -179.013 48.9399 -171.572 52.0378L51.3734 144.86C58.814 147.958 63.4138 155.495 62.7668 163.529L43.3813 404.246C42.7343 412.28 36.9878 418.983 29.1473 420.851L-205.779 476.8C-213.619 478.667 -221.771 475.273 -225.969 468.393L-351.776 262.255C-355.975 255.375 -355.266 246.574 -350.021 240.455L-192.847 57.1047Z" stroke="url(#paint90_linear_147_835)" stroke-opacity="0.1" stroke-width="3.0169"/>
<path opacity="0.929293" d="M-191.94 57.836C-186.588 51.8092 -177.965 49.9139 -170.579 53.1412L50.1703 149.604C57.5558 152.831 62.0232 160.447 61.2361 168.468L37.7102 408.222C36.9231 416.243 31.0605 422.846 23.1886 424.576L-212.101 476.289C-219.973 478.019 -228.064 474.484 -232.142 467.532L-354.033 259.739C-358.111 252.787 -357.248 244 -351.897 237.973L-191.94 57.836Z" stroke="url(#paint91_linear_147_835)" stroke-opacity="0.1" stroke-width="3.0169"/>
<path opacity="0.939394" d="M-191.032 58.6356C-185.576 52.7032 -176.921 50.9586 -169.593 54.3143L48.9021 154.369C56.2301 157.724 60.564 165.417 59.637 173.423L31.9984 412.143C31.0715 420.149 25.0946 426.648 17.1936 428.241L-218.383 475.723C-226.284 477.316 -234.312 473.64 -238.268 466.618L-356.224 257.244C-360.18 250.222 -359.164 241.451 -353.708 235.518L-191.032 58.6356Z" stroke="url(#paint92_linear_147_835)" stroke-opacity="0.1" stroke-width="3.0169"/>
<path opacity="0.949495" d="M-190.125 59.5047C-184.566 53.6685 -175.882 52.0752 -168.614 55.5583L47.569 159.155C54.8373 162.638 59.0363 170.405 57.9698 178.394L26.2474 416.009C25.1808 423.998 19.0914 430.392 11.1638 431.846L-224.624 475.104C-232.552 476.558 -240.514 472.742 -244.347 465.652L-358.35 254.772C-362.183 247.682 -361.014 238.93 -355.456 233.093L-190.125 59.5047Z" stroke="url(#paint93_linear_147_835)" stroke-opacity="0.1" stroke-width="3.0169"/>
<path opacity="0.959596" d="M-189.22 60.4401C-183.56 54.7017 -174.849 53.2603 -167.643 56.8697L46.1704 163.959C53.3768 167.568 57.4396 175.408 56.2337 183.377L20.4577 419.818C19.2519 427.787 13.0518 434.073 5.10004 435.389L-230.824 474.428C-238.776 475.744 -246.67 471.79 -250.379 464.634L-360.412 252.32C-364.12 245.165 -362.799 236.434 -357.14 230.696L-189.22 60.4401Z" stroke="url(#paint94_linear_147_835)" stroke-opacity="0.1" stroke-width="3.0169"/>
<path opacity="0.969697" d="M-188.318 61.4448C-182.559 55.8061 -173.824 54.5169 -166.682 58.2515L44.7062 168.782C51.8486 172.517 55.7739 180.426 54.4292 188.373L14.6307 423.57C13.286 431.517 6.9771 437.694 -0.996373 438.871L-236.981 473.7C-244.954 474.877 -252.779 470.786 -256.362 463.567L-362.41 249.895C-365.993 242.675 -364.52 233.969 -358.761 228.331L-188.318 61.4448Z" stroke="url(#paint95_linear_147_835)" stroke-opacity="0.1" stroke-width="3.0169"/>
<path opacity="0.979798" d="M-187.42 62.5156C-181.564 56.9782 -172.808 55.8417 -165.732 59.7004L43.1761 173.62C50.2522 177.479 54.0389 185.455 52.5556 193.378L8.76722 427.264C7.28404 435.186 0.86833 441.252 -7.12446 442.29L-243.095 472.919C-251.088 473.957 -258.839 469.729 -262.296 462.448L-364.345 247.492C-367.802 240.211 -366.177 231.533 -360.321 225.995L-187.42 62.5156Z" stroke="url(#paint96_linear_147_835)" stroke-opacity="0.1" stroke-width="3.0169"/>
<path opacity="0.989899" d="M-186.528 63.6554C-180.576 58.2211 -171.802 57.2375 -164.794 61.2191L41.5799 178.476C48.5875 182.457 52.2345 190.499 50.6132 198.394L2.86845 430.901C1.24724 438.796 -5.27337 444.749 -13.283 445.647L-249.165 472.088C-257.174 472.986 -264.851 468.624 -268.18 461.284L-366.218 245.118C-369.547 237.778 -367.771 229.129 -361.819 223.694L-186.528 63.6554Z" stroke="url(#paint97_linear_147_835)" stroke-opacity="0.1" stroke-width="3.0169"/>
<path d="M-185.643 64.8622C-179.597 59.5326 -170.806 58.7023 -163.869 62.8056L39.9179 183.345C46.855 187.449 50.361 195.552 48.6023 203.418L-3.06406 434.479C-4.82281 442.345 -11.4463 448.184 -19.4705 448.942L-255.189 471.206C-263.213 471.964 -270.813 467.469 -274.013 460.072L-368.029 242.77C-371.229 235.373 -369.303 226.756 -363.256 221.426L-185.643 64.8622Z" stroke="url(#paint98_linear_147_835)" stroke-opacity="0.1" stroke-width="3.0169"/>
<defs>
<linearGradient id="paint0_linear_147_835" x1="168.48" y1="309.685" x2="92.5466" y2="-9.15428" gradientUnits="userSpaceOnUse">
<stop stop-color="#9172CF"/>
<stop offset="1" stop-color="#FE1BF6"/>
</linearGradient>
<linearGradient id="paint1_linear_147_835" x1="162.774" y1="311.319" x2="92.545" y2="-8.21268" gradientUnits="userSpaceOnUse">
<stop stop-color="#9172CF"/>
<stop offset="1" stop-color="#FE1BF6"/>
</linearGradient>
<linearGradient id="paint2_linear_147_835" x1="157.067" y1="312.904" x2="92.5438" y2="-7.21901" gradientUnits="userSpaceOnUse">
<stop stop-color="#9172CF"/>
<stop offset="1" stop-color="#FE1BF6"/>
</linearGradient>
<linearGradient id="paint3_linear_147_835" x1="151.361" y1="314.439" x2="92.542" y2="-6.17278" gradientUnits="userSpaceOnUse">
<stop stop-color="#9172CF"/>
<stop offset="1" stop-color="#FE1BF6"/>
</linearGradient>
<linearGradient id="paint4_linear_147_835" x1="145.656" y1="315.924" x2="92.5389" y2="-5.07499" gradientUnits="userSpaceOnUse">
<stop stop-color="#9172CF"/>
<stop offset="1" stop-color="#FE1BF6"/>
</linearGradient>
<linearGradient id="paint5_linear_147_835" x1="139.952" y1="317.359" x2="92.5332" y2="-3.9266" gradientUnits="userSpaceOnUse">
<stop stop-color="#9172CF"/>
<stop offset="1" stop-color="#FE1BF6"/>
</linearGradient>
<linearGradient id="paint6_linear_147_835" x1="134.252" y1="318.745" x2="92.5242" y2="-2.72683" gradientUnits="userSpaceOnUse">
<stop stop-color="#9172CF"/>
<stop offset="1" stop-color="#FE1BF6"/>
</linearGradient>
<linearGradient id="paint7_linear_147_835" x1="128.555" y1="320.082" x2="92.5108" y2="-1.47479" gradientUnits="userSpaceOnUse">
<stop stop-color="#9172CF"/>
<stop offset="1" stop-color="#FE1BF6"/>
</linearGradient>
<linearGradient id="paint8_linear_147_835" x1="122.863" y1="321.369" x2="92.4924" y2="-0.172109" gradientUnits="userSpaceOnUse">
<stop stop-color="#9172CF"/>
<stop offset="1" stop-color="#FE1BF6"/>
</linearGradient>
<linearGradient id="paint9_linear_147_835" x1="117.176" y1="322.607" x2="92.4678" y2="1.18077" gradientUnits="userSpaceOnUse">
<stop stop-color="#9172CF"/>
<stop offset="1" stop-color="#FE1BF6"/>
</linearGradient>
<linearGradient id="paint10_linear_147_835" x1="111.496" y1="323.796" x2="92.4364" y2="2.58549" gradientUnits="userSpaceOnUse">
<stop stop-color="#9172CF"/>
<stop offset="1" stop-color="#FE1BF6"/>
</linearGradient>
<linearGradient id="paint11_linear_147_835" x1="105.823" y1="324.936" x2="92.3969" y2="4.03923" gradientUnits="userSpaceOnUse">
<stop stop-color="#9172CF"/>
<stop offset="1" stop-color="#FE1BF6"/>
</linearGradient>
<linearGradient id="paint12_linear_147_835" x1="100.158" y1="326.029" x2="92.3491" y2="5.54476" gradientUnits="userSpaceOnUse">
<stop stop-color="#9172CF"/>
<stop offset="1" stop-color="#FE1BF6"/>
</linearGradient>
<linearGradient id="paint13_linear_147_835" x1="94.5017" y1="327.074" x2="92.2914" y2="7.0996" gradientUnits="userSpaceOnUse">
<stop stop-color="#9172CF"/>
<stop offset="1" stop-color="#FE1BF6"/>
</linearGradient>
<linearGradient id="paint14_linear_147_835" x1="88.8554" y1="328.069" x2="92.2235" y2="8.70373" gradientUnits="userSpaceOnUse">
<stop stop-color="#9172CF"/>
<stop offset="1" stop-color="#FE1BF6"/>
</linearGradient>
<linearGradient id="paint15_linear_147_835" x1="83.2196" y1="329.018" x2="92.1441" y2="10.3576" gradientUnits="userSpaceOnUse">
<stop stop-color="#9172CF"/>
<stop offset="1" stop-color="#FE1BF6"/>
</linearGradient>
<linearGradient id="paint16_linear_147_835" x1="77.5951" y1="329.92" x2="92.0524" y2="12.0613" gradientUnits="userSpaceOnUse">
<stop stop-color="#9172CF"/>
<stop offset="1" stop-color="#FE1BF6"/>
</linearGradient>
<linearGradient id="paint17_linear_147_835" x1="71.983" y1="330.774" x2="91.9479" y2="13.8129" gradientUnits="userSpaceOnUse">
<stop stop-color="#9172CF"/>
<stop offset="1" stop-color="#FE1BF6"/>
</linearGradient>
<linearGradient id="paint18_linear_147_835" x1="66.3838" y1="331.582" x2="91.8294" y2="15.6136" gradientUnits="userSpaceOnUse">
<stop stop-color="#9172CF"/>
<stop offset="1" stop-color="#FE1BF6"/>
</linearGradient>
<linearGradient id="paint19_linear_147_835" x1="60.7984" y1="332.342" x2="91.6962" y2="17.4607" gradientUnits="userSpaceOnUse">
<stop stop-color="#9172CF"/>
<stop offset="1" stop-color="#FE1BF6"/>
</linearGradient>
<linearGradient id="paint20_linear_147_835" x1="55.2279" y1="333.057" x2="91.5475" y2="19.3579" gradientUnits="userSpaceOnUse">
<stop stop-color="#9172CF"/>
<stop offset="1" stop-color="#FE1BF6"/>
</linearGradient>
<linearGradient id="paint21_linear_147_835" x1="49.6725" y1="333.726" x2="91.3823" y2="21.3007" gradientUnits="userSpaceOnUse">
<stop stop-color="#9172CF"/>
<stop offset="1" stop-color="#FE1BF6"/>
</linearGradient>
<linearGradient id="paint22_linear_147_835" x1="44.1335" y1="334.35" x2="91.2" y2="23.2918" gradientUnits="userSpaceOnUse">
<stop stop-color="#9172CF"/>
<stop offset="1" stop-color="#FE1BF6"/>
</linearGradient>
<linearGradient id="paint23_linear_147_835" x1="38.6115" y1="334.929" x2="90.9998" y2="25.3294" gradientUnits="userSpaceOnUse">
<stop stop-color="#9172CF"/>
<stop offset="1" stop-color="#FE1BF6"/>
</linearGradient>
<linearGradient id="paint24_linear_147_835" x1="33.1074" y1="335.463" x2="90.7809" y2="27.4123" gradientUnits="userSpaceOnUse">
<stop stop-color="#9172CF"/>
<stop offset="1" stop-color="#FE1BF6"/>
</linearGradient>
<linearGradient id="paint25_linear_147_835" x1="27.6216" y1="335.952" x2="90.5422" y2="29.5409" gradientUnits="userSpaceOnUse">
<stop stop-color="#9172CF"/>
<stop offset="1" stop-color="#FE1BF6"/>
</linearGradient>
<linearGradient id="paint26_linear_147_835" x1="22.1549" y1="336.398" x2="90.283" y2="31.7158" gradientUnits="userSpaceOnUse">
<stop stop-color="#9172CF"/>
<stop offset="1" stop-color="#FE1BF6"/>
</linearGradient>
<linearGradient id="paint27_linear_147_835" x1="16.7086" y1="336.801" x2="90.0032" y2="33.9353" gradientUnits="userSpaceOnUse">
<stop stop-color="#9172CF"/>
<stop offset="1" stop-color="#FE1BF6"/>
</linearGradient>
<linearGradient id="paint28_linear_147_835" x1="11.2832" y1="337.161" x2="89.7015" y2="36.1997" gradientUnits="userSpaceOnUse">
<stop stop-color="#9172CF"/>
<stop offset="1" stop-color="#FE1BF6"/>
</linearGradient>
<linearGradient id="paint29_linear_147_835" x1="5.87872" y1="337.478" x2="89.3767" y2="38.5068" gradientUnits="userSpaceOnUse">
<stop stop-color="#9172CF"/>
<stop offset="1" stop-color="#FE1BF6"/>
</linearGradient>
<linearGradient id="paint30_linear_147_835" x1="0.496868" y1="337.754" x2="89.029" y2="40.8588" gradientUnits="userSpaceOnUse">
<stop stop-color="#9172CF"/>
<stop offset="1" stop-color="#FE1BF6"/>
</linearGradient>
<linearGradient id="paint31_linear_147_835" x1="-4.86251" y1="337.987" x2="88.6568" y2="43.2521" gradientUnits="userSpaceOnUse">
<stop stop-color="#9172CF"/>
<stop offset="1" stop-color="#FE1BF6"/>
</linearGradient>
<linearGradient id="paint32_linear_147_835" x1="-10.1978" y1="338.18" x2="88.2603" y2="45.6892" gradientUnits="userSpaceOnUse">
<stop stop-color="#9172CF"/>
<stop offset="1" stop-color="#FE1BF6"/>
</linearGradient>
<linearGradient id="paint33_linear_147_835" x1="-15.5091" y1="338.332" x2="87.8379" y2="48.1673" gradientUnits="userSpaceOnUse">
<stop stop-color="#9172CF"/>
<stop offset="1" stop-color="#FE1BF6"/>
</linearGradient>
<linearGradient id="paint34_linear_147_835" x1="-20.7954" y1="338.445" x2="87.3895" y2="50.6879" gradientUnits="userSpaceOnUse">
<stop stop-color="#9172CF"/>
<stop offset="1" stop-color="#FE1BF6"/>
</linearGradient>
<linearGradient id="paint35_linear_147_835" x1="-26.0562" y1="338.517" x2="86.914" y2="53.2484" gradientUnits="userSpaceOnUse">
<stop stop-color="#9172CF"/>
<stop offset="1" stop-color="#FE1BF6"/>
</linearGradient>
<linearGradient id="paint36_linear_147_835" x1="-31.2904" y1="338.552" x2="86.4114" y2="55.8499" gradientUnits="userSpaceOnUse">
<stop stop-color="#9172CF"/>
<stop offset="1" stop-color="#FE1BF6"/>
</linearGradient>
<linearGradient id="paint37_linear_147_835" x1="-36.4978" y1="338.547" x2="85.8804" y2="58.4901" gradientUnits="userSpaceOnUse">
<stop stop-color="#9172CF"/>
<stop offset="1" stop-color="#FE1BF6"/>
</linearGradient>
<linearGradient id="paint38_linear_147_835" x1="-41.6781" y1="338.504" x2="85.3201" y2="61.1702" gradientUnits="userSpaceOnUse">
<stop stop-color="#9172CF"/>
<stop offset="1" stop-color="#FE1BF6"/>
</linearGradient>
<linearGradient id="paint39_linear_147_835" x1="-46.8298" y1="338.424" x2="84.7308" y2="63.8874" gradientUnits="userSpaceOnUse">
<stop stop-color="#9172CF"/>
<stop offset="1" stop-color="#FE1BF6"/>
</linearGradient>
<linearGradient id="paint40_linear_147_835" x1="-51.9529" y1="338.308" x2="84.111" y2="66.6442" gradientUnits="userSpaceOnUse">
<stop stop-color="#9172CF"/>
<stop offset="1" stop-color="#FE1BF6"/>
</linearGradient>
<linearGradient id="paint41_linear_147_835" x1="-57.0466" y1="338.155" x2="83.4607" y2="69.4378" gradientUnits="userSpaceOnUse">
<stop stop-color="#9172CF"/>
<stop offset="1" stop-color="#FE1BF6"/>
</linearGradient>
<linearGradient id="paint42_linear_147_835" x1="-62.1106" y1="337.967" x2="82.7788" y2="72.2677" gradientUnits="userSpaceOnUse">
<stop stop-color="#9172CF"/>
<stop offset="1" stop-color="#FE1BF6"/>
</linearGradient>
<linearGradient id="paint43_linear_147_835" x1="-67.1438" y1="337.744" x2="82.0651" y2="75.1341" gradientUnits="userSpaceOnUse">
<stop stop-color="#9172CF"/>
<stop offset="1" stop-color="#FE1BF6"/>
</linearGradient>
<linearGradient id="paint44_linear_147_835" x1="-72.1457" y1="337.488" x2="81.3191" y2="78.0363" gradientUnits="userSpaceOnUse">
<stop stop-color="#9172CF"/>
<stop offset="1" stop-color="#FE1BF6"/>
</linearGradient>
<linearGradient id="paint45_linear_147_835" x1="-77.1163" y1="337.197" x2="80.5398" y2="80.9726" gradientUnits="userSpaceOnUse">
<stop stop-color="#9172CF"/>
<stop offset="1" stop-color="#FE1BF6"/>
</linearGradient>
<linearGradient id="paint46_linear_147_835" x1="-82.0547" y1="336.872" x2="79.7269" y2="83.9425" gradientUnits="userSpaceOnUse">
<stop stop-color="#9172CF"/>
<stop offset="1" stop-color="#FE1BF6"/>
</linearGradient>
<linearGradient id="paint47_linear_147_835" x1="-86.9603" y1="336.516" x2="78.8798" y2="86.9462" gradientUnits="userSpaceOnUse">
<stop stop-color="#9172CF"/>
<stop offset="1" stop-color="#FE1BF6"/>
</linearGradient>
<linearGradient id="paint48_linear_147_835" x1="-91.833" y1="336.127" x2="77.9978" y2="89.982" gradientUnits="userSpaceOnUse">
<stop stop-color="#9172CF"/>
<stop offset="1" stop-color="#FE1BF6"/>
</linearGradient>
<linearGradient id="paint49_linear_147_835" x1="-96.6716" y1="335.708" x2="77.081" y2="93.0512" gradientUnits="userSpaceOnUse">
<stop stop-color="#9172CF"/>
<stop offset="1" stop-color="#FE1BF6"/>
</linearGradient>
<linearGradient id="paint50_linear_147_835" x1="-101.476" y1="335.259" x2="76.128" y2="96.1513" gradientUnits="userSpaceOnUse">
<stop stop-color="#9172CF"/>
<stop offset="1" stop-color="#FE1BF6"/>
</linearGradient>
<linearGradient id="paint51_linear_147_835" x1="-106.246" y1="334.779" x2="75.1392" y2="99.2816" gradientUnits="userSpaceOnUse">
<stop stop-color="#9172CF"/>
<stop offset="1" stop-color="#FE1BF6"/>
</linearGradient>
<linearGradient id="paint52_linear_147_835" x1="-110.981" y1="334.271" x2="74.1134" y2="102.442" gradientUnits="userSpaceOnUse">
<stop stop-color="#9172CF"/>
<stop offset="1" stop-color="#FE1BF6"/>
</linearGradient>
<linearGradient id="paint53_linear_147_835" x1="-115.681" y1="333.734" x2="73.0506" y2="105.632" gradientUnits="userSpaceOnUse">
<stop stop-color="#9172CF"/>
<stop offset="1" stop-color="#FE1BF6"/>
</linearGradient>
<linearGradient id="paint54_linear_147_835" x1="-120.344" y1="333.17" x2="71.9503" y2="108.85" gradientUnits="userSpaceOnUse">
<stop stop-color="#9172CF"/>
<stop offset="1" stop-color="#FE1BF6"/>
</linearGradient>
<linearGradient id="paint55_linear_147_835" x1="-124.971" y1="332.579" x2="70.8119" y2="112.096" gradientUnits="userSpaceOnUse">
<stop stop-color="#9172CF"/>
<stop offset="1" stop-color="#FE1BF6"/>
</linearGradient>
<linearGradient id="paint56_linear_147_835" x1="-129.561" y1="331.96" x2="69.6351" y2="115.368" gradientUnits="userSpaceOnUse">
<stop stop-color="#9172CF"/>
<stop offset="1" stop-color="#FE1BF6"/>
</linearGradient>
<linearGradient id="paint57_linear_147_835" x1="-134.113" y1="331.318" x2="68.4196" y2="118.668" gradientUnits="userSpaceOnUse">
<stop stop-color="#9172CF"/>
<stop offset="1" stop-color="#FE1BF6"/>
</linearGradient>
<linearGradient id="paint58_linear_147_835" x1="-138.629" y1="330.649" x2="67.1645" y2="121.993" gradientUnits="userSpaceOnUse">
<stop stop-color="#9172CF"/>
<stop offset="1" stop-color="#FE1BF6"/>
</linearGradient>
<linearGradient id="paint59_linear_147_835" x1="-143.106" y1="329.957" x2="65.8701" y2="125.342" gradientUnits="userSpaceOnUse">
<stop stop-color="#9172CF"/>
<stop offset="1" stop-color="#FE1BF6"/>
</linearGradient>
<linearGradient id="paint60_linear_147_835" x1="-147.545" y1="329.241" x2="64.536" y2="128.716" gradientUnits="userSpaceOnUse">
<stop stop-color="#9172CF"/>
<stop offset="1" stop-color="#FE1BF6"/>
</linearGradient>
<linearGradient id="paint61_linear_147_835" x1="-151.945" y1="328.503" x2="63.1611" y2="132.113" gradientUnits="userSpaceOnUse">
<stop stop-color="#9172CF"/>
<stop offset="1" stop-color="#FE1BF6"/>
</linearGradient>
<linearGradient id="paint62_linear_147_835" x1="-156.307" y1="327.744" x2="61.7459" y2="135.533" gradientUnits="userSpaceOnUse">
<stop stop-color="#9172CF"/>
<stop offset="1" stop-color="#FE1BF6"/>
</linearGradient>
<linearGradient id="paint63_linear_147_835" x1="-160.629" y1="326.962" x2="60.2896" y2="138.974" gradientUnits="userSpaceOnUse">
<stop stop-color="#9172CF"/>
<stop offset="1" stop-color="#FE1BF6"/>
</linearGradient>
<linearGradient id="paint64_linear_147_835" x1="-164.911" y1="326.161" x2="58.792" y2="142.436" gradientUnits="userSpaceOnUse">
<stop stop-color="#9172CF"/>
<stop offset="1" stop-color="#FE1BF6"/>
</linearGradient>
<linearGradient id="paint65_linear_147_835" x1="-169.154" y1="325.338" x2="57.2531" y2="145.917" gradientUnits="userSpaceOnUse">
<stop stop-color="#9172CF"/>
<stop offset="1" stop-color="#FE1BF6"/>
</linearGradient>
<linearGradient id="paint66_linear_147_835" x1="-173.357" y1="324.498" x2="55.6718" y2="149.419" gradientUnits="userSpaceOnUse">
<stop stop-color="#9172CF"/>
<stop offset="1" stop-color="#FE1BF6"/>
</linearGradient>
<linearGradient id="paint67_linear_147_835" x1="-177.519" y1="323.639" x2="54.0492" y2="152.939" gradientUnits="userSpaceOnUse">
<stop stop-color="#9172CF"/>
<stop offset="1" stop-color="#FE1BF6"/>
</linearGradient>
<linearGradient id="paint68_linear_147_835" x1="-181.64" y1="322.763" x2="52.3838" y2="156.476" gradientUnits="userSpaceOnUse">
<stop stop-color="#9172CF"/>
<stop offset="1" stop-color="#FE1BF6"/>
</linearGradient>
<linearGradient id="paint69_linear_147_835" x1="-185.721" y1="321.871" x2="50.6761" y2="160.032" gradientUnits="userSpaceOnUse">
<stop stop-color="#9172CF"/>
<stop offset="1" stop-color="#FE1BF6"/>
</linearGradient>
<linearGradient id="paint70_linear_147_835" x1="-189.761" y1="320.962" x2="48.9255" y2="163.602" gradientUnits="userSpaceOnUse">
<stop stop-color="#9172CF"/>
<stop offset="1" stop-color="#FE1BF6"/>
</linearGradient>
<linearGradient id="paint71_linear_147_835" x1="-193.759" y1="320.038" x2="47.1318" y2="167.189" gradientUnits="userSpaceOnUse">
<stop stop-color="#9172CF"/>
<stop offset="1" stop-color="#FE1BF6"/>
</linearGradient>
<linearGradient id="paint72_linear_147_835" x1="-197.716" y1="319.1" x2="45.2956" y2="170.79" gradientUnits="userSpaceOnUse">
<stop stop-color="#9172CF"/>
<stop offset="1" stop-color="#FE1BF6"/>
</linearGradient>
<linearGradient id="paint73_linear_147_835" x1="-201.632" y1="318.149" x2="43.4155" y2="174.405" gradientUnits="userSpaceOnUse">
<stop stop-color="#9172CF"/>
<stop offset="1" stop-color="#FE1BF6"/>
</linearGradient>
<linearGradient id="paint74_linear_147_835" x1="-205.505" y1="317.184" x2="41.4921" y2="178.032" gradientUnits="userSpaceOnUse">
<stop stop-color="#9172CF"/>
<stop offset="1" stop-color="#FE1BF6"/>
</linearGradient>
<linearGradient id="paint75_linear_147_835" x1="-209.337" y1="316.208" x2="39.5252" y2="181.672" gradientUnits="userSpaceOnUse">
<stop stop-color="#9172CF"/>
<stop offset="1" stop-color="#FE1BF6"/>
</linearGradient>
<linearGradient id="paint76_linear_147_835" x1="-213.127" y1="315.221" x2="37.5146" y2="185.324" gradientUnits="userSpaceOnUse">
<stop stop-color="#9172CF"/>
<stop offset="1" stop-color="#FE1BF6"/>
</linearGradient>
<linearGradient id="paint77_linear_147_835" x1="-216.874" y1="314.223" x2="35.4603" y2="188.987" gradientUnits="userSpaceOnUse">
<stop stop-color="#9172CF"/>
<stop offset="1" stop-color="#FE1BF6"/>
</linearGradient>
<linearGradient id="paint78_linear_147_835" x1="-220.58" y1="313.215" x2="33.3617" y2="192.658" gradientUnits="userSpaceOnUse">
<stop stop-color="#9172CF"/>
<stop offset="1" stop-color="#FE1BF6"/>
</linearGradient>
<linearGradient id="paint79_linear_147_835" x1="-224.243" y1="312.199" x2="31.2193" y2="196.339" gradientUnits="userSpaceOnUse">
<stop stop-color="#9172CF"/>
<stop offset="1" stop-color="#FE1BF6"/>
</linearGradient>
<linearGradient id="paint80_linear_147_835" x1="-227.863" y1="311.173" x2="29.0327" y2="200.027" gradientUnits="userSpaceOnUse">
<stop stop-color="#9172CF"/>
<stop offset="1" stop-color="#FE1BF6"/>
</linearGradient>
<linearGradient id="paint81_linear_147_835" x1="-231.442" y1="310.141" x2="26.8021" y2="203.723" gradientUnits="userSpaceOnUse">
<stop stop-color="#9172CF"/>
<stop offset="1" stop-color="#FE1BF6"/>
</linearGradient>
<linearGradient id="paint82_linear_147_835" x1="-234.978" y1="309.102" x2="24.5273" y2="207.425" gradientUnits="userSpaceOnUse">
<stop stop-color="#9172CF"/>
<stop offset="1" stop-color="#FE1BF6"/>
</linearGradient>
<linearGradient id="paint83_linear_147_835" x1="-238.471" y1="308.058" x2="22.2085" y2="211.134" gradientUnits="userSpaceOnUse">
<stop stop-color="#9172CF"/>
<stop offset="1" stop-color="#FE1BF6"/>
</linearGradient>
<linearGradient id="paint84_linear_147_835" x1="-241.922" y1="307.008" x2="19.8453" y2="214.847" gradientUnits="userSpaceOnUse">
<stop stop-color="#9172CF"/>
<stop offset="1" stop-color="#FE1BF6"/>
</linearGradient>
<linearGradient id="paint85_linear_147_835" x1="-245.33" y1="305.954" x2="17.4379" y2="218.564" gradientUnits="userSpaceOnUse">
<stop stop-color="#9172CF"/>
<stop offset="1" stop-color="#FE1BF6"/>
</linearGradient>
<linearGradient id="paint86_linear_147_835" x1="-248.696" y1="304.897" x2="14.9866" y2="222.285" gradientUnits="userSpaceOnUse">
<stop stop-color="#9172CF"/>
<stop offset="1" stop-color="#FE1BF6"/>
</linearGradient>
<linearGradient id="paint87_linear_147_835" x1="-252.019" y1="303.837" x2="12.491" y2="226.008" gradientUnits="userSpaceOnUse">
<stop stop-color="#9172CF"/>
<stop offset="1" stop-color="#FE1BF6"/>
</linearGradient>
<linearGradient id="paint88_linear_147_835" x1="-255.3" y1="302.774" x2="9.95146" y2="229.733" gradientUnits="userSpaceOnUse">
<stop stop-color="#9172CF"/>
<stop offset="1" stop-color="#FE1BF6"/>
</linearGradient>
<linearGradient id="paint89_linear_147_835" x1="-258.539" y1="301.712" x2="7.36799" y2="233.46" gradientUnits="userSpaceOnUse">
<stop stop-color="#9172CF"/>
<stop offset="1" stop-color="#FE1BF6"/>
</linearGradient>
<linearGradient id="paint90_linear_147_835" x1="-261.735" y1="300.648" x2="4.74048" y2="237.185" gradientUnits="userSpaceOnUse">
<stop stop-color="#9172CF"/>
<stop offset="1" stop-color="#FE1BF6"/>
</linearGradient>
<linearGradient id="paint91_linear_147_835" x1="-264.889" y1="299.584" x2="2.06908" y2="240.91" gradientUnits="userSpaceOnUse">
<stop stop-color="#9172CF"/>
<stop offset="1" stop-color="#FE1BF6"/>
</linearGradient>
<linearGradient id="paint92_linear_147_835" x1="-268.001" y1="298.522" x2="-0.646106" y2="244.634" gradientUnits="userSpaceOnUse">
<stop stop-color="#9172CF"/>
<stop offset="1" stop-color="#FE1BF6"/>
</linearGradient>
<linearGradient id="paint93_linear_147_835" x1="-271.071" y1="297.463" x2="-3.40459" y2="248.357" gradientUnits="userSpaceOnUse">
<stop stop-color="#9172CF"/>
<stop offset="1" stop-color="#FE1BF6"/>
</linearGradient>
<linearGradient id="paint94_linear_147_835" x1="-274.1" y1="296.404" x2="-6.20663" y2="252.075" gradientUnits="userSpaceOnUse">
<stop stop-color="#9172CF"/>
<stop offset="1" stop-color="#FE1BF6"/>
</linearGradient>
<linearGradient id="paint95_linear_147_835" x1="-277.086" y1="295.35" x2="-9.05186" y2="255.791" gradientUnits="userSpaceOnUse">
<stop stop-color="#9172CF"/>
<stop offset="1" stop-color="#FE1BF6"/>
</linearGradient>
<linearGradient id="paint96_linear_147_835" x1="-280.031" y1="294.299" x2="-11.9404" y2="259.5" gradientUnits="userSpaceOnUse">
<stop stop-color="#9172CF"/>
<stop offset="1" stop-color="#FE1BF6"/>
</linearGradient>
<linearGradient id="paint97_linear_147_835" x1="-282.935" y1="293.254" x2="-14.872" y2="263.206" gradientUnits="userSpaceOnUse">
<stop stop-color="#9172CF"/>
<stop offset="1" stop-color="#FE1BF6"/>
</linearGradient>
<linearGradient id="paint98_linear_147_835" x1="-285.797" y1="292.214" x2="-17.8461" y2="266.905" gradientUnits="userSpaceOnUse">
<stop stop-color="#9172CF"/>
<stop offset="1" stop-color="#FE1BF6"/>
</linearGradient>
</defs>
</svg>
