<svg width="133" height="33" viewBox="0 0 133 33" fill="none" xmlns="http://www.w3.org/2000/svg">
<g id="Group">
<path id="Vector" d="M0.932495 32.4299V1.28809H8.05752C11.8376 1.28809 14.6425 2.03148 16.4762 3.51829C18.3099 5.00509 19.2268 7.27757 19.2268 10.3322C19.2268 13.3869 18.341 15.5114 16.5695 17.125C14.7979 18.7386 12.3115 19.5455 9.11422 19.5455C8.7063 19.5455 8.3955 19.5455 8.18571 19.5349C7.97204 19.5278 7.77391 19.5173 7.58744 19.5032L7.56413 32.4299H0.932495ZM7.56413 14.7891C7.64183 14.7891 7.76615 14.7962 7.92931 14.8102C8.09248 14.8243 8.2168 14.8314 8.2945 14.8314C9.75136 14.8314 10.8625 14.4509 11.6239 13.6898C12.3854 12.9288 12.7661 11.8366 12.7661 10.4168C12.7661 8.99691 12.4048 7.84834 11.6822 7.14369C10.9596 6.43905 9.83295 6.08672 8.2945 6.08672C8.2168 6.08672 8.09637 6.09377 7.92931 6.10786C7.76615 6.12195 7.64183 6.129 7.56413 6.129V14.7891Z" fill="white"/>
<path id="Vector_2" d="M18.7254 32.4299L26.7207 1.28809H33.8923L41.5107 32.4299H34.6654L33.5116 26.9689H26.6196L25.563 32.4299H18.7177H18.7254ZM27.8745 22.128H32.4393C31.9692 19.9506 31.5458 17.6746 31.1689 15.2929C30.7921 12.9112 30.4619 10.3991 30.1822 7.7532C29.8364 10.0856 29.4712 12.4497 29.0866 14.8455C28.702 17.2413 28.2979 19.6688 27.8745 22.128Z" fill="white"/>
<path id="Vector_3" d="M44.4905 32.4299V1.28809H51.2659V26.3488H59.0746V32.4264H44.4944L44.4905 32.4299Z" fill="white"/>
<path id="Vector_4" d="M60.5665 32.4299L63.9309 1.28809H72.7498L74.5369 13.1684C74.8049 14.9758 75.0264 16.7057 75.2089 18.3617C75.3877 20.0176 75.5353 21.6277 75.6441 23.192C75.9277 20.4474 76.1646 18.2841 76.3628 16.6987C76.557 15.1132 76.7202 13.9365 76.8445 13.1684L79.0551 1.28809H87.7807L90.675 32.4299H83.7364L83.0061 17.9671C82.9905 17.6253 82.9672 17.1144 82.9361 16.4309C82.7341 12.647 82.6292 9.55006 82.6292 7.1296L78.1615 32.4264H73.2004L68.9891 6.96048C68.9891 9.07794 68.8493 12.1079 68.5657 16.0469C68.5035 16.9418 68.4569 17.6112 68.4258 18.0516L67.3691 32.4264H60.5704L60.5665 32.4299Z" fill="white"/>
<path id="Vector_5" d="M91.9765 32.4299L99.9718 1.28809H107.143L114.762 32.4299H107.917L106.763 26.9689H99.8707L98.814 32.4299H91.9688H91.9765ZM101.126 22.128H105.69C105.22 19.9506 104.797 17.6746 104.42 15.2929C104.043 12.9112 103.713 10.3991 103.433 7.7532C103.088 10.0856 102.722 12.4497 102.338 14.8455C101.953 17.2413 101.549 19.6688 101.126 22.128Z" fill="white"/>
<path id="Vector_6" d="M116.681 31.3448V24.8832C117.543 25.5667 118.39 26.0776 119.222 26.4193C120.053 26.7611 120.892 26.9302 121.739 26.9302C122.901 26.9302 123.814 26.6519 124.478 26.0987C125.142 25.5456 125.476 24.7916 125.476 23.8368C125.476 22.6565 124.575 21.3776 122.772 19.9965C122.271 19.6124 121.894 19.313 121.642 19.1016C119.54 17.3963 118.099 15.8637 117.314 14.5038C116.529 13.1473 116.137 11.6077 116.137 9.88481C116.137 7.19658 116.972 5.02628 118.643 3.37036C120.313 1.71444 122.497 0.886475 125.193 0.886475C126.149 0.886475 127.093 1.00979 128.025 1.25994C128.957 1.51009 129.94 1.89765 130.978 2.42261V7.92589C129.769 7.40093 128.833 7.03804 128.169 6.83721C127.5 6.63991 126.91 6.53774 126.393 6.53774C125.406 6.53774 124.598 6.81959 123.969 7.37979C123.344 7.9435 123.029 8.67634 123.029 9.58886C123.029 10.3851 123.262 11.1285 123.736 11.8191C124.206 12.5096 125.305 13.5278 127.03 14.8807C129.334 16.6741 130.818 18.1609 131.475 19.3482C132.135 20.5355 132.462 21.9695 132.462 23.6465C132.462 26.4757 131.58 28.7129 129.816 30.3548C128.052 31.9966 125.647 32.8175 122.605 32.8175C121.444 32.8175 120.375 32.6977 119.396 32.4546C118.417 32.2115 117.512 31.8451 116.681 31.3448Z" fill="white"/>
</g>
</svg>
