<svg width="154" height="43" viewBox="0 0 154 43" fill="none" xmlns="http://www.w3.org/2000/svg">
<path d="M2.6376 9.92488C3.27222 10.5748 3.89821 11.0642 4.51556 11.3852C5.13291 11.7102 5.74164 11.8707 6.35467 11.8707C6.92454 11.8707 7.39079 11.7337 7.75775 11.4557C8.12471 11.1777 8.30602 10.8293 8.30602 10.4025C8.30602 9.9288 8.15061 9.56861 7.83114 9.31412C7.51599 9.05964 6.79502 8.79732 5.68119 8.52326C4.15292 8.15132 3.06932 7.66193 2.43469 7.06292C1.80007 6.45998 1.48492 5.6378 1.48492 4.59638C1.48492 3.24174 1.98571 2.13375 2.98729 1.28025C3.98455 0.422835 5.28402 0 6.87273 0C7.73616 0 8.5521 0.105709 9.32487 0.313211C10.0976 0.524629 10.8272 0.841755 11.518 1.26851L10.184 4.04826C9.70047 3.67632 9.20399 3.39051 8.69457 3.19867C8.18515 3.01074 7.68004 2.91287 7.18788 2.91287C6.69572 2.91287 6.25969 3.0264 5.94022 3.24565C5.62075 3.46882 5.46102 3.75462 5.46102 4.10307C5.46102 4.45152 5.60348 4.74515 5.8841 4.95657C6.16471 5.1719 6.70868 5.37157 7.50735 5.56733L7.70162 5.61823C9.43712 6.04106 10.5812 6.51088 11.1251 7.01985C11.4964 7.3683 11.777 7.78722 11.9713 8.27661C12.1656 8.76209 12.2605 9.30238 12.2605 9.89356C12.2605 11.397 11.7166 12.6068 10.6287 13.519C9.54073 14.4351 8.09017 14.8893 6.27696 14.8893C5.18904 14.8893 4.19609 14.7209 3.30244 14.3881C2.40879 14.0514 1.54967 13.5268 0.725098 12.8103L2.64623 9.93663L2.6376 9.92488ZM14.7515 14.5017V0.332787H19.0514V14.5017H14.7515ZM23.1786 9.92488C23.8132 10.5748 24.4392 11.0642 25.0566 11.3852C25.6739 11.7102 26.2827 11.8707 26.8957 11.8707C27.4656 11.8707 27.9318 11.7337 28.2988 11.4557C28.6657 11.1777 28.847 10.8293 28.847 10.4025C28.847 9.9288 28.6916 9.56861 28.3722 9.31412C28.057 9.05964 27.336 8.79732 26.2222 8.52326C24.6939 8.15132 23.6103 7.66193 22.9757 7.06292C22.3411 6.45998 22.0259 5.6378 22.0259 4.59638C22.0259 3.24174 22.5267 2.13375 23.5283 1.28025C24.5256 0.422835 25.825 0 27.4138 0C28.2772 0 29.0931 0.105709 29.8659 0.313211C30.6387 0.524629 31.3683 0.841755 32.059 1.26851L30.725 4.04826C30.2415 3.67632 29.745 3.39051 29.2356 3.19867C28.7262 3.01074 28.2211 2.91287 27.7289 2.91287C27.2368 2.91287 26.8007 3.0264 26.4812 3.24565C26.1618 3.46882 26.002 3.75462 26.002 4.10307C26.002 4.45152 26.1445 4.74515 26.4251 4.95657C26.7057 5.1719 27.2497 5.37157 28.0484 5.56733L28.2426 5.61823C29.9781 6.04106 31.1222 6.51088 31.6662 7.01985C32.0374 7.3683 32.318 7.78722 32.5123 8.27661C32.7066 8.76209 32.8016 9.30238 32.8016 9.89356C32.8016 11.397 32.2576 12.6068 31.1697 13.519C30.0818 14.4351 28.6312 14.8893 26.818 14.8893C25.7301 14.8893 24.7371 14.7209 23.8435 14.3881C22.9498 14.0514 22.0907 13.5268 21.2661 12.8103L23.1873 9.93663L23.1786 9.92488ZM37.4382 14.5017V3.68415H33.937V0.332787H45.1961V3.68415H41.6949V14.5017H37.4382ZM47.277 14.5017V0.332787H56.8481V3.43749H51.4301V5.8962H56.5416V8.93435H51.4301V11.3265H56.8481V14.5017H47.277ZM77.5834 14.5017H73.603L72.6834 8.3784C72.623 7.94382 72.5626 7.46226 72.5108 6.93372C72.4546 6.40517 72.4072 5.82573 72.364 5.20322C72.2647 5.80224 72.0704 6.55003 71.7768 7.4466C71.7164 7.63453 71.6689 7.77547 71.6387 7.8616L69.5147 14.5017H66.6783L64.5542 7.8616C64.524 7.77156 64.4809 7.63453 64.4247 7.4466C64.1268 6.55003 63.9283 5.80615 63.8376 5.21497C63.7944 5.75134 63.7426 6.27989 63.6865 6.80452C63.6261 7.33306 63.557 7.85377 63.4836 8.3784L62.564 14.5017H58.6052L61.0185 0.332787H65.232L67.5935 7.63844C67.6065 7.68934 67.6367 7.77547 67.6755 7.88901C67.8957 8.53892 68.0382 9.09879 68.0943 9.56469C68.1202 9.31412 68.1763 9.03223 68.2497 8.72685C68.3317 8.42147 68.4354 8.05345 68.5692 7.61887L70.9523 0.332787H75.1788L77.5791 14.5017H77.5834ZM84.0073 9.2045H88.2425L86.6495 4.52982C86.602 4.38887 86.5329 4.1618 86.4509 3.84467C86.3645 3.53146 86.2523 3.12428 86.1184 2.62706C86.0278 2.97551 85.9371 3.3083 85.8465 3.62542C85.7601 3.94255 85.6694 4.24401 85.5788 4.53373L84.0073 9.20841V9.2045ZM78.041 14.5017L83.4332 0.332787H88.7692L94.1656 14.5017H89.9305L89.1404 11.9647H83.0878L82.2762 14.5017H78.041ZM96.3544 9.92488C96.989 10.5748 97.615 11.0642 98.2324 11.3852C98.8497 11.7102 99.4585 11.8707 100.071 11.8707C100.641 11.8707 101.108 11.7337 101.475 11.4557C101.842 11.1777 102.023 10.8293 102.023 10.4025C102.023 9.9288 101.867 9.56861 101.548 9.31412C101.233 9.05964 100.512 8.79732 99.398 8.52326C97.8697 8.15132 96.7861 7.66193 96.1515 7.06292C95.5169 6.45998 95.2017 5.6378 95.2017 4.59638C95.2017 3.24174 95.7025 2.13375 96.7041 1.28025C97.7014 0.422835 99.0008 0 100.59 0C101.453 0 102.269 0.105709 103.042 0.313211C103.814 0.524629 104.544 0.841755 105.235 1.26851L103.901 4.04826C103.417 3.67632 102.921 3.39051 102.411 3.19867C101.902 3.01074 101.397 2.91287 100.905 2.91287C100.413 2.91287 99.9765 3.0264 99.657 3.24565C99.3376 3.46882 99.1778 3.75462 99.1778 4.10307C99.1778 4.45152 99.3203 4.74515 99.6009 4.95657C99.8815 5.1719 100.425 5.37157 101.224 5.56733L101.418 5.61823C103.154 6.04106 104.298 6.51088 104.842 7.01985C105.213 7.3683 105.494 7.78722 105.688 8.27661C105.882 8.76209 105.977 9.30238 105.977 9.89356C105.977 11.397 105.433 12.6068 104.345 13.519C103.258 14.4351 101.807 14.8893 99.9938 14.8893C98.9059 14.8893 97.9129 14.7209 97.0192 14.3881C96.1256 14.0514 95.2665 13.5268 94.4419 12.8103L96.3631 9.93663L96.3544 9.92488ZM115.203 14.5017V0.332787H118.454C120.88 0.332787 122.598 0.434581 123.604 0.642083C124.61 0.84567 125.495 1.19412 126.255 1.67568C127.244 2.3021 127.991 3.10471 128.504 4.07958C129.018 5.05836 129.273 6.17418 129.273 7.42311C129.273 8.67204 129.018 9.79177 128.504 10.7706C127.991 11.7493 127.239 12.548 126.255 13.1745C125.5 13.6521 124.64 13.9888 123.673 14.1963C122.706 14.396 121.204 14.5017 119.171 14.5017H115.199H115.203ZM119.417 11.3265H120.129C121.8 11.3265 123.026 11.0172 123.794 10.3908C124.563 9.76828 124.947 8.78166 124.947 7.42311C124.947 6.06456 124.563 5.07402 123.794 4.44369C123.026 3.81335 121.8 3.49622 120.129 3.49622H119.417V11.3265ZM131.949 14.5017V0.332787H141.52V3.43749H136.102V5.8962H141.214V8.93435H136.102V11.3265H141.52V14.5017H131.949ZM1.2043 38.3057V24.1369H5.50419V38.3057H1.2043ZM8.94064 38.3057V24.1369H13.0506L18.9521 31.4229C19.0644 31.5717 19.25 31.8693 19.5134 32.3195C19.7724 32.7697 20.0573 33.3022 20.3682 33.9208C20.2861 33.3335 20.2214 32.8128 20.1825 32.3508C20.1437 31.8967 20.1221 31.4895 20.1221 31.1332V24.1369H24.2104V38.3057H20.1221L14.2205 30.9883C14.0996 30.8396 13.9097 30.542 13.6507 30.0918C13.3916 29.6415 13.111 29.1169 12.8045 28.5101C12.8865 29.1052 12.9513 29.6298 12.9901 30.0879C13.029 30.542 13.0506 30.9492 13.0506 31.3055V38.3018H8.94064V38.3057ZM27.5605 38.3057V24.1369H37.1317V27.2416H31.7136V29.7003H36.8252V32.7384H31.7136V38.3057H27.5605ZM55.4882 31.2507C55.4882 32.2725 55.281 33.2278 54.8709 34.1165C54.4607 35.0092 53.8563 35.804 53.0663 36.5087C52.2676 37.2056 51.3567 37.742 50.3335 38.1217C49.3104 38.4976 48.2483 38.6855 47.1432 38.6855C46.038 38.6855 44.9587 38.4976 43.9355 38.1217C42.9123 37.742 42.0144 37.2056 41.2416 36.5087C40.4386 35.804 39.8299 35.0053 39.4111 34.1087C38.9967 33.2122 38.7895 32.2608 38.7895 31.2546C38.7895 30.2484 38.9967 29.2892 39.4111 28.3926C39.8299 27.5 40.4386 26.7013 41.2416 25.9965C42.0187 25.2996 42.9123 24.7633 43.9355 24.3835C44.9544 24.0076 46.0207 23.8197 47.1432 23.8197C48.2656 23.8197 49.3233 24.0076 50.3465 24.3835C51.3783 24.7633 52.2806 25.2996 53.062 25.9965C53.8434 26.6934 54.4435 27.4882 54.8622 28.3887C55.2767 29.2853 55.4839 30.2366 55.4839 31.2546L55.4882 31.2507ZM47.1432 35.4125C48.3217 35.4125 49.2974 35.0209 50.0702 34.234C50.843 33.4431 51.2272 32.4487 51.2272 31.2507C51.2272 30.0526 50.8386 29.0738 50.0529 28.2791C49.2715 27.4882 48.2958 27.0889 47.1388 27.0889C45.9818 27.0889 44.9803 27.4843 44.2118 28.2752C43.439 29.066 43.0548 30.0605 43.0548 31.2507C43.0548 32.4409 43.4347 33.4588 44.1945 34.2418C44.9544 35.0249 45.9387 35.4164 47.1432 35.4164V35.4125ZM58.1605 38.3057V24.1369H62.6115C64.3513 24.1369 65.5688 24.2112 66.2552 24.3561C66.9416 24.501 67.5331 24.7476 68.0339 25.0843C68.5951 25.4719 69.0268 25.9652 69.329 26.5642C69.6312 27.1672 69.7823 27.8249 69.7823 28.5492C69.7823 29.6455 69.4888 30.5381 68.893 31.2233C68.2972 31.9084 67.4338 32.3665 66.2941 32.5896L70.5508 38.3018H65.7371L62.1539 32.7541V38.3018H58.1605V38.3057ZM62.1539 30.8317H62.9439C63.8635 30.8317 64.5327 30.6908 64.9557 30.405C65.3788 30.1192 65.5904 29.6768 65.5904 29.0699C65.5904 28.3613 65.3918 27.8523 64.9946 27.5548C64.6017 27.2533 63.9369 27.1045 63.0044 27.1045H62.1539V30.8317ZM90.0945 38.3057H86.1141L85.1946 32.1825C85.1341 31.7479 85.0737 31.2663 85.0219 30.7378C84.9658 30.2092 84.9183 29.6298 84.8751 29.0073C84.7758 29.6063 84.5815 30.3541 84.288 31.2507C84.2275 31.4386 84.18 31.5795 84.1498 31.6657L82.0258 38.3057H79.1894L77.0654 31.6657C77.0351 31.5756 76.992 31.4386 76.9359 31.2507C76.638 30.3541 76.4394 29.6102 76.3487 29.019C76.3055 29.5554 76.2537 30.084 76.1976 30.6086C76.1372 31.1371 76.0681 31.6578 75.9947 32.1825L75.0752 38.3057H71.1163L73.5296 24.1369H77.7432L80.1046 31.4425C80.1176 31.4934 80.1478 31.5795 80.1867 31.6931C80.4068 32.343 80.5493 32.9029 80.6054 33.3688C80.6313 33.1182 80.6875 32.8363 80.7608 32.5309C80.8429 32.2255 80.9465 31.8575 81.0803 31.4229L83.4634 24.1369H87.6899L90.0902 38.3057H90.0945ZM96.5185 33.0086H100.754L99.1606 28.3339C99.1131 28.1929 99.044 27.9659 98.962 27.6487C98.8756 27.3355 98.7634 26.9283 98.6296 26.4311C98.5389 26.7796 98.4482 27.1124 98.3576 27.4295C98.2712 27.7466 98.1806 28.0481 98.0899 28.3378L96.5185 33.0125V33.0086ZM90.5521 38.3057L95.9443 24.1369H101.28L106.677 38.3057H102.442L101.652 35.7687H95.5989L94.7873 38.3057H90.5521ZM119.494 24.685V28.9055C118.912 28.3182 118.329 27.8876 117.75 27.6135C117.172 27.3394 116.55 27.2024 115.89 27.2024C114.668 27.2024 113.675 27.5822 112.919 28.3378C112.16 29.0973 111.784 30.084 111.784 31.3055C111.784 32.4409 112.168 33.3844 112.941 34.1322C113.714 34.8839 114.698 35.2559 115.89 35.2559C116.55 35.2559 117.172 35.1188 117.75 34.8448C118.329 34.5707 118.912 34.1361 119.494 33.5449V37.7772C118.817 38.0708 118.147 38.2979 117.478 38.4428C116.813 38.5916 116.136 38.6659 115.454 38.6659C114.599 38.6659 113.809 38.572 113.088 38.388C112.367 38.2079 111.698 37.926 111.093 37.554C109.928 36.8454 109.038 35.9527 108.425 34.8761C107.812 33.7955 107.506 32.5818 107.506 31.235C107.506 30.1505 107.7 29.1678 108.088 28.2791C108.473 27.3903 109.06 26.5877 109.846 25.8634C110.584 25.1744 111.421 24.6576 112.349 24.313C113.273 23.9724 114.309 23.8001 115.449 23.8001C116.131 23.8001 116.809 23.8745 117.474 24.0233C118.143 24.1721 118.817 24.3953 119.49 24.6889L119.494 24.685ZM112.41 42.5615V41.2186C112.98 41.3596 113.511 41.4692 114.007 41.5436C114.504 41.618 114.931 41.6571 115.302 41.6571C115.609 41.6571 115.838 41.6023 115.989 41.4888C116.14 41.3713 116.218 41.199 116.218 40.9602C116.218 40.7527 116.114 40.6 115.911 40.4982C115.713 40.4003 115.384 40.3495 114.944 40.3495C114.793 40.3495 114.676 40.3495 114.59 40.3495C114.508 40.3495 114.43 40.3612 114.357 40.3651V38.3057H115.574V39.1201H115.777C116.567 39.1201 117.172 39.2806 117.59 39.5977C118.009 39.9188 118.221 40.3769 118.221 40.9798C118.221 41.6258 117.988 42.123 117.517 42.4715C117.047 42.8238 116.377 43 115.51 43C115.078 43 114.599 42.9648 114.076 42.8943C113.554 42.8199 112.997 42.7142 112.401 42.5654L112.41 42.5615ZM126.031 33.0086H130.266L128.673 28.3339C128.625 28.1929 128.556 27.9659 128.474 27.6487C128.388 27.3355 128.275 26.9283 128.142 26.4311C128.051 26.7796 127.96 27.1124 127.87 27.4295C127.783 27.7466 127.693 28.0481 127.602 28.3378L126.031 33.0125V33.0086ZM120.064 38.3057L125.456 24.1369H130.792L136.189 38.3057H131.954L131.164 35.7687H125.111L124.299 38.3057H120.064ZM131.664 19.5209C131.449 20.3548 131.155 20.9656 130.779 21.3493C130.399 21.7369 129.92 21.9326 129.329 21.9326C129.165 21.9326 129.014 21.9248 128.884 21.9091C128.755 21.8935 128.625 21.8661 128.504 21.8347L127.533 21.5803L127.503 21.5685C127.131 21.4785 126.903 21.4315 126.808 21.4315C126.574 21.4315 126.38 21.4941 126.229 21.6194C126.078 21.7486 125.949 21.9483 125.849 22.2263H124.58C124.779 21.4002 125.063 20.7894 125.439 20.3979C125.81 20.0064 126.29 19.8067 126.872 19.8067C126.985 19.8067 127.118 19.8184 127.278 19.8459C127.434 19.8733 127.619 19.9124 127.831 19.9711L128.845 20.2256C128.927 20.2569 129.022 20.2765 129.122 20.2922C129.221 20.3039 129.329 20.3118 129.454 20.3118C129.679 20.3118 129.873 20.2413 130.033 20.1082C130.192 19.9711 130.313 19.7754 130.391 19.517H131.66L131.664 19.5209ZM153.725 31.2507C153.725 32.2725 153.518 33.2278 153.108 34.1165C152.698 35.0092 152.093 35.804 151.303 36.5087C150.504 37.2056 149.594 37.742 148.57 38.1217C147.547 38.4976 146.485 38.6855 145.38 38.6855C144.275 38.6855 143.196 38.4976 142.172 38.1217C141.149 37.742 140.251 37.2056 139.478 36.5087C138.675 35.804 138.067 35.0053 137.648 34.1087C137.234 33.2122 137.026 32.2608 137.026 31.2546C137.026 30.2484 137.234 29.2892 137.648 28.3926C138.067 27.5 138.675 26.7013 139.478 25.9965C140.256 25.2996 141.149 24.7633 142.172 24.3835C143.191 24.0076 144.258 23.8197 145.38 23.8197C146.502 23.8197 147.56 24.0076 148.583 24.3835C149.615 24.7633 150.517 25.2996 151.299 25.9965C152.08 26.6934 152.68 27.4882 153.099 28.3887C153.514 29.2853 153.721 30.2366 153.721 31.2546L153.725 31.2507ZM145.38 35.4125C146.559 35.4125 147.534 35.0209 148.307 34.234C149.08 33.4431 149.464 32.4487 149.464 31.2507C149.464 30.0526 149.076 29.0738 148.29 28.2791C147.508 27.4882 146.533 27.0889 145.376 27.0889C144.219 27.0889 143.217 27.4843 142.449 28.2752C141.676 29.066 141.292 30.0605 141.292 31.2507C141.292 32.4409 141.672 33.4588 142.431 34.2418C143.191 35.0249 144.176 35.4164 145.38 35.4164V35.4125Z" fill="white"/>
</svg>
