<svg width="241" height="60" viewBox="0 0 241 60" fill="none" xmlns="http://www.w3.org/2000/svg">
<g id="Group">
<path id="Vector" d="M44.1567 0.542114V38.6916C44.1567 45.7346 42.4512 59.8944 22.3116 59.8944C2.17192 59.8944 0.466431 45.7346 0.466431 38.6916V0.542114H17.8711V37.2225C17.8711 38.7692 17.7856 40.7809 18.2984 42.3311C18.8112 43.9553 19.9184 45.1955 22.3077 45.1955C24.6969 45.1955 25.8896 43.9589 26.317 42.4087C26.8298 40.7844 26.7443 38.7727 26.7443 37.3V0.542114H44.1489H44.1567Z" fill="white"/>
<path id="Vector_2" d="M53.9702 58.8903V0.542114H71.3748V45.1145H84.4283V58.8868H53.9663L53.9702 58.8903Z" fill="white"/>
<path id="Vector_3" d="M91.5106 0.542114H111.988C122.229 0.542114 134.171 4.56564 134.171 17.1788C134.171 23.7567 129.478 28.8618 122.14 28.8618V29.0169C130.671 29.6369 135.193 34.4321 135.193 42.2501C135.193 49.4481 130.415 58.8868 114.886 58.8868H91.5067V0.542114H91.5106ZM109.941 23.2141C113.527 23.2141 116.852 21.8999 116.852 18.1054C116.852 14.6245 114.207 13.1518 110.625 13.1518H108.919V23.2106H109.945L109.941 23.2141ZM110.368 46.2736C114.207 46.2736 117.621 44.5719 117.621 40.6259C117.621 36.6799 114.292 35.0557 110.283 35.0557H108.919V46.2772H110.368V46.2736Z" fill="white"/>
<path id="Vector_4" d="M170.519 58.8903L160.877 34.5941L160.706 34.7492C160.791 37.6135 160.962 40.4744 160.962 43.3388V58.8938H143.557V0.542114H160.368C175.472 0.542114 186.393 4.56564 186.393 19.9657C186.393 26.3885 183.32 32.1138 176.409 34.5906L189.377 58.8868H170.519V58.8903ZM162.073 27.5512C166.681 27.5512 169.155 23.9152 169.155 20.1242C169.155 15.0155 165.744 12.8488 160.966 13.0813V27.4737L162.077 27.5512H162.073Z" fill="white"/>
<path id="Vector_5" d="M222.993 58.8905L221.715 51.386H210.025L208.576 58.8905H190.659L206.101 0.545776H227.348L241 58.8905H222.997H222.993ZM219.664 39.0018L217.787 25.4585C217.274 21.8226 216.933 18.1056 216.509 14.4696H216.338C215.825 18.1056 215.398 21.8226 214.718 25.4585L212.329 39.0018H219.668H219.664Z" fill="white"/>
</g>
</svg>
